<svg width="143" height="51" viewBox="0 0 143 51" fill="none" xmlns="http://www.w3.org/2000/svg">
<path d="M0.947484 49.5967L0.360067 49.121L0.124353 33.8258C-0.0607812 21.8126 -0.043472 18.1231 0.205065 16.6312C1.53461 8.64946 7.89738 2.06393 15.8708 0.416978C22.7272 -0.999253 29.5129 1.2295 34.4919 6.53304C37.9726 10.2405 39.7125 14.7336 39.7125 20.0139C39.7125 26.0608 37.2143 31.4849 32.7892 35.0457C31.9625 35.7109 31.0818 36.5989 31.0818 36.5989C31.0818 36.5989 33.262 39.1975 35.8791 42.2084C38.4963 45.2193 40.773 47.9375 40.9385 48.2487C41.2797 48.8904 40.9981 49.6598 40.3278 49.917C39.9732 50.0531 38.1191 50.0111 36.1549 49.9882C33.813 49.9608 31.3146 49.9243 31.0145 49.7491C30.7267 49.581 28.5761 47.2995 26.2353 44.6791L21.9793 39.9146L19.7155 39.8649C16.1179 39.786 12.5419 38.7069 9.87689 36.896C9.34426 36.5341 8.70689 36.238 8.70689 36.238C8.70689 36.238 8.53739 39.189 8.57662 42.7957C8.6445 49.0406 8.62463 49.3707 8.15968 49.713C7.79939 49.9782 6.86724 50.0724 4.60317 50.0724C1.96862 50.0724 1.45189 50.0052 0.947502 49.5967L0.947484 49.5967ZM22.7953 31.3532C24.8878 30.7961 26.325 29.9848 28.0075 28.4109C30.5964 25.9891 31.7112 23.3774 31.7011 19.7573C31.6808 12.5033 25.5478 7.2174 18.1805 8.10433C9.70754 9.12438 5.1788 19.1645 9.94959 26.352C12.7158 30.5194 18.0809 32.6082 22.7953 31.3532Z" fill="white"/>
<path d="M67.698 49.7512C62.3649 48.8254 57.9376 46.518 54.1111 42.6699C50.5136 39.0522 48.4489 35.2577 47.3151 30.1807C46.392 26.047 46.7751 20.6175 48.2703 16.6422C50.4891 10.7433 54.9151 5.74831 60.3653 2.99234C65.0622 0.617366 70.1546 -0.254262 75.0812 0.473509C81.176 1.37385 86.1669 4.03342 90.2754 8.57013C91.5932 10.0253 91.6542 10.6587 90.5509 11.4318C90.1329 11.7247 88.9699 12.5486 87.9666 13.2628C86.9633 13.9769 85.9446 14.564 85.7027 14.5675C85.4276 14.5713 84.8582 14.1492 84.1825 13.4403C80.6395 9.72276 75.8996 7.86439 70.6757 8.14463C66.4961 8.36886 63.0285 9.8827 59.9221 12.8394C53.76 18.7043 52.8746 28.3876 57.8807 35.1641C64.274 43.8184 76.5232 44.623 84.1093 36.8869C84.7746 36.2084 85.4714 35.6532 85.6576 35.6532C85.9956 35.6532 90.8737 38.9628 91.1559 39.3835C91.6081 40.0579 91.286 40.6928 89.6388 42.3743C86.0889 45.9982 82.5593 48.0378 77.5589 49.3547C75.0972 50.0031 70.2678 50.1972 67.698 49.7512Z" fill="white"/>
<path d="M118.606 49.7512C113.273 48.8254 108.845 46.518 105.019 42.6699C101.421 39.0522 99.3566 35.2577 98.2228 30.1807C97.2997 26.047 97.6828 20.6175 99.178 16.6422C101.397 10.7433 105.823 5.74831 111.273 2.99235C115.97 0.617368 121.062 -0.254265 125.989 0.473511C132.084 1.37385 137.075 4.03341 141.183 8.57014C142.501 10.0253 142.562 10.6587 141.459 11.4318C141.041 11.7247 139.878 12.5486 138.874 13.2628C137.871 13.9769 136.852 14.5641 136.61 14.5675C136.335 14.5713 135.766 14.1492 135.09 13.4403C131.547 9.72276 126.807 7.86439 121.583 8.14464C117.404 8.36887 113.936 9.88271 110.83 12.8394C104.668 18.7043 103.782 28.3876 108.788 35.1641C115.182 43.8184 127.431 44.623 135.017 36.8869C135.682 36.2084 136.379 35.6532 136.565 35.6532C136.903 35.6532 141.781 38.9628 142.064 39.3836C142.516 40.0579 142.194 40.6928 140.547 42.3743C136.997 45.9982 133.467 48.0378 128.467 49.3547C126.005 50.0031 121.176 50.1972 118.606 49.7512Z" fill="white"/>
</svg>
