<svg width="135" height="46" viewBox="0 0 135 46" fill="none" xmlns="http://www.w3.org/2000/svg">
<path fill-rule="evenodd" clip-rule="evenodd" d="M10.6486 0.628418H27.4406L18.6394 30.9884C17.9157 33.4801 18.7564 35.2135 22.4312 34.6718C24.9836 34.2948 25.9022 33.0381 26.4396 31.3134L35.9731 0.654417H50.7068L40.4149 38.8969C39.4789 42.3723 37.3122 45.1284 33.8064 45.1804L5.63915 45.6137C3.34243 45.6484 -0.912988 42.277 0.174702 38.3552L10.6486 0.628418Z" fill="#FF0000"/>
<path fill-rule="evenodd" clip-rule="evenodd" d="M126.654 34.8364L106.669 34.728C105.252 34.7194 105.256 33.636 105.585 32.453L111.817 10.0838C112.077 9.2258 112.67 8.50212 113.602 8.51512L133.861 8.73179C136.569 3.289 130.602 0.00427246 126.875 0.00427246H103.8C100.06 0.00427246 98.2879 2.66932 97.5165 5.59005L88.8496 38.3594C87.3893 43.0309 90.8993 45.6223 93.131 45.6179L119.348 45.5659C120.887 45.5573 126.685 42.2725 126.654 34.8364Z" fill="#FF0000"/>
<path fill-rule="evenodd" clip-rule="evenodd" d="M66.5281 28.3881C66.6581 27.8984 66.8617 27.53 67.4467 27.5214L84.5638 27.1964L87.4888 17.0128L53.5234 17.0692L45.5586 45.1281H62.0256L66.5281 28.3881Z" fill="#FF0000"/>
<path fill-rule="evenodd" clip-rule="evenodd" d="M58.6718 0L55.6384 10.6169L89.3828 10.7816L92.5809 0H58.6718Z" fill="#FF0000"/>
</svg>
