<svg width="147" height="46" viewBox="0 0 147 46" fill="none" xmlns="http://www.w3.org/2000/svg">
<path fill-rule="evenodd" clip-rule="evenodd" d="M134.997 33.1652V16.6903L103.689 45.1694H85.5845L135.396 0.101044H147V45.1694H146.351C134.341 45.1694 122.329 45.1694 110.319 45.1694H108.639L121.859 33.1662H134.997V33.1652Z" fill="#E20613"/>
<path fill-rule="evenodd" clip-rule="evenodd" d="M49.4124 33.0651V16.5892L18.1046 45.0682H0L49.811 -6.10352e-05H61.4155V45.0682H60.7665C48.7562 45.0682 36.7448 45.0682 24.7345 45.0682H23.0544L36.2741 33.0651H49.4124Z" fill="#E20613"/>
<path fill-rule="evenodd" clip-rule="evenodd" d="M121.742 -6.10352e-05H130.559L117.457 11.8547H108.639L121.742 -6.10352e-05Z" fill="#E20613"/>
<path fill-rule="evenodd" clip-rule="evenodd" d="M81.2098 44.2431C71.474 41.5308 64.7349 32.6397 64.7349 22.5341C64.7349 10.0891 74.824 -6.10352e-05 87.269 -6.10352e-05H116.794L103.691 11.8547H87.269C81.3705 11.8547 76.5896 16.6356 76.5896 22.5341C76.5896 28.4326 81.3705 33.2135 87.268 33.2135L93.868 33.197L81.5549 44.3389L81.2098 44.2431Z" fill="#E20613"/>
</svg>
