<svg width="236" height="44" viewBox="0 0 236 44" fill="none" xmlns="http://www.w3.org/2000/svg">
<path d="M13.5183 3.49157C17.5139 1.20238 22.0966 -0.0137568 26.6937 0.00055068C31.0329 -0.0280643 35.3579 1.0593 39.1816 3.07666C37.9213 5.50892 36.6468 7.94119 35.3436 10.3448C31.8779 8.49918 27.8107 7.81243 23.944 8.41334C19.9342 9.01425 16.1534 10.9887 13.3608 13.9217C10.0956 17.2983 8.19093 21.9768 8.23389 26.6697C8.20525 30.4325 9.42254 34.1525 11.542 37.2429C9.29365 38.8024 7.04525 40.3762 4.79685 41.9214C2.13315 38.1299 0.471909 33.6231 0.0995628 28.9875C-0.358709 23.7509 0.77265 18.4 3.33611 13.8073C5.69908 9.52932 9.26501 5.90953 13.5183 3.49157Z" fill="#EE2D24"/>
<path d="M163.904 18.7292C166.753 18.7292 169.603 18.7292 172.453 18.7292C173.484 21.7767 174.501 24.8099 175.518 27.8573C175.704 27.7715 175.718 27.5569 175.79 27.3995C176.807 24.5094 177.867 21.6336 178.883 18.7435C181.662 18.7292 184.426 18.7435 187.204 18.7435C186.574 19.9167 186.688 21.2759 186.674 22.5636C186.674 25.5682 186.674 28.5727 186.674 31.5773C186.674 32.7362 186.631 33.9523 187.204 35.0111C184.784 35.0397 182.363 35.0397 179.957 35.0111C180.516 33.9094 180.473 32.636 180.459 31.4342C180.444 28.3581 180.473 25.2963 180.444 22.2202C178.912 26.4695 177.437 30.7475 175.933 35.0111C174.501 35.0254 173.055 35.0397 171.608 35.0111C170.148 30.7475 168.715 26.4838 167.24 22.2345C167.197 26.4981 167.226 30.7475 167.226 35.0111C166.324 35.0397 165.407 35.0254 164.505 35.0111C164.505 30.5758 164.505 26.1405 164.505 21.7194C164.534 20.675 164.577 19.559 163.904 18.7292Z" fill="#EE2D24"/>
<path d="M188.822 18.7292C191.672 18.7292 194.522 18.7292 197.372 18.7292C198.417 21.791 199.448 24.8671 200.465 27.9432C200.938 26.8844 201.267 25.7542 201.682 24.6668C202.384 22.6924 203.1 20.7179 203.802 18.7435C206.58 18.7292 209.358 18.7435 212.122 18.7435C211.506 19.8595 211.592 21.1758 211.592 22.4062C211.592 25.7398 211.592 29.0878 211.592 32.4214C211.592 33.2942 211.693 34.2099 212.122 34.9825C209.702 34.9968 207.282 35.0111 204.876 34.9825C205.463 33.8379 205.377 32.5216 205.391 31.2768C205.377 28.258 205.406 25.2248 205.377 22.2059C203.83 26.4552 202.37 30.7332 200.866 34.9968C199.42 35.0111 197.987 35.0254 196.541 34.9968C195.08 30.7475 193.663 26.4838 192.173 22.2345C192.13 26.4838 192.159 30.7332 192.159 34.9968C191.257 35.0254 190.34 35.0111 189.438 34.9968C189.438 30.3325 189.438 25.654 189.438 20.9898C189.438 20.1885 189.323 19.3587 188.822 18.7292Z" fill="#EE2D24"/>
<path d="M219.569 18.7292C222.003 18.7292 224.438 18.7292 226.873 18.7292C228.677 23.0787 230.467 27.4424 232.272 31.7919C232.701 32.9508 233.26 34.0668 234.076 34.9968C231.355 34.9968 228.634 35.0111 225.913 34.9825C226.343 34.3529 226.357 33.5374 226.085 32.8363C225.784 32.0924 225.469 31.3627 225.14 30.633C222.762 30.6473 220.371 30.6044 217.994 30.6616C217.65 31.4628 217.22 32.2211 216.862 33.0223C216.576 33.6662 216.647 34.4388 217.063 35.0111C215.516 35.0111 213.984 35.0111 212.437 35.0111C213.038 34.2242 213.64 33.423 214.07 32.5216C216.118 28.2437 218.165 23.9514 220.213 19.6735C219.998 19.3587 219.755 19.0583 219.569 18.7292ZM221.273 23.6366C220.629 25.0674 219.97 26.4838 219.325 27.9146C220.901 27.9146 222.476 27.9146 224.051 27.9146C223.378 26.0832 222.548 24.3234 221.817 22.5207C221.574 22.8497 221.445 23.2503 221.273 23.6366Z" fill="#EE2D24"/>
<path d="M13.761 14.4654C16.7541 11.2891 20.9358 9.25747 25.2894 8.9284C28.6548 8.64225 32.0776 9.37193 35.085 10.9171C34.6124 11.7756 34.1684 12.6483 33.7102 13.5068C30.5023 11.8042 26.6642 11.3321 23.1413 12.2191C19.3319 13.1491 15.9378 15.6815 13.9329 19.0438C12.3719 21.6191 11.6415 24.6809 11.842 27.6855C12.0138 30.3753 12.9447 33.0079 14.4914 35.1969C13.6608 35.7835 12.8301 36.3701 11.9995 36.9281C11.9995 36.8709 11.9852 36.7564 11.9852 36.6992C9.59359 33.2654 8.53383 28.9445 8.9921 24.7954C9.37877 20.961 11.0973 17.2696 13.761 14.4654Z" fill="white"/>
<path d="M35.6729 13.1064C35.859 12.8203 36.0451 12.5342 36.2456 12.2481C37.8635 13.3209 39.2953 14.6513 40.4694 16.1961C40.1974 16.3964 39.9253 16.611 39.6533 16.8255C38.5365 15.3808 37.1906 14.122 35.6729 13.1064Z" fill="white"/>
<path d="M230.496 17.7703C231.227 17.7703 231.957 17.7703 232.687 17.7703C232.687 17.899 232.687 18.1422 232.687 18.2566C232.429 18.2566 232.172 18.2566 231.914 18.2566C231.914 18.8002 231.914 19.3581 231.914 19.9016C231.699 19.9016 231.484 19.9016 231.284 19.9016C231.284 19.3581 231.284 18.8002 231.284 18.2566C231.026 18.2566 230.754 18.2566 230.496 18.2566C230.496 18.1422 230.496 17.8847 230.496 17.7703Z" fill="white"/>
<path d="M233.059 17.7708C233.345 17.7708 233.632 17.7708 233.918 17.7851C234.104 18.2285 234.319 18.672 234.519 19.1011C234.72 18.6577 234.92 18.1999 235.135 17.7565C235.407 17.7565 235.679 17.7708 235.951 17.7708C235.951 18.486 235.951 19.1869 235.951 19.9021C235.736 19.9021 235.536 19.9021 235.335 19.9021C235.335 19.4444 235.335 18.9724 235.321 18.5146C235.121 18.9867 234.892 19.4444 234.677 19.9164C234.577 19.9164 234.39 19.9021 234.305 19.9021C234.047 19.4587 233.846 19.001 233.675 18.5289C233.617 18.9867 233.617 19.4587 233.632 19.9164C233.445 19.9164 233.245 19.9164 233.073 19.9164C233.059 19.2012 233.073 18.486 233.059 17.7708Z" fill="white"/>
<path d="M18.788 18.7294C23.2418 18.7437 27.6813 18.7294 32.1352 18.7294C33.3525 18.7437 34.7273 18.8582 35.6152 19.7882C36.4028 20.6466 36.3169 21.8914 36.3169 22.9644C36.3026 23.8801 36.4458 24.9675 35.7298 25.6829C34.9421 26.4125 33.8107 26.3696 32.8369 26.5556C33.7678 26.7273 34.7702 26.7559 35.6009 27.2424C36.1021 27.5285 36.3169 28.1437 36.3169 28.6874C36.3312 29.7319 36.3312 30.7763 36.3169 31.8208C36.3026 32.6792 36.0591 33.6235 35.3574 34.1672C34.4552 34.8683 33.2522 34.9541 32.1495 34.9827C27.6957 34.9827 23.2275 34.9827 18.7737 34.9827C19.146 34.2244 19.2749 33.3803 19.2749 32.5504C19.2749 29.2883 19.2749 26.0262 19.2749 22.7641C21.3515 22.7498 23.428 22.7641 25.4902 22.7641C25.4902 23.594 25.4902 24.4095 25.4902 25.2393C26.7505 25.2393 28.0107 25.2393 29.271 25.2393C29.586 25.2536 30.0013 25.1535 30.0586 24.7958C30.1446 24.152 30.073 23.4938 30.1016 22.85C30.0873 22.5066 30.1446 22.1489 30.03 21.8198C29.9011 21.4622 29.4572 21.4622 29.1278 21.4478C25.8483 21.4478 22.5544 21.4478 19.2749 21.4478C19.2892 20.5036 19.1747 19.5736 18.788 18.7294ZM25.4902 27.9291C25.4902 29.3742 25.4902 30.8335 25.4902 32.2786C26.8078 32.2643 28.111 32.2929 29.4285 32.2643C29.7722 32.2786 30.0873 32.0354 30.0873 31.6777C30.1302 30.7763 30.0873 29.8749 30.1016 28.9736C30.0873 28.6731 30.1302 28.3011 29.8868 28.0722C29.672 27.9148 29.3855 27.9291 29.1421 27.9148C27.9248 27.9291 26.7075 27.9291 25.4902 27.9291Z" fill="white"/>
<path d="M38.0637 18.7294C42.761 18.7294 47.444 18.7294 52.1413 18.7294C52.3131 19.7739 52.485 20.8183 52.6425 21.8628C51.7546 21.5766 50.8237 21.4192 49.8786 21.4335C46.0978 21.4335 42.3314 21.4335 38.5506 21.4335C38.5506 20.5179 38.4647 19.5736 38.0637 18.7294Z" fill="white"/>
<path d="M54.3179 18.7294C56.7238 18.7294 59.1297 18.7294 61.5357 18.7294C61.106 19.545 61.0201 20.4893 61.0201 21.3906C61.0201 25.0247 61.0201 28.6445 61.0201 32.2786C62.7529 32.2786 64.4858 32.2786 66.2186 32.2786C67.1209 32.2643 68.0517 32.1641 68.8823 31.7635C68.6962 32.8366 68.5243 33.9097 68.3525 34.9827C63.6695 34.9827 59.0008 34.9827 54.3179 34.9827C54.7332 34.1386 54.8334 33.18 54.8334 32.25C54.8334 28.6302 54.8334 25.0104 54.8334 21.3906C54.8191 20.4893 54.7045 19.5593 54.3179 18.7294Z" fill="white"/>
<path d="M69.8284 18.7148C72.2343 18.7148 74.6402 18.7148 77.0462 18.7148C76.6165 19.5876 76.5306 20.5748 76.5449 21.5334C76.5449 25.1103 76.5449 28.7015 76.5449 32.2783C78.2634 32.2783 79.982 32.2783 81.7005 32.2783C82.617 32.264 83.5765 32.1782 84.4072 31.7489C84.221 32.822 84.0491 33.9094 83.863 34.9824C79.18 34.9824 74.5113 34.9824 69.8284 34.9824C70.215 34.1812 70.3296 33.2941 70.3296 32.4214C70.3296 28.8445 70.3296 25.2677 70.3296 21.6765C70.3439 20.675 70.2866 19.6305 69.8284 18.7148Z" fill="white"/>
<path d="M91.6393 18.7294C94.0882 18.7294 96.5371 18.7294 98.986 18.7294C100.919 23.3937 102.838 28.0579 104.772 32.7078C105.115 33.5377 105.617 34.3103 106.218 34.997C103.497 34.997 100.776 34.997 98.0408 34.997C98.4274 34.3961 98.4847 33.6664 98.2699 33.0083C97.9835 32.2071 97.5968 31.4345 97.2961 30.6475C94.9188 30.6332 92.5415 30.6475 90.1642 30.6475C89.7919 31.3915 89.4338 32.1355 89.0615 32.8795C88.7321 33.552 88.7464 34.3961 89.1904 35.0113C87.6437 35.0113 86.1114 35.0113 84.5647 35.0113C85.9395 33.4375 86.6842 31.4631 87.6008 29.6031C89.1761 26.2981 90.7657 22.9787 92.341 19.6737C92.0975 19.3447 91.8541 19.0442 91.6393 18.7294ZM93.5153 23.3078C92.8136 24.8387 92.1262 26.3696 91.4245 27.9148C93.0141 27.9005 94.618 27.9434 96.2077 27.9005C95.42 26.1121 94.6753 24.3093 93.9163 22.5066C93.7301 22.7498 93.6299 23.036 93.5153 23.3078Z" fill="white"/>
<path d="M103.511 18.7292C108.08 18.7292 112.648 18.7292 117.216 18.7292C117.804 18.7578 118.405 18.672 118.978 18.7721C119.164 19.8738 119.307 20.9898 119.493 22.1058C118.921 21.7481 118.291 21.4762 117.617 21.4619C116.529 21.4333 115.441 21.4619 114.352 21.4476C114.352 24.9673 114.352 28.4869 114.352 31.9922C114.352 33.008 114.395 34.0668 114.868 34.9968C112.462 34.9968 110.056 34.9968 107.65 34.9968C108.065 34.1526 108.151 33.194 108.151 32.2641C108.151 28.6586 108.151 25.0531 108.151 21.4476C107.034 21.4619 105.917 21.419 104.8 21.4619C104.156 21.4905 103.554 21.7624 103.01 22.0915C103.168 20.9612 103.339 19.8452 103.511 18.7292Z" fill="white"/>
<path d="M122.429 19.3017C123.217 18.8153 124.176 18.7151 125.078 18.7151C128.129 18.7151 131.193 18.7008 134.258 18.7151C135.332 18.7151 136.507 18.9726 137.251 19.8025C138.082 20.7325 138.268 22.0344 138.297 23.2363C138.297 25.6685 138.297 28.1008 138.297 30.5331C138.254 31.7206 138.053 33.0083 137.223 33.9239C136.478 34.7252 135.332 34.9684 134.272 34.9827C131.122 34.9827 127.971 34.9827 124.806 34.9827C123.618 34.9827 122.3 34.6536 121.598 33.6235C120.682 32.3072 120.753 30.6332 120.768 29.1166C120.796 26.9991 120.71 24.8673 120.811 22.7498C122.873 22.7784 124.935 22.7355 126.983 22.7784C126.969 25.6542 126.969 28.5443 126.983 31.4201C126.969 31.878 127.355 32.25 127.799 32.2643C128.702 32.3215 129.618 32.2643 130.535 32.2929C130.95 32.2786 131.394 32.3358 131.752 32.0926C132.053 31.878 132.081 31.4774 132.081 31.1483C132.081 28.3297 132.081 25.5255 132.081 22.7069C132.067 22.3921 132.096 22.0201 131.867 21.7626C131.609 21.4621 131.179 21.4478 130.807 21.4478C127.527 21.4478 124.248 21.4478 120.968 21.4478C121.212 20.5894 121.67 19.7595 122.429 19.3017Z" fill="white"/>
<path d="M139.314 18.7294C143.925 18.7437 148.536 18.7294 153.148 18.7437C154.308 18.7867 155.668 19.0013 156.356 20.06C157.1 21.2189 156.843 22.664 156.9 23.9803C156.857 25.0104 157.057 26.1264 156.528 27.0707C156.098 27.7861 155.181 27.9005 154.437 27.9291C155.081 29.3885 155.826 30.8192 156.513 32.2643C156.986 33.18 157.315 34.1815 157.974 34.997C155.654 34.997 153.348 34.997 151.028 34.997C150.04 32.6649 149.081 30.3042 148.078 27.9721C147.462 27.8719 146.818 27.9721 146.188 27.9291C146.173 29.4314 146.188 30.9194 146.188 32.4217C146.188 33.2944 146.302 34.1958 146.689 34.997C144.283 34.997 141.877 34.997 139.457 34.997C140.101 33.7093 139.944 32.2357 139.958 30.8479C139.972 28.1437 139.93 25.4539 139.972 22.7498C142.035 22.7784 144.097 22.7498 146.173 22.7641C146.173 23.594 146.173 24.4095 146.173 25.2393C147.448 25.2393 148.723 25.2536 149.997 25.225C150.312 25.2393 150.642 25.039 150.656 24.6956C150.699 23.7943 150.699 22.8929 150.656 21.9915C150.642 21.5766 150.198 21.4335 149.854 21.4478C146.56 21.4335 143.266 21.4478 139.958 21.4478C139.972 20.5036 139.887 19.5163 139.314 18.7294Z" fill="white"/>
<path d="M38.5514 22.764C40.6279 22.7497 42.6901 22.7497 44.7667 22.7497C44.7667 23.5652 44.7667 24.3951 44.7667 25.2106C46.342 25.2106 47.903 25.2106 49.4783 25.2106C50.3376 25.2106 51.1825 25.0389 51.9845 24.7814C51.9701 25.9689 51.9845 27.1564 51.9845 28.3439C51.1682 28.0721 50.3232 27.929 49.464 27.9147C47.8887 27.9004 46.3277 27.9147 44.7524 27.9147C44.7524 29.3597 44.7524 30.8191 44.7524 32.2642C46.5998 32.2642 48.4615 32.2642 50.3089 32.2642C51.1968 32.2642 52.0847 32.1211 52.9297 31.8349C52.7435 32.8794 52.5573 33.9381 52.3568 34.9826C47.5736 34.9683 42.8047 34.9826 38.0215 34.9826C38.4654 34.0955 38.537 33.094 38.537 32.1211C38.5514 29.0164 38.5657 25.883 38.5514 22.764Z" fill="white"/>
<path d="M13.7041 38.0726C13.9619 37.8437 14.2197 37.6148 14.4918 37.3859C17.0409 40.3046 20.6498 42.279 24.4878 42.8084C28.2113 43.3378 32.1066 42.5222 35.3002 40.5335C36.632 39.718 37.8207 38.7022 38.8804 37.5432C39.1382 37.7722 39.3817 38.0011 39.6394 38.23C36.9041 41.2918 33.0661 43.3378 28.9989 43.8528C25.4473 44.325 21.7382 43.6525 18.5876 41.9499C16.7258 40.977 15.0789 39.6464 13.7041 38.0726Z" fill="white"/>
</svg>
