<svg width="128" height="63" viewBox="0 0 128 63" fill="none" xmlns="http://www.w3.org/2000/svg">
<path d="M1.38183 61.9881C1.27184 61.9881 1.21826 61.9345 1.21826 61.8245V48.0964C1.21826 48.0005 1.27184 47.9526 1.38183 47.9526H3.84374C3.95373 47.9526 4.00731 48.0005 4.00731 48.0964V61.8245C4.00731 61.9345 3.95373 61.9881 3.84374 61.9881H1.38183ZM5.23686 50.6401C5.12687 50.6401 5.07329 50.5865 5.07329 50.4766V48.0964C5.07329 48.0005 5.12687 47.9526 5.23686 47.9526H10.5499C10.6598 47.9526 10.7134 48.0005 10.7134 48.0964V50.4766C10.7134 50.5865 10.6598 50.6401 10.5499 50.6401H5.23686ZM9.21879 53.6576C9.32877 53.6576 9.38235 53.714 9.38235 53.8212V56.1816C9.38235 56.2915 9.32877 56.3451 9.21879 56.3451H5.23686C5.12687 56.3451 5.07329 56.2887 5.07329 56.1816V53.8212C5.07329 53.7112 5.12687 53.6576 5.23686 53.6576H9.21879Z" fill="url(#paint0_linear_76_7608)"/>
<path d="M12.9331 61.9881C12.8231 61.9881 12.7695 61.9345 12.7695 61.8245V48.0964C12.7695 48.0005 12.8231 47.9526 12.9331 47.9526H15.3132C15.4232 47.9526 15.4768 48.0005 15.4768 48.0964V61.8245C15.4768 61.9345 15.4232 61.9881 15.3132 61.9881H12.9331Z" fill="url(#paint1_linear_76_7608)"/>
<path d="M23.1499 62.0697C22.507 62.0697 21.9063 61.9372 21.3451 61.6693C20.7839 61.4013 20.2988 61.0517 19.8871 60.6117C19.4782 60.1746 19.1511 59.6811 18.9114 59.134C18.6717 58.5869 18.5532 58.0342 18.5532 57.473V52.5689C18.5532 52.0218 18.6717 51.4775 18.9114 50.9389C19.1511 50.3975 19.4782 49.9124 19.8956 49.4809C20.3129 49.0495 20.8008 48.697 21.362 48.4234C21.9232 48.1499 22.5182 48.0145 23.1471 48.0145H23.2486C23.3586 48.0145 23.4122 48.0624 23.4122 48.1583V50.4144C23.4122 50.5244 23.3586 50.5779 23.2486 50.5779H23.1471C22.9412 50.5779 22.7241 50.6372 22.49 50.7528C22.256 50.8684 22.0416 51.0207 21.8442 51.204C21.6468 51.3873 21.4805 51.596 21.3507 51.83C21.221 52.0641 21.1561 52.301 21.1561 52.5492V57.5153C21.1561 57.8029 21.221 58.0652 21.3507 58.3049C21.4805 58.5446 21.644 58.7505 21.8442 58.9197C22.0416 59.0917 22.2588 59.2243 22.49 59.3201C22.7213 59.416 22.9412 59.464 23.1471 59.464H23.2486C23.3586 59.464 23.4122 59.5204 23.4122 59.6275V61.9061C23.4122 62.0161 23.3586 62.0697 23.2486 62.0697H23.1499ZM26.8019 52.8763C26.6919 52.8763 26.6384 52.8227 26.6384 52.7127V52.5492C26.6384 52.2756 26.5735 52.019 26.4438 51.7793C26.314 51.5396 26.1533 51.3309 25.9615 51.1532C25.7698 50.9756 25.5583 50.8346 25.3242 50.733C25.0901 50.6315 24.873 50.5779 24.6671 50.5779H24.5853C24.4754 50.5779 24.4218 50.5244 24.4218 50.4144V48.1583C24.4218 48.0624 24.4754 48.0145 24.5853 48.0145H24.6671C25.3101 48.0145 25.9108 48.1527 26.472 48.4234C27.0332 48.697 27.5182 49.0495 27.9299 49.4809C28.3417 49.9124 28.666 50.3975 28.9057 50.9389C29.1454 51.4804 29.2638 52.0218 29.2638 52.5689V52.7127C29.2638 52.8227 29.2103 52.8763 29.1003 52.8763H26.8019ZM29.2864 57.3094C29.2864 57.9101 29.1595 58.4995 28.9057 59.0748C28.6519 59.6501 28.3135 60.1605 27.8905 60.6033C27.4675 61.0488 26.9768 61.4042 26.424 61.6693C25.8713 61.9372 25.2847 62.0697 24.6699 62.0697H24.5882C24.4782 62.0697 24.4246 62.0161 24.4246 61.9061V59.6275C24.4246 59.5175 24.4782 59.464 24.5882 59.464H24.6699C24.8758 59.464 25.0901 59.4188 25.3157 59.3314C25.5413 59.244 25.7529 59.1171 25.9531 58.9507C26.1505 58.7872 26.314 58.5841 26.4466 58.3444C26.5763 58.1047 26.6412 57.834 26.6412 57.535H24.5882C24.4782 57.535 24.4246 57.4815 24.4246 57.3715V55.2169C24.4246 55.107 24.4782 55.0534 24.5882 55.0534H29.1228C29.2328 55.0534 29.2864 55.107 29.2864 55.2169V57.3094Z" fill="url(#paint2_linear_76_7608)"/>
<path d="M36.5282 56.2011C36.5282 56.3111 36.4747 56.3646 36.3647 56.3646H34.5373V61.8215C34.5373 61.9314 34.4837 61.985 34.3737 61.985H32.0359C31.9259 61.985 31.8723 61.9314 31.8723 61.8215V48.0934C31.8723 47.9975 31.9259 47.9496 32.0359 47.9496H34.3737C34.4837 47.9496 34.5373 47.9975 34.5373 48.0934V53.6546H36.3647C36.4747 53.6546 36.5282 53.711 36.5282 53.8181V56.2011ZM39.5429 61.9878C39.4329 61.9878 39.3793 61.9343 39.3793 61.8243V56.3675H37.7183C37.6083 56.3675 37.5547 56.3139 37.5547 56.2039V53.8238C37.5547 53.7138 37.6083 53.6602 37.7183 53.6602H39.3793V48.099C39.3793 48.0031 39.4329 47.9552 39.5429 47.9552H42.0048C42.1148 47.9552 42.1684 48.0031 42.1684 48.099V61.8271C42.1684 61.9371 42.1148 61.9907 42.0048 61.9907H39.5429V61.9878Z" fill="url(#paint3_linear_76_7608)"/>
<path d="M44.0776 50.6401C43.9676 50.6401 43.9141 50.5865 43.9141 50.4766V48.0964C43.9141 48.0005 43.9676 47.9526 44.0776 47.9526H53.147C53.2569 47.9526 53.3105 48.0005 53.3105 48.0964V50.4766C53.3105 50.5865 53.2569 50.6401 53.147 50.6401H44.0776ZM47.4645 61.9881C47.3545 61.9881 47.301 61.9345 47.301 61.8245V51.8302C47.301 51.7202 47.3545 51.6666 47.4645 51.6666H49.8249C49.9208 51.6666 49.9687 51.723 49.9687 51.8302V61.8245C49.9687 61.9345 49.9208 61.9881 49.8249 61.9881H47.4645Z" fill="url(#paint4_linear_76_7608)"/>
<path d="M70.5666 62.0078C70.499 62.0078 70.4567 61.9881 70.4426 61.9458L61.8865 49.7574V48.0964C61.8865 48.0005 61.9401 47.9526 62.05 47.9526H64.0607C64.1284 47.9526 64.1764 47.9723 64.2046 48.0146L72.8424 60.4088V61.8443C72.8424 61.9542 72.786 62.0078 72.6789 62.0078H70.5666ZM62.0529 62.0078C61.9429 62.0078 61.8893 61.9542 61.8893 61.8443V52.0784C61.8893 51.9966 61.926 51.943 62.0021 51.9148C62.0782 51.8866 62.1431 51.9092 62.1967 51.9768L64.5966 55.3835V61.8471C64.5966 61.9571 64.543 62.0106 64.433 62.0106H62.0529V62.0078ZM70.1577 54.7659V48.0964C70.1577 48.0005 70.2113 47.9526 70.3213 47.9526H72.6817C72.7917 47.9526 72.8453 48.0005 72.8453 48.0964V58.0879C72.8453 58.1697 72.8086 58.2261 72.7324 58.2515C72.6563 58.2797 72.5914 58.26 72.5379 58.1894L70.1577 54.7659Z" fill="url(#paint5_linear_76_7608)"/>
<path d="M76.314 61.9881C76.204 61.9881 76.1504 61.9345 76.1504 61.8245V48.0964C76.1504 48.0005 76.204 47.9526 76.314 47.9526H78.6941C78.8041 47.9526 78.8577 48.0005 78.8577 48.0964V61.8245C78.8577 61.9345 78.8013 61.9881 78.6941 61.9881H76.314Z" fill="url(#paint6_linear_76_7608)"/>
<path d="M86.5308 62.0697C85.8878 62.0697 85.2871 61.9372 84.7259 61.6693C84.1648 61.4013 83.6797 61.0517 83.268 60.6117C82.8562 60.1746 82.5319 59.6811 82.2922 59.134C82.0525 58.5869 81.9341 58.0342 81.9341 57.473V52.5689C81.9341 52.0218 82.0525 51.4775 82.2922 50.9389C82.5319 50.3975 82.8591 49.9124 83.2764 49.4809C83.6938 49.0495 84.1817 48.697 84.7429 48.4234C85.3041 48.1499 85.8991 48.0145 86.528 48.0145H86.6295C86.7395 48.0145 86.7931 48.0624 86.7931 48.1583V50.4144C86.7931 50.5244 86.7367 50.5779 86.6295 50.5779H86.528C86.3221 50.5779 86.105 50.6372 85.8709 50.7528C85.6368 50.8684 85.4225 51.0207 85.2251 51.204C85.0277 51.3873 84.8613 51.596 84.7316 51.83C84.6019 52.0641 84.537 52.301 84.537 52.5492V57.5153C84.537 57.8029 84.6019 58.0652 84.7316 58.3049C84.8613 58.5446 85.0249 58.7505 85.2251 58.9197C85.4225 59.0917 85.6396 59.2243 85.8709 59.3201C86.1021 59.416 86.3221 59.464 86.528 59.464H86.6295C86.7395 59.464 86.7931 59.5204 86.7931 59.6275V61.9061C86.7931 62.0161 86.7367 62.0697 86.6295 62.0697H86.5308ZM90.1828 52.8763C90.0728 52.8763 90.0192 52.8227 90.0192 52.7127V52.5492C90.0192 52.2756 89.9543 52.019 89.8246 51.7793C89.6949 51.5396 89.5342 51.3309 89.3424 51.1532C89.1506 50.9756 88.9391 50.8346 88.7051 50.733C88.471 50.6315 88.2538 50.5779 88.048 50.5779H87.9662C87.8562 50.5779 87.8026 50.5244 87.8026 50.4144V48.1583C87.8026 48.0624 87.8562 48.0145 87.9662 48.0145H88.048C88.691 48.0145 89.2916 48.1527 89.8528 48.4234C90.414 48.697 90.8991 49.0495 91.3108 49.4809C91.7197 49.9124 92.0468 50.3975 92.2865 50.9389C92.5262 51.4804 92.6447 52.0218 92.6447 52.5689V52.7127C92.6447 52.8227 92.5911 52.8763 92.4811 52.8763H90.1828ZM92.6673 57.3094C92.6673 57.9101 92.5403 58.4995 92.2865 59.0748C92.0327 59.6501 91.6943 60.1605 91.2713 60.6033C90.8483 61.0488 90.3576 61.4042 89.8049 61.6693C89.2522 61.9372 88.6656 62.0697 88.0508 62.0697H87.969C87.859 62.0697 87.8055 62.0161 87.8055 61.9061V59.6275C87.8055 59.5175 87.859 59.464 87.969 59.464H88.0508C88.2567 59.464 88.471 59.4188 88.6966 59.3314C88.9222 59.244 89.1337 59.1171 89.3339 58.9507C89.5313 58.7872 89.6949 58.5841 89.8274 58.3444C89.9572 58.1047 90.022 57.834 90.022 57.535H87.969C87.859 57.535 87.8055 57.4815 87.8055 57.3715V55.2169C87.8055 55.107 87.859 55.0534 87.969 55.0534H92.5037C92.6137 55.0534 92.6673 55.107 92.6673 55.2169V57.3094Z" fill="url(#paint7_linear_76_7608)"/>
<path d="M99.9095 56.2011C99.9095 56.3111 99.8531 56.3646 99.7459 56.3646H97.9185V61.8215C97.9185 61.9314 97.8649 61.985 97.755 61.985H95.4143C95.3043 61.985 95.2507 61.9314 95.2507 61.8215V48.0934C95.2507 47.9975 95.3043 47.9496 95.4143 47.9496H97.755C97.8649 47.9496 97.9185 47.9975 97.9185 48.0934V53.6546H99.7459C99.8559 53.6546 99.9095 53.711 99.9095 53.8181V56.2011ZM102.924 61.9878C102.814 61.9878 102.761 61.9343 102.761 61.8243V56.3675H101.1C100.99 56.3675 100.936 56.3139 100.936 56.2039V53.8238C100.936 53.7138 100.99 53.6602 101.1 53.6602H102.761V48.099C102.761 48.0031 102.814 47.9552 102.924 47.9552H105.386C105.496 47.9552 105.55 48.0031 105.55 48.099V61.8271C105.55 61.9371 105.493 61.9907 105.386 61.9907H102.924V61.9878Z" fill="url(#paint8_linear_76_7608)"/>
<path d="M107.458 50.6401C107.348 50.6401 107.295 50.5865 107.295 50.4766V48.0964C107.295 48.0005 107.348 47.9526 107.458 47.9526H116.528C116.638 47.9526 116.691 48.0005 116.691 48.0964V50.4766C116.691 50.5865 116.638 50.6401 116.528 50.6401H107.458ZM110.845 61.9881C110.735 61.9881 110.682 61.9345 110.682 61.8245V51.8302C110.682 51.7202 110.735 51.6666 110.845 51.6666H113.206C113.302 51.6666 113.35 51.723 113.35 51.8302V61.8245C113.35 61.9345 113.302 61.9881 113.206 61.9881H110.845Z" fill="url(#paint9_linear_76_7608)"/>
<path d="M122.416 61.9258C122.416 62.0612 122.354 62.1176 122.233 62.0894C121.714 62.0076 121.204 61.8525 120.705 61.6269C120.205 61.4013 119.765 61.1108 119.382 60.7555C118.998 60.4001 118.691 59.9715 118.46 59.4723C118.226 58.9732 118.11 58.4092 118.11 57.7803V57.6365C118.11 57.5265 118.164 57.4729 118.274 57.4729H120.592C120.702 57.4729 120.755 57.5209 120.755 57.6167C120.769 57.7944 120.815 57.9805 120.888 58.1695C120.964 58.3612 121.066 58.5417 121.195 58.7138C121.325 58.8858 121.483 59.0409 121.666 59.1847C121.85 59.3285 122.058 59.4413 122.292 59.5231C122.374 59.5513 122.416 59.6049 122.416 59.6867V61.9258ZM128 57.7803C128 58.3415 127.899 58.866 127.693 59.3511C127.487 59.8361 127.199 60.2704 126.83 60.654C126.46 61.0375 126.026 61.3505 125.527 61.5987C125.028 61.844 124.483 62.0019 123.897 62.0696C123.773 62.0978 123.714 62.0414 123.714 61.9061V59.6698C123.714 59.588 123.747 59.5316 123.815 59.5062C124.227 59.3567 124.574 59.1198 124.861 58.7983C125.149 58.4769 125.293 58.099 125.293 57.659C125.293 57.3714 125.211 57.1232 125.047 56.9089C124.884 56.6974 124.667 56.5085 124.402 56.3449C124.134 56.1813 123.835 56.0347 123.499 55.9021C123.164 55.7724 122.82 55.6455 122.464 55.5214C121.945 55.3438 121.449 55.152 120.978 54.9461C120.507 54.7403 120.093 54.4921 119.737 54.196C119.382 53.9027 119.094 53.5389 118.874 53.1075C118.654 52.676 118.547 52.1402 118.547 51.4972C118.547 50.9642 118.657 50.4848 118.874 50.0618C119.094 49.6388 119.376 49.2722 119.726 48.9648C120.076 48.6574 120.468 48.412 120.905 48.2259C121.342 48.0426 121.787 47.9355 122.239 47.9073C122.363 47.9073 122.422 47.9608 122.422 48.0708V50.2451C122.422 50.3269 122.388 50.3804 122.32 50.4087C121.951 50.5186 121.677 50.6766 121.5 50.8796C121.322 51.0855 121.232 51.3167 121.232 51.5762C121.232 51.7679 121.317 51.9428 121.489 52.0979C121.661 52.2558 121.895 52.4109 122.196 52.5604C122.498 52.7126 122.851 52.8621 123.254 53.0116C123.657 53.161 124.097 53.319 124.577 53.4825C124.96 53.6207 125.352 53.7984 125.755 54.0155C126.159 54.2355 126.528 54.5147 126.864 54.8559C127.199 55.1971 127.473 55.6032 127.684 56.077C127.893 56.5592 128 57.1232 128 57.7803ZM125.558 51.5028C125.462 51.5451 125.386 51.5226 125.332 51.4408C125.169 51.1531 124.954 50.9219 124.695 50.7442C124.436 50.5666 124.148 50.4425 123.832 50.3748C123.75 50.3466 123.708 50.293 123.708 50.2112V48.037C123.708 47.927 123.77 47.8734 123.891 47.8734C124.765 47.9552 125.513 48.178 126.128 48.5418C126.742 48.9056 127.25 49.4696 127.645 50.2338C127.698 50.3438 127.679 50.4171 127.583 50.4594L125.558 51.5028Z" fill="url(#paint10_linear_76_7608)"/>
<path fill-rule="evenodd" clip-rule="evenodd" d="M0 40.9106H12.2814C12.5408 40.4171 14.5826 35.6963 14.6023 35.4425H26.1336L26.5086 40.9106H50.2451C50.2451 40.4792 51.6411 32.8734 51.7116 32.4899L53.3162 24.0579C53.35 24.4527 57.9495 35.7217 58.3218 36.6523C58.6066 37.363 58.8773 38.0398 59.1565 38.7392C59.3004 39.1002 59.9574 40.6399 59.98 40.9106C60.2648 40.8345 60.6427 40.2028 60.826 39.9575C61.108 39.5796 61.359 39.2468 61.6269 38.8858C61.8976 38.5249 62.1458 38.1921 62.4306 37.817L72.8592 24.0551L70.1097 39.8813C70.0505 40.2254 69.9461 40.6681 69.9405 40.984H82.2219C82.2219 40.6596 82.2867 40.5017 82.3403 40.2028C82.3967 39.8954 82.4136 39.7347 82.4672 39.4301L83.3245 34.6698C84.2185 29.5204 85.2732 24.0664 86.1164 18.9592C86.2038 18.4234 86.311 17.8622 86.3927 17.3631C86.4802 16.8244 86.6381 16.2943 86.6381 15.7359H42.3828L40.499 26.4381C40.3552 27.3207 40.1803 28.1865 40.028 29.1143C39.8786 30.028 39.7206 30.9417 39.5543 31.7877C39.3766 32.6958 39.2581 33.5644 39.0805 34.4583C38.9959 34.887 38.9338 35.3354 38.8436 35.795C38.7675 36.187 38.7139 36.7736 38.587 37.112C38.5813 37.1233 38.5729 37.1487 38.5644 37.1628L38.195 32.5886C38.0709 30.9896 37.9412 27.8283 37.7607 26.5057L37.4956 22.5012C37.3038 21.0912 37.1939 18.1019 37.0613 16.4184C37.0388 16.1279 36.9908 16.111 36.9908 15.7387H24.7094L25.4596 25.2508H19.0213C19.2018 24.9096 19.3485 24.4894 19.5205 24.1002C19.7094 23.6744 19.8589 23.3247 20.0394 22.896L22.569 16.9598C22.7213 16.6158 22.9892 16.0715 23.0681 15.7359C21.362 15.7359 19.9097 15.6598 18.2007 15.6598H10.9334C10.7106 15.6598 10.7501 15.75 10.6711 15.922C9.94919 17.4392 8.87193 20.2029 8.13871 21.8526C7.19117 23.9818 6.36489 26.0658 5.42017 28.195L0 40.9106Z" fill="url(#paint11_linear_76_7608)"/>
<path fill-rule="evenodd" clip-rule="evenodd" d="M67.9158 12.3714C70.6682 12.3714 73.1752 12.4476 75.9276 12.4476H125.648C125.648 12.1233 125.713 11.9654 125.767 11.6664L127.67 0.986835C127.715 0.707648 127.797 0.431282 127.82 0.163376H77.1261C76.5311 1.0517 75.5299 2.29253 74.8475 3.20341L68.4939 11.6044C68.2767 11.8892 68.1104 12.081 67.9158 12.3714Z" fill="url(#paint12_linear_76_7608)"/>
<path fill-rule="evenodd" clip-rule="evenodd" d="M84.6895 32.6702C84.6895 34.7063 84.901 36.0515 86.0064 37.6448C86.7537 38.7193 87.69 39.5653 88.8829 40.1631C90.3042 40.8738 91.3448 40.9866 93.4514 40.9866H109.701C113.384 40.9866 116.833 41.0627 120.485 41.0627C120.705 40.6002 122.227 31.6353 122.464 30.3831C122.552 29.9235 122.724 29.1987 122.732 28.7785C120.575 28.7785 118.671 28.7024 116.517 28.7024H97.5715C97.6336 27.9438 99.0408 20.3465 99.2523 19.0719C99.3482 18.4937 99.4328 18.0454 99.5286 17.4757C99.6104 16.9907 99.7768 16.3223 99.8191 15.8175H87.5377L86.8214 19.9686C86.562 21.3759 84.6895 31.6522 84.6895 32.6702Z" fill="url(#paint13_linear_76_7608)"/>
<path fill-rule="evenodd" clip-rule="evenodd" d="M2.32104 12.2954C4.62504 12.2954 6.68087 12.3715 8.98486 12.3715H36.6892C36.6892 9.90962 36.2182 5.84026 36.0913 3.15838C36.0434 2.18828 35.8657 1.09409 35.8657 0.0873283C27.6537 0.0873283 19.4417 0.0873283 11.2296 0.0873283C10.1354 0.0873283 9.26687 0.0111863 8.23472 0.0111863C7.23924 0.0111863 6.23248 0.0224666 5.23699 0.0111863C4.27817 -0.002914 4.6053 -0.211599 4.17101 2.01625L2.80328 9.70657C2.65945 10.5836 2.51281 11.4832 2.32104 12.2954Z" fill="url(#paint14_linear_76_7608)"/>
<path fill-rule="evenodd" clip-rule="evenodd" d="M38.5645 12.3714H62.3771C62.1656 11.9287 61.9654 11.3421 61.7792 10.874C61.5706 10.3523 61.376 9.8644 61.1588 9.32295C60.764 8.33593 57.6619 0.73303 57.5125 0.0872345H40.9643C40.6626 0.152096 40.719 0.408722 40.6654 0.76123C40.5836 1.28576 40.4765 1.90054 40.3721 2.41661L38.5645 12.3714Z" fill="url(#paint15_linear_76_7608)"/>
<defs>
<linearGradient id="paint0_linear_76_7608" x1="0.518321" y1="54.9103" x2="208.836" y2="57.187" gradientUnits="userSpaceOnUse">
<stop offset="0.005618" stop-color="#AC8C41"/>
<stop offset="0.2528" stop-color="#E7C573"/>
<stop offset="0.3536" stop-color="#ECD182"/>
<stop offset="0.5452" stop-color="#F8F4AA"/>
<stop offset="0.787" stop-color="#E0BE6A"/>
<stop offset="1" stop-color="#A7893C"/>
</linearGradient>
<linearGradient id="paint1_linear_76_7608" x1="0.519575" y1="54.8211" x2="208.838" y2="57.0979" gradientUnits="userSpaceOnUse">
<stop offset="0.005618" stop-color="#AC8C41"/>
<stop offset="0.2528" stop-color="#E7C573"/>
<stop offset="0.3536" stop-color="#ECD182"/>
<stop offset="0.5452" stop-color="#F8F4AA"/>
<stop offset="0.787" stop-color="#E0BE6A"/>
<stop offset="1" stop-color="#A7893C"/>
</linearGradient>
<linearGradient id="paint2_linear_76_7608" x1="0.519712" y1="54.7857" x2="208.838" y2="57.0624" gradientUnits="userSpaceOnUse">
<stop offset="0.005618" stop-color="#AC8C41"/>
<stop offset="0.2528" stop-color="#E7C573"/>
<stop offset="0.3536" stop-color="#ECD182"/>
<stop offset="0.5452" stop-color="#F8F4AA"/>
<stop offset="0.787" stop-color="#E0BE6A"/>
<stop offset="1" stop-color="#A7893C"/>
</linearGradient>
<linearGradient id="paint3_linear_76_7608" x1="0.521975" y1="54.5707" x2="208.84" y2="56.8474" gradientUnits="userSpaceOnUse">
<stop offset="0.005618" stop-color="#AC8C41"/>
<stop offset="0.2528" stop-color="#E7C573"/>
<stop offset="0.3536" stop-color="#ECD182"/>
<stop offset="0.5452" stop-color="#F8F4AA"/>
<stop offset="0.787" stop-color="#E0BE6A"/>
<stop offset="1" stop-color="#A7893C"/>
</linearGradient>
<linearGradient id="paint4_linear_76_7608" x1="0.523608" y1="54.4257" x2="208.842" y2="56.7025" gradientUnits="userSpaceOnUse">
<stop offset="0.005618" stop-color="#AC8C41"/>
<stop offset="0.2528" stop-color="#E7C573"/>
<stop offset="0.3536" stop-color="#ECD182"/>
<stop offset="0.5452" stop-color="#F8F4AA"/>
<stop offset="0.787" stop-color="#E0BE6A"/>
<stop offset="1" stop-color="#A7893C"/>
</linearGradient>
<linearGradient id="paint5_linear_76_7608" x1="0.52568" y1="54.2497" x2="208.844" y2="56.5264" gradientUnits="userSpaceOnUse">
<stop offset="0.005618" stop-color="#AC8C41"/>
<stop offset="0.2528" stop-color="#E7C573"/>
<stop offset="0.3536" stop-color="#ECD182"/>
<stop offset="0.5452" stop-color="#F8F4AA"/>
<stop offset="0.787" stop-color="#E0BE6A"/>
<stop offset="1" stop-color="#A7893C"/>
</linearGradient>
<linearGradient id="paint6_linear_76_7608" x1="0.526949" y1="54.1286" x2="208.845" y2="56.4053" gradientUnits="userSpaceOnUse">
<stop offset="0.005618" stop-color="#AC8C41"/>
<stop offset="0.2528" stop-color="#E7C573"/>
<stop offset="0.3536" stop-color="#ECD182"/>
<stop offset="0.5452" stop-color="#F8F4AA"/>
<stop offset="0.787" stop-color="#E0BE6A"/>
<stop offset="1" stop-color="#A7893C"/>
</linearGradient>
<linearGradient id="paint7_linear_76_7608" x1="0.527142" y1="54.0931" x2="208.845" y2="56.3698" gradientUnits="userSpaceOnUse">
<stop offset="0.005618" stop-color="#AC8C41"/>
<stop offset="0.2528" stop-color="#E7C573"/>
<stop offset="0.3536" stop-color="#ECD182"/>
<stop offset="0.5452" stop-color="#F8F4AA"/>
<stop offset="0.787" stop-color="#E0BE6A"/>
<stop offset="1" stop-color="#A7893C"/>
</linearGradient>
<linearGradient id="paint8_linear_76_7608" x1="0.529796" y1="53.8781" x2="208.848" y2="56.1548" gradientUnits="userSpaceOnUse">
<stop offset="0.005618" stop-color="#AC8C41"/>
<stop offset="0.2528" stop-color="#E7C573"/>
<stop offset="0.3536" stop-color="#ECD182"/>
<stop offset="0.5452" stop-color="#F8F4AA"/>
<stop offset="0.787" stop-color="#E0BE6A"/>
<stop offset="1" stop-color="#A7893C"/>
</linearGradient>
<linearGradient id="paint9_linear_76_7608" x1="0.531018" y1="53.7332" x2="208.849" y2="56.0098" gradientUnits="userSpaceOnUse">
<stop offset="0.005618" stop-color="#AC8C41"/>
<stop offset="0.2528" stop-color="#E7C573"/>
<stop offset="0.3536" stop-color="#ECD182"/>
<stop offset="0.5452" stop-color="#F8F4AA"/>
<stop offset="0.787" stop-color="#E0BE6A"/>
<stop offset="1" stop-color="#A7893C"/>
</linearGradient>
<linearGradient id="paint10_linear_76_7608" x1="0.53222" y1="53.6438" x2="208.85" y2="55.9205" gradientUnits="userSpaceOnUse">
<stop offset="0.005618" stop-color="#AC8C41"/>
<stop offset="0.2528" stop-color="#E7C573"/>
<stop offset="0.3536" stop-color="#ECD182"/>
<stop offset="0.5452" stop-color="#F8F4AA"/>
<stop offset="0.787" stop-color="#E0BE6A"/>
<stop offset="1" stop-color="#A7893C"/>
</linearGradient>
<linearGradient id="paint11_linear_76_7608" x1="5.48664" y1="26.6014" x2="119.353" y2="31.7929" gradientUnits="userSpaceOnUse">
<stop offset="0.005618" stop-color="#AC8C41"/>
<stop offset="0.2528" stop-color="#E7C573"/>
<stop offset="0.3536" stop-color="#ECD182"/>
<stop offset="0.5452" stop-color="#F8F4AA"/>
<stop offset="0.787" stop-color="#E0BE6A"/>
<stop offset="1" stop-color="#A7893C"/>
</linearGradient>
<linearGradient id="paint12_linear_76_7608" x1="6.6036" y1="2.10471" x2="120.47" y2="7.2962" gradientUnits="userSpaceOnUse">
<stop offset="0.005618" stop-color="#AC8C41"/>
<stop offset="0.2528" stop-color="#E7C573"/>
<stop offset="0.3536" stop-color="#ECD182"/>
<stop offset="0.5452" stop-color="#F8F4AA"/>
<stop offset="0.787" stop-color="#E0BE6A"/>
<stop offset="1" stop-color="#A7893C"/>
</linearGradient>
<linearGradient id="paint13_linear_76_7608" x1="5.59305" y1="24.2682" x2="119.46" y2="29.4597" gradientUnits="userSpaceOnUse">
<stop offset="0.005618" stop-color="#AC8C41"/>
<stop offset="0.2528" stop-color="#E7C573"/>
<stop offset="0.3536" stop-color="#ECD182"/>
<stop offset="0.5452" stop-color="#F8F4AA"/>
<stop offset="0.787" stop-color="#E0BE6A"/>
<stop offset="1" stop-color="#A7893C"/>
</linearGradient>
<linearGradient id="paint14_linear_76_7608" x1="6.44362" y1="5.61407" x2="120.31" y2="10.8056" gradientUnits="userSpaceOnUse">
<stop offset="0.005618" stop-color="#AC8C41"/>
<stop offset="0.2528" stop-color="#E7C573"/>
<stop offset="0.3536" stop-color="#ECD182"/>
<stop offset="0.5452" stop-color="#F8F4AA"/>
<stop offset="0.787" stop-color="#E0BE6A"/>
<stop offset="1" stop-color="#A7893C"/>
</linearGradient>
<linearGradient id="paint15_linear_76_7608" x1="6.50187" y1="4.33459" x2="120.368" y2="9.52608" gradientUnits="userSpaceOnUse">
<stop offset="0.005618" stop-color="#AC8C41"/>
<stop offset="0.2528" stop-color="#E7C573"/>
<stop offset="0.3536" stop-color="#ECD182"/>
<stop offset="0.5452" stop-color="#F8F4AA"/>
<stop offset="0.787" stop-color="#E0BE6A"/>
<stop offset="1" stop-color="#A7893C"/>
</linearGradient>
</defs>
</svg>
