<svg width="110" height="32" viewBox="0 0 110 32" fill="none" xmlns="http://www.w3.org/2000/svg">
<path d="M0 31.7947L3.19491 0H13.1716L11.8356 14.6992C12.112 13.7196 12.5638 12.0595 14.3888 10.3671L23.8967 0.00646593L35.6305 0.0315207L23.748 14.2344C23.5314 14.5682 22.2948 16.4053 23.748 18.4113L32.5674 31.7947H20.4998L12.3771 20.0367C12.2244 19.7562 11.796 19.3012 11.5261 17.6387L10.2111 31.7947H0Z" fill="white"/>
<path d="M66.6041 8.74255L67.4786 0H47.2916C45.6849 0 39.4244 0.793676 37.6729 6.49892C35.8059 12.5792 37.2858 15.5494 37.2858 15.5494C37.2858 15.5494 38.6784 20.0359 45.0989 20.0359H56.0835C56.0835 20.0359 58.0685 19.9461 57.9941 21.5796C57.9197 23.213 56.5458 23.2873 56.5458 23.2873H36.0872L35.2329 31.7939H56.397C58.4685 31.7939 63.2653 31.4973 65.197 26.3319C65.197 26.3319 66.9791 21.9134 66.1256 17.9401C65.2721 13.9669 62.1152 12.4822 62.1152 12.4822C62.1152 12.4822 60.519 11.7394 58.5138 11.5535H46.3727C46.3727 11.5535 44.9243 11.4048 45.2589 10.1796C45.5927 8.9543 46.7073 8.65688 46.7073 8.65688L66.6041 8.74255Z" fill="white"/>
<path d="M71.725 0L69.6382 20.5628C69.1476 25.9375 69.9138 28.3242 71.9481 30.0109C72.7377 30.7303 74.3534 31.7947 78.7493 31.7947H106.845L110 0H100.279L98.0901 22.9042H93.6109L96.1051 0H86.1801L83.8896 22.8024H81.2426C80.8555 22.7959 79.6715 22.6383 79.7798 20.7964L81.7639 0H71.725Z" fill="white"/>
</svg>
