<svg width="109" height="48" viewBox="0 0 109 48" fill="none" xmlns="http://www.w3.org/2000/svg">
<path d="M8.81243 3.42896H56.9293L55.4574 8.9153H7.3374L8.81243 3.42896Z" fill="white"/>
<path d="M13.9164 14.5216H27.4412L21.6043 36.4638H0L2.04356 28.5833C2.04356 28.5833 2.7258 24.253 7.68784 23.4255H16.2506L14.9872 27.9011H7.73837L7.3404 31.1607H17.3213L20.1924 20.2133H5.64427C5.64427 20.2133 7.34672 14.9575 13.9164 14.5216Z" fill="white"/>
<path d="M32.1349 14.5216H53.8592L51.4272 23.7761C51.4272 23.7761 50.6502 27.6105 46.4651 27.9011H42.0874L49.7247 36.4638H42.7191L37.0275 29.9447L38.6825 23.2802H45.884L46.6609 20.2164H36.2978L32.1349 36.467H26.3232L32.1349 14.5216Z" fill="white"/>
<path d="M58.335 14.5216H79.9361L77.7472 23.4255C77.2608 25.4943 75.9469 27.7558 72.7347 28.0464H63.6381L64.8542 23.277H71.9103L72.7852 20.1627H62.5674L59.7468 31.2081H75.7542L74.1971 36.4638H52.5454L58.335 14.5216Z" fill="white"/>
<path d="M84.8499 14.5216H106.353L104.992 20.1659H89.0349L88.3527 23.3781H104.117L100.661 36.467H78.9624L80.4216 31.0185H96.3785L97.1081 28.1001H85.968C85.968 28.1001 81.5903 27.661 82.5189 23.2139L84.8499 14.5216Z" fill="white"/>
<path d="M51.0391 42.2031H99.1054L97.6967 47.5062H49.5293L51.0391 42.2031Z" fill="white"/>
<path d="M75.7545 5.59568C76.282 5.59568 76.8126 5.61463 77.3401 5.58936C77.8518 5.56725 78.1013 6.04419 78.0255 6.42953C78.0034 6.53692 77.9655 6.63799 77.9402 6.74538C77.7539 7.44657 77.5707 8.15092 77.3812 8.85211C77.3212 9.07005 77.2801 9.10795 77.0906 9.10795C76.4494 9.1048 76.4083 9.19639 76.6042 8.51099C76.7937 7.84771 76.9642 7.1781 77.1411 6.51165C77.1632 6.43269 77.1127 6.36004 77.0369 6.35688C76.9263 6.35056 76.819 6.34425 76.7084 6.34741C76.3294 6.35372 76.3073 6.2874 76.1904 6.73906C76.0009 7.45921 75.8145 8.17935 75.6219 8.89949C75.5777 9.06689 75.5208 9.10795 75.3534 9.11111C75.1702 9.11427 74.9902 9.11427 74.807 9.10795C74.6743 9.1048 74.6269 9.02583 74.6648 8.88686C74.8638 8.15092 75.066 7.41499 75.265 6.67905C75.2808 6.62536 75.2934 6.57482 75.3029 6.52113C75.3187 6.44848 75.265 6.36004 75.1986 6.36004C74.9996 6.35373 74.7975 6.35373 74.5985 6.35057C74.469 6.35057 74.3995 6.43585 74.3679 6.54639C74.2827 6.8433 74.2037 7.14336 74.1279 7.44026C74.0047 7.91403 73.8847 8.39097 73.7615 8.86475C73.711 9.06373 73.6541 9.11111 73.4646 9.11427C73.3193 9.11743 73.174 9.11427 73.0287 9.10164C72.994 9.09848 72.934 9.03215 72.9371 9.00057C72.9529 8.87422 72.9908 8.7542 73.0224 8.63102C73.2751 7.68346 73.5309 6.73591 73.7868 5.78835C73.8247 5.64622 73.8689 5.60516 74.0142 5.60516C74.589 5.59568 75.1734 5.59568 75.7545 5.59568Z" fill="white"/>
<path d="M86.3351 9.10813C85.8266 9.10813 85.3149 9.11129 84.8064 9.10813C84.6421 9.10813 84.5884 9.03233 84.6263 8.86493C84.6642 8.707 84.7053 8.54907 84.7464 8.39115C84.9675 7.56678 85.1886 6.74556 85.4097 5.92119C85.4223 5.86749 85.4476 5.82011 85.4665 5.76958C85.517 5.63376 85.5518 5.60218 85.7066 5.60218C86.5278 5.59902 87.3458 5.5927 88.167 5.60534C88.584 5.61165 88.8335 5.90855 88.7924 6.32232C88.7798 6.46445 88.7293 6.60343 88.6945 6.74556C88.5018 7.4815 88.3092 8.22059 88.1165 8.95653C88.0912 9.06076 88.0218 9.11129 87.9238 9.11129C87.3901 9.10813 86.8626 9.10813 86.3351 9.10813ZM86.5278 8.41642C86.7457 8.41642 86.9668 8.41958 87.1847 8.41326C87.3521 8.4101 87.4153 8.35641 87.4595 8.20164C87.529 7.95843 87.6017 7.71207 87.6648 7.46886C87.7154 7.27619 87.7596 7.08037 87.8007 6.88454C87.8291 6.75504 87.7659 6.68239 87.6238 6.68239C87.1879 6.67924 86.7489 6.68239 86.313 6.68239C86.1867 6.68239 86.1077 6.74872 86.0761 6.86558C86.0003 7.12774 85.9182 7.38674 85.8582 7.65206C85.675 8.48906 85.5076 8.41642 86.4772 8.41642C86.4899 8.41642 86.5088 8.41642 86.5278 8.41642Z" fill="white"/>
<path d="M70.2052 9.11159C69.7125 9.11159 69.2197 9.11475 68.727 9.11159C68.408 9.10843 68.4048 9.10527 68.5027 8.76731C68.6038 8.41671 68.7049 8.06928 68.8091 7.72184C68.9386 7.28281 69.2608 7.05855 69.6935 7.02697C70.1294 6.99538 70.5684 7.02065 71.0075 7.02381C71.0833 7.02381 71.1464 7.09962 71.1306 7.16594C71.0959 7.30808 71.0643 7.45021 71.0075 7.58287C70.9853 7.63656 70.9001 7.69342 70.8401 7.69342C70.5305 7.70605 70.221 7.69973 69.9083 7.70289C69.703 7.70605 69.6651 7.74079 69.6019 7.93978C69.5703 8.04401 69.5387 8.14824 69.5103 8.25247C69.4945 8.31564 69.5577 8.40092 69.624 8.40724C69.643 8.4104 69.6619 8.4104 69.6777 8.4104C70.1168 8.41355 70.5526 8.41672 70.9917 8.41988C71.1843 8.42303 71.2538 8.41987 71.3296 8.14508C71.4591 7.69026 71.5697 7.23227 71.6897 6.77429C71.7087 6.7048 71.7308 6.63531 71.7497 6.56582C71.7939 6.3921 71.756 6.34157 71.5634 6.34157C70.9253 6.33841 70.2842 6.33841 69.6461 6.33841C69.5545 6.33841 69.4629 6.33525 69.3745 6.32893C69.3145 6.32578 69.2671 6.21207 69.2955 6.15206C69.4566 5.80778 69.7188 5.61511 70.1041 5.59932C70.1768 5.59616 70.2494 5.593 70.3221 5.593C71.0706 5.593 71.8192 5.593 72.5678 5.593C72.6404 5.593 72.7162 5.58668 72.7857 5.60879C72.8236 5.62143 72.8773 5.68775 72.871 5.7225C72.8426 5.90253 72.7983 6.07941 72.7541 6.25313C72.5393 7.06171 72.3246 7.87029 72.1066 8.67572C72.0845 8.76415 72.0529 8.84943 72.0213 8.93471C71.974 9.07685 71.9455 9.10211 71.7845 9.10211C71.2633 9.11159 70.7327 9.10843 70.2052 9.11159C70.2052 9.10843 70.2052 9.11159 70.2052 9.11159Z" fill="white"/>
<path d="M92.1405 9.11153C91.572 9.10205 91.7299 9.18102 91.4456 8.65354C91.1519 8.11028 90.8739 7.55754 90.5833 7.01112C90.5675 6.98269 90.5296 6.95742 90.4981 6.9511C90.4791 6.94794 90.4412 6.98269 90.4349 7.00796C90.2833 7.55122 90.138 8.09449 89.9895 8.63459C89.9611 8.73883 89.9264 8.84306 89.9011 8.94729C89.8758 9.04836 89.8127 9.10205 89.7116 9.10205C89.4937 9.10205 89.2757 9.10206 89.0578 9.0989C88.9725 9.09574 88.9346 9.05468 88.9599 8.95992C89.023 8.71356 89.0767 8.46404 89.1399 8.22083C89.3515 7.4312 89.5663 6.64473 89.7779 5.85826C89.8379 5.634 89.879 5.60242 90.119 5.59294C90.138 5.59294 90.1569 5.59294 90.1727 5.59294C90.9339 5.60557 90.7223 5.48871 91.0697 6.13621C91.3509 6.66684 91.6193 7.20063 91.8973 7.73126C91.9099 7.75337 91.9573 7.75968 91.9889 7.766C91.9984 7.76916 92.0173 7.74705 92.0236 7.73441C92.0426 7.68388 92.0615 7.63334 92.0773 7.58281C92.1847 7.17852 92.2921 6.77738 92.3995 6.37309C92.409 6.33835 92.4058 6.29729 92.4216 6.26571C92.5195 6.05408 92.4911 5.79509 92.6774 5.61821C92.9112 5.61189 93.1481 5.59926 93.3818 5.59926C93.4576 5.59926 93.5144 5.65295 93.505 5.74139C93.4955 5.82983 93.4829 5.92143 93.4607 6.00987C93.2175 6.96058 92.9743 7.90813 92.7311 8.85569C92.6711 9.0831 92.6585 9.0989 92.45 9.10522C92.3616 9.11153 92.27 9.11153 92.1405 9.11153Z" fill="white"/>
<path d="M68.8308 3.51435C68.3033 3.51435 67.7727 3.51751 67.2452 3.51435C67.1062 3.51435 67.0462 3.43854 67.0809 3.30273C67.2199 2.7563 67.3652 2.21304 67.5105 1.66977C67.6368 1.196 67.76 0.722217 67.8927 0.248439C67.9527 0.0336601 67.9938 0.00523385 68.1927 0.00207533C68.995 -0.00108319 69.7973 -0.00108492 70.5995 0.00523212C70.9407 0.00839064 71.1933 0.150528 71.3134 0.48849C71.3481 0.586404 71.3007 0.678001 71.1933 0.68116C70.9944 0.687477 70.7922 0.690635 70.5932 0.690635C70.0468 0.690635 69.4972 0.690633 68.9508 0.693792C68.8023 0.693792 68.7708 0.719057 68.7234 0.873825C68.6318 1.16757 68.5433 1.46447 68.4612 1.76137C68.3759 2.07407 68.3001 2.38676 68.218 2.70261C68.5465 2.86054 68.8971 2.73735 69.2351 2.77525C69.3267 2.78473 69.4182 2.77841 69.5098 2.77525C69.9931 2.7721 69.9931 2.7721 70.1005 2.28884C70.1258 2.16882 70.091 2.11513 69.9805 2.11197C69.8699 2.10881 69.7594 2.11828 69.652 2.10565C69.4972 2.08986 69.3235 2.16566 69.1877 2.02669C69.2319 1.85297 69.273 1.67609 69.3267 1.50553C69.3393 1.46763 69.4119 1.42657 69.4593 1.42657C69.9868 1.42341 70.5174 1.42341 71.0449 1.43288C71.1207 1.43288 71.1681 1.51185 71.1491 1.59081C71.067 1.94456 70.9849 2.29832 70.8933 2.64892C70.8364 2.87633 70.7638 3.10374 70.7006 3.33116C70.6596 3.47645 70.6216 3.51435 70.4763 3.51435C70.1479 3.51751 69.8194 3.51751 69.4909 3.51751C69.273 3.51751 69.0519 3.51751 68.8339 3.51751C68.8308 3.51751 68.8308 3.51751 68.8308 3.51435Z" fill="white"/>
<path d="M85.4922 3.52111C85.4732 3.52111 85.4543 3.52111 85.4385 3.52111C84.9805 3.51479 85.0279 3.57481 84.8163 3.15156C84.5478 2.61462 84.2698 2.08083 83.9951 1.54388C83.954 1.46492 83.9035 1.38911 83.8529 1.31331C83.8434 1.30067 83.8213 1.2912 83.8055 1.2912C83.7961 1.2912 83.7803 1.31015 83.774 1.32278C83.6918 1.61968 83.6097 1.91974 83.5276 2.21664C83.4234 2.60198 83.3191 2.98732 83.2117 3.37266C83.1833 3.47373 83.1107 3.52111 83.0096 3.51795C82.7727 3.51164 82.539 3.50216 82.3021 3.49268C82.2168 3.35055 82.3368 3.22421 82.3368 3.08523C82.3368 2.99679 82.3905 2.91152 82.4126 2.82624C82.64 1.96396 82.8675 1.10168 83.0949 0.242566C83.1454 0.0530551 83.1991 0.00251883 83.4044 0.00567735C84.2477 0.0183114 84.0298 -0.120659 84.3962 0.577373C84.6678 1.09537 84.93 1.61337 85.1985 2.13136C85.2111 2.15663 85.2585 2.1819 85.2869 2.17874C85.3122 2.17874 85.3532 2.144 85.3595 2.11873C85.4764 1.69864 85.5869 1.2754 85.7007 0.85532C85.7322 0.732137 85.7701 0.608956 85.8017 0.485773C85.947 -0.0827598 85.9186 0.0151546 86.465 0.00252056C86.8472 -0.00695499 86.8693 0.0562146 86.7746 0.416286C86.5313 1.367 86.2881 2.31771 86.0418 3.26843C85.9818 3.499 85.9691 3.50848 85.7607 3.51795C85.7228 3.51795 85.688 3.51795 85.6501 3.51795C85.6027 3.52111 85.549 3.52111 85.4922 3.52111Z" fill="white"/>
<path d="M88.7827 3.51754C88.2711 3.51754 87.7625 3.5207 87.2509 3.51754C87.0392 3.51754 86.9824 3.45121 87.0298 3.25538C87.1403 2.81635 87.254 2.37415 87.3709 1.93828C87.5067 1.42976 87.6488 0.921233 87.791 0.415871C87.8194 0.311639 87.8541 0.207408 87.8984 0.109494C87.9173 0.0684331 87.9742 0.030533 88.0184 0.017899C88.0879 0.00210637 88.1637 0.00526219 88.2363 0.00526219C88.947 0.00526219 89.6577 0.00526219 90.3715 0.00526219C90.482 0.00526219 90.5926 0.00526315 90.7 0.0210557C90.8863 0.0494824 91.0537 0.131604 91.1548 0.292689C91.2116 0.381127 91.2717 0.501152 91.2559 0.58959C91.2306 0.719089 91.0853 0.690665 90.9779 0.690665C90.302 0.693823 89.6292 0.690663 88.9533 0.693822C88.729 0.693822 88.7196 0.700139 88.6501 0.921235C88.5553 1.21498 88.4637 1.51188 88.3816 1.80878C88.2995 2.10568 88.2268 2.40258 88.151 2.69948C88.4606 2.86057 88.7922 2.7437 89.1112 2.77528C89.2186 2.78476 89.3292 2.77845 89.4397 2.77845C89.9261 2.77529 89.923 2.77528 90.0398 2.30151C90.0683 2.1878 90.0177 2.11515 89.923 2.11515C89.8124 2.11515 89.705 2.11831 89.5945 2.10884C89.4366 2.09304 89.266 2.16569 89.127 2.03304C89.1681 1.85932 89.1997 1.67928 89.2628 1.51188C89.2786 1.4645 89.3829 1.4266 89.446 1.4266C89.7935 1.41712 90.1377 1.42028 90.4852 1.42028C90.6494 1.42028 90.8137 1.42028 90.9779 1.43291C91.0569 1.43923 91.1043 1.50556 91.0885 1.58768C91.0506 1.78351 91.0095 1.97934 90.959 2.17201C90.8579 2.55735 90.7505 2.94269 90.6431 3.32802C90.602 3.47648 90.561 3.51754 90.422 3.51754C90.1662 3.5207 89.9103 3.52069 89.6545 3.52069C89.3671 3.52069 89.0733 3.5207 88.7827 3.51754Z" fill="white"/>
<path d="M96.2562 5.60214C96.7868 5.60214 97.3143 5.60214 97.8449 5.60214C97.9302 5.60214 97.9839 5.66847 97.9649 5.74111C97.946 5.8106 97.9081 5.88009 97.9017 5.94958C97.8544 6.35703 97.7217 6.34439 97.3901 6.34439C96.7331 6.34123 96.0761 6.34123 95.4191 6.34439C95.2391 6.34439 95.1949 6.38545 95.1538 6.54969C95.1254 6.65393 95.1001 6.76132 95.0749 6.86871C95.0591 6.94135 95.1128 7.00136 95.2012 7.00452C95.3275 7.00768 95.4571 7.01084 95.5834 7.01084C96.114 7.01084 96.6415 7.01084 97.1721 7.01084C97.2637 7.01084 97.3553 7.01084 97.4438 7.02032C97.5227 7.02979 97.5701 7.08033 97.5638 7.16877C97.5606 7.22246 97.5575 7.27931 97.5448 7.32985C97.3995 7.87311 97.2511 8.41954 97.1058 8.9628C97.0837 9.04177 97.0363 9.08915 96.9574 9.09862C96.8847 9.1081 96.8121 9.1081 96.7394 9.1081C95.8077 9.1081 94.8759 9.1081 93.9441 9.1081C93.8715 9.1081 93.7988 9.10494 93.7262 9.10178C93.6472 9.09546 93.5904 9.03229 93.6062 8.95965C93.6283 8.85226 93.6504 8.74487 93.682 8.64379C93.7483 8.43849 93.7736 8.4227 93.9947 8.41954C94.6169 8.41638 95.236 8.41638 95.8582 8.41954C96.3162 8.41954 96.3383 8.42901 96.4583 7.90786C96.4615 7.88891 96.4646 7.86996 96.4646 7.85416C96.4583 7.77204 96.4141 7.71203 96.332 7.71203C95.9308 7.70571 95.5297 7.70572 95.1286 7.70256C94.9454 7.70256 94.7622 7.70571 94.5821 7.68992C94.3168 7.66781 94.1494 7.48778 94.1431 7.22246C94.14 7.07717 94.1399 6.92556 94.1747 6.78658C94.2568 6.45178 94.3547 6.12014 94.4526 5.7885C94.5032 5.61793 94.5379 5.59583 94.7306 5.59583C95.2423 5.59267 95.754 5.59583 96.2656 5.59583C96.2562 5.59898 96.2562 5.59898 96.2562 5.60214Z" fill="white"/>
<path d="M100.422 7.00762C100.659 7.00762 100.896 7.01394 101.133 7.0013C101.19 6.99814 101.275 6.93813 101.294 6.88444C101.373 6.66334 101.43 6.43277 101.499 6.20852C101.556 6.01901 101.619 5.83265 101.679 5.64314C101.888 5.54522 102.109 5.61471 102.324 5.59576C102.343 5.59576 102.362 5.59576 102.378 5.59576C102.532 5.60208 102.57 5.65261 102.532 5.79475C102.314 6.60333 102.1 7.40875 101.882 8.21733C101.822 8.44474 101.765 8.67532 101.698 8.90273C101.654 9.06382 101.597 9.10172 101.424 9.10803C101.37 9.11119 101.313 9.10803 101.259 9.10803C100.561 9.11435 100.71 9.12067 100.842 8.55529C100.896 8.32472 100.969 8.10047 101.032 7.87305C101.054 7.80041 101 7.71197 100.931 7.70881C100.438 7.70565 99.9455 7.70565 99.4527 7.70249C99.3453 7.70249 99.2822 7.77514 99.2569 7.86358C99.1558 8.21101 99.0642 8.56477 98.9663 8.91536C98.9253 9.06381 98.8873 9.09856 98.7452 9.10488C98.6189 9.10804 98.4894 9.10803 98.363 9.10803C97.9872 9.10488 97.9809 9.10172 98.0819 8.71638C98.3409 7.73092 98.6031 6.74862 98.8621 5.76316C98.9 5.62735 98.9411 5.58945 99.099 5.59576C99.3327 5.60208 99.5696 5.54206 99.797 5.6463C99.7465 5.85792 99.6928 6.06638 99.6454 6.278C99.4685 7.07079 99.3359 7.01078 100.198 7.00762C100.271 7.00762 100.343 7.00762 100.416 7.00762C100.422 7.01078 100.422 7.00762 100.422 7.00762Z" fill="white"/>
<path d="M73.71 2.10877C73.6184 2.10877 73.5268 2.10245 73.4352 2.11193C73.2394 2.13088 72.993 2.02033 72.8604 2.1751C72.7435 2.31407 72.7309 2.54148 72.674 2.73099C72.6582 2.78153 72.6582 2.83839 72.6393 2.89208C72.3898 3.64065 72.5856 3.51431 71.7517 3.52062C71.6064 3.52062 71.5464 3.44798 71.578 3.31532C71.6254 3.1037 71.6823 2.89208 71.736 2.68362C71.9381 1.92873 72.1402 1.177 72.3455 0.422118C72.374 0.317887 72.4056 0.210498 72.4529 0.112584C72.4719 0.0715237 72.5287 0.0209847 72.573 0.0209847C72.7909 0.0115091 73.0088 0.00835058 73.2268 0.0209847C73.3057 0.0241432 73.35 0.103106 73.331 0.178911C73.2805 0.390531 73.2141 0.598994 73.1699 0.810614C73.0373 1.42337 72.8762 1.42653 73.6405 1.42021C73.969 1.41705 74.2975 1.42021 74.626 1.41705C74.7429 1.41705 74.8345 1.36651 74.8724 1.24017C74.9418 0.996967 75.0113 0.750605 75.0808 0.507399C75.1156 0.384217 75.1408 0.257873 75.1914 0.144167C75.2166 0.0904719 75.283 0.0336205 75.343 0.0178279C75.4283 -0.00428176 75.523 0.0051911 75.6146 0.0051911C76.0694 0.00203258 76.1579 -0.0358681 75.9936 0.520031C75.7473 1.35704 75.5388 2.20352 75.3145 3.04369C75.2861 3.14792 75.2545 3.25215 75.2261 3.35638C75.1977 3.45429 75.1408 3.51431 75.0334 3.51431C74.8345 3.51431 74.6323 3.51747 74.4333 3.50799C74.3544 3.50483 74.2943 3.44798 74.3101 3.36586C74.3575 3.13529 74.4144 2.90471 74.4681 2.6773C74.5028 2.53517 74.5344 2.39303 74.5723 2.25406C74.5976 2.16246 74.5691 2.11824 74.4775 2.11508C74.3133 2.11193 74.1491 2.11192 73.9848 2.10877C73.8932 2.10877 73.8016 2.10877 73.71 2.10877Z" fill="white"/>
<path d="M66.3199 7.0112C66.5631 6.9733 66.8568 7.07753 67.1379 6.95751C67.22 6.69851 67.3022 6.44267 67.3843 6.18367C67.3906 6.16788 67.3938 6.14893 67.3969 6.12998C67.5517 5.50459 67.4885 5.60566 68.0665 5.59619C68.1202 5.59619 68.1771 5.59618 68.2308 5.59934C68.3729 5.60566 68.4266 5.67199 68.3919 5.80781C68.2782 6.24684 68.1644 6.68587 68.0507 7.12491C67.9054 7.66817 67.7601 8.2146 67.6149 8.75786C67.5896 8.8463 67.5643 8.93474 67.5201 9.0137C67.498 9.05476 67.438 9.09898 67.3969 9.09898C67.1442 9.10214 66.8916 9.08951 66.6357 9.08319C66.5568 8.94105 66.6673 8.81471 66.6736 8.6789C66.6768 8.59046 66.7305 8.50834 66.7494 8.4199C66.9326 7.63343 67.04 7.70292 66.1777 7.70292C65.9408 7.70292 65.704 7.69976 65.4671 7.70292C65.1639 7.70608 65.1607 7.70608 65.0691 8.02509C65.0028 8.2525 64.9522 8.48307 64.8891 8.71049C64.867 8.79892 64.8322 8.8842 64.8038 8.96948C64.7817 9.04529 64.7343 9.10214 64.6553 9.10214C64.4374 9.1053 64.2163 9.10846 63.9984 9.09898C63.9194 9.09582 63.8752 9.02318 63.8973 8.94106C63.9762 8.60625 64.0552 8.26829 64.1436 7.93664C64.3111 7.30494 64.4879 6.6764 64.6617 6.04469C64.6901 5.94046 64.7248 5.83623 64.7596 5.732C64.7848 5.6562 64.8354 5.60882 64.9143 5.6025C64.987 5.59618 65.0596 5.59619 65.1323 5.59619C65.7924 5.58987 65.6976 5.57092 65.5555 6.15208C65.4892 6.41424 65.4292 6.67955 65.3692 6.94487C65.6439 7.08384 65.9377 6.98277 66.2188 7.01436C66.2377 7.01436 66.2567 7.0112 66.3199 7.0112Z" fill="white"/>
<path d="M61.231 9.11118C60.8299 9.11118 60.4288 9.11434 60.0276 9.11118C59.6518 9.10802 59.6455 9.10486 59.7497 8.71637C59.9487 7.96148 60.154 7.20976 60.353 6.45487C60.4098 6.24325 60.4604 6.03163 60.5172 5.82317C60.5677 5.64629 60.6183 5.59891 60.7762 5.59575C61.7238 5.59259 62.6713 5.59259 63.6189 5.59575C63.761 5.59575 63.8116 5.6684 63.78 5.80737C63.7294 6.03794 63.6789 6.26851 63.6189 6.49593C63.5841 6.63174 63.5241 6.67281 63.3852 6.67597C62.8577 6.67912 62.327 6.67912 61.7996 6.67912C61.6543 6.67912 61.509 6.67596 61.3637 6.68544C61.2626 6.6886 61.2026 6.74861 61.1774 6.84968C61.0984 7.18449 61.0321 7.52561 60.931 7.85409C60.7415 8.47 60.8299 8.41631 61.3637 8.41631C61.8722 8.41631 62.3839 8.41947 62.8924 8.42578C62.9903 8.42578 63.0503 8.51738 63.0282 8.61213C63.0188 8.64688 63.0125 8.68478 63.003 8.71953C62.8861 9.10802 62.8861 9.10802 62.485 9.11118C62.068 9.11118 61.6511 9.11118 61.231 9.11118Z" fill="white"/>
<path d="M107.346 5.59909C107.857 5.59909 108.366 5.59909 108.877 5.59909C108.991 5.59909 109.02 5.64647 108.988 5.76965C108.893 6.15815 108.808 6.54665 108.697 6.93199C108.565 7.39945 108.239 7.65213 107.74 7.69003C107.522 7.70582 107.305 7.69951 107.083 7.70267C106.338 7.7153 106.578 7.67108 106.673 7.14993C106.692 7.04885 106.783 7.01727 106.881 7.01411C107.118 7.01095 107.355 7.01727 107.592 7.00147C107.649 6.99832 107.721 6.94146 107.756 6.88777C107.8 6.81196 107.823 6.72037 107.845 6.63193C107.892 6.40767 107.838 6.34766 107.592 6.3445C107.245 6.34134 106.9 6.34134 106.553 6.3445C106.376 6.34766 106.338 6.37293 106.284 6.55297C106.18 6.91935 106.085 7.2889 105.987 7.65529C105.871 8.09432 105.76 8.53335 105.634 8.96923C105.618 9.02293 105.536 9.09242 105.482 9.09557C105.245 9.10821 105.008 9.10189 104.771 9.09873C104.711 9.09873 104.661 9.00398 104.68 8.93133C104.749 8.66917 104.819 8.40702 104.891 8.1417C105.075 7.45946 105.258 6.77406 105.441 6.09182C105.469 5.98759 105.504 5.88336 105.536 5.77913C105.586 5.62752 105.615 5.59909 105.76 5.59594C105.871 5.59278 105.978 5.59277 106.089 5.59277C106.509 5.59277 106.926 5.59277 107.346 5.59277C107.346 5.59593 107.346 5.59593 107.346 5.59909Z" fill="white"/>
<path d="M80.8139 5.59589C81.2877 5.59589 81.7615 5.59589 82.2353 5.59589C82.289 5.59589 82.3458 5.59904 82.3995 5.60536C82.4785 5.61168 82.5227 5.67801 82.5006 5.75697C82.3995 6.14231 82.3016 6.53081 82.191 6.91299C82.0552 7.38677 81.7394 7.65524 81.2498 7.68682C80.8866 7.70893 80.5234 7.69314 80.157 7.68998C80.078 7.68998 80.0306 7.61418 80.0559 7.53522C80.2359 7.00774 80.0906 7.00143 80.7508 7.0109C80.8613 7.0109 80.9687 7.0109 81.0792 7.00774C81.1803 7.00459 81.2561 6.95405 81.2845 6.85929C81.3256 6.72032 81.354 6.57818 81.3793 6.43605C81.3825 6.4171 81.3382 6.36972 81.313 6.36657C81.2245 6.35077 81.1329 6.34761 81.0413 6.34445C80.8961 6.3413 80.7508 6.3413 80.6055 6.34445C79.6263 6.36656 79.9201 6.18337 79.6168 7.11829C79.4273 7.70577 79.301 8.30905 79.1431 8.90601C79.0957 9.08289 79.0704 9.105 78.8809 9.10816C78.6819 9.11132 78.4798 9.105 78.2808 9.10184C78.2082 9.09868 78.1545 9.02288 78.1703 8.95023C78.1734 8.93128 78.1766 8.91549 78.1797 8.89654C78.4387 7.93319 78.6946 6.96984 78.9536 6.00333C78.9757 5.91489 79.0136 5.82962 79.0357 5.74434C79.0641 5.64011 79.1336 5.59904 79.2347 5.59904C79.4716 5.59588 79.7084 5.59589 79.9453 5.59589C80.2296 5.59589 80.5233 5.59589 80.8139 5.59589Z" fill="white"/>
<path d="M63.7367 0.00841137C64.2105 0.00841137 64.6842 0.00841137 65.158 0.00841137C65.2496 0.00841137 65.2875 0.0589471 65.2717 0.141069C65.2496 0.248458 65.2275 0.355846 65.1991 0.460077C65.1517 0.636954 65.079 0.690653 64.8832 0.690653C64.3368 0.693811 63.7904 0.690651 63.2439 0.693809C63.1524 0.693809 63.0608 0.693808 62.9723 0.696966C62.8428 0.703283 62.7607 0.763297 62.7323 0.877004C62.7007 1.00019 62.6754 1.12337 62.6501 1.24971C62.6344 1.32235 62.6912 1.39816 62.767 1.40132C62.9471 1.41079 63.1302 1.41395 63.3134 1.41711C63.6419 1.42027 63.9704 1.41711 64.2957 1.42027C64.5168 1.42343 64.5295 1.4487 64.4695 1.68558C64.4568 1.73928 64.4473 1.79297 64.4284 1.84351C64.3557 2.07724 64.321 2.10567 64.0873 2.10882C63.6135 2.11198 63.1397 2.11198 62.6659 2.10882C62.4512 2.10882 62.4006 2.14357 62.3564 2.32992C62.2996 2.57628 62.2237 2.81949 62.1574 3.06586C62.129 3.17009 62.0943 3.27432 62.0627 3.37855C62.0311 3.47962 61.9584 3.51752 61.8574 3.52068C61.7468 3.52384 61.6394 3.52069 61.5289 3.52384C61.1909 3.53016 61.1246 3.52068 61.2383 3.12271C61.4941 2.21622 61.7152 1.29709 61.9553 0.384276C61.9742 0.314788 62.009 0.248457 62.0248 0.178969C62.0564 0.04947 62.1448 0.00841137 62.2648 0.00841137C62.7544 0.00525285 63.7367 0.00525285 63.7367 0.00841137Z" fill="white"/>
<path d="M78.5875 0.00213621C79.0613 0.00213621 79.535 -0.00102231 80.0088 0.00213621C80.2078 0.00213621 80.2425 0.049513 80.1952 0.223232C80.072 0.687534 80.072 0.687537 79.5824 0.690696C79.5287 0.690696 79.4719 0.690696 79.4182 0.690696C78.916 0.700171 78.9254 0.605414 78.7707 1.20237C78.6064 1.83408 78.4359 2.46578 78.2653 3.09749C78.2369 3.20172 78.2053 3.30595 78.1611 3.40702C78.1421 3.45124 78.0884 3.50493 78.0474 3.50493C77.7915 3.51441 77.5389 3.51125 77.283 3.50178C77.2641 3.50178 77.2262 3.41965 77.2325 3.38175C77.2577 3.23962 77.2957 3.09748 77.3336 2.95851C77.5199 2.25732 77.7063 1.55613 77.8926 0.854935C77.9179 0.76018 77.8831 0.703328 77.7947 0.703328C77.5041 0.697011 77.2104 0.697013 76.9198 0.690696C76.8124 0.687537 76.7808 0.633838 76.8061 0.513815C76.8219 0.441169 76.8313 0.371684 76.8471 0.299038C76.9072 0.0431977 76.9482 0.00845151 77.2198 0.00529299C77.6747 -0.00102405 78.5875 0.00213621 78.5875 0.00213621Z" fill="white"/>
<path d="M65.5491 3.52097C65.5301 3.52097 65.5143 3.52097 65.4954 3.52097C65.1195 3.51781 65.1132 3.51466 65.2143 3.12932C65.4701 2.15018 65.7291 1.17103 65.9913 0.191893C66.0323 0.043443 66.0734 0.0118542 66.2123 0.00553715C66.2471 0.00237864 66.285 0.00238037 66.3197 0.00238037C66.5156 0.0150144 66.7114 0.0244898 66.9072 0.0465994C66.9704 0.0529165 66.9641 0.0845042 66.8093 0.656196C66.5724 1.52795 66.3387 2.40285 66.1018 3.27461C66.0418 3.49886 66.026 3.50833 65.8175 3.51465C65.7291 3.52097 65.6375 3.51781 65.5491 3.52097C65.5491 3.51781 65.5491 3.52097 65.5491 3.52097Z" fill="white"/>
<path d="M80.7068 3.51132C80.5963 3.51132 80.4889 3.51764 80.3784 3.50816C80.3341 3.505 80.2741 3.48605 80.2962 3.40393C80.3531 3.19231 80.3973 2.98068 80.4542 2.76906C80.6753 1.92574 80.8995 1.08558 81.1238 0.24541C81.1743 0.055899 81.2312 0.00851813 81.4301 0.00535961C81.5944 0.00220109 81.7586 0.00220109 81.9229 0.00535961C82.065 0.00851813 82.1187 0.0811683 82.084 0.216985C81.9766 0.637067 81.8692 1.06031 81.7555 1.48039C81.5944 2.07419 81.4207 2.66799 81.2627 3.26495C81.1964 3.51448 81.1427 3.52079 80.9248 3.52079C80.8521 3.52079 80.7795 3.52079 80.7068 3.52079C80.7068 3.51763 80.7068 3.51448 80.7068 3.51132Z" fill="white"/>
<path d="M82.8169 8.09779C83.038 7.26394 83.2307 6.52801 83.4234 5.79523C83.4613 5.64678 83.5087 5.60256 83.6413 5.60256C84.5794 5.60572 84.4531 5.47938 84.2351 6.30059C84.0361 7.05232 83.8371 7.80405 83.6381 8.55578C83.6002 8.69475 83.5592 8.83373 83.5213 8.97586C83.4992 9.05482 83.4518 9.09904 83.3728 9.10852C83.3191 9.11483 83.2623 9.12115 83.2086 9.11484C82.997 9.09588 82.7759 9.17169 82.5737 9.0485C82.6243 8.85899 82.678 8.66632 82.7253 8.47681C82.7664 8.31257 82.8011 8.15465 82.8169 8.09779Z" fill="white"/>
<path d="M103.129 9.10201C103.019 9.10201 102.908 9.11149 102.801 9.09569C102.763 9.08938 102.709 9.0262 102.706 8.99146C102.703 8.90302 102.722 8.81142 102.744 8.72298C102.987 7.81017 103.23 6.90052 103.477 5.98771C103.496 5.91822 103.524 5.85189 103.543 5.77925C103.575 5.65922 103.641 5.59289 103.773 5.59289C103.957 5.59605 104.137 5.58973 104.32 5.59289C104.487 5.59605 104.513 5.62448 104.478 5.77609C104.355 6.26882 104.231 6.76155 104.102 7.25428C103.963 7.78175 103.821 8.30606 103.679 8.83037C103.616 9.06726 103.578 9.09885 103.347 9.10517C103.274 9.10833 103.202 9.10517 103.129 9.10517C103.129 9.10833 103.129 9.10516 103.129 9.10201Z" fill="white"/>
</svg>
