<svg width="109" height="95" viewBox="0 0 109 95" fill="none" xmlns="http://www.w3.org/2000/svg">
<path d="M2.95459 68.5744C2.95459 68.7155 2.95459 68.9224 3.02044 69.0636C3.02044 69.3458 3.0863 69.6186 3.36853 69.8256C3.50964 69.8256 3.71661 69.8256 3.92358 69.8256C4.82672 69.8256 5.66401 69.8256 6.56715 69.8256C6.91524 69.8256 7.19747 69.8256 7.54555 69.7597C8.24172 69.6939 8.9379 69.6939 9.63407 69.7597C9.77518 69.8256 9.9163 69.7597 9.98215 69.6939C10.048 69.5528 10.1233 69.4869 10.1891 69.3458C10.255 68.7907 10.3961 68.3015 10.3961 67.8123C10.3302 67.2573 10.3302 66.7022 10.3302 66.213C10.3396 65.658 10.3396 65.0935 10.3491 64.5385L2.95459 66.0249C2.95459 66.8716 2.95459 67.7183 2.95459 68.5744Z" fill="#E79400"/>
<path d="M18.9947 58.1319C18.8536 57.1535 18.6466 56.1845 18.4397 55.2061C18.0916 54.096 17.8846 52.9106 17.6776 51.7252C17.6118 51.5841 17.6776 51.3772 17.6118 51.236C17.7529 51.0949 17.894 51.0291 17.9599 51.0291C18.5149 50.681 18.9383 50.1918 19.2864 49.7026C19.9825 48.5925 20.3306 47.3318 20.6128 46.0806C20.754 45.4503 20.8198 44.8294 20.8198 44.1991C20.8198 43.644 20.754 43.089 20.8198 42.5245C20.8857 41.8283 20.8857 41.198 20.8857 40.436C20.8857 40.1538 20.8857 39.8057 20.8857 39.4576C20.8857 39.1283 20.8857 38.7802 20.8857 38.4416L13.4348 40.7747C13.3689 41.6778 13.3689 42.581 13.3689 43.4935C13.3689 43.8416 13.3031 44.1897 13.2278 44.5378C13.0867 45.1681 12.6727 45.582 12.0424 45.7231C11.8355 45.7231 11.6285 45.7231 11.4121 45.7231C10.302 45.7231 9.18248 45.7231 7.99711 45.7231C7.93125 45.7231 7.85599 45.7231 7.79014 45.7231C7.64902 45.582 7.58317 45.5162 7.58317 45.3092C7.58317 45.2433 7.58317 45.1022 7.58317 44.9611C7.58317 44.2649 7.58317 43.5688 7.58317 42.8726L0.151075 45.5256C0.151075 45.5914 0.141667 45.6573 0.141667 45.7325C0.141667 48.8653 0.141667 51.9981 0.141667 55.1308C0.141667 55.3378 0.141667 55.62 0.0758134 55.827C0.0758134 56.2409 0.00995939 56.589 0.00995939 56.9371C0.00995939 57.5674 0.00995939 58.1883 0.00995939 58.8187C0.00995939 60.0699 -0.0558946 61.2553 0.151075 62.5065C0.151075 62.5723 0.151075 62.7135 0.151075 62.7887C0.151075 63.88 0.151075 64.9431 0.151075 66.0062L7.54554 64.5197C7.58317 61.7351 7.59257 58.9598 7.59257 56.1751C7.59257 55.1308 7.59257 54.0207 7.59257 52.9765C7.59257 52.8354 7.52672 52.6284 7.65843 52.5625C8.28874 52.4214 9.81279 52.4214 10.4431 52.5625C10.4431 52.7036 10.509 52.8448 10.509 52.9765C10.6501 53.8138 10.8571 54.651 10.9982 55.4789C11.064 55.827 11.064 56.2409 11.1393 56.7301C11.2051 57.0782 11.2804 57.4922 11.3463 57.8403C11.5532 58.8845 11.8355 59.8629 12.0424 60.8319C12.2212 61.7068 12.3905 62.61 12.5693 63.5037L19.6909 62.0737C19.6062 61.5469 19.531 61.0201 19.4275 60.4838C19.277 59.7406 19.1358 58.9033 18.9947 58.1319Z" fill="#E79400"/>
<path d="M9.46434 33.7656C9.46434 32.4391 9.46434 31.1879 9.46434 29.9367C9.39848 28.5443 9.46434 27.152 9.46434 25.7597C9.46434 25.6938 9.46434 25.5527 9.46434 25.4774C9.74657 25.3363 10.0194 25.2705 10.2264 25.2705C10.9225 25.2705 11.6187 25.2705 12.3149 25.2705C12.8041 25.3363 13.3591 25.4116 13.8483 25.6185C14.1306 25.6844 14.3375 25.8255 14.6104 26.0325C14.9584 26.2394 15.1654 26.6628 15.2407 27.0767C15.2407 27.359 15.2407 27.6318 15.2407 27.914C15.3065 28.676 15.3065 29.4475 15.3065 30.2095C15.3724 30.8398 15.3724 31.3949 15.3724 32.0158C15.3724 33.2012 15.3724 34.3865 15.3724 35.5625C15.3724 36.6726 15.3065 37.7921 15.3065 38.9022L22.7574 36.5691C22.7574 35.4214 22.7574 34.2548 22.7574 33.1259C22.7574 31.5924 22.6916 30.0684 22.6163 28.4597C22.6163 28.0457 22.6163 27.6224 22.6163 27.2084C22.5505 26.7192 22.4752 26.1642 22.5505 25.675C22.5505 24.7718 22.3435 23.9346 21.9954 23.0973C21.6473 22.3352 21.2992 21.5638 20.6031 21.0088C19.9727 20.5948 19.4177 20.1715 18.7968 19.7575C18.3076 19.4095 17.8184 19.2683 17.2633 19.2683C16.8494 19.2683 16.3602 19.2683 15.9368 19.2683C14.7515 19.2683 13.5661 19.2683 12.456 19.2683C12.1738 19.2683 11.9009 19.2683 11.694 19.2025C11.1389 19.1366 10.6497 19.1366 10.0947 19.1366C9.19151 19.1366 8.28837 19.1366 7.30997 19.1366C7.103 19.1366 6.82077 19.1366 6.6138 19.2025C5.91763 19.2683 5.28731 19.2683 4.59114 19.2683C3.82912 19.2683 3.05768 19.2683 2.29566 19.2683C2.22981 19.4095 2.15454 19.4753 2.15454 19.4753C2.15454 19.6823 2.15454 19.8892 2.15454 20.1056C2.15454 20.5948 2.15454 21.1499 2.15454 21.6391C2.15454 22.5422 2.08869 23.4454 2.08869 24.2826C2.08869 24.913 2.08869 25.6091 2.15454 26.23C2.15454 28.0363 2.15454 29.7767 2.15454 31.5924C2.15454 31.6583 2.15454 31.7336 2.15454 31.7994C2.01343 32.3545 2.01343 32.8437 2.01343 33.3987C2.01343 34.5841 2.07928 35.6942 2.07928 36.8796C2.2204 38.5541 2.14514 40.2193 2.14514 41.8939C2.14514 42.1009 2.14514 42.242 2.14514 42.3831C2.08869 42.8064 2.03224 43.2204 2.01343 43.6437L9.44552 40.9907C9.46434 38.573 9.46434 36.1458 9.46434 33.7656Z" fill="#E79400"/>
<path d="M15.6923 65.0932C15.8334 65.6483 15.9745 66.1375 15.9745 66.6925C16.0404 67.4545 16.2568 68.1507 16.3226 68.8469C16.3885 69.0538 16.3885 69.2608 16.6048 69.4772C16.6707 69.4772 16.746 69.4772 16.8118 69.4772C19.1073 69.543 21.3369 69.543 23.6324 69.543C23.6983 69.543 23.7735 69.4772 23.8394 69.4772C23.8394 69.3361 23.9052 69.2702 23.8394 69.195C23.5571 68.2166 23.4913 67.1064 23.2843 66.0622C23.1432 65.2249 23.0021 64.3218 22.8704 63.4845C22.7293 63.2022 22.6634 62.8542 22.5881 62.5813C22.5505 62.412 22.5317 62.2521 22.5035 62.0827L15.3818 63.5127C15.4853 64.0489 15.5888 64.5758 15.6923 65.0932Z" fill="#E79400"/>
<path d="M29.8225 63.6352C29.8225 65.5826 29.6814 67.4641 29.8225 69.3457C29.8225 69.5526 29.8883 69.7596 30.0295 69.976C30.0953 69.976 30.2364 69.976 30.3117 69.976C30.7256 69.976 31.2148 69.9101 31.6382 69.9101C32.1932 69.9101 32.7483 69.976 33.3127 69.976C34.2911 69.976 35.1943 69.9101 36.1633 69.9101C36.4455 69.8443 36.7936 69.8443 37.0664 69.769C37.1323 69.7031 37.1323 69.562 37.1323 69.4868C37.1981 68.6495 37.1981 67.8122 37.2734 66.9843C37.2734 65.9401 37.3392 64.9617 37.3392 63.9268C37.3392 62.4686 37.3392 60.3048 37.3392 58.8466C37.3392 58.2916 37.4051 57.8024 37.4051 57.2473C37.4051 57.1062 37.4051 56.8992 37.4051 56.7581C37.4051 56.4759 37.3392 56.1278 37.3392 55.855C37.3392 55.2247 37.4051 54.6038 37.4051 53.9734L29.8883 60.239C29.8225 61.1327 29.8225 62.732 29.8225 63.6352Z" fill="#E79400"/>
<path d="M40.4435 26.9078C40.5846 26.4186 40.7916 25.9294 41.0738 25.5154C41.3561 25.0262 41.9111 24.7534 42.4662 24.6781C43.3035 24.537 44.0655 24.744 44.8369 24.8851C45.1191 24.951 45.392 25.0262 45.6742 25.0921C45.9282 25.1579 46.1164 25.2896 46.2481 25.5154L53.2568 21.6112C52.6265 20.6328 52.0056 19.3157 50.7544 18.9676C50.4721 18.9676 50.2652 18.9018 50.124 18.7607C49.1456 18.2715 48.1014 18.0645 47.0571 17.9234C46.361 17.8575 45.6648 17.7823 44.9686 17.7823C44.7617 17.7823 44.4794 17.7823 44.2066 17.7823C43.0212 17.7164 41.9111 17.7823 40.7257 17.7823C38.9195 17.8481 36.8309 18.5443 35.3633 19.5227C33.971 20.4258 33.3407 22.1004 33.0679 23.6339C33.002 24.1231 33.002 24.6123 32.8609 25.0262C32.795 25.8635 32.6539 26.7008 32.6539 27.5287C32.6539 28.159 32.6539 28.8551 32.5881 29.4761C32.5881 30.7273 32.5881 31.9127 32.5222 33.1639L40.2459 28.8646C40.2648 28.2248 40.3118 27.5663 40.4435 26.9078Z" fill="#E79400"/>
<path d="M45.7597 54.9331C45.7597 57.3697 45.6938 60.5024 45.6938 63.0049C45.6938 64.8864 45.6938 66.6927 45.7597 68.5742C45.7597 68.9223 45.9008 69.3363 46.0419 69.6844C46.4559 69.6844 46.9451 69.6185 47.3684 69.6844C47.7165 69.6844 47.9987 69.6844 48.3468 69.7502C48.836 69.7502 49.3252 69.8913 49.7392 69.8913C50.5764 69.8255 51.3385 69.8255 52.1758 69.8255C52.665 69.8255 52.9378 69.5432 53.013 69.0635C53.0789 68.7812 53.0789 68.4331 53.0789 68.0851C53.1448 66.9749 53.1448 65.7896 53.1448 64.6701C53.2106 63.6917 53.2859 62.7885 53.2859 61.8195C53.3517 60.493 53.3517 58.4045 53.3517 57.0874C53.4176 55.9773 53.4176 54.9331 53.4176 53.8136C53.4176 52.9951 53.4176 52.1672 53.4176 51.3393L45.8256 52.7411C45.8067 53.4749 45.7597 54.2275 45.7597 54.9331Z" fill="#E79400"/>
<path d="M53.3516 37.67C53.3516 37.6041 53.3516 37.463 53.3516 37.3877C53.3516 36.7574 53.4175 36.0613 53.4175 35.4403C53.4833 34.4619 53.4175 33.4929 53.4175 32.5145C53.4175 30.9811 53.6245 29.4476 53.4175 27.9236C53.4175 27.3685 53.2764 26.8135 53.2105 26.3243C53.1447 25.073 52.9283 23.6807 52.3074 22.5612L45.2986 26.4654C45.3174 26.4936 45.3363 26.503 45.3457 26.5312C45.4115 26.8135 45.5526 27.0204 45.6279 27.2933C45.6937 27.5755 45.769 27.7825 45.769 28.0553C45.769 29.3065 45.7032 30.4919 45.7032 31.6773C45.7032 32.1665 45.769 32.6557 45.769 33.1355C45.769 33.2013 45.8349 33.2766 45.8349 33.2766C45.8349 34.255 45.9007 35.1581 45.9007 36.1271C45.9007 37.8675 45.8349 39.5421 45.8349 41.2825C45.8349 41.3484 45.8349 41.4895 45.8349 41.6306C45.6937 41.6306 45.6279 41.6306 45.5526 41.6306C44.9223 41.6306 44.3673 41.6306 43.8122 41.6306C43.3983 41.6306 43.0502 41.6965 42.6268 41.6965C41.7895 41.6965 40.9523 41.6965 40.1902 41.6965C39.908 41.6965 39.6352 41.6306 39.3529 41.6306C39.2871 41.2825 39.2118 40.9344 39.2118 40.5864C39.2118 37.3877 39.2118 34.1797 39.2118 30.9811C39.2401 30.5954 39.2589 30.2002 39.2777 29.8145L31.554 34.1139C31.554 34.7442 31.554 35.4403 31.6198 36.0613C31.6198 38.1498 31.554 40.2383 31.6198 42.2515C31.6857 43.2958 31.6857 44.2742 31.6857 45.3184C31.6857 45.8735 31.6857 46.3627 31.6857 46.9178C31.6857 47.6139 31.6857 48.2442 31.6857 48.9404C31.7515 51.3017 31.7515 53.6066 31.7515 55.968C31.7515 56.73 31.7515 57.5014 31.7515 58.3387L39.2683 52.0732C39.2683 51.377 39.2683 50.615 39.2683 49.9188C39.3341 49.5049 39.3341 49.0815 39.5505 48.7334C39.6164 48.7334 39.6916 48.7334 39.6916 48.7334C41.4979 48.7334 43.3136 48.7334 45.1199 48.7334C45.3268 48.7334 45.468 48.7993 45.6749 48.8746C45.6749 49.0157 45.7408 49.0815 45.7408 49.2226C45.7408 49.6366 45.8066 50.0599 45.8066 50.4739C45.8066 50.6056 45.7972 50.7373 45.7972 50.869L53.3893 49.4672C53.3893 47.0683 53.3799 44.6505 53.3234 42.2703C53.2858 40.7275 53.3516 39.2034 53.3516 37.67Z" fill="#E79400"/>
<path d="M83.5317 36.8986C83.5317 36.6164 83.4658 36.5505 83.1836 36.4847C83.0425 36.4847 82.9014 36.4847 82.7696 36.4847C81.5843 36.4847 80.4742 36.4847 79.3547 36.5505C78.1034 36.6164 76.918 36.4847 75.7327 36.5505C75.0365 36.5505 74.3403 36.5505 73.71 36.6164C73.4278 36.6164 73.2208 36.7575 73.155 37.1056C73.155 37.1714 73.0891 37.3126 73.0891 37.4537C73.0891 39.1282 73.0891 40.7276 73.0891 42.3269C73.0891 42.6091 73.155 42.8819 73.3713 43.1642C73.5783 43.23 73.7853 43.23 74.0675 43.3053C74.2745 43.3053 74.5567 43.3053 74.7637 43.3053C75.0459 43.4464 75.2529 43.4464 75.4599 43.4464C75.7421 43.4464 75.9491 43.3053 76.2219 43.5122C76.2219 43.5781 76.2219 43.6534 76.2219 43.7192C76.156 44.5941 76.2783 45.4785 76.2219 46.3534L83.6634 45.1116C83.5975 42.6091 83.5975 40.2384 83.5223 37.8018C83.5317 37.5289 83.5317 37.1808 83.5317 36.8986Z" fill="#E79400"/>
<path d="M73.3981 48.3192C73.3322 50.1255 73.3981 51.9411 73.257 53.8133C73.1911 54.7917 73.1911 55.8359 73.1911 56.8049C73.1911 57.0872 73.1911 57.36 73.1911 57.6422C73.257 59.1004 73.257 60.568 73.1911 62.1015C73.1911 62.4496 73.1911 62.7318 73.1252 63.0799C73.1252 63.1457 73.1252 63.221 73.0594 63.2868C72.9183 63.2868 72.8524 63.2868 72.7113 63.2868C71.667 63.2868 70.6228 63.2868 69.7197 63.3527C68.9576 63.3527 68.3932 63.0705 67.7723 62.6565C67.7064 62.5907 67.6311 62.5154 67.5653 62.4496C67.0102 61.6875 66.8691 60.9161 66.935 60.013C67.0008 59.806 67.0008 59.5238 66.935 59.3168C66.935 58.6865 66.8691 58.1314 66.8691 57.5764C66.935 56.9461 67.0102 56.391 67.0102 55.7701C67.0761 54.2366 67.0761 52.7032 67.0761 51.1791C67.0761 50.8969 67.0102 50.6241 67.0102 50.4171C67.0761 50.0032 67.0761 49.6551 67.0761 49.307L59.6252 50.1349C59.6158 51.7342 59.5593 53.277 59.6252 54.8764C59.691 55.8548 59.6252 56.7579 59.6252 57.7269L59.5593 57.7927C59.5593 58.2819 59.5593 58.6959 59.5593 59.1192C59.5593 59.6084 59.6252 60.0976 59.6252 60.5774C59.691 60.5774 59.6252 60.6433 59.6252 60.7185C59.6252 61.0008 59.6252 61.2077 59.6252 61.4147C59.6252 62.1767 59.6252 62.8729 59.691 63.5691C59.691 64.1241 59.8321 64.6792 60.0391 65.1684C60.2461 65.5823 60.3872 66.0057 60.5942 66.4196C60.66 66.7019 60.8011 67.0499 61.0081 67.2569C61.9113 68.4423 63.0966 69.2796 64.5548 69.6276C65.044 69.7688 65.5332 69.7688 65.9472 69.8346C66.7092 69.9005 67.4806 69.9757 68.2426 69.9005C69.4939 69.9005 70.6792 69.9005 71.8646 69.8346C72.2127 69.8346 72.4949 69.8346 72.843 69.8346C74.0942 69.7688 75.3455 69.6935 76.5308 69.6276C77.6409 69.6276 78.7605 69.5618 79.8706 69.5618C80.0775 69.5618 80.2845 69.4959 80.5009 69.4959C80.5667 69.289 80.5667 69.1479 80.5667 69.0067C80.5667 67.9625 80.6326 66.9182 80.6326 65.874C80.6326 64.7639 80.6985 63.5785 80.6985 62.459C80.6985 61.6217 80.7643 60.7844 80.7643 59.9565C80.8302 59.0534 80.8302 58.075 80.8302 57.1718C80.8302 56.0617 80.896 54.9422 80.8302 53.8321C80.8302 51.6025 80.8302 49.307 80.8302 47.0115L73.3887 48.2533C73.3981 48.2627 73.3981 48.291 73.3981 48.3192Z" fill="#E79400"/>
<path d="M68.8737 37.8393C68.8737 36.4469 68.9396 35.1299 68.9396 33.7375C68.9396 33.1072 68.8737 32.5521 68.8737 31.9312C68.9396 30.8211 68.9396 29.7016 68.9396 28.6573C68.9396 27.8953 68.9396 27.1239 69.0054 26.4277C69.1465 25.7315 69.3535 25.1765 69.9838 24.7531C70.5389 24.4051 71.1692 24.1228 71.8654 24.1981C72.0723 24.1981 72.4204 24.1981 72.7027 24.1981C72.7685 24.1981 72.8438 24.1981 72.9096 24.1981C73.3236 24.3392 73.6716 24.4803 74.0197 24.612C74.4337 24.819 74.7159 25.1671 74.9229 25.5152C75.064 25.7221 75.1298 25.8633 75.1298 26.1455C75.1957 26.7758 75.271 27.3967 75.3368 28.027C75.3368 28.3751 75.4027 28.7232 75.4027 29.0713C75.4027 29.6263 75.3368 30.2567 75.3368 30.8776C75.3368 31.0845 75.4027 31.3668 75.619 31.5737C75.7602 31.6396 75.9671 31.6396 76.1741 31.6396C76.6633 31.7054 77.1525 31.6396 77.6323 31.6396C78.8177 31.7054 80.0689 31.7054 81.2543 31.7807C81.4612 31.7807 81.6024 31.7807 81.8093 31.7807C82.0163 31.7807 82.1574 31.8466 82.3644 31.7149C82.5055 31.3009 82.5055 30.8117 82.5055 30.3884C82.4396 30.1814 82.4396 29.9744 82.5055 29.7581C82.5055 29.203 82.5713 28.5727 82.5713 28.0176C82.5713 27.0392 82.5713 26.0702 82.5055 25.026C82.5055 24.3957 82.5055 23.7747 82.2233 23.1444C82.0163 22.5894 81.8752 22.0343 81.5929 21.5451C81.5271 21.3381 81.4518 21.197 81.386 21.0559C81.0379 20.2939 80.4828 19.7294 79.8525 19.2496C79.2975 18.9015 78.7424 18.5535 78.0462 18.3465C77.4912 18.1395 76.9361 17.9984 76.3058 17.9326C75.9577 17.9326 75.6755 17.8667 75.3274 17.7914C74.349 17.7914 73.38 17.7256 72.4016 17.7256C71.0751 17.7256 69.6828 17.7256 68.2904 17.8667C68.1493 17.9326 68.0082 17.9326 67.8765 17.9326C66.7664 17.9984 65.6469 18.2806 64.7437 18.911C64.1887 19.259 63.5584 19.673 63.2103 20.2374C62.8622 20.5855 62.6552 20.9995 62.373 21.4887C61.959 22.326 61.5357 23.2291 61.4698 24.1981C61.4698 24.4051 61.4698 24.612 61.404 24.8284C61.3381 25.5246 61.2629 26.2866 61.2629 27.058C61.197 27.9612 61.197 28.9396 61.197 29.9086C61.2629 31.2351 61.2629 32.618 61.2629 33.9445C61.3287 35.1957 61.3287 36.4469 61.404 37.6982C61.404 39.5797 61.404 41.4612 61.4698 43.3334C61.4698 44.5846 61.404 45.8358 61.4698 47.0965C61.4698 47.1623 61.4698 47.2282 61.4698 47.294L68.9208 46.4661C68.9396 43.6156 69.0148 40.6898 68.8737 37.8393Z" fill="#E79400"/>
<path d="M91.6124 64.0205C91.603 64.3592 91.603 64.6885 91.603 65.0272C91.6689 66.4195 91.6689 67.8118 91.7441 69.2042C91.7441 69.4111 91.81 69.6181 91.9511 69.8345C92.0922 69.8345 92.2992 69.8345 92.4403 69.8345C93.0706 69.8345 93.7668 69.8345 94.3877 69.9756C94.5947 70.0415 94.8769 70.0415 95.0839 70.0415C97.3135 70.1073 99.5431 70.0415 101.763 70.1073C102.394 70.1732 102.949 70.1073 103.57 70.0415C104.962 70.0415 106.354 70.0415 107.681 69.9756C107.822 69.9756 107.963 69.9756 108.095 69.9756C108.161 67.8871 108.095 65.8644 107.954 63.8512C107.888 63.8512 107.747 63.7853 107.671 63.7853C107.323 63.7195 106.975 63.7195 106.627 63.7195C106.138 63.6536 105.724 63.6536 105.235 63.6536C104.256 63.5878 103.287 63.5125 102.309 63.5125C101.406 63.4467 100.427 63.5125 99.4585 63.5125C99.3173 63.5125 99.1762 63.4467 99.1104 63.4467C98.9034 63.3055 98.9034 63.0986 98.9034 62.8916C98.9034 62.1672 98.9034 61.4334 98.9034 60.709L91.6124 64.0205Z" fill="#E79400"/>
<path d="M97.0314 59.4203C97.0314 58.4419 96.9655 57.4729 96.9655 56.5698C96.9655 55.0363 96.8997 53.437 97.0314 51.9036C97.0972 50.6523 97.0314 49.4011 97.0972 48.0746C97.1631 47.0962 97.0972 46.052 97.0972 45.0171C97.0972 44.876 97.0972 44.8101 97.0972 44.669C97.1631 44.669 97.2383 44.669 97.2383 44.669C98.2167 44.669 99.1199 44.6032 100.089 44.669C101.274 44.669 102.46 44.669 103.636 44.669C104.266 44.669 104.746 44.4621 105.31 44.3209C105.31 44.1798 105.31 44.114 105.31 44.0387C105.31 43.2014 105.244 42.2983 105.244 41.461C105.244 40.4167 105.244 39.3066 105.244 38.1871C105.244 38.046 105.244 37.9049 105.244 37.7732C105.103 37.7732 105.037 37.7732 105.037 37.7732C104.623 37.7073 104.2 37.7073 103.711 37.7073C102.949 37.7073 102.112 37.7073 101.274 37.7073C101.208 37.7073 101.133 37.7073 101.067 37.7073C100.371 37.7073 99.675 37.7073 99.0446 37.7073C98.6965 37.7073 98.4143 37.7073 98.1415 37.7073C97.9345 37.6415 97.7275 37.7073 97.5112 37.7073C97.3701 37.7073 97.2289 37.6415 97.1631 37.5004C97.1631 36.5972 97.0972 35.7599 97.0972 34.8568C97.0972 34.6498 97.0972 34.4428 97.0972 34.1606C97.0972 33.4174 97.0972 32.6648 97.1066 31.9122L89.731 34.0854C89.7216 34.4711 89.7216 34.8662 89.7216 35.2707C89.6557 35.7599 89.6557 36.315 89.6557 36.87C89.6557 37.4251 89.5899 37.9801 89.6557 38.5446C89.7216 39.1749 89.7216 39.7958 89.7216 40.4261C89.7216 41.1882 89.7216 41.9596 89.7216 42.7216C89.7216 43.0697 89.7874 43.3519 89.7874 43.6248C89.7874 44.0387 89.7874 44.5279 89.7874 44.9513C89.7874 45.7133 89.7216 46.4095 89.7216 47.1056C89.6557 47.6607 89.7216 48.1499 89.7216 48.6391C89.7216 50.3137 89.7216 51.9788 89.7216 53.6534C89.6557 55.1869 89.7216 56.7109 89.7874 58.1785C89.7874 58.3196 89.7874 58.4607 89.7874 58.5266C89.7874 58.9405 89.8533 59.4297 89.8533 59.9189C89.8533 60.681 89.7874 61.4524 89.7874 62.2144C89.7592 62.5061 89.7404 62.7977 89.731 63.0893L97.0314 59.7496C97.0314 59.6367 97.0314 59.5238 97.0314 59.4203Z" fill="#E79400"/>
<path d="M98.1136 26.1832C98.1136 26.0421 98.1136 25.901 98.2547 25.7693C98.4617 25.7693 98.6028 25.7034 98.8098 25.7034C99.9199 25.7034 100.964 25.6376 102.084 25.6376C103.476 25.5717 104.868 25.5717 106.261 25.5717C106.609 25.5717 106.957 25.4306 107.164 25.1578C107.23 23.2104 107.371 21.4041 107.305 19.4473C107.098 19.3815 106.891 19.4473 106.75 19.4473C106.543 19.4473 106.402 19.4473 106.195 19.4473C105.085 19.4473 103.899 19.4473 102.714 19.5132C102.084 19.5132 101.529 19.5132 100.908 19.5132C100.56 19.5132 100.277 19.5132 99.9293 19.5132C98.6781 19.4473 97.4927 19.4473 96.2415 19.4473C94.5669 19.3815 92.9676 19.3815 91.3024 19.5132C91.0955 19.579 90.9543 19.7201 90.8885 19.9271C90.8885 20.2752 90.8226 20.6233 90.8226 20.9714C90.7568 22.0815 90.7568 23.201 90.7568 24.3111C90.7568 25.0731 90.7568 25.8446 90.7568 26.6066C90.8226 28.2059 90.8226 29.8805 90.7568 31.5456C90.7191 32.0725 90.7003 32.5993 90.6909 33.1449L98.0666 30.9718C98.0478 29.3819 98.0666 27.792 98.1136 26.1832Z" fill="#E79400"/>
<path d="M12.2683 0.847809L12.2871 1.96733L8.72159 2.03318L8.731 2.76698L12.2119 2.70113L12.2307 3.83005L8.74982 3.89591L8.78745 5.85271L7.25399 5.88094L7.15991 0.941886L12.2683 0.847809Z" fill="#D70000"/>
<path d="M15.0912 5.74022L13.5389 5.76844L13.4448 0.819987L14.9971 0.791763L15.0912 5.74022Z" fill="#D70000"/>
<path d="M19.4753 5.73985C16.7941 5.78689 16.1543 4.30988 16.1355 3.31266V3.12451C16.1167 2.16492 16.5965 0.669096 19.4376 0.61265L19.7199 0.603242C22.4857 0.556203 22.9938 1.74158 23.0314 2.41893V2.42834L21.385 2.46597C21.3474 2.35308 21.1498 1.7698 19.607 1.79802C18.1017 1.82624 17.7348 2.48478 17.7537 3.17155V3.24681C17.7631 3.88653 18.2805 4.56389 19.6446 4.54507C21.1122 4.51685 21.545 3.94298 21.545 3.80186V3.79246L19.607 3.83009L19.5882 2.88932L23.069 2.82346L23.1255 5.59874L22.1941 5.61755C22.1753 5.43881 22.0718 5.05309 21.9777 4.84612C21.7707 5.10013 21.1404 5.72104 19.6164 5.74926L19.4753 5.73985Z" fill="#D70000"/>
<path d="M24.2542 0.622239L25.8064 0.594016L25.8441 2.39089L29.165 2.32504L29.1273 0.528162L30.6796 0.499939L30.7737 5.4484L29.2214 5.47662L29.1838 3.52922L25.8629 3.59508L25.9005 5.54247L24.3482 5.5707L24.2542 0.622239Z" fill="#D70000"/>
<path d="M33.9157 1.60998L31.7896 1.64761L31.7708 0.481057L37.5941 0.368164L37.6129 1.53472L35.4774 1.57235L35.5527 5.34484L33.991 5.38247L33.9157 1.60998Z" fill="#D70000"/>
<path d="M40.3224 5.27001L38.7701 5.29823L38.676 0.359186L40.2283 0.330963L40.3224 5.27001Z" fill="#D70000"/>
<path d="M43.2387 0.264998L46.4561 3.3131L46.3997 0.208551L47.9237 0.180328L48.0178 5.11938L46.4938 5.1476L43.0788 1.93016L43.1446 5.20405L41.6112 5.24168L41.5171 0.293221L43.2387 0.264998Z" fill="#D70000"/>
<path d="M52.4015 5.12856C49.7204 5.1756 49.0806 3.69859 49.0618 2.70137V2.51322C49.043 1.55363 49.5134 0.0672128 52.3545 0.0107666L52.6367 0.00135887C55.4026 -0.0456797 55.9106 1.13969 55.9483 1.81705V1.82645L54.3113 1.85468C54.2737 1.74179 54.0761 1.15851 52.5333 1.18673C51.028 1.21495 50.6611 1.87349 50.6799 2.56026V2.63552C50.6893 3.28465 51.2068 3.9526 52.5709 3.93378C54.0385 3.90556 54.4712 3.33169 54.4712 3.19057V3.17176L52.5333 3.20939L52.5144 2.26862L55.9953 2.20276L56.0517 4.97804L55.1204 4.99685C55.1016 4.81811 54.9981 4.43239 54.904 4.22542C54.697 4.47943 54.0667 5.10034 52.5427 5.12856H52.4015Z" fill="#D70000"/>
<path d="M13.0868 13.8307C10.2268 13.8871 9.74703 12.2972 9.72821 11.4129V11.2153C9.7094 10.3216 10.0669 8.7599 12.9927 8.71286L13.2655 8.70345C16.1255 8.64701 16.5958 10.0111 16.6147 10.585V10.6603L14.9683 10.6885C14.9307 10.5568 14.7143 9.87001 13.1432 9.89823C11.6568 9.92645 11.3369 10.5944 11.3463 11.2153V11.3C11.3557 11.8833 11.7603 12.6453 13.2091 12.6265C14.8084 12.5982 14.9589 11.8268 14.9965 11.7139L16.6429 11.6857V11.761C16.6523 12.3819 16.1913 13.7742 13.3596 13.8307H13.0868Z" fill="#D70000"/>
<path d="M17.6494 8.71329L19.2017 8.68507L19.2393 10.4819L22.5602 10.4161L22.5226 8.61921L24.0749 8.59099L24.169 13.5394L22.6167 13.5677L22.5791 11.6203L19.2581 11.6861L19.2958 13.6335L17.7435 13.6617L17.6494 8.71329Z" fill="#D70000"/>
<path d="M29.9546 12.5327L26.9535 12.5891L26.5208 13.5017L24.9497 13.5299L27.3581 8.54383L29.3619 8.5062L32.0996 13.3982L30.4344 13.4264L29.9546 12.5327ZM28.3741 9.58808L27.4898 11.4602L29.3619 11.4226L28.3741 9.58808Z" fill="#D70000"/>
<path d="M32.8147 8.43063L35.0161 8.393L36.7847 11.4411L38.4405 8.33655L40.5572 8.29892L40.6513 13.238L39.1273 13.2662L39.0614 9.84178L37.1799 13.3038L36.3426 13.3132L34.3293 9.92645L34.3952 13.3509L32.9088 13.3791L32.8147 8.43063Z" fill="#D70000"/>
<path d="M43.4453 11.5354L43.4735 13.1818L41.9212 13.21L41.8271 8.27094L45.5338 8.20508C47.3118 8.16745 47.8481 8.86362 47.8669 9.76676V9.83262C47.8857 10.7169 47.3589 11.4602 45.5902 11.4978L43.4453 11.5354ZM43.4265 10.4253L45.562 10.3877C46.0512 10.3783 46.277 10.1901 46.2676 9.85143V9.83262C46.2582 9.49394 46.0418 9.31519 45.5432 9.3246L43.4076 9.36223L43.4265 10.4253Z" fill="#D70000"/>
<path d="M50.5292 13.05L48.9769 13.0782L48.8828 8.12979L50.4351 8.10156L50.5292 13.05Z" fill="#D70000"/>
<path d="M55.2897 7.92296C58.4036 7.86651 58.7987 9.41879 58.8081 10.3031V10.5007C58.8269 11.3756 58.4977 12.9749 55.3743 13.0408L55.0921 13.0502C51.9593 13.1066 51.583 11.5167 51.5642 10.6418V10.4442C51.5454 9.5599 51.8746 7.98882 54.998 7.93237L55.2897 7.92296ZM57.19 10.3878C57.1806 9.82332 56.8419 9.09892 55.1673 9.12715C53.4646 9.15537 53.1823 9.89858 53.1917 10.463V10.5477C53.2011 11.1122 53.5398 11.8836 55.2144 11.8554C56.8796 11.8272 57.1994 11.0651 57.19 10.4913V10.3878Z" fill="#D70000"/>
<path d="M61.5842 7.89428L64.8016 10.9424L64.7451 7.82843L66.2692 7.8002L66.3633 12.7393L64.8392 12.7675L61.4242 9.55004L61.4807 12.8239L59.9566 12.8521L59.8625 7.91309L61.5842 7.89428Z" fill="#D70000"/>
<path d="M70.2769 12.7677C67.6898 12.8148 67.3605 11.7047 67.3511 11.0555V10.9803L68.9692 10.9521C68.9974 11.2531 69.1762 11.7329 70.4556 11.7047H70.5497C71.848 11.6764 71.9891 11.4224 71.9891 11.1496C71.9797 10.8674 71.8291 10.6886 70.6814 10.6792L69.8253 10.6698C67.9814 10.651 67.3981 10.0395 67.3887 9.26807V9.21163C67.3793 8.46842 67.8026 7.69698 70.0511 7.64995L70.5121 7.64054C72.8546 7.5935 73.4002 8.40256 73.4096 9.14577V9.21163L71.8009 9.23985C71.7633 9.0517 71.6598 8.64716 70.3615 8.67539H70.2581C69.0633 8.6942 68.9786 8.91058 68.988 9.12696C68.988 9.34333 69.1291 9.53149 70.1358 9.53149H70.9636C72.8264 9.53149 73.5884 9.96424 73.5978 10.9521V11.0461C73.6166 11.8646 73.2121 12.7113 70.7284 12.7583L70.2769 12.7677Z" fill="#D70000"/>
<path d="M74.5945 7.64987L76.1468 7.62165L76.1844 9.41852L79.5053 9.35267L79.4677 7.5558L81.02 7.52757L81.114 12.476L79.5618 12.5043L79.5241 10.5569L76.2032 10.6227L76.2408 12.5701L74.6886 12.5983L74.5945 7.64987Z" fill="#D70000"/>
<path d="M83.9364 12.4287L82.3841 12.4569L82.29 7.50845L83.8423 7.48022L83.9364 12.4287Z" fill="#D70000"/>
<path d="M86.739 10.7261L86.7672 12.3725L85.2149 12.4007L85.1208 7.46165L88.8369 7.38639C90.615 7.34876 91.1512 8.04493 91.17 8.94807V9.01392C91.1888 9.89825 90.662 10.6415 88.8933 10.6791L86.739 10.7261ZM86.7202 9.61602L88.8557 9.57839C89.3449 9.56898 89.5707 9.38083 89.5613 9.04215V9.02333C89.5519 8.68465 89.3355 8.50591 88.8369 8.51532L86.7013 8.55295L86.7202 9.61602Z" fill="#D70000"/>
<path d="M29.0981 94.135L31.7417 67.4735L37.6686 67.323L41.6386 93.8245L37.5369 93.928L36.7842 88.2457L33.6703 88.321L33.1717 94.0315L29.0981 94.135ZM36.2668 84.492L35.1003 75.9687C34.9592 74.9432 34.8839 73.5791 34.8651 72.516H34.7898C34.818 73.5791 34.8086 74.9432 34.724 75.9781L33.9902 84.5485L36.2668 84.492Z" fill="#D70000"/>
<path d="M42.4858 67.2005L49.4758 67.0217C52.1758 66.9559 54.0385 68.6963 54.1044 71.4245L54.2643 77.9535C54.3113 79.6657 53.5775 81.0486 52.3451 81.8389L55.1016 93.4762L50.9998 93.5797L48.4033 82.5915L47.265 82.6197L47.5378 93.6738L43.135 93.7867L42.4858 67.2005ZM46.9827 70.8507L47.1803 78.9037L49.0806 78.8566C49.5322 78.8472 49.8333 78.5368 49.8239 78.0758L49.6639 71.5468C49.6545 71.0953 49.3441 70.7942 48.8831 70.8036L46.9827 70.8507Z" fill="#D70000"/>
<path d="M56.8237 93.4384L56.1558 66.8616L64.8109 66.6452L64.9049 70.4083L60.6526 70.5118L60.8408 78.1791L64.7168 78.085L64.8109 81.8105L60.9349 81.9045L61.123 89.5718L65.3753 89.4683L65.4694 93.2314L56.8237 93.4384Z" fill="#D70000"/>
<path d="M67.717 93.1661L67.0491 66.5893L71.3014 66.4858L74.1613 77.6245C74.4529 78.6029 74.7164 79.967 74.8575 80.9925H74.9327C74.7916 79.967 74.6035 78.6123 74.5847 77.5398L74.3024 66.4105L78.5547 66.307L79.2227 92.8838L74.9704 92.9873L72.1104 81.8862C71.8188 80.8702 71.593 79.5061 71.4142 78.4806L71.339 78.5183C71.5177 79.5437 71.6683 80.9078 71.6871 81.9332L71.9693 93.0626L67.717 93.1661Z" fill="#D70000"/>
<path d="M80.7749 92.8462L83.4185 66.1847L89.3453 66.0342L93.3154 92.5357L89.2136 92.6392L88.461 86.9569L85.3471 87.0322L84.8484 92.7427L80.7749 92.8462ZM87.9436 83.2033L86.777 74.6799C86.6359 73.6544 86.5607 72.2903 86.5418 71.2272H86.4666C86.4948 72.2903 86.4854 73.6544 86.4007 74.6893L85.6669 83.2597L87.9436 83.2033Z" fill="#D70000"/>
</svg>
