<svg width="85" height="88" viewBox="0 0 85 88" fill="none" xmlns="http://www.w3.org/2000/svg">
<path d="M79.2013 50.1371C79.2489 50.0986 79.2999 50.0651 79.3475 50.0266C80.1856 49.3718 80.6514 48.5344 80.6582 47.4642C80.6616 46.9199 80.6497 46.3706 80.7177 45.833C80.954 43.9958 80.9625 42.1553 80.6225 40.3415C80.1482 37.8277 79.4036 35.3909 78.3598 33.0345C76.8349 29.6013 74.7694 26.5298 72.199 23.7882C71.2623 22.7901 70.2542 21.8556 69.2597 20.911C68.6783 20.36 68.3944 19.7052 68.3162 18.918C68.2346 18.1141 68.1258 17.3052 67.9388 16.5164C67.2996 13.8167 66.0195 11.4637 64.005 9.49921C62.6688 8.19458 61.1643 7.10766 59.568 6.15305C57.7847 5.08791 55.8416 4.48332 53.7217 4.62567C53.2049 4.65917 52.6898 4.72783 52.173 4.77305C51.9894 4.7898 51.8024 4.80655 51.6222 4.77975C50.4679 4.6173 49.3476 4.35771 48.3208 3.77322C47.872 3.51866 47.4028 3.28922 46.9285 3.0849C44.6454 2.10349 42.3351 1.97119 39.9891 2.88728C38.8637 3.32774 37.8556 3.93232 36.975 4.74458C36.3392 5.33242 35.6218 5.65062 34.7276 5.55349C34.3332 5.50994 33.9303 5.53507 33.5308 5.52502C31.0352 5.45803 28.9255 6.35235 27.1813 8.07567C25.5952 9.64324 23.681 10.4454 21.4676 10.6196C20.4017 10.705 19.4548 11.0685 18.6269 11.7434C18.003 12.2525 17.5525 12.8805 17.1598 13.5672C15.9647 15.6523 14.96 17.801 14.7339 20.2227C14.705 20.5358 14.5231 20.6799 14.2834 20.849C13.5099 21.3933 12.7959 21.9946 12.2179 22.7582C10.897 24.5 9.7274 26.3372 8.6598 28.233C6.8 31.539 5.4009 35.0225 4.6801 38.7538C4.3622 40.4102 4.0749 42.0765 4.0698 43.7597C4.0477 52.2256 4.0579 60.6931 4.0681 69.159C4.0681 69.6078 4.1565 70.055 4.1922 70.5038C4.2823 71.646 4.3639 72.7865 4.454 73.9287C4.5016 74.5266 4.505 75.1362 4.6257 75.7224C4.76 76.3705 5.0337 76.9751 5.5012 77.4859C6.273 78.33 7.2471 78.6582 8.3708 78.6582C11.7776 78.6532 15.1827 78.6699 18.5895 78.6348C19.5772 78.623 20.3014 78.958 20.8267 79.7736C20.9542 79.9679 21.1344 80.1605 21.3367 80.276C23.1693 81.3077 25.0342 82.2707 27.0028 83.0394C29.3335 83.9488 31.7254 84.6505 34.1751 85.1529C36.1182 85.5515 38.0902 85.8061 40.069 85.8915C41.9628 85.9735 43.8617 86.002 45.7606 85.791C47.1852 85.6302 48.6064 85.4745 50.0191 85.2366C52.9108 84.7493 55.743 84.0593 58.4885 83.036C60.8889 82.1434 63.087 80.9241 64.957 79.1791C65.3157 78.8458 65.6965 78.6884 66.1929 78.6951C67.5138 78.7168 68.833 78.7018 70.1539 78.7018V78.6817C71.3813 78.6817 72.6087 78.6833 73.8378 78.68C74.1132 78.6783 74.3988 78.6951 74.6606 78.6314C76.5765 78.1709 78.251 77.2866 79.5906 75.8346C80.0972 75.2836 80.4151 74.6287 80.4865 73.8935C80.58 72.9356 80.6412 71.9709 80.6599 71.0063C80.6837 69.8021 80.6667 68.603 80.5409 67.3955C80.4049 66.0791 80.4899 64.7376 80.5205 63.4079C80.5409 62.537 80.6803 61.6678 80.6922 60.7953C80.7177 58.8911 80.6871 56.9852 80.699 55.081C80.7058 53.8132 80.206 52.8218 79.1945 52.043C78.234 51.3061 78.2493 50.9142 79.2013 50.1371Z" fill="white"/>
<path d="M20.9405 20.4554C20.9184 20.6179 20.9065 20.782 20.8759 20.9445C20.7348 21.6964 20.5036 22.445 20.4696 23.202C20.4441 23.7882 20.6566 24.3878 20.7824 24.9756C20.8181 25.1431 20.9439 25.0828 21.017 24.9873C21.3587 24.5318 21.4607 23.9791 21.6052 23.4516C21.714 23.0563 21.799 22.6343 21.7837 22.2273C21.7446 21.2007 23.2168 19.7219 24.2793 19.6231C25.029 19.5527 25.7685 19.3802 26.5182 19.3233C27.5535 19.2463 28.378 18.7388 29.143 18.1325C29.6632 17.7206 30.1256 17.2332 30.5812 16.7492C31.7389 15.5233 33.1516 14.9204 34.855 14.9572C35.9277 14.979 37.0004 14.9539 38.0731 14.974C38.3876 14.979 38.5865 14.845 38.8109 14.6524C39.5079 14.0512 40.2066 13.4432 40.9546 12.9056C41.6669 12.3932 42.4931 12.0716 43.3941 12.1419C44.3189 12.214 45.2284 12.4032 45.9968 12.9709C46.7159 13.5018 47.4265 14.0411 48.1354 14.5837C48.4312 14.8098 48.7372 14.9874 49.1299 14.974C49.4325 14.9639 49.4818 14.8601 49.3084 14.5653C49.1469 14.289 49.152 14.2706 49.4614 14.2722C50.3097 14.2773 51.158 14.3124 52.0046 14.294C52.62 14.2806 53.2337 14.1533 53.8457 14.16C54.9201 14.1717 55.952 14.3643 56.8717 14.9857C57.8118 15.6204 58.3932 16.4745 58.8267 17.5095C59.3707 18.8091 60.0847 20.0384 60.7001 21.3112C60.9908 21.9108 61.2016 22.5438 61.1353 23.2305C61.0945 23.6693 61.1591 24.0595 61.5773 24.3208C61.7881 24.4531 61.8578 24.6691 61.8306 24.9036C61.766 25.4512 61.6929 25.9972 61.613 26.5415C61.5807 26.7575 61.511 26.9685 61.4787 27.1863C61.4685 27.2583 61.5246 27.3387 61.5484 27.4157C61.6181 27.3789 61.698 27.3521 61.7575 27.3035C61.8442 27.2332 61.9122 27.1394 62.0023 27.0757C62.0261 27.059 62.123 27.1076 62.1536 27.1477C62.1808 27.1863 62.1672 27.2566 62.1621 27.3102C62.0414 28.3703 62.4783 29.2563 63.0665 30.0903C63.2909 30.4085 63.5544 30.6982 63.7975 31.003C64.8413 32.3194 64.7155 33.2489 64.0117 34.4262C63.7856 34.8047 63.4626 35.1246 63.1974 35.4813C62.6653 36.1981 62.2046 36.9585 61.9411 37.8109C61.7575 38.4055 61.324 38.7873 60.8939 39.1825C60.7256 39.3383 60.5097 39.2579 60.4842 39.0268C60.4519 38.7237 60.4672 38.4155 60.4281 38.114C60.4179 38.0303 60.2836 37.96 60.2071 37.8846C60.1799 37.96 60.1323 38.0337 60.1272 38.109C60.117 38.3318 60.0949 38.5579 60.1289 38.7756C60.202 39.2579 60.0082 39.6582 59.7073 39.9864C59.1514 40.596 58.5156 41.0918 57.6044 41.0281C57.4633 41.0181 57.3222 41.0298 57.1811 41.0281C56.054 41.0147 55.9571 40.9142 55.884 39.7905C55.8551 39.3483 55.7939 38.9012 55.3808 38.6198C55.3094 38.5713 55.1802 38.5729 55.0918 38.5964C55.0561 38.6064 55.0527 38.7387 55.0391 38.8174C55.0357 38.8426 55.0408 38.8777 55.0561 38.8978C55.6647 39.6565 54.9745 40.1539 54.6685 40.725C54.6651 40.73 54.4628 40.6731 54.4492 40.6212C54.3999 40.4353 54.3982 40.2393 54.3676 40.0467C54.3591 39.9965 54.3183 39.9512 54.2911 39.9027C54.2622 39.9479 54.2299 39.9898 54.2061 40.0367C54.1942 40.0601 54.1959 40.0903 54.1908 40.1187C54.0055 41.281 53.1419 41.7332 52.1321 42.0397C51.9485 42.0949 51.7853 42.244 51.5966 42.048C51.4079 41.8521 51.4521 41.6361 51.5388 41.4284C51.7547 40.9193 51.9808 40.4152 52.2103 39.9111C52.2902 39.7352 52.399 39.5711 52.4823 39.3969C52.501 39.3584 52.467 39.2964 52.4585 39.2462C52.4126 39.2545 52.3463 39.2462 52.3242 39.273C52.1134 39.5309 51.8805 39.7771 51.7139 40.0618C51.4776 40.4687 51.2991 40.9075 51.0849 41.3262C50.8894 41.7064 50.6276 41.7868 50.2842 41.5624C49.8575 41.2844 49.6246 40.8992 49.6314 40.375C49.6433 39.5175 49.9493 38.7387 50.3845 38.032C51.1478 36.791 52.2239 35.9101 53.6757 35.5014C54.4543 35.282 55.2397 35.3373 56.0234 35.3473C56.6235 35.3557 57.1862 35.2552 57.7438 35.0325C58.2521 34.8298 58.7315 34.5753 59.0222 34.1332C59.4897 33.4231 60.0711 32.857 60.7936 32.4132C60.984 32.2959 61.0945 32.1486 60.797 31.9828C60.4162 31.7701 60.3023 31.4033 60.3006 30.993C60.3006 30.5207 60.3074 30.0467 60.287 29.5745C60.2768 29.3367 60.0405 29.2295 59.8756 29.3919C59.0086 30.241 57.9189 30.6329 56.7663 30.9009C56.5504 30.9511 56.3243 30.9846 56.1016 30.988C55.3111 31.003 54.5189 31.0164 53.7284 31.003C52.3786 30.9796 51.1546 30.5726 50.0139 29.8558C49.2982 29.407 48.999 28.7605 48.9531 27.9868C48.8919 26.9635 48.9361 25.9419 49.2047 24.9371C49.3322 24.4614 49.3832 23.964 49.4512 23.4733C49.4648 23.3762 49.3985 23.269 49.3679 23.1669C49.2676 23.2405 49.1435 23.2958 49.0704 23.3896C48.9191 23.5855 48.8035 23.81 48.6539 24.0076C48.5655 24.1248 48.4873 24.103 48.4363 23.9473C48.2221 23.2925 48.0011 22.641 47.7665 21.9945C47.7393 21.9208 47.6135 21.8806 47.5336 21.8254C47.4962 21.9192 47.4146 22.0196 47.4282 22.1034C47.6866 23.6207 47.9722 25.133 48.2187 26.652C48.3156 27.2499 48.3479 27.8595 48.3802 28.4658C48.4074 28.9816 48.0334 29.4455 47.4469 29.6163C46.7788 29.8123 46.0954 29.958 45.4239 30.1472C44.4838 30.4135 43.5216 30.2913 42.5679 30.3432C41.1399 30.4202 39.785 30.1003 38.4539 29.6431C37.7433 29.3986 37.1228 29.0352 36.8729 28.2698C36.8134 28.089 36.7403 27.9014 36.7386 27.7155C36.7233 26.4963 36.7641 25.2837 37.1585 24.1081C37.218 23.9289 37.2469 23.7296 37.2435 23.5403C37.2418 23.4214 37.1534 23.3042 37.1041 23.187C37.0123 23.2724 36.8899 23.3427 36.8338 23.4465C36.7573 23.5889 36.7386 23.7614 36.6774 23.9138C36.5567 24.2153 36.453 24.4966 36.079 24.6406C35.6438 24.8081 35.6591 24.8919 35.7917 25.3474C36.1079 26.441 36.2643 27.5581 36.2167 28.6969C36.1946 29.2094 35.9804 29.6281 35.4925 29.824C34.8754 30.0719 34.2464 30.3114 33.6004 30.4705C32.2404 30.8037 30.8702 30.7133 29.5102 30.437C29.1294 30.3599 28.752 30.2578 28.3814 30.1405C27.0248 29.7101 26.8089 28.8225 26.7511 27.7306C26.7426 27.5664 26.7698 27.399 26.7817 27.2332C26.8259 26.6269 26.8735 26.0206 26.9092 25.4144C26.9126 25.344 26.8497 25.2703 26.8191 25.1983C26.7545 25.2486 26.6729 25.2888 26.6253 25.3524C26.0303 26.1395 26.1612 27.0305 26.2632 27.9131C26.2887 28.1308 26.3567 28.3435 26.3686 28.5612C26.3873 28.9163 26.2445 29.1826 25.9249 29.3919C25.0902 29.9362 24.1994 30.303 23.1879 30.3315C22.2869 30.3566 21.3825 30.4001 20.541 29.9865C20.3421 29.8893 20.1415 29.7888 19.963 29.6616C19.6621 29.4455 19.5584 29.1775 19.6944 28.7974C19.9256 28.1493 20.0905 27.4793 20.3115 26.8262C20.6056 25.9536 20.4917 25.0694 20.3812 24.1952C20.303 23.5855 20.252 22.996 20.4033 22.3931C20.5087 21.9677 20.5359 21.5222 20.6447 21.0985C20.7008 20.8791 20.8589 20.6865 20.9694 20.4822L20.9405 20.4554ZM43.5403 12.7566C42.5305 12.7733 41.6635 12.9324 40.873 13.4097C39.972 13.9524 39.3634 14.7026 39.1424 15.7326C39.1305 15.7879 39.1951 15.8716 39.2461 15.9202C39.2682 15.9403 39.3617 15.9235 39.394 15.8934C39.734 15.5702 40.0638 15.2369 40.4055 14.9137C41.1824 14.1818 42.148 13.7514 43.1782 13.6861C43.9262 13.6392 44.7337 13.7983 45.4443 14.1567C45.9662 14.4196 46.4711 14.716 46.9879 14.9924C47.0491 15.0242 47.1273 15.0242 47.1987 15.0376C47.2089 14.9589 47.2446 14.8718 47.2225 14.8031C47.1885 14.7026 47.1205 14.6105 47.0525 14.5234C46.1464 13.3478 44.9224 12.8018 43.5403 12.7566ZM53.6944 14.3761C53.3187 14.4648 52.9396 14.5452 52.5673 14.6457C52.4993 14.6641 52.4517 14.7579 52.3956 14.8182C52.467 14.8802 52.5299 14.984 52.6098 14.9974C53.1844 15.1029 53.7658 15.1766 54.3404 15.2855C56.1594 15.6305 57.5653 16.5097 58.2793 18.2749C58.3048 18.3369 58.383 18.3787 58.4357 18.4306C58.4935 18.3536 58.604 18.2766 58.6023 18.2012C58.5887 17.4526 58.2878 16.8145 57.8084 16.2434C56.7408 14.9773 55.3145 14.5218 53.6944 14.3761ZM42.9657 29.9898C44.4481 29.9982 45.6483 29.7805 46.8077 29.3551C46.9947 29.2864 47.1562 29.1457 47.3279 29.0385C47.1069 29.0235 46.874 28.9548 46.6683 29.0034C45.2641 29.3333 43.8378 29.3283 42.4081 29.33C41.6737 29.3316 40.9614 29.2261 40.2542 29.0486C39.4467 28.8443 38.6392 28.6433 37.8317 28.444C37.762 28.4273 37.6872 28.4239 37.6141 28.4139C37.6396 28.4825 37.643 28.5864 37.6923 28.6148C38.0748 28.8443 38.4403 29.1374 38.8568 29.263C40.2712 29.69 41.7162 29.9831 42.9657 29.9898ZM54.6039 30.6865C55.3655 30.5693 56.2614 30.4922 57.1216 30.2762C57.7064 30.1288 58.2453 29.7972 58.7961 29.5292C58.9117 29.4723 58.9848 29.3316 59.0783 29.2278C58.9525 29.2429 58.8233 29.2445 58.7026 29.2747C57.8407 29.4958 56.9941 29.824 56.1186 29.9245C55.0085 30.0518 53.8729 30.1137 52.7611 29.8609C52.0301 29.6934 51.3042 29.5025 50.5732 29.3316C50.5035 29.3149 50.4168 29.3634 50.3386 29.3819C50.3828 29.4455 50.4134 29.5343 50.4763 29.5694C51.7139 30.2728 53.0756 30.5257 54.6039 30.6865ZM34.2515 15.4194C32.9714 15.3106 31.9871 15.9688 31.0555 16.6789C30.3653 17.2047 30.2905 17.7942 30.6849 18.4156C30.7257 18.4809 30.8124 18.5177 30.8787 18.568C30.9093 18.496 30.9586 18.4256 30.9671 18.3503C31.0385 17.6351 31.438 17.0908 32.0007 16.7107C32.5175 16.3607 33.0581 16.0157 33.7194 15.9235C34.1563 15.8632 34.583 15.7226 35.0131 15.6137C35.0641 15.6003 35.1066 15.5618 35.1542 15.535C35.1066 15.5082 35.0607 15.463 35.0114 15.458C34.7598 15.4395 34.5065 15.4312 34.2515 15.4194ZM31.2629 30.3331C31.6284 30.2728 31.9582 30.2276 32.2846 30.1623C32.8847 30.0434 33.4848 29.9245 34.0781 29.7788C34.26 29.7336 34.4215 29.5979 34.5864 29.4941C34.6119 29.4773 34.6102 29.4103 34.6068 29.3668C34.6051 29.3517 34.5609 29.3266 34.5388 29.33C34.43 29.345 34.3144 29.35 34.2124 29.3886C33.2825 29.7553 32.2727 29.7738 31.3241 29.7537C30.2327 29.7302 29.0937 29.6264 28.0516 29.1708C27.9921 29.1441 27.8969 29.196 27.8187 29.2094C27.8697 29.2546 27.9207 29.3015 27.9734 29.3434C28.9441 30.1288 30.1647 30.0702 31.2629 30.3331ZM60.2904 25.55C60.2887 25.55 60.2887 25.55 60.2904 25.55C60.2887 24.8282 60.2904 24.1064 60.287 23.3846C60.287 23.2204 60.2921 23.0479 60.2479 22.8922C60.2241 22.8085 60.1034 22.7532 60.0252 22.6845C59.9691 22.7666 59.879 22.8453 59.8654 22.9341C59.8518 23.0345 59.9487 23.1535 59.9283 23.2489C59.6699 24.4279 59.8042 25.6204 59.7991 26.8061C59.7974 27.1796 59.9351 27.5564 60.0252 27.9265C60.0405 27.9901 60.1442 28.0337 60.2071 28.0856C60.2343 28.0169 60.2836 27.9483 60.2853 27.8796C60.2921 27.1042 60.2904 26.3271 60.2904 25.55ZM54.456 29.6582C54.7484 29.6582 54.9745 29.6783 55.1972 29.6549C56.0081 29.5694 56.7816 29.3718 57.4446 28.8744C57.4871 28.8426 57.5109 28.7857 57.5432 28.7421C57.4718 28.727 57.3834 28.6751 57.3324 28.7002C56.5368 29.1022 55.6817 29.1575 54.8113 29.1675C53.7709 29.1809 52.7492 29.1106 51.787 28.6667C51.7275 28.64 51.6323 28.6919 51.5524 28.7069C51.5898 28.7706 51.6102 28.8593 51.6663 28.8928C52.5435 29.4154 53.4751 29.752 54.456 29.6582ZM26.695 20.2109C26.61 20.1774 26.5403 20.1489 26.4706 20.1205C25.8467 19.8709 25.1854 19.8927 24.5564 19.9915C23.7557 20.1171 23.0893 20.5274 22.7408 21.3062C22.7051 21.3883 22.7323 21.4971 22.7306 21.5943C22.8292 21.5608 22.9448 21.5507 23.023 21.4904C23.6044 21.0433 24.2147 20.6849 24.978 20.6062C25.4999 20.5526 26.0133 20.4085 26.5301 20.2997C26.5811 20.2896 26.6253 20.2494 26.695 20.2109ZM22.6405 30.0652C23.3103 30.1087 23.856 29.7553 24.4425 29.5929C24.5802 29.5544 24.6737 29.3668 24.7876 29.2479C24.6397 29.2429 24.4901 29.2261 24.3439 29.2345C24.1212 29.2479 23.9019 29.2931 23.6792 29.2981C22.8904 29.3149 22.1016 29.3132 21.3128 29.335C21.2006 29.3383 21.0918 29.4338 20.9813 29.4857C21.0799 29.5661 21.1666 29.6884 21.2788 29.7202C21.7276 29.8508 22.1866 29.953 22.6405 30.0652ZM31.4788 29.4773C31.6862 29.4338 31.9327 29.33 32.1724 29.345C32.8014 29.3852 33.3063 29.0988 33.8214 28.8242C33.8639 28.8007 33.8809 28.7321 33.9098 28.6835C33.8571 28.6735 33.7959 28.6416 33.7517 28.6567C33.0326 28.8878 32.3016 29.0034 31.5383 28.9933C30.809 28.9833 30.0984 28.8995 29.3963 28.7153C29.3249 28.6969 29.2433 28.7153 29.1668 28.717C29.2059 28.7806 29.2297 28.8744 29.2858 28.9029C29.9624 29.2395 30.7019 29.3517 31.4788 29.4773ZM42.7107 28.9833C43.5199 29.0285 44.29 28.9213 45.0363 28.6601C45.1264 28.6282 45.2131 28.5864 45.3015 28.5478C45.1944 28.5277 45.0873 28.506 44.9785 28.4909C44.9224 28.4842 44.8646 28.4825 44.8102 28.4926C43.6423 28.7321 42.4744 28.7086 41.3065 28.4892C40.9512 28.4222 40.5925 28.3737 40.2338 28.3284C40.159 28.3184 40.0774 28.367 39.9975 28.3887C40.0638 28.4306 40.125 28.4842 40.1964 28.5143C41.0056 28.8543 41.8437 29.0452 42.7107 28.9833ZM22.7544 28.6416C22.7544 28.6433 22.7544 28.6467 22.7544 28.6483C22.5606 28.6483 22.3668 28.6433 22.1747 28.6517C22.1254 28.6534 22.0778 28.6919 22.0285 28.7136C22.0591 28.7488 22.0863 28.8058 22.122 28.8125C22.4127 28.8694 22.7034 28.9498 22.9958 28.9548C23.1386 28.9582 23.2831 28.8192 23.4276 28.7438C23.2865 28.7086 23.1454 28.6684 23.0009 28.6433C22.9227 28.6299 22.8377 28.6416 22.7544 28.6416Z" fill="#F2D42A"/>
<path d="M43.1016 40.8858C41.6328 40.8188 40.1963 40.5793 38.7666 40.313C38.4742 40.2595 38.2039 40.0635 37.9387 39.9111C37.8537 39.8625 37.7738 39.742 37.7619 39.6482C37.7466 39.5209 37.7806 39.3752 37.8384 39.2613C37.8554 39.2278 38.0373 39.2546 38.1325 39.2864C38.9349 39.5527 39.7458 39.7537 40.6026 39.7018C40.7148 39.6951 40.8287 39.7001 40.9409 39.685C40.9919 39.6783 41.0378 39.6381 41.0854 39.6113C41.0463 39.5778 41.0123 39.5259 40.9664 39.5125C40.7539 39.4489 40.5414 39.3869 40.3238 39.34C39.7781 39.2245 39.229 39.1273 38.685 39.0034C38.1937 38.8912 37.8333 38.5881 37.58 38.166C37.512 38.0521 37.4797 37.9181 37.4321 37.7925C37.5443 37.8378 37.6548 37.8847 37.767 37.9265C38.8652 38.3318 39.9753 38.6718 41.1398 38.8811C42.9571 39.206 44.6384 38.8192 46.2959 38.1627C46.607 38.0404 46.9079 37.8897 47.2173 37.7657C47.3091 37.7289 47.4196 37.7373 47.5216 37.7239C47.508 37.8227 47.525 37.9366 47.4774 38.0153C47.1714 38.5261 46.7447 38.9197 46.2381 39.2395C46.1769 39.278 46.1735 39.4037 46.1429 39.4874C46.2245 39.4974 46.3112 39.5309 46.386 39.5125C46.5747 39.4639 46.7549 39.3852 46.9436 39.3316C47.0337 39.3065 47.1323 39.3099 47.2275 39.2998C47.1935 39.3735 47.1799 39.4656 47.1238 39.5175C46.4812 40.1238 45.7417 40.5559 44.8492 40.6815C44.2695 40.7619 43.6847 40.8188 43.1016 40.8858Z" fill="#F2D42A"/>
<path d="M26.0797 41.6813C24.7673 41.5088 23.5994 41.1956 22.8225 40.107C22.7817 40.0484 22.7613 39.9764 22.7307 39.9094C22.8089 39.9128 22.8922 39.901 22.9653 39.9228C23.8782 40.179 24.6857 39.8223 25.4541 39.4421C25.8672 39.2378 26.2191 38.8794 26.5319 38.5328C26.7631 38.2765 26.9807 38.3 27.1898 38.4406C27.5264 38.6651 27.7746 38.9816 27.7304 39.4137C27.6896 39.8139 27.7355 40.1137 28.1928 40.2578C28.4206 40.3298 28.4376 40.5257 28.2727 40.725C27.6879 41.4351 26.8481 41.5406 26.0797 41.6813Z" fill="#F2D42A"/>
<path d="M56.746 12.7717C56.491 12.6729 56.2309 12.5841 55.9827 12.4719C55.5492 12.2743 55.1055 12.09 54.7009 11.8438C54.2028 11.539 53.6707 11.5323 53.1505 11.6395C52.3107 11.812 51.4913 11.7953 50.6532 11.6446C50.2146 11.5658 49.7522 11.5926 49.3017 11.606C49.1504 11.6111 49.0042 11.7216 48.8546 11.7836C48.926 11.9125 48.9974 12.0415 49.0705 12.1704C49.0841 12.1939 49.113 12.2073 49.13 12.229C49.1657 12.2726 49.198 12.3178 49.2303 12.3613C49.1555 12.3747 49.0756 12.4116 49.0076 12.3965C48.0675 12.1788 47.3824 11.5457 46.6769 10.9613C45.934 10.3466 45.1333 9.84251 44.1711 9.68341C42.4711 9.40373 40.8612 9.53938 39.5794 10.8708C39.4825 10.9713 39.3703 11.0668 39.304 11.1857C38.9385 11.8489 38.3214 12.2324 37.7009 12.6176C37.4119 12.7985 37.3507 12.7432 37.4714 12.4317C37.485 12.3982 37.4136 12.2927 37.3694 12.2843C37.2623 12.2625 37.1365 12.2491 37.0345 12.281C36.2644 12.5288 35.4739 12.43 34.6902 12.42C33.8742 12.4116 33.0599 12.3781 32.2966 12.7516C32.2048 12.7968 32.0756 12.7666 31.9634 12.77L31.9787 12.7867C32.5499 12.2089 33.3268 12.1989 34.0527 12.1353C34.629 12.0833 35.2206 12.2357 35.8071 12.2341C36.2474 12.2341 36.6894 12.1386 37.128 12.0766C37.3473 12.0448 37.5649 11.9477 37.7791 11.9577C38.3282 11.9829 38.6546 11.7082 38.9402 11.2845C39.3975 10.6079 39.9721 10.0401 40.749 9.71356C42.3028 9.0604 43.826 9.114 45.3662 9.81572C46.1992 10.1959 46.852 10.7871 47.532 11.3481C47.855 11.6144 48.2137 11.7785 48.5129 11.5374C48.9294 11.1991 49.3595 11.2627 49.7879 11.323C50.9626 11.4905 52.122 11.4955 53.3035 11.3431C53.7693 11.2828 54.2946 11.4637 54.7587 11.6278C55.4829 11.8857 56.1833 12.214 56.7273 12.7867L56.746 12.7717Z" fill="#F2D42A"/>
<path d="M33.2828 40.8456C31.7715 40.7887 30.4659 40.4102 29.1807 39.9513C29.111 39.9262 29.0651 39.8374 29.0073 39.7788C29.0957 39.7453 29.1824 39.6884 29.2725 39.685C29.4408 39.6766 29.6142 39.6783 29.7774 39.7135C31.3567 40.0652 32.8986 39.8826 34.3776 39.3082C34.9879 39.0704 35.5132 38.6182 36.0793 38.2682C36.1439 38.228 36.2306 38.2229 36.3071 38.2012C36.3037 38.2983 36.3394 38.444 36.2884 38.4842C35.8923 38.8007 36.115 38.9531 36.4193 39.134C36.4839 39.1725 36.5145 39.412 36.4601 39.474C36.2085 39.7604 35.9399 40.0401 35.6407 40.2728C35.4248 40.4403 35.1613 40.5927 34.8978 40.643C34.3232 40.7535 33.7367 40.792 33.2828 40.8456Z" fill="#F2D42A"/>
<path d="M56.7324 12.7851C57.3019 12.7834 57.6164 13.2423 58.0159 13.5169C59.1328 14.284 60.0508 15.2553 60.7886 16.3908C61.4601 17.4258 61.88 18.5579 62.1605 19.747C62.4087 20.8004 62.5481 21.8656 62.5175 22.9508C62.492 23.8133 62.4988 24.6758 62.4852 25.54C62.4835 25.6103 62.4359 25.6807 62.4104 25.7493C62.3866 25.674 62.3424 25.5969 62.3424 25.5216C62.339 24.5753 62.3713 23.6274 62.3339 22.6829C62.2846 21.4151 62.0925 20.1674 61.6828 18.9549C61.2527 17.682 60.6628 16.498 59.755 15.4931C59.0274 14.6876 58.2505 13.9306 57.3495 13.3042C57.1302 13.1518 56.9483 12.9509 56.7477 12.7717C56.746 12.7717 56.7324 12.7851 56.7324 12.7851Z" fill="#F2D42A"/>
<path d="M22.1493 17.9651C22.1544 17.4693 22.5522 17.2232 22.8939 17.0423C23.2985 16.8262 23.7881 16.6688 24.2454 16.6588C25.857 16.6253 27.3292 16.2083 28.6705 15.3273C28.7113 15.3005 28.7759 15.3089 28.8286 15.3005C28.8235 15.3642 28.8422 15.4529 28.8082 15.4881C28.2251 16.091 27.4669 16.3958 26.6781 16.5834C25.9488 16.7576 25.1974 16.8514 24.4494 16.925C23.6062 17.0088 22.8786 17.2968 22.2836 17.8947C22.2496 17.9282 22.1833 17.9299 22.1323 17.9467L22.1493 17.9651Z" fill="#F2D42A"/>
<path d="M31.9703 12.77C31.9669 12.7968 31.9754 12.8404 31.9601 12.8504C31.2512 13.3428 30.561 13.8569 29.9558 14.4732C29.8963 14.5335 29.7688 14.5285 29.6719 14.5536C29.7093 14.4883 29.7348 14.413 29.7858 14.361C30.3366 13.81 30.8653 13.2289 31.5946 12.8923C31.7153 12.837 31.8547 12.8203 31.9856 12.7868L31.9703 12.77Z" fill="#F2D42A"/>
<path d="M49.3035 37.5614C49.2355 37.6619 49.1879 37.8009 49.1284 37.8059C49.0434 37.8126 48.8887 37.7389 48.87 37.6719C48.8156 37.471 48.802 37.2566 48.7969 37.0473C48.7952 36.9953 48.887 36.9016 48.9363 36.9016C48.9924 36.9016 49.0757 36.9719 49.1029 37.0305C49.1777 37.1963 49.2338 37.3738 49.3035 37.5614Z" fill="#F2D42A"/>
<path d="M20.9645 20.4756C20.9254 20.1373 21.0138 19.8492 21.3011 19.6399L21.2756 19.6181C21.3028 19.9514 21.2382 20.2495 20.9407 20.4572L20.9645 20.4756Z" fill="#F2D42A"/>
<path d="M22.1288 17.9484C22.1203 18.223 22.0438 18.4625 21.7888 18.6149L21.8143 18.6367C21.7973 18.3503 21.7905 18.0706 22.1475 17.9651L22.1288 17.9484Z" fill="#F2D42A"/>
<path d="M62.3118 26.513C62.2812 26.5281 62.2506 26.5415 62.22 26.5566C62.22 26.5064 62.2149 26.4561 62.22 26.4075C62.2217 26.3941 62.2506 26.3824 62.2659 26.369C62.2812 26.4193 62.2965 26.4662 62.3118 26.513Z" fill="#F2D42A"/>
<path d="M21.4488 19.2865C21.391 19.397 21.3332 19.5076 21.2771 19.6181L21.3026 19.6399C21.3604 19.5293 21.4182 19.4188 21.4743 19.3083L21.4488 19.2865Z" fill="#F2D42A"/>
<path d="M21.4745 19.3083C21.5306 19.1961 21.5867 19.0855 21.6428 18.9733L21.619 18.9515C21.5629 19.0637 21.5068 19.1743 21.449 19.2865L21.4745 19.3083Z" fill="#F2D42A"/>
<path d="M21.6427 18.9733C21.7005 18.8611 21.7566 18.7488 21.8144 18.6366L21.7889 18.6149C21.7311 18.7271 21.675 18.8393 21.6172 18.9515L21.6427 18.9733Z" fill="#F2D42A"/>
<path d="M43.5405 12.7566C44.9226 12.8035 46.1466 13.3478 47.0561 14.5251C47.1224 14.6122 47.1921 14.7043 47.2261 14.8048C47.2499 14.8735 47.2125 14.9606 47.2023 15.0393C47.1309 15.0242 47.0527 15.0259 46.9915 14.9941C46.4764 14.7177 45.9715 14.4213 45.4479 14.1584C44.739 13.8016 43.9315 13.6409 43.1818 13.6878C42.1516 13.7514 41.186 14.1835 40.4091 14.9154C40.0674 15.2369 39.7376 15.5719 39.3976 15.8951C39.3653 15.9252 39.2718 15.9437 39.2497 15.9219C39.1987 15.8733 39.1341 15.7896 39.146 15.7343C39.3653 14.7043 39.9756 13.954 40.8766 13.4114C41.6637 12.9324 42.5324 12.7733 43.5405 12.7566Z" fill="black"/>
<path d="M53.6943 14.3761C55.3144 14.5218 56.7407 14.9773 57.8049 16.2435C58.2843 16.8145 58.5852 17.4526 58.5988 18.2012C58.6005 18.2766 58.49 18.3536 58.4322 18.4307C58.3778 18.3788 58.2996 18.3369 58.2758 18.2749C57.5635 16.5097 56.1559 15.6305 54.3369 15.2855C53.7623 15.1766 53.1826 15.1029 52.6063 14.9974C52.5264 14.9824 52.4635 14.8802 52.3921 14.8182C52.4482 14.7596 52.4958 14.6642 52.5638 14.6457C52.9412 14.5469 53.3186 14.4649 53.6943 14.3761Z" fill="black"/>
<path d="M42.9656 29.9899C41.7178 29.9832 40.2711 29.6917 38.8584 29.2613C38.4419 29.1357 38.0747 28.8426 37.6939 28.6132C37.6446 28.5831 37.6412 28.4809 37.6157 28.4122C37.6888 28.4223 37.7619 28.424 37.8333 28.4424C38.6408 28.6433 39.45 28.8443 40.2558 29.047C40.963 29.2262 41.6753 29.33 42.4097 29.3283C43.8394 29.3266 45.2657 29.3317 46.6699 29.0017C46.8756 28.9532 47.1085 29.0218 47.3295 29.0369C47.1561 29.1441 46.9963 29.2831 46.8093 29.3534C45.6482 29.7805 44.448 29.9982 42.9656 29.9899Z" fill="black"/>
<path d="M54.6042 30.6866C53.0759 30.5258 51.7142 30.2729 50.4766 29.5695C50.4154 29.5343 50.3848 29.4456 50.3389 29.3819C50.4171 29.3635 50.5038 29.3149 50.5735 29.3317C51.3045 29.5025 52.0304 29.6934 52.7614 29.8609C53.8732 30.1155 55.0088 30.0518 56.1189 29.9245C56.9944 29.8241 57.841 29.4958 58.7029 29.2747C58.8236 29.2429 58.9528 29.2429 59.0786 29.2278C58.9851 29.33 58.912 29.4724 58.7964 29.5293C58.2456 29.7973 57.7067 30.1305 57.1219 30.2762C56.2617 30.4906 55.3658 30.5676 54.6042 30.6866Z" fill="black"/>
<path d="M34.2514 15.4194C34.5047 15.4312 34.758 15.4395 35.0113 15.458C35.0606 15.4613 35.1065 15.5082 35.1541 15.535C35.1065 15.5618 35.064 15.6003 35.013 15.6137C34.5829 15.7226 34.1562 15.8616 33.7193 15.9236C33.058 16.0157 32.5174 16.3607 32.0006 16.7107C31.4379 17.0909 31.0384 17.6351 30.967 18.3503C30.9602 18.4256 30.9092 18.496 30.8786 18.568C30.8123 18.5177 30.7256 18.4809 30.6848 18.4156C30.2921 17.7926 30.3669 17.2047 31.0554 16.6789C31.987 15.9688 32.973 15.3106 34.2514 15.4194Z" fill="black"/>
<path d="M31.2628 30.3332C30.1629 30.0702 28.9423 30.1288 27.975 29.3434C27.9223 29.2998 27.8713 29.2546 27.8203 29.2094C27.8985 29.1943 27.9937 29.1441 28.0532 29.1709C29.0953 29.6264 30.2326 29.7303 31.3257 29.7537C32.2743 29.7738 33.2841 29.7537 34.214 29.3886C34.3143 29.3484 34.4299 29.3434 34.5404 29.33C34.5625 29.3266 34.6084 29.3518 34.6084 29.3668C34.6118 29.4104 34.6135 29.4774 34.588 29.4941C34.4231 29.5979 34.2616 29.7336 34.0797 29.7788C33.4864 29.9262 32.8863 30.0434 32.2862 30.1623C31.9598 30.2277 31.6283 30.2729 31.2628 30.3332Z" fill="black"/>
<path d="M60.2905 25.55C60.2905 26.3271 60.2922 27.1042 60.2871 27.8813C60.2871 27.95 60.2361 28.0186 60.2089 28.0873C60.146 28.0354 60.0423 27.9918 60.027 27.9282C59.9352 27.5581 59.7975 27.1813 59.8009 26.8078C59.806 25.6221 59.6717 24.4296 59.9301 23.2506C59.9505 23.1551 59.8536 23.0362 59.8672 22.9358C59.8791 22.847 59.9709 22.77 60.027 22.6862C60.1035 22.7549 60.2259 22.8101 60.2497 22.8939C60.2939 23.0496 60.2871 23.2205 60.2888 23.3863C60.2905 24.1064 60.2888 24.8282 60.2905 25.55C60.2888 25.55 60.2888 25.55 60.2905 25.55Z" fill="black"/>
<path d="M54.4561 29.6582C53.4752 29.7503 52.5436 29.4137 51.6647 28.8929C51.6086 28.8594 51.5882 28.7706 51.5508 28.707C51.629 28.6919 51.7259 28.6383 51.7854 28.6668C52.7476 29.1106 53.7693 29.1809 54.8097 29.1675C55.6801 29.1558 56.5369 29.1022 57.3308 28.7003C57.3801 28.6751 57.4702 28.7271 57.5416 28.7421C57.5093 28.7874 57.4855 28.8426 57.443 28.8744C56.78 29.3718 56.0065 29.5695 55.1956 29.6549C54.9746 29.6783 54.7468 29.6582 54.4561 29.6582Z" fill="black"/>
<path d="M26.6951 20.2109C26.6254 20.2495 26.5812 20.2897 26.5302 20.3014C26.0134 20.4102 25.5 20.5543 24.9781 20.6079C24.2148 20.6866 23.6045 21.045 23.0231 21.4921C22.9449 21.5524 22.8293 21.5625 22.7307 21.596C22.7324 21.4988 22.7035 21.39 22.7409 21.3079C23.0894 20.5292 23.7558 20.1188 24.5565 19.9932C25.1855 19.8944 25.8468 19.8726 26.4707 20.1222C26.5404 20.1473 26.6101 20.1758 26.6951 20.2109Z" fill="black"/>
<path d="M22.6406 30.0652C22.185 29.953 21.7277 29.8508 21.2789 29.7219C21.1667 29.6901 21.08 29.5678 20.9814 29.4874C21.0919 29.4355 21.2007 29.34 21.3129 29.3367C22.1017 29.3149 22.8905 29.3166 23.6793 29.2998C23.902 29.2948 24.1213 29.2496 24.344 29.2362C24.4919 29.2278 24.6398 29.2446 24.7877 29.2496C24.6738 29.3685 24.5786 29.5561 24.4426 29.5946C23.8561 29.7554 23.3104 30.1071 22.6406 30.0652Z" fill="black"/>
<path d="M31.479 29.4774C30.7021 29.3518 29.9626 29.2396 29.286 28.9029C29.2299 28.8745 29.2061 28.7807 29.167 28.717C29.2435 28.7154 29.3251 28.6953 29.3965 28.7154C30.0986 28.8996 30.8092 28.9833 31.5385 28.9934C32.3018 29.0034 33.0328 28.8879 33.7519 28.6568C33.7961 28.6417 33.8573 28.6735 33.91 28.6836C33.8811 28.7304 33.8641 28.8008 33.8216 28.8242C33.3065 29.1006 32.8016 29.3853 32.1726 29.3451C31.9329 29.33 31.6847 29.4338 31.479 29.4774Z" fill="black"/>
<path d="M42.711 28.9833C41.844 29.0453 41.0059 28.8544 40.1984 28.5144C40.127 28.4843 40.0658 28.4307 39.9995 28.3888C40.0777 28.367 40.161 28.3185 40.2358 28.3285C40.5945 28.3737 40.9532 28.4223 41.3085 28.4893C42.4764 28.7087 43.6443 28.7338 44.8122 28.4926C44.8666 28.4809 44.9261 28.4826 44.9805 28.491C45.0893 28.506 45.1947 28.5278 45.3035 28.5479C45.2151 28.5847 45.1284 28.6283 45.0383 28.6601C44.2886 28.9214 43.5202 29.0285 42.711 28.9833Z" fill="black"/>
<path d="M22.7545 28.6417C22.8378 28.6417 22.9228 28.6299 23.0027 28.645C23.1455 28.6701 23.2866 28.712 23.4294 28.7455C23.2849 28.8209 23.1404 28.9582 22.9976 28.9565C22.7052 28.9498 22.4128 28.8711 22.1238 28.8142C22.0864 28.8075 22.0609 28.7489 22.0303 28.7154C22.0796 28.6936 22.1272 28.6551 22.1765 28.6534C22.3703 28.6467 22.5641 28.65 22.7562 28.65C22.7545 28.645 22.7545 28.6433 22.7545 28.6417Z" fill="black"/>
<path d="M76.0784 49.6598C76.1226 49.6246 76.1685 49.5928 76.2127 49.5577C76.9845 48.9548 77.4129 48.1844 77.4197 47.1979C77.4231 46.6972 77.4095 46.1914 77.4741 45.6957C77.6917 44.0042 77.7002 42.3076 77.3857 40.6379C76.9488 38.3234 76.2637 36.0792 75.3015 33.9104C73.899 30.7485 71.9967 27.9215 69.6286 25.396C68.7667 24.4765 67.8385 23.6157 66.9239 22.7465C66.3884 22.2374 66.1266 21.6361 66.0535 20.911C65.9804 20.1691 65.8784 19.4255 65.7067 18.7003C65.1185 16.215 63.9387 14.0478 62.084 12.2391C60.8532 11.0366 59.4677 10.0351 57.9972 9.15754C56.355 8.17613 54.5683 7.62011 52.6133 7.75075C52.1373 7.78257 51.663 7.84621 51.187 7.88808C51.0187 7.90315 50.8453 7.91822 50.6804 7.89477C49.6179 7.74572 48.586 7.50623 47.6408 6.96864C47.2277 6.73249 46.7959 6.52315 46.3573 6.3339C44.2544 5.42954 42.1277 5.31063 39.967 6.15303C38.9317 6.55665 38.0035 7.11601 37.1926 7.86295C36.6061 8.40223 35.9448 8.69698 35.1237 8.60655C34.7599 8.56635 34.3893 8.5898 34.0221 8.57975C31.7237 8.51778 29.7806 9.34344 28.1758 10.9294C26.7155 12.3714 24.9526 13.1116 22.9143 13.2724C21.9334 13.3495 21.0613 13.6861 20.298 14.3074C19.7234 14.7747 19.3086 15.3525 18.9448 15.9872C17.8483 17.9065 16.9218 19.8843 16.7144 22.1151C16.6872 22.4032 16.5206 22.5355 16.3013 22.6912C15.589 23.192 14.9311 23.7463 14.3973 24.4497C13.1818 26.0541 12.1057 27.744 11.1231 29.4907C9.40949 32.5354 8.12089 35.7426 7.45789 39.1775C7.16379 40.7016 6.89859 42.2356 6.89519 43.7865C6.87309 51.5824 6.88499 59.3784 6.89349 67.1744C6.89349 67.5864 6.97509 67.9984 7.00739 68.4121C7.09069 69.4621 7.16549 70.5139 7.24879 71.5656C7.29299 72.1166 7.29639 72.6777 7.40689 73.2169C7.52929 73.8131 7.78259 74.3708 8.21099 74.8414C8.92159 75.6185 9.81919 75.9217 10.8528 75.9217C13.9893 75.9183 17.1258 75.9334 20.2623 75.8999C21.1735 75.8898 21.8382 76.198 22.3227 76.9483C22.44 77.1292 22.6066 77.305 22.7919 77.4105C24.4783 78.3601 26.197 79.2477 28.0092 79.9545C30.1546 80.7918 32.3578 81.4383 34.6137 81.9005C36.4021 82.2673 38.2194 82.5018 40.0401 82.5805C41.7826 82.6558 43.5319 82.6826 45.2812 82.4884C46.5919 82.341 47.9009 82.197 49.2031 81.9776C51.8653 81.5287 54.4731 80.894 57.001 79.9528C59.211 79.1288 61.234 78.0084 62.9578 76.4006C63.2859 76.0942 63.6378 75.9485 64.0951 75.9552C65.3106 75.9736 66.5261 75.9619 67.7416 75.9619C67.7416 75.9552 67.7416 75.9485 67.7416 75.9434C68.8721 75.9434 70.0026 75.9451 71.1331 75.9418C71.3864 75.9401 71.6499 75.9552 71.8913 75.8982C73.6559 75.4728 75.1978 74.6606 76.4303 73.3208C76.8978 72.8133 77.1902 72.2104 77.2565 71.5338C77.3432 70.6512 77.3976 69.7636 77.4163 68.876C77.4384 67.7673 77.4231 66.6636 77.3075 65.5516C77.1817 64.3391 77.2599 63.1048 77.2888 61.8805C77.3075 61.0783 77.4367 60.2778 77.4469 59.4756C77.4707 57.7221 77.4401 55.9669 77.452 54.2135C77.4605 53.0479 76.9981 52.1334 76.0665 51.4166C75.1876 50.735 75.2012 50.3749 76.0784 49.6598ZM28.1928 40.2561C28.4206 40.3281 28.4376 40.524 28.2727 40.7233C27.6862 41.4334 26.8464 41.5389 26.078 41.6796C24.7656 41.5071 23.5977 41.1939 22.8208 40.1053C22.78 40.0467 22.7596 39.9747 22.729 39.9077C22.8072 39.9111 22.8905 39.8993 22.9636 39.9211C23.8765 40.1774 24.684 39.8206 25.4524 39.4405C25.8655 39.2361 26.2174 38.8778 26.5302 38.5311C26.7614 38.2748 26.979 38.2983 27.1881 38.439C27.5247 38.6634 27.7729 38.9799 27.7287 39.412C27.6896 39.8123 27.7355 40.1137 28.1928 40.2561ZM36.4191 39.134C36.4837 39.1725 36.5143 39.412 36.4599 39.474C36.2083 39.7603 35.9397 40.04 35.6405 40.2728C35.4246 40.4403 35.1611 40.5927 34.8976 40.6429C34.3247 40.7518 33.7382 40.792 33.2826 40.8439C31.7713 40.787 30.4657 40.4085 29.1805 39.9496C29.1108 39.9245 29.0649 39.8357 29.0071 39.7771C29.0955 39.7436 29.1822 39.6867 29.2723 39.6833C29.4406 39.6749 29.614 39.6766 29.7772 39.7118C31.3565 40.0635 32.8984 39.8809 34.3774 39.3065C34.9877 39.0687 35.513 38.6165 36.0791 38.2665C36.1437 38.2263 36.2304 38.2212 36.3069 38.1995C36.3035 38.2966 36.3392 38.4423 36.2882 38.4825C35.8921 38.8007 36.1165 38.9531 36.4191 39.134ZM48.7951 37.0472C48.7934 36.9953 48.8852 36.9015 48.9345 36.9015C48.9906 36.9015 49.0739 36.9719 49.1011 37.0305C49.1793 37.1963 49.2337 37.3721 49.3034 37.5597C49.2354 37.6602 49.1878 37.7992 49.1283 37.8042C49.0433 37.8109 48.8886 37.7372 48.8699 37.6702C48.8138 37.471 48.8002 37.2566 48.7951 37.0472ZM47.4793 38.0153C47.1733 38.5261 46.7466 38.9196 46.24 39.2395C46.1788 39.278 46.1754 39.4036 46.1448 39.4874C46.2264 39.4974 46.3131 39.5309 46.3879 39.5125C46.5766 39.4639 46.7568 39.3852 46.9455 39.3316C47.0356 39.3065 47.1342 39.3098 47.2294 39.2998C47.1954 39.3735 47.1818 39.4656 47.1257 39.5175C46.4831 40.1238 45.7436 40.5559 44.8511 40.6815C44.2697 40.7635 43.6849 40.8188 43.1018 40.8858C41.633 40.8188 40.1965 40.5793 38.7668 40.313C38.4744 40.2594 38.2041 40.0635 37.9389 39.9111C37.8539 39.8625 37.774 39.7419 37.7621 39.6481C37.7468 39.5209 37.7808 39.3751 37.8386 39.2613C37.8556 39.2278 38.0375 39.2546 38.1327 39.2864C38.9351 39.5527 39.746 39.7536 40.6028 39.7017C40.715 39.695 40.8289 39.7001 40.9411 39.685C40.9921 39.6783 41.038 39.6381 41.0856 39.6113C41.0465 39.5778 41.0125 39.5259 40.9666 39.5125C40.7541 39.4488 40.5416 39.3869 40.324 39.34C39.7783 39.2244 39.2292 39.1273 38.6852 39.0034C38.1939 38.8911 37.8335 38.588 37.5802 38.166C37.5122 38.0521 37.4799 37.9181 37.4323 37.7925C37.5445 37.8377 37.655 37.8846 37.7672 37.9265C38.8654 38.3318 39.9755 38.6718 41.14 38.8811C42.9573 39.206 44.6386 38.8191 46.2961 38.1626C46.6072 38.0404 46.9081 37.8896 47.2175 37.7657C47.3093 37.7289 47.4198 37.7372 47.5218 37.7238C47.5099 37.821 47.5252 37.9365 47.4793 38.0153ZM58.0159 13.5169C59.1328 14.284 60.0508 15.2553 60.7886 16.3908C61.4601 17.4258 61.88 18.5579 62.1605 19.747C62.4087 20.8004 62.5481 21.8656 62.5175 22.9508C62.492 23.8133 62.4988 24.6758 62.4852 25.54C62.4835 25.6103 62.4359 25.6807 62.4104 25.7493C62.3866 25.674 62.3424 25.5969 62.3424 25.5216C62.339 24.5753 62.3713 23.6274 62.3339 22.6829C62.2846 21.4151 62.0925 20.1674 61.6828 18.9549C61.2527 17.682 60.6628 16.498 59.755 15.4931C59.0274 14.6876 58.2505 13.9306 57.3495 13.3042C57.137 13.1569 56.9568 12.9626 56.7647 12.7867C57.3121 12.7985 57.6232 13.2456 58.0159 13.5169ZM62.3118 26.513C62.2812 26.5281 62.2506 26.5415 62.22 26.5566C62.22 26.5063 62.2149 26.4561 62.22 26.4075C62.2217 26.3941 62.2506 26.3824 62.2659 26.369C62.2812 26.4192 62.2965 26.4661 62.3118 26.513ZM34.0578 12.1336C34.6341 12.0817 35.2257 12.2341 35.8122 12.2324C36.2525 12.2324 36.6945 12.1369 37.1331 12.075C37.3524 12.0431 37.57 11.946 37.7842 11.9561C38.3333 11.9812 38.6597 11.7065 38.9453 11.2828C39.4026 10.6062 39.9772 10.0385 40.7541 9.71188C42.3079 9.05873 43.8311 9.11232 45.3713 9.81404C46.2043 10.1942 46.8571 10.7854 47.5371 11.3464C47.8601 11.6127 48.2188 11.7769 48.518 11.5357C48.9345 11.1974 49.3646 11.261 49.793 11.3213C50.9677 11.4888 52.1271 11.4938 53.3086 11.3414C53.7744 11.2811 54.2997 11.462 54.7638 11.6261C55.4744 11.879 56.1629 12.2022 56.7001 12.7549C56.4604 12.6628 56.2156 12.5791 55.981 12.4719C55.5475 12.2743 55.1038 12.09 54.6992 11.8438C54.2011 11.539 53.669 11.5323 53.1488 11.6395C52.309 11.812 51.4896 11.7953 50.6515 11.6446C50.2129 11.5658 49.7505 11.5926 49.3 11.606C49.1487 11.6111 49.0025 11.7216 48.8529 11.7836C48.9243 11.9125 48.9957 12.0415 49.0688 12.1704C49.0824 12.1939 49.1113 12.2073 49.1283 12.229C49.164 12.2726 49.1963 12.3178 49.2286 12.3613C49.1538 12.3747 49.0739 12.4116 49.0059 12.3965C48.0658 12.1788 47.3807 11.5457 46.6752 10.9613C45.9323 10.3466 45.1316 9.84251 44.1694 9.68341C42.4694 9.40373 40.8595 9.53939 39.5777 10.8708C39.4808 10.9713 39.3686 11.0668 39.3023 11.1857C38.9368 11.8489 38.3197 12.2324 37.6992 12.6176C37.4102 12.7985 37.349 12.7432 37.4697 12.4317C37.4833 12.3982 37.4119 12.2927 37.3677 12.2843C37.2606 12.2625 37.1348 12.2491 37.0328 12.281C36.2627 12.5288 35.4722 12.43 34.6885 12.42C33.8725 12.4116 33.0582 12.3781 32.2949 12.7516C32.2116 12.7918 32.0977 12.7717 31.994 12.7717C32.572 12.2073 33.3404 12.1972 34.0578 12.1336ZM29.7857 14.361C30.3365 13.81 30.8652 13.2289 31.5945 12.8922C31.7101 12.8387 31.8427 12.8219 31.9702 12.7901C31.9702 12.8152 31.9719 12.842 31.96 12.8504C31.2511 13.3428 30.5609 13.8569 29.9557 14.4732C29.8962 14.5335 29.7687 14.5285 29.6718 14.5536C29.7092 14.4883 29.733 14.4112 29.7857 14.361ZM22.8939 17.0423C23.2985 16.8262 23.7881 16.6688 24.2454 16.6588C25.857 16.6253 27.3292 16.2083 28.6705 15.3273C28.7113 15.3005 28.7759 15.3089 28.8286 15.3005C28.8235 15.3642 28.8422 15.4529 28.8082 15.4881C28.2251 16.091 27.4669 16.3958 26.6781 16.5834C25.9488 16.7576 25.1974 16.8514 24.4494 16.9251C23.6062 17.0088 22.8786 17.2969 22.2836 17.8947C22.2547 17.9232 22.202 17.9299 22.1544 17.94C22.1697 17.4627 22.559 17.2215 22.8939 17.0423ZM22.1272 17.9735C22.1153 18.228 22.0388 18.4508 21.8127 18.5981C21.7991 18.3319 21.8093 18.079 22.1272 17.9735ZM21.2789 19.6583C21.2976 19.9664 21.2296 20.2411 20.9627 20.4387C20.9338 20.1272 21.0205 19.8592 21.2789 19.6583ZM19.6894 28.7924C19.9206 28.1442 20.0855 27.4743 20.3065 26.8212C20.6006 25.9486 20.4867 25.0644 20.3762 24.1901C20.298 23.5805 20.247 22.991 20.3983 22.3881C20.5037 21.9627 20.5309 21.5172 20.6397 21.0935C20.6907 20.8942 20.825 20.715 20.9338 20.5308C20.9168 20.6698 20.9032 20.8088 20.8777 20.9445C20.7366 21.6964 20.5054 22.445 20.4714 23.202C20.4459 23.7882 20.6584 24.3878 20.7842 24.9756C20.8199 25.1431 20.9474 25.0828 21.0188 24.9873C21.3605 24.5318 21.4625 23.9791 21.607 23.4516C21.7158 23.0563 21.8008 22.6343 21.7855 22.2273C21.7464 21.2007 23.2186 19.7219 24.2811 19.6231C25.0308 19.5527 25.7703 19.3802 26.52 19.3233C27.5553 19.2463 28.3798 18.7388 29.1448 18.1326C29.665 17.7206 30.1274 17.2332 30.583 16.7492C31.7407 15.5233 33.1534 14.9204 34.8568 14.9572C35.9295 14.979 37.0022 14.9539 38.0749 14.974C38.3894 14.979 38.5883 14.845 38.8127 14.6524C39.5097 14.0512 40.2084 13.4432 40.9564 12.9056C41.6687 12.3932 42.4949 12.0716 43.3959 12.142C44.3207 12.214 45.2302 12.4032 45.9986 12.971C46.7177 13.5019 47.4283 14.0411 48.1372 14.5837C48.433 14.8098 48.739 14.9874 49.1317 14.974C49.4343 14.9639 49.4836 14.8601 49.3102 14.5653C49.1487 14.289 49.1521 14.2706 49.4632 14.2722C50.3115 14.2773 51.1598 14.3124 52.0064 14.294C52.6218 14.2806 53.2355 14.1533 53.8475 14.16C54.9219 14.1718 55.9538 14.3644 56.8735 14.9857C57.8136 15.6204 58.395 16.4745 58.8285 17.5095C59.3725 18.8092 60.0865 20.0384 60.7019 21.3112C60.9926 21.9108 61.2034 22.5439 61.1371 23.2305C61.0963 23.6693 61.1609 24.0595 61.5791 24.3208C61.7899 24.4531 61.8596 24.6691 61.8324 24.9036C61.7678 25.4512 61.6947 25.9972 61.6148 26.5415C61.5825 26.7575 61.5128 26.9686 61.4805 27.1863C61.4703 27.2583 61.5264 27.3387 61.5502 27.4157C61.6199 27.3789 61.6998 27.3521 61.7593 27.3035C61.846 27.2332 61.914 27.1394 62.0041 27.0757C62.0279 27.059 62.1248 27.1076 62.1554 27.1478C62.1826 27.1863 62.169 27.2566 62.1639 27.3102C62.0449 28.3703 62.4801 29.2563 63.0683 30.0903C63.2927 30.4085 63.5562 30.6982 63.7993 31.003C64.8431 32.3194 64.7173 33.2489 64.0135 34.4262C63.7874 34.8047 63.4644 35.1246 63.1992 35.4813C62.6671 36.1981 62.2064 36.9585 61.9429 37.8109C61.7593 38.4055 61.3258 38.7873 60.8957 39.1826C60.7274 39.3383 60.5115 39.2579 60.486 39.0268C60.4537 38.7237 60.469 38.4155 60.4299 38.1141C60.4197 38.0303 60.2854 37.96 60.2089 37.8846C60.1817 37.96 60.1341 38.0337 60.129 38.109C60.1188 38.3318 60.0967 38.5579 60.1307 38.7756C60.2038 39.2579 60.01 39.6582 59.7091 39.9864C59.1532 40.596 58.5174 41.0918 57.6062 41.0281C57.4651 41.0181 57.324 41.0298 57.1829 41.0281C56.0558 41.0147 55.9589 40.9142 55.8858 39.7905C55.8569 39.3484 55.7957 38.9012 55.3826 38.6198C55.3112 38.5713 55.182 38.5729 55.0936 38.5964C55.0579 38.6064 55.0545 38.7387 55.0409 38.8175C55.0375 38.8426 55.0426 38.8777 55.0579 38.8978C55.6665 39.6565 54.9763 40.1539 54.6703 40.725C54.6669 40.73 54.4646 40.6731 54.451 40.6212C54.4017 40.4353 54.4 40.2393 54.3694 40.0467C54.3609 39.9965 54.3201 39.9513 54.2929 39.9027C54.264 39.9479 54.2317 39.9898 54.2079 40.0367C54.196 40.0601 54.1977 40.0903 54.1926 40.1187C54.0073 41.281 53.1437 41.7332 52.1339 42.0397C51.9503 42.095 51.7871 42.244 51.5984 42.0481C51.4097 41.8521 51.4539 41.6361 51.5406 41.4284C51.7565 40.9193 51.9826 40.4152 52.2121 39.9111C52.292 39.7352 52.4008 39.5711 52.4841 39.3969C52.5028 39.3584 52.4688 39.2964 52.4603 39.2462C52.4144 39.2546 52.3481 39.2462 52.326 39.273C52.1152 39.5309 51.8823 39.7771 51.7157 40.0618C51.4794 40.4688 51.3009 40.9076 51.0867 41.3262C50.8912 41.7064 50.6294 41.7868 50.286 41.5624C49.8593 41.2844 49.6264 40.8992 49.6332 40.375C49.6451 39.5175 49.9511 38.7387 50.3863 38.032C51.1496 36.791 52.2257 35.9101 53.6775 35.5014C54.4561 35.282 55.2415 35.3373 56.0252 35.3474C56.6253 35.3557 57.188 35.2553 57.7456 35.0325C58.2539 34.8299 58.7333 34.5753 59.024 34.1332C59.4915 33.4231 60.0729 32.857 60.7954 32.4132C60.9858 32.296 61.0963 32.1486 60.8005 31.9828C60.4197 31.7701 60.3058 31.4033 60.3041 30.993C60.3041 30.5207 60.3109 30.0468 60.2905 29.5745C60.2803 29.3367 60.044 29.2295 59.8791 29.3919C59.0121 30.241 57.9224 30.6329 56.7698 30.9009C56.5539 30.9511 56.3278 30.9846 56.1051 30.988C55.3146 31.003 54.5224 31.0164 53.7319 31.003C52.3821 30.9796 51.1581 30.5726 50.0174 29.8558C49.3017 29.407 49.0025 28.7606 48.9566 27.9868C48.8954 26.9635 48.9396 25.9419 49.2082 24.9371C49.3357 24.4615 49.3867 23.9641 49.4547 23.4733C49.4683 23.3762 49.402 23.269 49.3714 23.1669C49.2711 23.2406 49.147 23.2958 49.0739 23.3896C48.9226 23.5856 48.807 23.81 48.6574 24.0076C48.569 24.1248 48.4908 24.1031 48.4398 23.9473C48.2256 23.2925 48.0046 22.641 47.77 21.9945C47.7428 21.9209 47.617 21.8807 47.5371 21.8254C47.4997 21.9192 47.4181 22.0197 47.4317 22.1034C47.6901 23.6207 47.9757 25.133 48.2222 26.652C48.3191 27.2499 48.3514 27.8595 48.3837 28.4658C48.4109 28.9816 48.0369 29.4455 47.4504 29.6164C46.7823 29.8123 46.0989 29.958 45.4274 30.1472C44.4873 30.4135 43.5251 30.2913 42.5714 30.3432C41.1434 30.4202 39.7885 30.1004 38.4574 29.6431C37.7468 29.3986 37.1263 29.0352 36.8764 28.2698C36.8169 28.089 36.7438 27.9014 36.7421 27.7155C36.7268 26.4963 36.7676 25.2838 37.162 24.1081C37.2215 23.9289 37.2504 23.7296 37.247 23.5403C37.2453 23.4214 37.1569 23.3042 37.1076 23.187C37.0158 23.2724 36.8934 23.3427 36.8373 23.4466C36.7608 23.5889 36.7421 23.7614 36.6809 23.9138C36.5602 24.2153 36.4565 24.4966 36.0825 24.6407C35.6473 24.8081 35.6626 24.8919 35.7952 25.3474C36.1114 26.441 36.2678 27.5581 36.2202 28.6969C36.1981 29.2094 35.9839 29.6281 35.496 29.824C34.8789 30.0719 34.2499 30.3114 33.6039 30.4705C32.2439 30.8038 30.8737 30.7133 29.5137 30.437C29.1329 30.3599 28.7555 30.2578 28.3849 30.1405C27.0283 29.7101 26.8124 28.8225 26.7546 27.7306C26.7461 27.5665 26.7733 27.399 26.7852 27.2332C26.8294 26.6269 26.877 26.0207 26.9127 25.4144C26.9161 25.344 26.8532 25.2704 26.8226 25.1983C26.758 25.2486 26.6764 25.2888 26.6288 25.3524C26.0338 26.1396 26.1647 27.0305 26.2667 27.9131C26.2922 28.1308 26.3602 28.3435 26.3721 28.5613C26.3908 28.9163 26.248 29.1826 25.9284 29.3919C25.0937 29.9362 24.2029 30.303 23.1914 30.3315C22.2904 30.3566 21.386 30.4001 20.5445 29.9865C20.3456 29.8893 20.145 29.7889 19.9665 29.6616C19.6571 29.4405 19.5534 29.1725 19.6894 28.7924Z" fill="black"/>
<path d="M12.461 69.7451C12.5137 69.7451 12.5375 69.7686 12.5375 69.8205V70.2475C12.5375 70.2995 12.5137 70.3229 12.461 70.3229H11.2812V71.0313H12.3046C12.3573 71.0313 12.3811 71.0548 12.3811 71.1067V71.5287C12.3811 71.5806 12.3573 71.6041 12.3046 71.6041H11.2812V72.7664C11.2812 72.8183 11.2574 72.8417 11.2047 72.8417H10.6964C10.6437 72.8417 10.6199 72.8183 10.6199 72.7664V69.8238C10.6199 69.7719 10.6437 69.7485 10.6964 69.7485H11.2812H12.461V69.7451Z" fill="#F2D42A"/>
<path d="M13.6595 72.8384C13.6068 72.8384 13.583 72.8149 13.583 72.763V69.8205C13.583 69.7686 13.6068 69.7451 13.6595 69.7451H14.178C14.2307 69.7451 14.2545 69.7686 14.2545 69.8205V72.763C14.2545 72.8149 14.2307 72.8384 14.178 72.8384H13.6595Z" fill="#F2D42A"/>
<path d="M17.6493 71.0247C17.702 71.0247 17.7258 71.0481 17.7258 71.1V72.6659C17.7258 72.7178 17.7071 72.7463 17.6646 72.7547C17.3654 72.8485 17.0509 72.8954 16.7279 72.8954C15.7725 72.8954 15.3628 72.4449 15.3628 71.2926C15.3628 70.1672 15.7487 69.6899 16.8384 69.6899C17.0628 69.6899 17.2991 69.7133 17.5524 69.7552C17.5949 69.7652 17.6187 69.792 17.6187 69.8389V70.2225C17.6187 70.2878 17.5813 70.3162 17.5099 70.3062C17.2821 70.2777 17.073 70.2643 16.8826 70.2643C16.1924 70.2777 16.0683 70.3899 16.0445 71.2725C16.0445 72.14 16.2162 72.346 16.7959 72.346C16.9149 72.346 17.0203 72.341 17.1104 72.3276V71.574H16.682C16.6293 71.574 16.6055 71.5505 16.6055 71.4986V71.1C16.6055 71.0481 16.6293 71.0247 16.682 71.0247H17.6493Z" fill="#F2D42A"/>
<path d="M21.1752 69.7451C21.2279 69.7451 21.2517 69.7686 21.2517 69.8205V72.763C21.2517 72.8149 21.2279 72.8384 21.1752 72.8384H20.6669C20.6142 72.8384 20.5904 72.8149 20.5904 72.763V71.6242H19.5058V72.763C19.5058 72.8149 19.482 72.8384 19.4293 72.8384H18.921C18.8683 72.8384 18.8445 72.8149 18.8445 72.763V69.8205C18.8445 69.7686 18.8683 69.7451 18.921 69.7451H19.4293C19.482 69.7451 19.5058 69.7686 19.5058 69.8205V71.0431H20.5904V69.8205C20.5904 69.7686 20.6142 69.7451 20.6669 69.7451H21.1752Z" fill="#F2D42A"/>
<path d="M24.3473 69.7451C24.4 69.7451 24.4238 69.7686 24.4238 69.8205V70.2526C24.4238 70.3045 24.4 70.3279 24.3473 70.3279H23.6622V72.7647C23.6622 72.8166 23.6384 72.8401 23.5857 72.8401H23.0774C23.0247 72.8401 23.0009 72.8166 23.0009 72.7647V70.3279H22.3158C22.2631 70.3279 22.2393 70.3045 22.2393 70.2526V69.8205C22.2393 69.7686 22.2631 69.7451 22.3158 69.7451H24.3473Z" fill="#F2D42A"/>
<path d="M25.4827 72.8384C25.43 72.8384 25.4062 72.8149 25.4062 72.763V69.8205C25.4062 69.7686 25.43 69.7451 25.4827 69.7451H26.0012C26.0539 69.7451 26.0777 69.7686 26.0777 69.8205V72.763C26.0777 72.8149 26.0539 72.8384 26.0012 72.8384H25.4827Z" fill="#F2D42A"/>
<path d="M29.774 69.7451C29.8267 69.7451 29.8505 69.7686 29.8505 69.8205V72.763C29.8505 72.8149 29.8267 72.8384 29.774 72.8384H29.2606C29.2232 72.8384 29.1943 72.82 29.1705 72.7865L28.5041 71.7414C28.3749 71.5405 28.2083 71.249 27.9992 70.8789L27.9142 70.7282C27.938 71.1268 27.9482 71.4684 27.9482 71.7548V72.763C27.9482 72.8149 27.9244 72.8384 27.8717 72.8384H27.3719C27.3192 72.8384 27.2954 72.8149 27.2954 72.763V69.8205C27.2954 69.7686 27.3192 69.7451 27.3719 69.7451H27.8955C27.9329 69.7451 27.9618 69.7635 27.9856 69.797L28.6418 70.8287C28.703 70.9275 28.7744 71.0498 28.8611 71.1938C28.9427 71.3395 29.009 71.4567 29.0617 71.5455L29.2232 71.8268C29.2045 71.4902 29.1943 71.1569 29.1943 70.8237V69.8205C29.1943 69.7686 29.2181 69.7451 29.2708 69.7451H29.774Z" fill="#F2D42A"/>
<path d="M33.247 71.0247C33.2997 71.0247 33.3235 71.0481 33.3235 71.1V72.6659C33.3235 72.7178 33.3048 72.7463 33.2623 72.7547C32.9631 72.8485 32.6485 72.8954 32.3255 72.8954C31.3701 72.8954 30.9604 72.4449 30.9604 71.2926C30.9604 70.1672 31.3464 69.6899 32.4361 69.6899C32.6605 69.6899 32.8968 69.7133 33.1501 69.7552C33.1926 69.7652 33.2164 69.792 33.2164 69.8389V70.2225C33.2164 70.2878 33.179 70.3162 33.1076 70.3062C32.8798 70.2777 32.6706 70.2643 32.4802 70.2643C31.79 70.2777 31.666 70.3899 31.6422 71.2725C31.6422 72.14 31.8139 72.346 32.3936 72.346C32.5126 72.346 32.6179 72.341 32.708 72.3276V71.574H32.2797C32.227 71.574 32.2031 71.5505 32.2031 71.4986V71.1C32.2031 71.0481 32.227 71.0247 32.2797 71.0247H33.247Z" fill="#F2D42A"/>
<path d="M37.0939 69.6882C37.2792 69.6882 37.4594 69.7016 37.6413 69.73C37.6991 69.7351 37.7127 69.7669 37.7127 69.8238V70.2124C37.7127 70.2727 37.6838 70.2961 37.6311 70.2928C37.4169 70.2743 37.2554 70.2643 37.1551 70.2643C36.5465 70.2643 36.3697 70.4703 36.3697 71.2909C36.3799 72.13 36.5261 72.3025 37.1551 72.3175C37.2554 72.3175 37.4169 72.3075 37.6311 72.2891H37.6413C37.6889 72.2891 37.7127 72.3175 37.7127 72.3695V72.758C37.7127 72.8149 37.6991 72.8468 37.6413 72.8518C37.4611 72.8803 37.2792 72.8937 37.0939 72.8937C36.0756 72.8937 35.6812 72.4431 35.6812 71.2909C35.6812 70.1387 36.0807 69.6882 37.0939 69.6882Z" fill="#F2D42A"/>
<path d="M41.1178 69.7451C41.1705 69.7451 41.1943 69.7686 41.1943 69.8205V72.763C41.1943 72.8149 41.1705 72.8384 41.1178 72.8384H40.6095C40.5568 72.8384 40.533 72.8149 40.533 72.763V71.6242H39.4484V72.763C39.4484 72.8149 39.4246 72.8384 39.3719 72.8384H38.8636C38.8109 72.8384 38.7871 72.8149 38.7871 72.763V69.8205C38.7871 69.7686 38.8109 69.7451 38.8636 69.7451H39.3719C39.4246 69.7451 39.4484 69.7686 39.4484 69.8205V71.0431H40.533V69.8205C40.533 69.7686 40.5568 69.7451 40.6095 69.7451H41.1178Z" fill="#F2D42A"/>
<path d="M44.8765 72.753C44.8816 72.7631 44.8816 72.7714 44.8816 72.7865C44.8816 72.82 44.8578 72.8384 44.8153 72.8384H44.2917C44.2492 72.8384 44.2203 72.82 44.2067 72.7781L44.0265 72.2154H42.9946L42.8144 72.7781C42.8008 72.82 42.7719 72.8384 42.7294 72.8384H42.2007C42.1429 72.8384 42.1191 72.81 42.1395 72.7547L43.1578 69.8071C43.1714 69.7653 43.2003 69.7468 43.2428 69.7468H43.78C43.8225 69.7468 43.8514 69.7653 43.865 69.8071L44.8765 72.753ZM43.8395 71.6527L43.8055 71.5405C43.7239 71.2826 43.6678 71.0632 43.6151 70.894C43.5913 70.7868 43.5539 70.6545 43.5063 70.5005L43.4298 70.7869C43.3346 71.1235 43.2632 71.378 43.2105 71.5405L43.1731 71.6527H43.8395Z" fill="#F2D42A"/>
<path d="M49.2523 72.7714C49.2523 72.8133 49.2285 72.8367 49.1809 72.8367H48.6862C48.6437 72.8367 48.6148 72.8133 48.6097 72.7664L48.4482 71.7632C48.4193 71.5991 48.3768 71.3043 48.319 70.8873C48.2187 71.229 48.1337 71.5254 48.0521 71.7632L47.7189 72.7748C47.7053 72.8166 47.6764 72.8351 47.6339 72.8351H47.2531C47.2106 72.8351 47.1817 72.8166 47.1681 72.7748L46.8451 71.7867C46.7363 71.4634 46.6445 71.1586 46.5697 70.8773C46.5408 71.0983 46.4983 71.3981 46.4405 71.7867L46.279 72.7664C46.2739 72.8083 46.245 72.8367 46.2025 72.8367H45.7078C45.6551 72.8367 45.6313 72.8083 45.6415 72.7564L46.1226 69.8138C46.1277 69.7719 46.1566 69.7435 46.1991 69.7435H46.7074C46.7499 69.7435 46.7788 69.7619 46.7924 69.8038L47.1681 70.9526C47.2922 71.3563 47.3823 71.6694 47.4435 71.8905C47.5251 71.5807 47.6203 71.2725 47.7189 70.9577L48.0997 69.8054C48.1133 69.7636 48.1371 69.7451 48.1813 69.7451H48.6913C48.7338 69.7451 48.7627 69.7686 48.7729 69.8155L49.254 72.758V72.7714H49.2523Z" fill="#F2D42A"/>
<path d="M51.4113 69.7451C52.178 69.7451 52.4823 70.0214 52.4823 70.7667C52.4823 71.5254 52.178 71.7984 51.4113 71.7984H50.9455V72.763C50.9455 72.8149 50.9217 72.8384 50.869 72.8384H50.3607C50.308 72.8384 50.2842 72.8149 50.2842 72.763V69.8205C50.2842 69.7686 50.308 69.7451 50.3607 69.7451H50.9455H51.4113ZM51.3297 71.2306C51.7003 71.2306 51.8057 71.1469 51.8057 70.7667C51.8057 70.3966 51.7003 70.3129 51.3297 70.3129H50.9438V71.2323H51.3297V71.2306Z" fill="#F2D42A"/>
<path d="M53.5892 72.8384C53.5365 72.8384 53.5127 72.8149 53.5127 72.763V69.8205C53.5127 69.7686 53.5365 69.7451 53.5892 69.7451H54.1077C54.1604 69.7451 54.1842 69.7686 54.1842 69.8205V72.763C54.1842 72.8149 54.1604 72.8384 54.1077 72.8384H53.5892Z" fill="#F2D42A"/>
<path d="M55.2925 71.2909C55.2925 70.1471 55.6784 69.6882 56.6151 69.6882C57.5569 69.6882 57.9377 70.1471 57.9377 71.2909C57.9377 72.4348 57.5569 72.8937 56.6151 72.8937C55.6784 72.8937 55.2925 72.4348 55.2925 71.2909ZM57.2475 71.2909C57.2475 70.4887 57.0945 70.2643 56.6151 70.2643C56.134 70.2643 55.9827 70.4887 55.9827 71.2909C55.9827 72.0931 56.1357 72.3175 56.6151 72.3175C57.0962 72.3175 57.2475 72.0931 57.2475 71.2909Z" fill="#F2D42A"/>
<path d="M61.5245 69.7451C61.5772 69.7451 61.601 69.7686 61.601 69.8205V72.763C61.601 72.8149 61.5772 72.8384 61.5245 72.8384H61.0111C60.9737 72.8384 60.9448 72.82 60.921 72.7865L60.2546 71.7414C60.1254 71.5405 59.9588 71.249 59.7497 70.8789L59.6647 70.7282C59.6885 71.1268 59.6987 71.4684 59.6987 71.7548V72.763C59.6987 72.8149 59.6749 72.8384 59.6222 72.8384H59.1224C59.0697 72.8384 59.0459 72.8149 59.0459 72.763V69.8205C59.0459 69.7686 59.0697 69.7451 59.1224 69.7451H59.646C59.6834 69.7451 59.7123 69.7635 59.7361 69.797L60.3923 70.8287C60.4535 70.9275 60.5249 71.0498 60.6116 71.1938C60.6932 71.3395 60.7595 71.4567 60.8105 71.5455L60.972 71.8268C60.9533 71.4902 60.9431 71.1569 60.9431 70.8237V69.8205C60.9431 69.7686 60.9669 69.7451 61.0196 69.7451H61.5245Z" fill="#F2D42A"/>
<path d="M64.5575 70.2358C64.5575 70.2878 64.5286 70.3062 64.4725 70.3012C64.2481 70.2677 64.0543 70.2442 63.8452 70.2442C63.3879 70.2442 63.2893 70.3196 63.2893 70.5725C63.2893 70.7835 63.3658 70.8773 63.8129 71.0079L64.0322 71.0732C64.6085 71.2474 64.8023 71.4902 64.8023 71.9776C64.8023 72.619 64.4742 72.892 63.6327 72.892C63.3471 72.892 63.053 72.8585 62.7521 72.7932C62.7096 72.7831 62.6858 72.7563 62.6858 72.7044V72.3058C62.6858 72.2455 62.7147 72.2221 62.7708 72.2355C63.1652 72.2958 63.3794 72.3243 63.6123 72.3243C64.0169 72.3243 64.1495 72.2355 64.1495 71.9726C64.1495 71.7615 64.0679 71.6862 63.5732 71.5421L63.4117 71.4953C62.8643 71.3261 62.645 71.0447 62.645 70.5624C62.645 69.9578 62.968 69.6865 63.767 69.6865C63.9999 69.6865 64.243 69.71 64.4895 69.7619C64.532 69.7719 64.5558 69.7987 64.5558 69.8423V70.2358H64.5575Z" fill="#F2D42A"/>
<path d="M68.1495 69.7451C68.2022 69.7451 68.226 69.7686 68.226 69.8205V72.763C68.226 72.8149 68.2022 72.8384 68.1495 72.8384H67.6412C67.5885 72.8384 67.5647 72.8149 67.5647 72.763V71.6242H66.4801V72.763C66.4801 72.8149 66.4563 72.8384 66.4036 72.8384H65.8953C65.8426 72.8384 65.8188 72.8149 65.8188 72.763V69.8205C65.8188 69.7686 65.8426 69.7451 65.8953 69.7451H66.4036C66.4563 69.7451 66.4801 69.7686 66.4801 69.8205V71.0431H67.5647V69.8205C67.5647 69.7686 67.5885 69.7451 67.6412 69.7451H68.1495Z" fill="#F2D42A"/>
<path d="M69.5199 72.8384C69.4672 72.8384 69.4434 72.8149 69.4434 72.763V69.8205C69.4434 69.7686 69.4672 69.7451 69.5199 69.7451H70.0384C70.0911 69.7451 70.1149 69.7686 70.1149 69.8205V72.763C70.1149 72.8149 70.0911 72.8384 70.0384 72.8384H69.5199Z" fill="#F2D42A"/>
<path d="M72.4589 69.7451C73.2256 69.7451 73.5299 70.0214 73.5299 70.7667C73.5299 71.5254 73.2256 71.7984 72.4589 71.7984H71.9931V72.763C71.9931 72.8149 71.9693 72.8384 71.9166 72.8384H71.4066C71.3539 72.8384 71.3301 72.8149 71.3301 72.763V69.8205C71.3301 69.7686 71.3539 69.7451 71.4066 69.7451H71.9914H72.4589ZM72.3773 71.2306C72.7479 71.2306 72.8533 71.1469 72.8533 70.7667C72.8533 70.3966 72.7479 70.3129 72.3773 70.3129H71.9914V71.2323H72.3773V71.2306Z" fill="#F2D42A"/>
<path d="M71.9627 41.8588C70.7574 32.5371 64.2379 27.5531 64.1614 27.4911L64.1138 25.1799C64.4504 25.4479 72.3826 31.8388 73.6763 41.8454L71.9627 41.8588Z" fill="#E32127"/>
<path d="M12.3199 42.0514H10.5366C11.6263 33.0748 16.558 26.6872 18.5606 25.1816V27.5296C18.4841 27.6151 13.3433 33.6174 12.3199 42.0514ZM18.5589 27.528L17.9146 26.982L18.5589 27.528Z" fill="#E32127"/>
<path d="M42.5765 79.3465C40.018 79.3465 37.6958 79.0819 35.7255 78.7235C29.5392 77.5981 23.732 74.0644 23.562 73.9706H28.7385C28.7776 73.9924 30.4198 75.3874 36.2423 76.4341C43.9858 77.8259 51.0799 76.61 56.1646 74.0828L60.8345 74.0124C55.488 78.0151 47.447 79.3465 42.5765 79.3465Z" fill="#E32127"/>
<path d="M10.8613 58.2697H22.4893C24.7486 58.196 25.4031 56.3354 25.4541 55.2217V52.1451C25.3436 51.5623 24.8353 50.9326 24.4783 50.5508C24.2998 50.3582 24.2828 50.0634 24.4511 49.8625C25.2552 48.9062 25.2246 47.6819 25.2246 47.6819V45.8062C24.5769 43.2187 21.0749 42.9926 21.0749 42.9926H10.9055C10.5706 42.9926 10.3003 43.2589 10.3003 43.5888V57.7154C10.3003 58.0219 10.5519 58.2697 10.8613 58.2697ZM14.4075 47.5915C14.4075 47.2632 14.6778 46.997 15.011 46.997H20.4272C20.7604 46.997 21.0307 47.2632 21.0307 47.5915V48.1726C21.0307 48.5009 20.7604 48.7672 20.4272 48.7672H15.011C14.6778 48.7672 14.4075 48.5009 14.4075 48.1726V47.5915ZM14.4075 53.0244C14.4075 52.7045 14.671 52.4433 14.9974 52.4433H20.8352C21.1599 52.4433 21.4251 52.7028 21.4251 53.0244V53.6323C21.4251 53.9522 21.1616 54.2135 20.8352 54.2135H14.9957C14.671 54.2135 14.4058 53.9539 14.4058 53.6323V53.0244H14.4075Z" fill="white"/>
<path d="M37.3849 43.4197C37.271 43.1618 37.0126 42.9943 36.7253 42.9943H32.8629C32.5467 42.9943 32.2594 43.1785 32.1319 43.4649L25.5767 58.2698H29.8709C30.6852 58.0956 30.8807 57.1159 30.8807 57.1159L34.7533 47.8813L36.5213 52.0012H34.4728L32.9292 55.7057H37.9527C37.9527 55.7057 38.5987 55.8715 38.7942 57.0606C38.9914 58.2497 39.9162 58.2698 39.9162 58.2698H43.9299L37.3849 43.4197Z" fill="white"/>
<path d="M60.1254 58.2697L55.3263 53.1081C55.3263 53.1081 58.1041 52.8033 58.4135 50.3431V46.2517C58.4951 46.1311 58.2724 42.8503 54.9047 42.9943H44.6299C44.3222 42.9943 44.0723 43.2405 44.0723 43.5436V58.2697H48.1982V50.3984L55.2991 58.2697H60.1254ZM54.7364 48.5377C54.7364 49.1222 54.2553 49.5978 53.6603 49.5978H48.6776C48.4277 49.5978 48.2254 49.3986 48.2254 49.1524V47.8327C48.2254 47.5865 48.4277 47.3872 48.6776 47.3872H53.6603C54.2536 47.3872 54.7364 47.8611 54.7364 48.4473V48.5377Z" fill="white"/>
<path d="M73.2378 42.9893H61.178C60.7989 42.9893 60.4912 43.2924 60.4912 43.6659V57.6233C60.4912 57.98 60.7853 58.2697 61.1474 58.2697H71.157C71.157 58.2697 73.4027 58.665 73.7393 57.8912C73.9909 57.3134 73.8668 55.5315 73.7869 54.6673C73.7614 54.3943 73.5302 54.1867 73.2531 54.1867H64.7004V47.6066C64.7004 47.2549 64.9894 46.9701 65.3464 46.9701H73.4061C73.673 46.9701 73.8872 46.7575 73.8872 46.4962V43.6307C73.8872 43.2756 73.5965 42.9893 73.2378 42.9893Z" fill="white"/>
<path d="M66.385 48.8224C65.8733 48.8224 65.4585 49.2311 65.4585 49.7352V51.8923C65.4585 52.259 65.7594 52.5555 66.1317 52.5555H71.366C71.6057 52.5555 71.8012 52.3629 71.8012 52.1267V49.7352C71.8012 49.2311 71.3864 48.8224 70.8747 48.8224H66.385Z" fill="white"/>
<path d="M15.5193 63.2857L19.1097 59.6313H16.5682C15.1657 60.0484 14.5316 61.3262 14.5316 61.3262L12.6531 63.1517V60.2058C12.6531 59.8893 12.393 59.633 12.0717 59.633H10.7899C10.5196 59.633 10.302 59.8491 10.302 60.1137V67.4458C10.302 67.7372 10.5383 67.975 10.8324 67.9817L12.1941 68.0152C12.461 68.0219 12.6803 67.8108 12.6803 67.5479V64.2721L14.1627 65.915C15.0093 67.2448 16.4118 67.8443 16.4118 67.8443C17.4437 68.4707 19.6401 67.8963 19.6401 67.8963L15.538 64.0929C15.3051 63.8752 15.2966 63.5134 15.5193 63.2857Z" fill="white"/>
<path d="M29.2689 59.633H28.2098C27.8732 59.633 27.6012 59.901 27.6012 60.2326V65.2368L24.5327 60.5441C24.0295 59.6062 23.1047 59.6314 23.1047 59.6314H20.9474C20.6771 59.6314 20.4578 59.8474 20.4578 60.1137V67.5462C20.4578 67.8711 20.7264 68.1358 21.0562 68.1358H22.1085C22.4383 68.1358 22.7069 67.8711 22.7069 67.5462V62.9691C24.2148 64.1951 24.5327 65.158 24.5327 65.158C25.5918 67.9465 27.6556 68.1358 27.6556 68.1358C29.4015 68.3233 29.9047 67.8444 29.9047 67.8444V60.2577C29.9047 59.9127 29.6208 59.633 29.2689 59.633Z" fill="white"/>
<path d="M38.663 59.633H37.9626C37.3846 59.633 36.9171 60.0936 36.9171 60.663V64.4563C36.9171 65.0324 36.4428 65.4997 35.858 65.4997H33.5698C33.1975 65.4997 32.8949 65.2016 32.8949 64.8348V60.1036C32.8949 59.844 32.6824 59.6347 32.4189 59.6347H31.2816C31.0334 59.6347 30.8311 59.8323 30.8311 60.0785V66.3086C30.8311 67.2448 31.6012 68.0034 32.5515 68.0034H37.3149C38.3519 68.0034 39.1934 67.1744 39.1934 66.1528V60.1572C39.1917 59.8658 38.9554 59.633 38.663 59.633Z" fill="white"/>
<path d="M47.3945 59.633H42.0497C40.9396 59.633 40.0386 60.5206 40.0386 61.6142V66.2148C40.0386 67.2012 40.8495 68.0001 41.8508 68.0001H47.6461C47.8586 68.0001 48.0303 67.8309 48.0303 67.6216V66.2784C48.0303 65.9904 47.794 65.7576 47.5016 65.7576H42.5138C42.2724 65.7576 42.0769 65.565 42.0769 65.3272V62.4349C42.0769 62.2255 42.2486 62.0564 42.4611 62.0564H47.2636C47.7311 62.0564 48.1102 61.6829 48.1102 61.2223V60.3364C48.1085 59.9478 47.7889 59.633 47.3945 59.633Z" fill="white"/>
<path d="M54.0736 63.3526L57.4277 59.8055C57.4277 59.8055 55.4319 59.3516 54.5309 59.8055C53.6299 60.2593 52.9975 61.1034 52.632 61.7515C52.2665 62.3997 51.1717 63.0227 51.1717 63.0227V60.2828C51.1717 59.9227 50.8759 59.6313 50.5104 59.6313H49.6366C49.1402 59.6313 48.7373 60.0282 48.7373 60.5172V67.2766C48.7373 67.6751 49.0654 67.9984 49.47 67.9984H50.6209C50.966 67.9984 51.2448 67.7237 51.2448 67.3837V64.2218C51.2448 64.2218 52.632 65.3724 53.7047 67.0521C54.7757 68.7319 58.2573 68 58.2573 68L54.0923 64.0192C53.9019 63.8383 53.8951 63.5419 54.0736 63.3526Z" fill="white"/>
<path d="M65.2597 65.8045H61.2511V60.1288C61.2511 59.8541 61.025 59.6313 60.7462 59.6313H59.4457C59.1516 59.6313 58.9136 59.8658 58.9136 60.1555V67.3352C58.9136 67.702 59.2145 67.9984 59.5868 67.9984H65.139C65.479 67.9984 65.7561 67.7271 65.7561 67.3905V66.2902C65.7561 66.0239 65.5334 65.8045 65.2597 65.8045Z" fill="white"/>
<path d="M72.947 65.853H69.6745C69.0421 65.853 68.5304 65.3489 68.5304 64.7259V62.3528C68.5304 62.1133 68.7276 61.919 68.9707 61.919H73.0592C73.4111 61.919 73.6984 61.6377 73.6984 61.2893V60.0182C73.6984 59.7887 73.5097 59.6028 73.2768 59.6028H66.9256C66.5482 59.6028 66.2422 59.9043 66.2422 60.2761V67.4491C66.2422 67.7522 66.4921 67.9984 66.7998 67.9984H73.2054C73.5828 67.9984 73.8871 67.6969 73.8871 67.3268V66.7792C73.8871 66.2684 73.4655 65.853 72.947 65.853Z" fill="white"/>
<path d="M72.0749 64.8449H69.6626C69.3872 64.8449 69.1646 64.6255 69.1646 64.3542V63.3443C69.1646 63.073 69.3872 62.8536 69.6626 62.8536H72.0749C72.3503 62.8536 72.573 63.073 72.573 63.3443V64.3542C72.573 64.6255 72.3503 64.8449 72.0749 64.8449Z" fill="white"/>
</svg>
