<svg width="141" height="93" viewBox="0 0 141 93" fill="none" xmlns="http://www.w3.org/2000/svg">
<path d="M140.404 42.8222C140.432 41.5151 139.946 39.9007 138.381 38.2752L138.359 38.1021L137.465 37.4261C137.309 37.2977 137.147 37.1692 136.979 37.0463C136.84 36.9402 136.706 36.8508 136.572 36.7558L125.684 28.5109V28.3824L125.545 28.4048L120.886 24.8744V20.0369L113.987 14.0432L118.183 11.7529L113.25 9.39564C110.29 7.98238 107.033 7.12215 102.681 6.60824C101.492 6.46859 100.078 6.36804 98.4807 6.31218C94.928 3.06672 90.085 0.81556 89.8448 0.70384L88.3198 0L86.9847 1.01665C85.6106 2.06123 84.7112 3.3907 84.1415 4.73693C79.399 3.20636 75.4664 2.86004 75.2206 2.83769L73.0868 2.65894L72.3606 4.67547C72.2321 5.03856 71.087 8.26169 70.8356 10.1833C70.7686 10.7195 70.7239 11.2279 70.696 11.725C70.0257 12.0322 69.2548 12.3841 68.4002 12.7807C67.8807 12.535 67.3053 12.4065 66.7076 12.4065L66.3724 12.4288L60.5742 2.39639L57.6695 14.5403L49.8826 6.32894V20.333C49.1117 20.8469 48.6593 21.1709 48.5866 21.2268L47.7599 21.8301L47.5197 22.8244C47.4806 22.9975 47.4415 23.1819 47.4136 23.3774C42.3359 26.1704 37.18 29.2203 32.6107 32.3205L25.4886 37.1468L32.404 39.4203C27.5498 42.5764 21.165 47.0731 16.0371 52.0894H2.53573L0.452148 60.4516L8.13848 68.0653L3.61941 85.8567H21.7124L22.8967 81.4382L27.3599 85.8567H52.2175L57.2114 80.6561L55.8149 85.8567H76.5334L81.84 82.4716L85.2978 85.8567H95.023L100.335 82.4492L103.815 85.8567H121.825L128.572 60.5521L122.121 54.1618C122.679 54.1897 123.271 54.2009 123.919 54.2009C127.299 54.2009 130.701 53.8378 130.84 53.8266L131.907 53.7093L137.488 47.4865L139.694 45.1851L139.862 44.8946C140.035 44.5874 140.191 44.2075 140.292 43.7662L140.404 42.8222Z" fill="white"/>
<path d="M23.7798 53.1064L43.638 39.4542L35.9684 35.0637L52.1343 25.5507L58.8375 29.2486L63.4124 21.7522L67.7751 17.1438L75.4614 15.2055L76.1931 7.2175L89.8676 12.0438H106.76V15.2055L115.82 22.3444L117.87 28.2599L125.825 32.8516L133.114 38.7001L134.304 44.8559L128.26 49.5816L119.898 49.0342L117.87 50.9781L96.353 49.3694L91.3759 56.5194L23.7798 54.8772V53.1064Z" fill="#7C6A63"/>
<path d="M52.676 31.0861C52.676 31.0861 53.3687 52.3855 74.7853 54.8434C74.7853 54.8434 67.032 50.1791 63.7307 36.795L63.4123 21.752L59.1502 22.3441L60.9097 27.7345L58.8318 28.2541L52.6704 27.0028V31.0861H52.676Z" fill="#CEAE91"/>
<path d="M80.9351 20.7022C80.9351 20.7022 79.0861 24.59 79.0414 25.7966C79.0414 25.7966 80.22 25.8357 84.7112 28.2544C84.7112 28.2544 77.8069 33.7399 76.8405 37.9852L78.399 31.081L73.2878 29.2432C73.2878 29.2487 76.2093 22.4283 80.9351 20.7022Z" fill="#CEAE91"/>
<path d="M77.5781 9.28966C77.5781 9.28966 86.5939 13.5071 86.5939 16.7749C86.5939 16.7749 89.0126 15.4398 90.5264 14.7975C90.532 14.7975 83.6389 8.30094 77.5781 9.28966Z" fill="#CEAE91"/>
<path d="M107.525 41.2031C107.525 41.2031 111.631 40.5439 117.871 45.3702C121.887 48.476 128.936 47.4706 128.936 47.4706C128.936 47.4706 119.289 50.4758 114.904 46.4092C110.519 42.3426 107.525 41.2031 107.525 41.2031Z" fill="#CEAE91"/>
<path d="M108.731 20.4118C108.731 20.4118 110.96 20.7526 114.429 22.9814L116.892 27.2435L123.863 31.7234L128.612 36.8011L132.427 40.0633L132.65 41.8285L129.36 40.9682C129.36 40.9682 117.093 36.1755 114.283 30.6789L109.284 29.841L108.731 20.4118Z" fill="#CEAE91"/>
<path d="M103.888 44.141L105.24 48.9226L119.898 49.0344L110.681 42.7725H105.927L103.888 44.141Z" fill="white"/>
<path d="M105.258 24.545C105.258 24.545 105.911 31.1923 111.888 29.7232C111.888 29.7232 110.207 29.6562 109.665 28.3658C109.123 27.0754 109.279 25.1036 109.279 25.1036L105.258 24.545Z" fill="white"/>
<path d="M118.099 26.2602V21.3054L109.128 13.5129L112.055 11.9153C109.547 10.7199 106.681 9.89321 102.357 9.3793C96.4419 8.67547 86.5938 9.29552 86.5938 9.29552L89.6046 13.0605C89.6046 13.0605 96.5927 12.5019 100.782 12.9152C101.587 12.9934 103.229 13.3286 103.229 13.3286L114.423 22.9812V28.0924L132.645 41.8283V43.2025L128.93 47.3417C128.93 47.3417 122.802 48.1014 119.814 47.202C118.512 46.811 117.065 46.1742 115.915 45.448C112.87 43.5265 110.379 40.4988 106.396 41.3367C103.681 41.9065 101.938 43.8449 100.369 45.9899C103.307 44.3923 107.234 42.3757 110.262 44.923C111.68 46.1184 112.77 47.5763 114.323 48.6376C115.943 49.7493 118.188 50.7715 119.702 51.0843C123.26 51.8217 130.539 51.0396 130.539 51.0396L136.315 44.6046L135.723 39.6107L118.099 26.2602Z" fill="#000A19"/>
<path d="M118.775 47.9113L117.719 48.967C117.362 48.8944 115.261 48.5089 114.574 48.3916C107.625 47.2465 100.436 46.9616 93.4313 47.7604C91.6438 47.9615 89.8284 48.1905 88.0688 48.5816L88.7894 44.8557L82.3655 52.8213C82.3655 52.8213 100.721 50.5367 108.782 51.1567C113.524 51.5198 118.881 52.9945 118.881 52.9945L121.367 50.5087L118.775 47.9113Z" fill="#000A19"/>
<path d="M95.5865 57.2348L88.28 56.0896C90.0675 51.146 94.9329 48.2413 95.1173 48.1017L98.0555 51.1014L96.6814 49.325L98.0555 51.1014C98.0164 51.1293 96.5585 53.5089 95.5865 57.2348Z" fill="#000A19"/>
<path d="M26.9747 56.7144L16.2664 55.8374C23.2991 48.2796 34.2868 41.4703 38.9008 38.6214L31.7563 36.2697L34.1751 34.633C50.5811 23.5113 74.4891 13.0823 74.7293 12.9817L76.1929 16.3501C75.975 16.445 55.9269 25.1927 40.1688 35.1078L48.1289 37.8114C48.1289 37.8114 34.9347 46.0117 26.9747 56.7144Z" fill="#000A19"/>
<path d="M67.2999 20.1941C67.2999 20.1941 67.272 20.3114 67.2217 20.5348C67.1658 20.7694 67.0932 21.1325 66.9983 21.6018C66.9033 22.071 66.8083 22.6463 66.7078 23.3111C66.6017 23.9758 66.5179 24.7299 66.4397 25.5566C66.3503 26.3834 66.3224 27.2771 66.2944 28.2267C66.2888 29.1708 66.2888 30.1707 66.3894 31.1929C66.4117 31.7068 66.4899 32.2207 66.5402 32.7458C66.624 33.2653 66.691 33.796 66.8083 34.321C67.0206 35.3712 67.2887 36.427 67.6406 37.4604C67.8138 37.9743 68.0261 38.477 68.2328 38.9854C68.4785 39.4657 68.6629 39.9852 68.9366 40.4489C69.1991 40.9181 69.4338 41.4041 69.7298 41.8454C69.8695 42.0688 70.0091 42.2978 70.1488 42.5213C70.294 42.7447 70.4504 42.9514 70.6012 43.1637C70.752 43.3759 70.9029 43.5882 71.0537 43.8005C71.2213 44.0016 71.3833 44.1971 71.5453 44.387C71.7073 44.5825 71.8692 44.778 72.0256 44.9679C72.1876 45.1579 72.3608 45.331 72.5284 45.5098C73.1764 46.2471 73.8914 46.8448 74.517 47.4537C74.8522 47.733 75.1761 47.9956 75.4834 48.2525C75.6398 48.381 75.7906 48.5039 75.9358 48.6268C76.0867 48.7385 76.2375 48.8502 76.3827 48.9564C76.6732 49.1686 76.9469 49.3697 77.1983 49.5541C77.4441 49.7496 77.6843 49.9116 77.9021 50.0512C78.7735 50.6266 79.2763 50.9785 79.2763 50.9785C79.2763 50.9785 78.6897 50.8444 77.6619 50.5539C77.1368 50.431 76.5447 50.1853 75.8409 49.9283C75.6677 49.8613 75.4834 49.7943 75.299 49.7272C75.1147 49.649 74.9304 49.5596 74.7404 49.4703C74.3606 49.2915 73.9584 49.1016 73.5394 48.9005C72.7295 48.4536 71.8413 47.9565 70.9643 47.3141C70.7409 47.1577 70.5119 47.0068 70.2884 46.8393C70.0761 46.6605 69.8583 46.4818 69.6404 46.2974C69.4226 46.1131 69.1991 45.9287 68.9757 45.7388C68.7634 45.5321 68.5512 45.3255 68.3389 45.1188C68.1266 44.9065 67.9032 44.6998 67.6965 44.482C67.4954 44.2529 67.2943 44.0183 67.0876 43.7893C66.6687 43.3313 66.3 42.8173 65.9258 42.3034C65.7302 42.0521 65.5571 41.7839 65.3895 41.5102C65.2163 41.2365 65.0488 40.9628 64.8756 40.6947C64.5684 40.1305 64.2499 39.5607 63.9762 38.9742C63.7137 38.3821 63.4288 37.7955 63.2165 37.1867C63.1048 36.885 62.9819 36.5834 62.8814 36.2817C62.7864 35.9745 62.697 35.6673 62.6021 35.3656C62.4122 34.7568 62.2837 34.1367 62.1329 33.5334C62.0211 32.9245 61.8815 32.3213 61.8033 31.7236C61.619 30.5282 61.5575 29.3663 61.5072 28.2658C61.4905 27.1654 61.5128 26.1264 61.5854 25.1712C61.6469 24.216 61.7698 23.3446 61.8871 22.5737C62.0044 21.8028 62.1552 21.1381 62.2725 20.5851C62.401 20.0321 62.5239 19.602 62.6133 19.3003C62.6635 19.1383 62.7026 19.0154 62.7306 18.9316C62.7585 18.8534 62.7697 18.8143 62.7697 18.8143L67.2999 20.1941Z" fill="#000A19"/>
<path d="M54.6697 24.4335C54.6697 24.4335 54.6641 24.5676 54.6585 24.8133C54.6473 25.0759 54.6417 25.4837 54.6417 25.9976C54.6417 26.5171 54.6585 27.1539 54.6864 27.8856C54.7144 28.6174 54.7814 29.4441 54.8708 30.3435C54.9434 31.2428 55.1054 32.2092 55.273 33.2258C55.4629 34.2369 55.6752 35.3038 55.9936 36.3763C56.122 36.9238 56.3175 37.4544 56.4795 38.0075C56.6806 38.5437 56.8594 39.0967 57.094 39.633C57.5409 40.7111 58.0492 41.7836 58.6413 42.817C58.9374 43.3309 59.267 43.8225 59.5909 44.3196C59.954 44.7833 60.2612 45.2972 60.6467 45.7385C61.0265 46.1853 61.3785 46.6602 61.7862 47.0679C61.9817 47.2802 62.1828 47.4925 62.3783 47.7047C62.5794 47.9114 62.7917 48.1013 62.9984 48.2969C63.2051 48.4924 63.4117 48.6879 63.6128 48.8778C63.8307 49.0565 64.0486 49.2297 64.2608 49.4029C64.4731 49.576 64.6909 49.7492 64.8976 49.9224C65.1099 50.0899 65.3333 50.2408 65.5456 50.3972C66.3891 51.0507 67.2772 51.5423 68.076 52.0618C68.495 52.2908 68.8972 52.5031 69.277 52.7098C69.467 52.8159 69.6569 52.9165 69.8356 53.017C70.0256 53.1064 70.2043 53.1902 70.3831 53.274C70.7406 53.4415 71.0701 53.598 71.3774 53.7432C71.6846 53.8996 71.9695 54.0225 72.2376 54.1286C73.2878 54.5587 73.8967 54.8325 73.8967 54.8325C73.8967 54.8325 73.2431 54.8101 72.0868 54.7152C71.5003 54.6928 70.8132 54.5532 70.0088 54.4303C69.8077 54.3967 69.601 54.3632 69.3832 54.3297C69.1709 54.285 68.9586 54.2292 68.7352 54.1733C68.2883 54.0616 67.8191 53.9387 67.3275 53.8158C66.3667 53.5086 65.311 53.1567 64.2441 52.6595C63.9759 52.5422 63.6966 52.4249 63.4229 52.2908C63.1548 52.1456 62.8867 51.9948 62.6129 51.8495C62.3392 51.6987 62.0655 51.5423 61.7862 51.3915C61.5181 51.2183 61.25 51.0396 60.9763 50.8608C60.7081 50.6821 60.4232 50.5089 60.1551 50.3134C59.8926 50.1067 59.63 49.9056 59.3619 49.6989C58.8201 49.2967 58.3173 48.8275 57.809 48.3527C57.5465 48.1237 57.3063 47.8723 57.0717 47.6154L56.3511 46.8445C55.9042 46.3027 55.4461 45.7608 55.0328 45.191C54.625 44.6157 54.206 44.0459 53.8485 43.4426C53.6642 43.141 53.4687 42.8505 53.3011 42.5433C53.1391 42.236 52.9715 41.9288 52.8095 41.6216C52.48 41.0071 52.2118 40.3759 51.927 39.7614C51.6756 39.1302 51.4019 38.5158 51.1952 37.8902C50.7483 36.6501 50.4411 35.4211 50.1562 34.2537C49.9048 33.0806 49.7149 31.9634 49.592 30.93C49.4579 29.8966 49.4077 28.9414 49.3686 28.0923C49.335 27.2544 54.6697 24.4335 54.6697 24.4335Z" fill="#000A19"/>
<path d="M106.156 50.1737C102.464 47.4869 102.877 44.0682 103.609 42.6326L105.424 43.5655L104.519 43.1019L105.43 43.5599C105.301 43.828 104.24 46.2579 107.357 48.5258L106.156 50.1737Z" fill="#000A19"/>
<path d="M104.43 43.8781L110.62 46.7269L105.095 47.3916L104.43 43.8781Z" fill="#000A19"/>
<path d="M86.0681 9.69737C86.0681 9.69737 85.6379 5.54697 88.6767 3.23438C88.6767 3.23438 95.1788 6.22847 98.1729 10.0325L87.9058 11.1888L86.0681 9.69737Z" fill="#000A19"/>
<path d="M82.6731 19.3278C84.2818 18.1436 86.2257 16.9314 88.5551 15.7472C87.6893 15.2668 82.3379 12.323 79.908 12.0437C79.908 12.0437 79.517 16.4678 82.6731 19.3278Z" fill="#000A19"/>
<path d="M90.3649 10.6081C83.5388 6.3348 74.9866 5.61978 74.9866 5.61978C74.9866 5.61978 73.8191 8.86524 73.6069 10.541C72.7243 17.3448 75.8692 20.3947 75.8915 20.4338C75.5508 20.769 73.5678 23.2101 73.0092 24.1485C70.0039 29.1815 70.0039 33.1587 70.0039 33.1587L75.8078 31.5556C75.8078 31.5556 74.8637 35.7115 76.8356 37.9962C77.9248 33.2146 81.5446 29.2876 81.5446 29.2876C81.5446 29.2876 79.8855 27.7068 75.2212 27.9191C75.2212 27.9191 76.2882 24.6457 80.9357 20.7075L79.7682 19.3669C75.9865 15.2612 77.5673 9.34564 77.5785 9.28978C85.7285 11.4348 90.5324 14.7976 90.5324 14.7976L92.2194 11.5353L90.3649 10.6081Z" fill="#000A19"/>
<path d="M89.4714 11.1946L91.1025 10.1388H103.23V13.3284C98.5543 13.0268 94.3089 13.1553 90.5551 13.5295L89.4714 11.1946Z" fill="#000A19"/>
<path d="M134.187 40.968H129.361C129.361 40.968 129.238 42.9287 128.613 44.638C128.613 44.638 130.73 44.543 132.087 43.8224L134.947 46.0959L137.444 43.4873C137.444 43.4873 138.494 41.6662 135.31 39.2754C131.372 36.3204 132.372 39.3201 132.372 39.3201L134.187 40.968Z" fill="#000A19"/>
<path d="M111.536 23.4672C111.536 23.4672 112.083 26.9584 109.765 29.2487L109.284 25.1039L111.463 22.35L111.536 23.4672Z" fill="#CEAE91"/>
<path d="M50.5151 32.2817C50.5151 32.2817 49.6772 25.8131 50.2414 23.4782C50.2414 23.4782 57.2239 18.367 66.6586 15.2053C66.6586 15.2053 68.1613 15.0769 67.7814 17.1437C67.2731 19.8976 64.927 20.4059 64.927 20.4059L52.1406 25.545L50.5151 32.2817Z" fill="#000A19"/>
<path d="M62.1156 43.4927L55.1443 40.5656L58.0714 33.5943L65.0427 36.5214L62.1156 43.4927Z" fill="#000A19"/>
<path d="M59.6471 30.7458L52.6758 27.8187V13.3342L62.5742 23.7744L59.6471 30.7458Z" fill="#000A19"/>
<path d="M63.4121 21.7522L59.502 18.8922L61.6581 9.86523L66.2722 17.8476L63.4121 21.7522Z" fill="#000A19"/>
<path d="M122.897 31.7235C122.897 31.7235 124.4 33.4216 122.255 36.7956L120.802 35.0639L122.897 31.7235Z" fill="#CEAE91"/>
<path d="M125.361 34.1307C125.361 34.1307 126.433 36.3484 125.204 38.1359L123.411 36.5271L125.361 34.1307Z" fill="#CEAE91"/>
<path d="M56.4127 26.294L58.1165 27.009L58.8371 25.3053L54.2007 17.0771L56.4127 26.294Z" fill="white"/>
<path d="M116.893 37.2755C116.893 37.2755 120.379 37.5772 122.434 35.0635H120.692C120.692 35.0635 118.273 37.2085 116.893 37.2755Z" fill="#CEAE91"/>
<path d="M119.049 41.6721C119.049 41.6721 123.473 40.3426 125.054 37.287H123.411C123.411 37.287 119.568 41.3592 119.049 41.6721Z" fill="#CEAE91"/>
<path d="M122.897 31.5945C122.897 31.5945 122.897 31.6392 122.897 31.723C122.902 31.8403 122.891 31.952 122.874 32.1028C122.852 32.248 122.835 32.4212 122.785 32.6055C122.746 32.7955 122.679 33.0022 122.606 33.22C122.517 33.4323 122.433 33.6669 122.304 33.8903C122.187 34.1194 122.036 34.3428 121.874 34.5662C121.718 34.7897 121.522 34.9908 121.332 35.1975C121.12 35.3818 120.93 35.5885 120.701 35.7393C120.478 35.9013 120.266 36.0633 120.025 36.1862C119.796 36.3146 119.578 36.4487 119.349 36.5325C119.12 36.6275 118.914 36.728 118.701 36.8006C118.489 36.8677 118.294 36.9291 118.109 36.985C117.752 37.1023 117.433 37.147 117.221 37.1972C117.009 37.2419 116.886 37.2699 116.886 37.2699C116.886 37.2699 116.992 37.2084 117.182 37.0967C117.366 36.9794 117.646 36.8509 117.947 36.6331C118.098 36.5269 118.26 36.4152 118.428 36.2923C118.595 36.1694 118.752 36.0186 118.925 35.8734C119.098 35.7337 119.249 35.5605 119.405 35.393C119.567 35.2366 119.696 35.041 119.83 34.8623C119.975 34.6891 120.059 34.4824 120.176 34.3037C120.26 34.1082 120.355 33.9294 120.411 33.7395C120.472 33.5552 120.522 33.382 120.545 33.2088C120.584 33.0468 120.578 32.8793 120.595 32.7396C120.595 32.5944 120.595 32.4715 120.578 32.3598C120.573 32.248 120.545 32.1587 120.534 32.0861C120.517 32.019 120.5 31.9632 120.489 31.9688C120.483 31.9743 120.467 31.9129 120.472 31.9185L122.897 31.5945Z" fill="#000A19"/>
<path d="M125.825 34.1418C125.825 34.1418 125.813 34.1753 125.791 34.2479C125.758 34.3373 125.713 34.4658 125.651 34.6278C125.618 34.706 125.584 34.8121 125.545 34.8959C125.506 34.9797 125.462 35.069 125.411 35.164C125.311 35.3483 125.216 35.5774 125.076 35.7785C124.942 35.9907 124.797 36.2142 124.64 36.4544C124.484 36.6946 124.294 36.9124 124.11 37.1526C123.914 37.3872 123.747 37.6498 123.518 37.8676C123.305 38.0911 123.082 38.3201 122.864 38.5491L122.54 38.8899C122.428 39.0016 122.305 39.0965 122.194 39.2027C121.965 39.4038 121.736 39.6049 121.518 39.7948C121.294 39.9847 121.093 40.1746 120.881 40.3366C120.669 40.493 120.468 40.6439 120.278 40.7779C119.54 41.3198 119.043 41.6773 119.043 41.6773C119.043 41.6773 119.429 41.208 120.01 40.5042C120.155 40.331 120.311 40.1411 120.473 39.94C120.635 39.7389 120.78 39.5043 120.942 39.2753C121.099 39.0463 121.266 38.8061 121.434 38.5603C121.512 38.4374 121.602 38.3201 121.68 38.1916L121.898 37.8062C122.043 37.5492 122.183 37.2923 122.328 37.0409C122.479 36.7951 122.568 36.527 122.685 36.2812C122.791 36.0298 122.909 35.8008 122.987 35.5718C123.06 35.3427 123.132 35.1305 123.199 34.935C123.277 34.7395 123.289 34.5607 123.333 34.4043C123.35 34.3261 123.367 34.2535 123.384 34.1865C123.395 34.1194 123.395 34.0803 123.4 34.0356C123.411 33.9407 123.417 33.8681 123.423 33.8178C123.428 33.7452 123.428 33.7061 123.428 33.7061L125.825 34.1418Z" fill="#000A19"/>
<path d="M109.229 35.0634C109.229 35.0634 109.358 32.0693 111.894 29.9354L109.497 30.2259C109.497 30.2259 107.738 33.1921 109.229 35.0634Z" fill="#CEAE91"/>
<path d="M101.642 25.2323C101.642 25.2323 101.866 25.0312 102.312 24.7686C102.754 24.5061 103.418 24.1821 104.284 23.9475C104.714 23.8302 105.2 23.7352 105.725 23.6961C106.251 23.6514 106.826 23.6626 107.424 23.752C107.725 23.7855 108.032 23.8805 108.34 23.9587C108.647 24.0648 108.96 24.1765 109.261 24.3273L109.708 24.5787L109.932 24.7072C110.004 24.7575 110.071 24.8133 110.138 24.8692L110.546 25.2043L110.647 25.2881L110.675 25.3105L110.68 25.3161L110.708 25.344L110.719 25.3552L110.753 25.3887L110.898 25.5339L111.183 25.83L111.49 26.1707C111.702 26.3997 111.876 26.6343 112.054 26.8634C112.406 27.3214 112.708 27.7907 112.982 28.2487C113.523 29.1592 113.92 30.0195 114.278 30.701C114.367 30.8741 114.456 31.0417 114.54 31.1925C114.624 31.3545 114.713 31.4886 114.797 31.6226C114.875 31.7623 114.965 31.8796 115.048 31.9913C115.127 32.1086 115.21 32.2092 115.289 32.2985C115.439 32.4885 115.574 32.6281 115.669 32.7231C115.763 32.8236 115.819 32.8795 115.819 32.8795C115.819 32.8795 115.747 32.8851 115.607 32.8739C115.467 32.8683 115.255 32.8627 114.998 32.7957C114.864 32.7734 114.719 32.7287 114.568 32.6728C114.412 32.617 114.25 32.5499 114.082 32.4661C113.741 32.3041 113.384 32.0695 113.026 31.7902C112.669 31.5109 112.317 31.1869 111.971 30.8406C111.624 30.4943 111.283 30.1312 110.948 29.7569C110.619 29.3938 110.278 29.0196 109.932 28.6397C109.764 28.461 109.597 28.2822 109.423 28.1035L109.172 27.8409L108.882 27.5505L108.736 27.3996L108.703 27.3605L108.692 27.3494C108.703 27.3605 108.664 27.3214 108.708 27.3661L108.703 27.3605L108.686 27.3494L108.63 27.3047L108.407 27.1147C108.267 26.9751 108.088 26.8857 107.932 26.7628C107.759 26.6623 107.574 26.5673 107.396 26.4612C107.2 26.3886 107.016 26.288 106.815 26.2154C106.413 26.0702 105.999 25.9361 105.586 25.8467C105.379 25.7965 105.178 25.7462 104.971 25.7127C104.77 25.668 104.569 25.6345 104.379 25.6065C103.994 25.5395 103.625 25.4892 103.296 25.4501C102.96 25.411 102.664 25.3719 102.424 25.344C101.933 25.2658 101.642 25.2323 101.642 25.2323Z" fill="#000A19"/>
<path d="M110.938 31.0862C108.832 31.0862 107.257 30.5108 106.252 29.3657C104.537 27.4218 105.235 24.6623 105.263 24.545L107.24 25.0589C107.235 25.0757 106.793 26.9023 107.788 28.0251C108.592 28.9244 110.234 29.2372 112.541 28.93L112.81 30.9521C112.139 31.0415 111.519 31.0862 110.938 31.0862Z" fill="#000A19"/>
<path d="M108.731 20.4118C108.731 20.4118 108.776 20.4565 108.843 20.5459C108.91 20.6408 109.022 20.7749 109.134 20.9536C109.245 21.138 109.396 21.3558 109.53 21.6184C109.67 21.8809 109.821 22.1882 109.955 22.5289C110.022 22.7021 110.094 22.8808 110.161 23.0651C110.217 23.2551 110.279 23.4562 110.335 23.6573C110.463 24.065 110.525 24.5175 110.603 24.9811C110.653 25.2102 110.647 25.456 110.659 25.7017C110.67 25.9587 110.687 26.1765 110.675 26.4726C110.653 26.7128 110.659 26.9139 110.614 27.1932L110.552 27.5898L110.485 27.9585C110.385 28.4445 110.268 28.9081 110.133 29.355C110.011 29.7963 109.865 30.2264 109.742 30.6286C109.62 31.0308 109.497 31.4162 109.407 31.7737C109.307 32.1368 109.234 32.4776 109.184 32.796C109.145 32.9579 109.15 33.1088 109.128 33.254C109.106 33.4048 109.106 33.5445 109.106 33.6785C109.089 33.9522 109.117 34.1869 109.128 34.3935C109.15 34.5946 109.184 34.7566 109.201 34.8684C109.217 34.9857 109.223 35.0471 109.223 35.0471C109.223 35.0471 109.178 35.008 109.095 34.9242C109.022 34.8404 108.877 34.7231 108.748 34.5444C108.631 34.3656 108.452 34.1422 108.335 33.8517C108.19 33.5668 108.083 33.2205 108 32.8406C107.921 32.4552 107.877 32.0307 107.877 31.595C107.871 31.1537 107.91 30.7012 107.972 30.2432C108.033 29.7851 108.111 29.3326 108.206 28.8802C108.29 28.4333 108.402 27.9864 108.48 27.5507L108.547 27.2323L108.597 26.9362C108.636 26.7575 108.664 26.4949 108.698 26.2771C108.715 26.076 108.731 25.8749 108.748 25.6794C108.759 25.4727 108.798 25.2716 108.793 25.0649C108.793 24.6571 108.832 24.255 108.81 23.8695C108.81 23.4841 108.81 23.1154 108.793 22.7691C108.776 22.0764 108.748 21.4899 108.737 21.0654C108.737 20.652 108.731 20.4118 108.731 20.4118Z" fill="#000A19"/>
<path d="M136.599 41.504C136.599 41.504 136.543 41.571 136.443 41.6772C136.381 41.7386 136.359 41.7833 136.225 41.9062C136.108 42.0123 135.974 42.1352 135.828 42.2358C135.689 42.314 135.538 42.4089 135.376 42.4816C135.214 42.543 135.041 42.6212 134.868 42.6659C134.689 42.705 134.51 42.7664 134.326 42.7832C134.141 42.8111 133.963 42.8335 133.778 42.8391C133.594 42.8558 133.415 42.8558 133.242 42.8502C133.069 42.8558 132.896 42.8335 132.734 42.8279C132.404 42.8 132.108 42.7609 131.851 42.7106C131.343 42.6212 131.013 42.5262 131.013 42.5262C131.013 42.5262 131.354 42.5207 131.857 42.4592C132.359 42.3978 133.019 42.2693 133.616 42.0459C133.767 41.9956 133.912 41.9285 134.046 41.8615C134.186 41.8057 134.303 41.7163 134.426 41.6492C134.544 41.5766 134.633 41.4872 134.728 41.4202C134.812 41.342 134.873 41.2582 134.94 41.1912C134.985 41.1242 135.002 41.0739 135.03 41.0348C135.052 41.018 135.102 40.8951 135.13 40.8393C135.192 40.7052 135.225 40.627 135.225 40.627L136.599 41.504Z" fill="#CEAE91"/>
<path d="M59.5889 37.3277L58.8735 39.0326L60.5785 39.748L61.2938 38.043L59.5889 37.3277Z" fill="white"/>
<path d="M118.887 54.8768H4.71457L3.5415 59.5802L11.2334 67.1995L7.20591 83.0581H19.5621L21.439 76.0588L28.5109 83.0581H51.028L62.7251 70.8806L59.4629 83.0581H75.7293L82.2202 78.9189L86.4488 83.0581H94.2133L100.71 78.8909L104.966 83.0581H119.691L125.467 61.39L118.887 54.8768Z" fill="#000A19"/>
<path d="M7.34546 58.3458H22.4109L26.7009 62.5968H21.4724L16.8472 79.5949H11.4232L16.0093 62.5968H11.6411L7.34546 58.3458Z" fill="white"/>
<path d="M25.2427 58.3459H40.9561L45.2126 62.5521L41.7213 75.4223L35.1187 79.5894L29.8232 79.6006L25.5332 75.3608L29.1026 62.1723L25.2427 58.3459ZM30.9963 75.3441H36.3365L39.7886 62.5968H34.4875L30.9963 75.3441Z" fill="white"/>
<path d="M43.6219 58.3459H59.4303L62.983 61.8092L61.5139 67.3058L57.855 71.0875H50.6379L48.3644 79.5838H42.9404L47.5824 62.2672L43.6219 58.3459ZM51.8166 66.8478H57.1568L58.2907 62.5968H52.9896L51.8166 66.8478Z" fill="white"/>
<path d="M64.7815 58.3459H80.4725C81.9193 59.7647 83.3493 61.1668 84.7626 62.5521C82.6566 70.3781 81.4948 74.6682 81.2713 75.4223C80.9529 75.601 79.0481 76.8188 75.5512 79.0811C75.0653 79.4162 74.7692 79.5838 74.6687 79.5838H63.9827L68.6525 62.1667C66.0997 59.6921 64.8094 58.4129 64.7815 58.3459ZM70.5462 75.3441H75.8864L79.3385 62.5968H74.0374C73.9704 62.5968 73.6073 63.9151 72.9426 66.5517C72.8867 66.6523 72.0879 69.5849 70.5462 75.3441Z" fill="white"/>
<path d="M83.2261 58.3459H98.9171C100.364 59.7647 101.794 61.1668 103.207 62.5521C101.101 70.3781 99.9394 74.6682 99.7159 75.4223C99.3975 75.601 97.4927 76.8188 93.9959 79.0811C93.5099 79.4162 93.2138 79.5838 93.1133 79.5838H87.8568C85.3599 77.1539 83.9299 75.7351 83.5668 75.3329C85.8124 67.0433 87.1028 62.1667 87.1028 62.1667L83.2261 58.3459ZM88.9908 75.3441H94.331L97.7832 62.5968H92.482L88.9908 75.3441Z" fill="white"/>
<path d="M101.743 58.3459H117.434C119.931 60.7758 121.361 62.1946 121.724 62.5968H110.994L107.503 75.3441H112.843L113.982 71.0931H111.29C111.29 71.0931 112.424 66.9483 112.424 66.8422H120.546L117.138 79.5894H106.369C103.872 77.1595 102.079 75.3385 102.079 75.3385L105.614 62.1723C105.614 62.1779 101.771 58.4129 101.743 58.3459Z" fill="white"/>
<path d="M12.5403 79.8686L18.5452 63.2447L15.2942 80.6171L12.5403 79.8686Z" fill="#CEAE91"/>
<path d="M36.3933 79.8686L42.3983 63.2447L39.1472 80.6171L36.3933 79.8686Z" fill="#CEAE91"/>
<path d="M44.0557 79.8686L50.0606 63.2447L46.8151 80.6171L44.0557 79.8686Z" fill="#CEAE91"/>
<path d="M75.9248 79.8686L81.9297 63.2447L78.6787 80.6171L75.9248 79.8686Z" fill="#CEAE91"/>
<path d="M94.4199 79.8686L100.43 63.2447L97.1794 80.6171L94.4199 79.8686Z" fill="#CEAE91"/>
<path d="M111.144 85.5889L117.149 68.9706L113.898 86.343L111.144 85.5889Z" fill="#CEAE91"/>
<path d="M101.939 79.8686L107.944 63.2447L104.693 80.6171L101.939 79.8686Z" fill="#CEAE91"/>
<path d="M83.3877 79.8686L89.3926 63.2447L86.1416 80.6171L83.3877 79.8686Z" fill="#CEAE91"/>
<path d="M65.0322 79.8686L71.0372 63.2447L67.7861 80.6171L65.0322 79.8686Z" fill="#CEAE91"/>
<path d="M25.321 79.8686L31.326 63.2447L28.0805 80.6171L25.321 79.8686Z" fill="#CEAE91"/>
<path d="M2.64218 90.4596H1.26803V89.3536H3.26781V89.834H4.46879V88.3928H0V92.7946H1.26803V91.3478H2.64218V90.4596Z" fill="white"/>
<path d="M6.8492 91.8338H5.88281V92.7946H9.078V91.8338H8.11721V89.3536H9.078V88.3928H5.88281V89.3536H6.8492V91.8338Z" fill="white"/>
<path d="M11.5856 92.7946H15.6857V90.387H13.6636V91.0741H14.4903V91.8338H12.4626L11.8426 90.5937L12.4626 89.3536H14.4903V89.6273H15.6857V88.3928H11.5856L10.4517 90.5937L11.5856 92.7946Z" fill="white"/>
<path d="M19.0927 88.3928H17.8247V92.7946H19.0927V91.2808H21.3383V92.7946H22.6063V88.3928H21.3383V90.32H19.0927V88.3928Z" fill="white"/>
<path d="M26.0188 92.7946H27.2813V89.3536H29.0073V88.3928H24.2983V89.3536H26.0188V92.7946Z" fill="white"/>
<path d="M31.3875 91.8338H30.4211V92.7946H33.6163V91.8338H32.6555V89.3536H33.6163V88.3928H30.4211V89.3536H31.3875V91.8338Z" fill="white"/>
<path d="M35.5488 88.3928V92.7946H36.8168V90.0407L39.0624 91.6662V92.7946H40.3304V88.3928H39.0624V89.9066L36.9509 88.3928H35.5488Z" fill="white"/>
<path d="M43.1074 92.7946H47.2131V90.387H45.1854V91.0741H46.0121V91.8338H43.99L43.3699 90.5937L43.99 89.3536H46.0121V89.6273H47.2131V88.3928H43.1074L41.979 90.5937L43.1074 92.7946Z" fill="white"/>
<path d="M52.8158 92.7946H56.916V91.2864H55.7205V91.8338H53.6928L53.0728 90.5937L53.6928 89.3536H55.7205V89.901H56.916V88.3928H52.8158L51.6819 90.5937L52.8158 92.7946Z" fill="white"/>
<path d="M60.2561 88.3928H58.988V92.7946H60.2561V91.2808H62.5016V92.7946H63.7696V88.3928H62.5016V90.32H60.2561V88.3928Z" fill="white"/>
<path d="M67.3836 88.3928L65.4341 92.7946H66.8306L67.1378 92.0349H69.4839L69.7911 92.7946H71.1876L69.2381 88.3928H67.3836ZM67.4562 91.2137L68.3109 89.4877L69.1767 91.2137H67.4562Z" fill="white"/>
<path d="M74.31 88.3928H72.8577V92.7946H74.1257V90.0798L75.6786 91.5824L77.2315 90.0798V92.7946H78.4995V88.3928H77.0472L75.6786 89.9849L74.31 88.3928Z" fill="white"/>
<path d="M84.9519 88.8732C84.7899 88.728 84.6056 88.6107 84.3765 88.5213C84.1531 88.4375 83.9017 88.3928 83.628 88.3928H80.7065V92.7946H81.9746V91.5545H83.628C83.9017 91.5545 84.1531 91.5098 84.3765 91.426C84.6 91.3422 84.7899 91.2249 84.9519 91.0797C85.1139 90.9344 85.2312 90.7669 85.3206 90.577C85.4044 90.387 85.449 90.1859 85.449 89.9737C85.449 89.767 85.4044 89.5659 85.3206 89.376C85.2312 89.186 85.1083 89.0129 84.9519 88.8732ZM83.9129 90.4652C83.7788 90.5993 83.6168 90.6663 83.4269 90.6663H81.969V89.2866H83.4269C83.6168 89.2866 83.7788 89.3536 83.9129 89.4877C84.0414 89.6162 84.114 89.7893 84.114 89.9793C84.114 90.1636 84.047 90.3368 83.9129 90.4652Z" fill="white"/>
<path d="M87.8622 91.8338H86.9014V92.7946H90.0966V91.8338H89.1302V89.3536H90.0966V88.3928H86.9014V89.3536H87.8622V91.8338Z" fill="white"/>
<path d="M96.3646 88.9405C96.1188 88.7171 95.8228 88.5327 95.482 88.3931C95.1413 88.259 94.767 88.1864 94.3648 88.1864C93.9626 88.1864 93.5884 88.2534 93.2476 88.3931C92.9069 88.5327 92.6108 88.7171 92.365 88.9405C92.1192 89.164 91.9237 89.4265 91.7841 89.7114C91.6444 89.9963 91.5774 90.2923 91.5774 90.594C91.5774 90.8956 91.6444 91.1917 91.7841 91.4766C91.9237 91.767 92.1192 92.024 92.365 92.2474C92.6108 92.4709 92.9069 92.6552 93.2476 92.7948C93.9235 93.0686 94.8005 93.0686 95.482 92.7948C95.8228 92.6552 96.1188 92.4765 96.3646 92.2474C96.6104 92.024 96.8059 91.7614 96.9455 91.4766C97.0852 91.1917 97.1522 90.8956 97.1522 90.594C97.1522 90.2923 97.0852 89.9963 96.9455 89.7114C96.8059 89.4209 96.6104 89.164 96.3646 88.9405ZM95.6999 91.1637C95.6272 91.3369 95.5211 91.4877 95.3926 91.6218C95.2642 91.7503 95.1077 91.8564 94.929 91.929C94.7502 92.0072 94.5603 92.0407 94.3648 92.0407C94.1637 92.0407 93.9738 92.0016 93.795 91.9234C93.6219 91.8508 93.4655 91.7447 93.337 91.6162C93.2085 91.4877 93.1024 91.3313 93.0298 91.1582C92.9571 90.985 92.918 90.7895 92.918 90.5884C92.918 90.3929 92.9571 90.203 93.0298 90.0242C93.1024 89.851 93.2085 89.6946 93.337 89.5606C93.4655 89.4321 93.6219 89.326 93.795 89.2533C94.1414 89.1025 94.5659 89.0969 94.929 89.2533C95.1022 89.326 95.2586 89.4321 95.3926 89.5606C95.5267 89.6946 95.6272 89.8455 95.6999 90.0242C95.7725 90.203 95.8116 90.3929 95.8116 90.5884C95.8172 90.7951 95.7781 90.985 95.6999 91.1637Z" fill="white"/>
<path d="M98.9111 88.3928V92.7946H100.179V90.0407L102.425 91.6662V92.7946H103.693V88.3928H102.425V89.9066L100.313 88.3928H98.9111Z" fill="white"/>
<path d="M109.033 91.9064H106.96V91.5601H105.759V92.7946H110.301V90.6887L107.027 89.8955V89.281H109.1V89.6273H110.301V88.3928H105.759V90.4652L109.033 91.2528V91.9064Z" fill="white"/>
<path d="M113.636 88.3928H112.368V92.7946H113.636V91.2808H115.882V92.7946H117.15V88.3928H115.882V90.32H113.636V88.3928Z" fill="white"/>
<path d="M120.043 91.8338H119.083V92.7946H122.278V91.8338H121.311V89.3536H122.278V88.3928H119.083V89.3536H120.043V91.8338Z" fill="white"/>
<path d="M128.456 88.8732C128.294 88.728 128.109 88.6107 127.88 88.5213C127.657 88.4375 127.406 88.3928 127.132 88.3928H124.21V92.7946H125.478V91.5545H127.132C127.406 91.5545 127.657 91.5098 127.88 91.426C128.104 91.3422 128.294 91.2249 128.456 91.0797C128.618 90.9344 128.735 90.7669 128.824 90.577C128.908 90.387 128.953 90.1859 128.953 89.9737C128.953 89.767 128.908 89.5659 128.824 89.376C128.735 89.186 128.612 89.0129 128.456 88.8732ZM127.417 90.4652C127.283 90.5993 127.121 90.6663 126.931 90.6663H125.473V89.2866H126.931C127.121 89.2866 127.283 89.3536 127.417 89.4877C127.545 89.6162 127.618 89.7893 127.618 89.9793C127.618 90.1636 127.551 90.3368 127.417 90.4652Z" fill="white"/>
</svg>
