<svg width="103" height="64" viewBox="0 0 103 64" fill="none" xmlns="http://www.w3.org/2000/svg">
<path d="M48.6709 0L57.3405 26.5498L63.3433 9.11161H70.1451L57.3044 46.8602L48.6611 21.162L43.0514 37.6829H35.702L48.6709 0ZM32.1512 33.8215C31.5947 34.5389 30.955 35.1881 30.2456 35.7551C29.5336 36.3208 28.7499 36.7894 27.9148 37.1492C27.1104 37.4992 26.2433 37.681 25.3663 37.6829H12.6887C11.9764 37.6966 11.2685 37.5687 10.606 37.3066C10.0409 37.0854 9.53831 36.7304 9.14074 36.2722C8.77142 35.8312 8.54011 35.2909 8.4757 34.7191C8.39765 34.1207 8.50965 33.4617 8.81171 32.7424L15.4808 13.8138C15.814 13.0171 16.3182 12.3032 16.9572 11.7226C17.6206 11.108 18.3583 10.5781 19.1528 10.146C19.9486 9.70811 20.7945 9.3683 21.6721 9.13382C22.4663 8.90918 23.2865 8.78988 24.1117 8.77845H35.9736C36.7024 8.761 37.4271 8.89744 38.0998 9.17855C38.6601 9.41398 39.1471 9.79568 39.5092 10.284C39.8534 10.7688 40.0606 11.3377 40.1085 11.9304C40.159 12.624 40.0371 13.3192 39.7544 13.9547L33.4604 31.6132C33.1259 32.4051 32.6855 33.1482 32.1512 33.8215ZM31.9491 14.2682H22.9809L16.4917 32.7646H25.3746L31.9491 14.2682ZM75.1135 9.11034H102.04L100.074 14.886H80.9294L79.2135 19.9378L93.0788 19.9296L90.9012 26.2446H77.0372L75.6434 30.3085L94.7503 30.2974L92.2243 37.6356H65.3549L75.1135 9.11034Z" fill="white"/>
<path d="M3.60618 60.5471H2.02259C1.11831 60.5471 0.514194 60.2739 0.21023 59.7273C-0.093733 59.1809 -0.0680312 58.4169 0.287016 57.4355L1.68119 53.6074C1.85379 53.1111 2.09588 52.6419 2.40048 52.2135C2.64289 51.867 2.93734 51.5599 3.27303 51.3029C3.60016 51.0678 3.96726 50.8936 4.35625 50.7886C4.74811 50.6715 5.1498 50.5915 5.55656 50.5503C5.93699 50.5141 6.39294 50.496 6.93392 50.496H7.8566C8.86875 50.496 9.49064 50.7204 9.72607 51.1636C9.96181 51.6069 9.89359 52.336 9.52554 53.3469L9.40973 53.6632H8.28748L8.38933 53.3843C8.65141 52.6641 8.71772 52.1675 8.58858 51.894C8.45913 51.6154 8.04348 51.4844 7.33402 51.4844H6.70674C5.48358 51.4844 4.60723 51.6138 4.07736 51.8731C3.5478 52.1326 3.12422 52.698 2.80756 53.5699L1.81762 56.2853C1.65866 56.726 1.53872 57.0715 1.45528 57.32C1.37183 57.5849 1.30298 57.8546 1.24872 58.1268C1.19097 58.3388 1.17511 58.5603 1.20271 58.7779C1.23285 58.9299 1.29726 59.073 1.39118 59.1961C1.50287 59.3386 1.66151 59.4376 1.83856 59.475C2.08795 59.5337 2.34369 59.5604 2.59974 59.5547H3.92538C4.84837 59.5547 5.50929 59.449 5.9078 59.238C6.30505 59.026 6.62995 58.5774 6.88378 57.8901L7.1668 57.1023H8.28208L7.94607 58.0266C7.80646 58.4295 7.60816 58.8097 7.35781 59.1546C7.1557 59.4363 6.9117 59.6857 6.63408 59.8932C6.36247 60.0845 6.05883 60.226 5.73773 60.3114C5.41283 60.4056 5.08031 60.4694 4.74367 60.5024C4.43716 60.5319 4.05388 60.5471 3.60618 60.5471Z" fill="white"/>
<path d="M12.9078 50.574L11.5206 54.3865H11.5456C12.0159 53.7723 12.8405 53.4648 14.0189 53.4638C14.9603 53.4638 15.5714 53.6323 15.8519 53.9699C16.1327 54.3072 16.1007 54.9383 15.7558 55.8629L14.083 60.4633H13.0417L14.7452 55.782C14.9663 55.1744 14.9901 54.7758 14.8163 54.5874C14.6424 54.3986 14.2436 54.3056 13.6201 54.3085C12.7837 54.3085 12.1771 54.4563 11.7954 54.7574C11.4133 55.0585 11.0745 55.6119 10.7775 56.4302L9.30685 60.4731H8.26392L11.8636 50.5752L12.9078 50.574Z" fill="white"/>
<path d="M21.6397 60.4676H20.5968L20.8576 59.7553L20.8379 59.7273C20.5632 60.0637 20.1856 60.3004 19.7633 60.4009C19.2693 60.5044 18.7651 60.551 18.2603 60.5402C17.3807 60.5402 16.7715 60.4009 16.4343 60.1221C16.0967 59.8432 16.0802 59.2857 16.3841 58.449C16.5244 58.0422 16.7224 57.6577 16.9724 57.3074C17.1786 57.0263 17.4493 56.7981 17.7615 56.6423C18.0553 56.4954 18.3704 56.3952 18.6953 56.3454C19.0887 56.294 19.485 56.2702 19.8816 56.2743C21.2266 56.2743 21.8672 56.5069 21.8041 56.9714H21.871L22.3352 55.693C22.5484 55.1035 22.5472 54.7269 22.3254 54.5584C22.1039 54.3896 21.6591 54.3087 20.9915 54.3087H20.5606C20.4575 54.3087 20.3207 54.3214 20.1494 54.3337C20.0066 54.3436 19.8658 54.3734 19.7312 54.4216C19.6224 54.4648 19.504 54.5194 19.3743 54.5863C19.2467 54.6498 19.136 54.7424 19.051 54.8566C18.9628 54.9772 18.892 55.1105 18.8419 55.251L18.754 55.488H17.6736L17.7266 55.3487C17.8364 55.0334 17.995 54.737 18.1962 54.4705C18.358 54.2563 18.5519 54.0682 18.7708 53.9127C18.991 53.7683 19.2356 53.6649 19.4926 53.6075C19.7528 53.5421 20.0184 53.5008 20.2858 53.485C20.5216 53.4694 20.8214 53.4641 21.1825 53.4641C21.5782 53.4641 21.9031 53.4751 22.1582 53.4961C22.4174 53.5183 22.6731 53.5719 22.9194 53.6563C23.1323 53.7125 23.3185 53.8426 23.4448 54.0228C23.5523 54.2303 23.6006 54.4632 23.5844 54.6964C23.5669 55.0565 23.4889 55.4116 23.3544 55.746L21.6397 60.4676ZM18.7524 59.7023C19.0161 59.7023 19.2264 59.7023 19.3825 59.6912C19.5789 59.6766 19.7741 59.6493 19.9667 59.6103C20.1659 59.5788 20.3579 59.5113 20.5327 59.411C20.6974 59.3076 20.8446 59.1787 20.969 59.029C21.1222 58.8453 21.2412 58.6359 21.3205 58.41C21.4033 58.2094 21.4455 57.9943 21.4446 57.7773C21.4446 57.6437 21.4113 57.512 21.3469 57.3953C21.2466 57.2826 21.1079 57.2116 20.9579 57.1957C20.784 57.1573 20.6073 57.1335 20.4296 57.1246C20.2817 57.1246 20.0365 57.1176 19.6935 57.1176C19.0161 57.1176 18.5309 57.1846 18.2409 57.3201C17.9509 57.4552 17.7069 57.7897 17.5159 58.3179C17.29 58.9328 17.2706 59.319 17.4588 59.4722C17.6469 59.6258 18.075 59.7023 18.7524 59.7023Z" fill="white"/>
<path d="M26.9566 53.542L26.5663 54.6112H26.5942C27.1882 53.8453 28.096 53.463 29.3182 53.4639C29.7567 53.4493 30.192 53.5401 30.5883 53.7285C30.9338 53.903 31.0829 54.1984 31.0385 54.6112C31.7048 53.8453 32.6662 53.463 33.9227 53.4639C34.8025 53.4639 35.3546 53.6521 35.5748 54.0296C35.795 54.4075 35.7519 55.0336 35.4352 55.9036L33.7751 60.4675H32.7309L34.3548 56.0067C34.5865 55.3737 34.6505 54.9304 34.5528 54.6795C34.4554 54.4285 34.0902 54.3143 33.4515 54.3143C32.6862 54.3143 32.0922 54.4535 31.6741 54.7226C31.2559 54.9917 30.9116 55.4965 30.6454 56.2253L29.0992 60.4732H28.0566L29.7462 55.8296C29.8211 55.6209 29.8836 55.4073 29.9331 55.1909C29.9575 55.0443 29.954 54.8946 29.9232 54.7493C29.8883 54.5782 29.756 54.4431 29.586 54.4047C29.3131 54.3339 29.031 54.3035 28.7493 54.3143C28.0468 54.3143 27.4665 54.4723 27.0083 54.7883C26.5501 55.1043 26.1941 55.6097 25.9403 56.3049L24.4237 60.4732H23.3823L25.9029 53.5474L26.9566 53.542Z" fill="white"/>
<path d="M39.078 53.5419L38.7715 54.3865L38.7867 54.4116C39.3528 53.7805 40.211 53.4648 41.3615 53.4639C41.7632 53.4486 42.1643 53.5111 42.5422 53.6479C42.7897 53.7367 43.0064 53.8957 43.1653 54.1051C43.3024 54.337 43.3586 54.6086 43.3243 54.8758C43.3049 55.1985 43.2513 55.5183 43.1641 55.8296C43.0803 56.1348 42.9508 56.5266 42.7751 57.0102C42.2788 58.3736 41.7474 59.3029 41.1804 59.7982C40.6134 60.2938 39.8144 60.5423 38.7839 60.5442C37.5867 60.5442 36.9531 60.2443 36.8824 59.645H36.8544L35.4606 63.4578H34.4275L38.0379 53.539L39.078 53.5419ZM40.7635 54.3085C40.5106 54.3066 40.258 54.3278 40.0093 54.3726C39.8157 54.4084 39.6244 54.4551 39.4362 54.5122C39.2639 54.5737 39.1078 54.6734 38.979 54.8034C38.8397 54.9427 38.7226 55.0655 38.636 55.1658C38.518 55.3241 38.4196 55.4964 38.3435 55.6788C38.2334 55.9216 38.1484 56.1208 38.0884 56.2728C38.0284 56.4248 37.9377 56.6713 37.8095 57.0048C37.6702 57.3935 37.5655 57.7016 37.4998 57.9291C37.4332 58.1664 37.3894 58.4094 37.3688 58.6553C37.3355 58.8543 37.3704 59.0586 37.4678 59.235C37.5848 59.3876 37.7448 59.5022 37.9266 59.5641C38.2051 59.6627 38.4999 59.7075 38.795 59.6967C39.5939 59.6967 40.1765 59.5307 40.5334 59.1947C40.8904 58.8587 41.2778 58.1312 41.6877 57.0048C41.8997 56.4248 42.0431 55.9885 42.1186 55.6957C42.1944 55.4355 42.2106 55.1613 42.1659 54.8942C42.1338 54.673 41.9774 54.489 41.7645 54.4214C41.4386 54.3319 41.1007 54.2958 40.7635 54.3142V54.3085Z" fill="white"/>
<path d="M46.6631 53.5419L44.1413 60.4674H43.0984L45.6218 53.5419H46.6631ZM47.7435 50.574L47.3253 51.7213H46.277L46.6952 50.574H47.7435Z" fill="white"/>
<path d="M46.4419 58.8058C46.5784 58.1947 46.7599 57.5947 46.9845 57.0103C47.1977 56.396 47.4531 55.797 47.7482 55.2176C47.9618 54.8089 48.253 54.4456 48.6055 54.1483C48.9298 53.8739 49.3159 53.6826 49.7306 53.5905C50.2643 53.495 50.8059 53.4516 51.3479 53.4611C51.859 53.4478 52.3699 53.4912 52.8715 53.5905C53.1843 53.6553 53.4502 53.8612 53.5908 54.1483C53.7326 54.4866 53.7608 54.8619 53.6717 55.2176C53.5365 55.8277 53.356 56.4268 53.1323 57.0103C52.9159 57.6246 52.6602 58.2246 52.367 58.8058C52.1538 59.2126 51.8628 59.5734 51.5109 59.8681C51.1857 60.1372 50.8009 60.3244 50.3887 60.4145C49.8553 60.5141 49.3128 60.5585 48.7702 60.5471C48.2597 60.5627 47.7492 60.5182 47.2491 60.4145C46.9375 60.3513 46.671 60.1502 46.5244 59.8681C46.3829 59.5324 46.354 59.1596 46.4419 58.8058ZM48.4593 55.9632C48.3619 56.2117 48.228 56.5613 48.0661 57.0103C47.9043 57.4592 47.779 57.8064 47.6997 58.0545C47.6219 58.289 47.5661 58.5304 47.5321 58.7754C47.4963 58.9391 47.4998 59.1092 47.542 59.2716C47.5994 59.3839 47.6905 59.4753 47.8028 59.5337C47.9522 59.6178 48.1182 59.6676 48.2892 59.68C48.4815 59.698 48.7435 59.705 49.0796 59.705C49.4156 59.705 49.6818 59.705 49.8883 59.68C50.092 59.6616 50.2919 59.6124 50.4807 59.5337C50.6444 59.4705 50.7974 59.382 50.9338 59.2716C51.0782 59.1247 51.2003 58.9575 51.2961 58.7754C51.4338 58.546 51.5528 58.3058 51.6518 58.0573C51.7492 57.8092 51.8803 57.4634 52.0434 57.0131C52.2064 56.5629 52.3305 56.2142 52.4143 55.9661C52.4914 55.7319 52.5475 55.4911 52.5815 55.2468C52.6154 55.0831 52.6116 54.914 52.5704 54.7518C52.5177 54.6354 52.427 54.5402 52.3124 54.4828C52.1633 54.3977 51.9961 54.3476 51.8244 54.3365C51.6337 54.3197 51.3713 54.3114 51.0357 54.3114C50.6996 54.3114 50.4318 54.3197 50.2285 54.3365C50.0244 54.3539 49.8246 54.4034 49.6358 54.4828C49.4701 54.5462 49.3166 54.6373 49.1814 54.7518C49.0351 54.899 48.9098 55.0656 48.8092 55.2468C48.6753 55.4768 48.5583 55.7164 48.4593 55.9632Z" fill="white"/>
<path d="M57.0309 53.5421L56.7228 54.3867H56.7479C57.22 53.7725 58.0444 53.465 59.2209 53.4641C60.1623 53.4641 60.7734 53.6325 61.0542 53.9701C61.3347 54.3074 61.3032 54.9385 60.9593 55.8631L59.2865 60.4635H58.2452L59.95 55.7822C60.1712 55.1746 60.1943 54.776 60.0198 54.5876C59.845 54.3988 59.4465 54.3077 58.8236 54.3144C57.9872 54.3144 57.3809 54.4622 56.9989 54.7633C56.6169 55.0645 56.278 55.6178 55.981 56.4361L54.5117 60.479H53.4678L55.9896 53.5532L57.0309 53.5421Z" fill="white"/>
<path d="M68.5526 55.0849L68.4564 55.3515H67.3732L67.4697 55.0849C67.5163 54.9777 67.5341 54.86 67.5211 54.7435C67.5103 54.6664 67.4767 54.5941 67.4249 54.5357C67.3329 54.4723 67.2244 54.4367 67.1127 54.4326C66.9741 54.4117 66.8345 54.3987 66.6945 54.3936C66.5718 54.3936 66.3766 54.3866 66.1034 54.3866H65.4971C65.3841 54.3866 65.2264 54.3952 65.0272 54.4117C64.8854 54.4186 64.7448 54.4437 64.609 54.4856C64.5037 54.5252 64.4012 54.5716 64.3022 54.6252C64.1899 54.6817 64.094 54.7664 64.0233 54.8705C63.956 54.9831 63.9002 55.1021 63.8561 55.2258C63.6609 55.7611 63.6149 56.0889 63.7168 56.2018C63.8186 56.3148 64.1182 56.39 64.6131 56.4081C64.7134 56.4163 64.7914 56.4207 64.8444 56.4207C64.984 56.4319 65.2027 56.4401 65.4815 56.4471C65.7604 56.4541 65.9695 56.4652 66.1117 56.475C66.2538 56.4848 66.4325 56.5029 66.6498 56.5334C66.8164 56.5496 66.9792 56.5924 67.1321 56.6603C67.2511 56.7225 67.3628 56.7974 67.4652 56.8833C67.5788 56.9712 67.6559 57.0978 67.6813 57.239C67.7064 57.4161 67.7064 57.5957 67.6813 57.7727C67.649 58.0234 67.5868 58.269 67.496 58.5047C67.3755 58.8509 67.2016 59.1761 66.9801 59.468C66.8091 59.6996 66.6019 59.9024 66.3668 60.0689C66.1294 60.2197 65.8667 60.3266 65.5916 60.3853C65.3245 60.4522 65.0522 60.4966 64.7775 60.5179C64.549 60.5303 64.2463 60.5373 63.8672 60.5373C63.488 60.5373 63.1967 60.5373 62.9639 60.5179C62.7049 60.4992 62.4479 60.4614 62.1944 60.4049C61.9695 60.3666 61.7556 60.279 61.5684 60.1483C61.4244 60.0261 61.3263 59.8583 61.2895 59.673C61.2476 59.4163 61.279 59.1529 61.3803 58.913L61.616 58.2677H62.6976L62.5012 58.8074C62.3838 59.1336 62.4356 59.3509 62.6627 59.4569C62.8899 59.5629 63.3989 59.613 64.1962 59.613L64.4751 59.62H64.7959L65.0941 59.5949C65.2017 59.5854 65.3083 59.5651 65.4121 59.5349C65.4885 59.507 65.5821 59.468 65.6906 59.4166C65.7938 59.368 65.888 59.303 65.9695 59.224C66.0543 59.139 66.1304 59.0454 66.1967 58.9454C66.2779 58.8217 66.3449 58.6894 66.396 58.5507C66.4626 58.3806 66.5064 58.2026 66.527 58.0211C66.5388 57.9139 66.5388 57.806 66.527 57.6991C66.5134 57.6236 66.4464 57.5665 66.3236 57.5274C66.2275 57.4922 66.1282 57.4681 66.0266 57.4551C65.9515 57.4481 65.7966 57.4396 65.5612 57.4342C65.3254 57.4285 65.143 57.4231 65.0034 57.4145C64.9003 57.4145 64.7385 57.398 64.517 57.3894C64.2952 57.3812 64.1308 57.3726 64.0261 57.3615C63.9218 57.3504 63.7752 57.3364 63.5968 57.3085C63.4601 57.2917 63.3256 57.2609 63.1955 57.2165C63.106 57.1819 63.0016 57.1343 62.8788 57.0772C62.7744 57.0322 62.6875 56.9538 62.6323 56.8542C62.5831 56.7504 62.545 56.6422 62.5177 56.5308C62.4847 56.383 62.4847 56.2297 62.5177 56.0819C62.5549 55.8864 62.6088 55.6948 62.6796 55.5088C62.7611 55.2826 62.8569 55.0621 62.9667 54.8483C63.0603 54.6664 63.1771 54.498 63.3138 54.3463C63.4312 54.2175 63.5572 54.0963 63.6901 53.9836C63.8247 53.8739 63.9785 53.7898 64.1432 53.7355C64.3 53.6759 64.4596 53.6248 64.6214 53.5823C64.8048 53.5404 64.9913 53.5137 65.1792 53.5029C65.4146 53.4861 65.6126 53.475 65.7716 53.4693C65.9305 53.4639 66.1577 53.4693 66.4464 53.4693C66.7348 53.4693 67.0039 53.4693 67.2019 53.482C67.4269 53.4956 67.6502 53.5309 67.8682 53.588C68.071 53.627 68.262 53.713 68.426 53.839C68.5583 53.9668 68.643 54.1366 68.6656 54.3197C68.6957 54.5805 68.657 54.8444 68.5526 55.0849Z" fill="white"/>
<path d="M72.8458 50.574L71.4516 54.3865H71.4779C71.9466 53.7719 72.7731 53.4638 73.9512 53.4638C74.8926 53.4638 75.5031 53.6323 75.7829 53.9699C76.0628 54.3072 76.0326 54.9383 75.6922 55.8629L74.0194 60.4633H72.9781L74.6816 55.782C74.9034 55.1744 74.9256 54.7755 74.7527 54.5874C74.5797 54.3992 74.1812 54.3085 73.5565 54.3085C72.7201 54.3085 72.1125 54.4563 71.7318 54.7574C71.3513 55.0585 71.0112 55.6119 70.7142 56.4302L69.2433 60.4731H68.2019L71.8016 50.5752L72.8458 50.574Z" fill="white"/>
<path d="M79.4017 53.5419L76.8812 60.4674H75.8398L78.3604 53.5419H79.4017ZM80.4821 50.574L80.0639 51.7213H79.0226L79.4408 50.574H80.4821Z" fill="white"/>
<path d="M82.2119 53.542L81.9038 54.3866L81.9203 54.4117C82.4854 53.7806 83.3434 53.4649 84.4939 53.4639C84.8956 53.4484 85.2966 53.5109 85.6748 53.648C85.9229 53.7368 86.1403 53.8958 86.3005 54.1052C86.4366 54.3377 86.4918 54.609 86.4566 54.8759C86.4376 55.1986 86.3846 55.5181 86.2992 55.8296C86.2155 56.1349 86.0844 56.5267 85.909 57.0103C85.4127 58.3737 84.881 59.303 84.314 59.7983C83.747 60.2939 82.9483 60.5423 81.9178 60.5442C80.7235 60.5442 80.0886 60.2444 80.0134 59.6451H79.9883L78.5942 63.4579H77.5598L81.1718 53.5391L82.2119 53.542ZM83.8958 54.3086C83.6429 54.3067 83.3907 54.3282 83.1416 54.3726C82.9483 54.4088 82.757 54.4555 82.5686 54.5123C82.3969 54.5732 82.2414 54.6728 82.1142 54.8035C81.9749 54.9428 81.855 55.0656 81.7699 55.1659C81.6513 55.3242 81.5523 55.4965 81.4758 55.6789C81.3682 55.9217 81.2832 56.1209 81.222 56.2729C81.1607 56.4249 81.07 56.6714 80.9431 57.0049C80.8038 57.3936 80.7007 57.7017 80.6324 57.9292C80.5668 58.1665 80.5233 58.4098 80.5027 58.6554C80.4687 58.8541 80.503 59.0587 80.6004 59.2351C80.7175 59.3877 80.8771 59.5023 81.0589 59.5641C81.3381 59.6625 81.6332 59.7076 81.9289 59.6968C82.7291 59.6968 83.3116 59.5308 83.6673 59.1948C84.0227 58.8588 84.4117 58.1313 84.8216 57.0049C85.0317 56.4249 85.1757 55.9886 85.2538 55.6957C85.3277 55.4353 85.3436 55.1614 85.2998 54.8943C85.2681 54.6728 85.1113 54.4885 84.8981 54.4215C84.5719 54.332 84.2334 54.2959 83.8958 54.3143V54.3086Z" fill="white"/>
<path d="M52.6899 46.4964H4.14136L4.78006 44.5558H53.4022L52.6899 46.4964ZM90.1903 44.5558H61.9243L61.1253 46.5005H89.5167L90.1903 44.5558Z" fill="white"/>
<path d="M86.933 52.4811V50.9756H86.4631V50.6967H87.7513V50.9756H87.2786V52.4811H86.933Z" fill="white"/>
<path d="M89.493 52.4809V50.9224L88.998 52.4809H88.8292L88.3358 50.9224V52.4809H88.0737V50.7006H88.5757L88.9479 51.8479L89.3159 50.7006H89.8204V52.4809H89.493Z" fill="white"/>
</svg>
