<svg width="91" height="78" viewBox="0 0 91 78" fill="none" xmlns="http://www.w3.org/2000/svg">
<path d="M7.21191 21.5592C7.21191 21.5592 25.9588 8.69077 46.6266 5.11526C67.2944 1.53974 72.5837 10.2789 72.5837 10.2789C72.5837 10.2789 74.5062 12.8201 74.5062 15.7607C74.5062 15.7607 72.5837 9.40525 59.6059 7.26026C46.6282 5.11526 30.1232 11.4707 30.1232 11.4707C30.1232 11.4707 18.9075 15.2833 7.21191 21.5592Z" fill="#CBC1B7"/>
<path d="M7.73242 32.1048C7.73242 32.1048 11.8795 26.0192 27.3052 19.0023C27.3052 19.0023 34.6036 15.3847 47.542 13.5205C47.542 13.5205 28.191 17.3035 14.0364 40.7675C14.0364 40.7675 15.5295 33.969 21.7218 24.7587C21.7202 24.7587 15.4728 25.3609 7.73242 32.1048Z" fill="#CBC1B7"/>
<path d="M34.8807 31.0081C34.8807 31.0081 34.3836 25.1971 41.9572 20.1536C41.9572 20.1536 45.2186 18.0149 51.8545 17.1927C51.8545 17.1927 40.2439 19.6591 34.8807 31.0081Z" fill="#CBC1B7"/>
<path d="M60.5591 13.519L72.5237 16.2536L67.8904 17.8526L60.5591 13.519Z" fill="white"/>
<path d="M79.5311 17.6779C79.5311 17.6779 83.8937 19.9945 84.3405 24.3079C84.6332 27.144 83.6373 29.2219 83.6373 29.2219C83.6373 29.2219 74.1663 22.7963 61.0596 25.442C61.0596 25.442 63.7278 23.726 70.8531 23.2908C77.9783 22.8556 81.9665 25.8492 81.9665 25.8492C81.9665 25.8492 82.8743 20.4984 79.5311 17.6779Z" fill="white"/>
<path d="M5.72026 44.201H32.6291L30.521 48.1619H11.2125L13.0988 49.7016C13.0988 49.7016 12.6677 50.0682 12.7008 50.5596H27.5066L25.968 53.82L8.98161 53.8528L10.2087 55.1663L9.54326 56.3691H26.0734L24.1949 60.2971H4.53874C4.53874 60.2971 3.00168 60.0943 2.19932 58.8573C2.19932 58.8573 1.82331 57.9774 2.45576 56.7232L8.05653 46.0731L5.72026 44.201Z" fill="white"/>
<path d="M34.1681 44.201H59.1104L57.1564 48.0402H39.2764L41.309 49.5909L40.7616 50.6517H54.0539L52.3863 53.8824H36.7482L38.3907 55.3285L35.7319 60.2971H28.668L36.358 45.8437L34.1681 44.201Z" fill="white"/>
<path d="M60.7777 44.201H86.7112C86.7112 44.201 88.1712 44.0872 88.6133 45.0949C88.6133 45.0949 88.9515 45.3024 88.404 46.5161L86.631 49.9278H79.49L80.5582 48.1447H65.8578L67.9172 49.7734L64.5284 56.3893H76.205L77.2481 54.5282H84.1295L82.4619 57.759C82.4619 57.759 81.9663 59.7355 78.5791 60.2987H60.3089C60.3089 60.2987 57.6769 60.3439 57.208 58.3799C57.208 58.3799 56.8698 57.578 57.6769 56.2349L61.9246 48.2492C61.9246 48.2492 62.7333 46.3882 63.3846 46.2587L60.7777 44.201Z" fill="white"/>
<path d="M20.9496 67.1821L20.6475 67.8873H18.1948L19.4456 64.9685H21.8983L21.5962 65.6736H19.9443L19.7476 66.1323H21.2155L20.9622 66.7235H19.4943L19.2977 67.1821H20.9496Z" fill="white"/>
<path d="M22.9744 65.6354C23.1648 65.1924 23.4165 64.9709 23.7265 64.9709H25.3422C25.531 64.9709 25.6616 65.0348 25.7355 65.1627C25.8094 65.2907 25.8063 65.4482 25.7276 65.6354L24.7632 67.8896H23.9624L24.2645 67.1845H23.116L22.814 67.8896H22.0132L22.9744 65.6354ZM24.5162 66.5917L24.8639 65.7774C24.8938 65.7103 24.8749 65.676 24.8073 65.676H23.8633C23.7957 65.676 23.7453 65.7103 23.7154 65.7774L23.3678 66.5917H24.5162Z" fill="white"/>
<path d="M28.4444 67.1829C28.4853 67.1829 28.512 67.1658 28.5262 67.1299L28.7228 66.6713H28.1171L28.3704 66.0831H29.769L29.2829 67.2219C29.0925 67.665 28.8282 67.8865 28.49 67.8865H26.621C26.5124 67.8865 26.4353 67.8491 26.3913 67.7726C26.3472 67.6962 26.3488 67.6057 26.396 67.4965L27.1936 65.6307C27.2786 65.4342 27.4013 65.2735 27.5633 65.1503C27.7254 65.027 27.8937 64.9662 28.0684 64.9662H30.0428L29.7407 65.6713H28.0322C27.996 65.6713 27.9708 65.6885 27.9551 65.7243L27.3462 67.1471C27.3384 67.1689 27.3447 67.1798 27.3667 67.1798H28.4444V67.1829Z" fill="white"/>
<path d="M31.7278 64.9693H32.5286L31.5799 67.1829H32.9581L32.656 67.8881H30.4771L31.7278 64.9693Z" fill="white"/>
<path d="M36.6635 67.1829L36.3614 67.8881H33.9087L35.1594 64.9693H37.6121L37.3101 65.6744H35.6581L35.4615 66.1331H36.9293L36.676 66.7243H35.2082L35.0115 67.1829H36.6635Z" fill="white"/>
<path d="M40.1387 67.8896L41.3894 64.9709H43.7446L43.4425 65.676H41.8881L41.6915 66.1346H43.0492L42.7959 66.7259H41.4382L40.9395 67.8896H40.1387Z" fill="white"/>
<path d="M45.1194 64.9693H45.9202L44.6694 67.8881H43.8687L45.1194 64.9693Z" fill="white"/>
<path d="M48.3667 67.1829C48.4076 67.1829 48.4344 67.1658 48.4485 67.1299L48.6452 66.6713H48.0395L48.2928 66.0831H49.6914L49.2053 67.2219C49.0149 67.665 48.7506 67.8865 48.4124 67.8865H46.5433C46.4348 67.8865 46.3577 67.8491 46.3136 67.7726C46.2696 67.6962 46.2712 67.6057 46.3184 67.4965L47.116 65.6307C47.201 65.4342 47.3237 65.2735 47.4857 65.1503C47.6478 65.027 47.8161 64.9662 47.9907 64.9662H49.9652L49.6631 65.6713H47.953C47.9168 65.6713 47.8916 65.6885 47.8759 65.7243L47.267 67.1471C47.2592 67.1689 47.2655 67.1798 47.2875 67.1798H48.3667V67.1829Z" fill="white"/>
<path d="M50.3975 67.8896L51.6482 64.9709H52.449L51.9786 66.066H53.1601L53.6305 64.9709H54.4344L53.1837 67.8896H52.3829L52.8612 66.7711H51.6797L51.2014 67.8896H50.3975Z" fill="white"/>
<path d="M55.3251 67.8896L56.2738 65.676H55.2842L55.5862 64.9709H58.3678L58.0657 65.676H57.0761L56.1274 67.8896H55.3251Z" fill="white"/>
<path d="M59.6028 64.9693H60.4036L59.1528 67.8881H58.3521L59.6028 64.9693Z" fill="white"/>
<path d="M61.9124 64.9693H62.7131L63.1426 66.704L63.8868 64.9693H64.6876L63.4368 67.8881H62.677L62.2066 66.1533L61.4624 67.8881H60.6616L61.9124 64.9693Z" fill="white"/>
<path d="M67.1338 67.1829C67.1747 67.1829 67.2015 67.1658 67.2156 67.1299L67.4123 66.6713H66.8066L67.0599 66.0831H68.4585L67.9724 67.2219C67.782 67.665 67.5177 67.8865 67.1794 67.8865H65.3104C65.2019 67.8865 65.1248 67.8491 65.0807 67.7726C65.0367 67.6962 65.0382 67.6057 65.0854 67.4965L65.8831 65.6307C65.968 65.4342 66.0908 65.2735 66.2528 65.1503C66.4148 65.027 66.5832 64.9662 66.7578 64.9662H68.7322L68.4302 65.6713H66.7216C66.6854 65.6713 66.6603 65.6885 66.6445 65.7243L66.0357 67.1471C66.0278 67.1689 66.0341 67.1798 66.0561 67.1798H67.1338V67.1829Z" fill="white"/>
<path d="M15.594 73.0858C15.6239 73.0858 15.6428 73.0717 15.6538 73.0421L15.83 72.6334H16.9077L16.5333 73.5101C16.4703 73.6552 16.3665 73.7784 16.2202 73.8814C16.0739 73.9828 15.9276 74.0342 15.7813 74.0342H13.489C13.2357 74.0342 13.0595 73.9484 12.9589 73.7753C12.8582 73.6021 12.8629 73.3915 12.973 73.1404L13.8855 71.0047C13.9925 70.7536 14.1419 70.543 14.3354 70.3698C14.529 70.1966 14.7524 70.1108 15.0057 70.1108H17.4631C17.6094 70.1108 17.7116 70.1623 17.7714 70.2637C17.8296 70.3651 17.8281 70.4884 17.7667 70.635L17.3923 71.5117H16.3146L16.4845 71.103C16.4987 71.0734 16.4924 71.0593 16.4625 71.0593H15.0119C14.9647 71.0593 14.9301 71.0827 14.9081 71.1295L14.101 73.014C14.0822 73.0608 14.0979 73.0842 14.1451 73.0842H15.594V73.0858Z" fill="white"/>
<path d="M18.2969 74.0345L19.9787 70.1111H21.0564L20.4239 71.5822H22.0113L22.6438 70.1111H23.7214L22.0396 74.0345H20.962L21.6054 72.5306H20.018L19.3746 74.0345H18.2969Z" fill="white"/>
<path d="M25.3482 71.0034C25.6047 70.4075 25.9413 70.1095 26.3598 70.1095H28.5309C28.7842 70.1095 28.9588 70.1953 29.058 70.3685C29.1571 70.5416 29.1539 70.7522 29.0469 71.0034L27.7506 74.0329H26.6729L27.0788 73.0844H25.5339L25.128 74.0329H24.0503L25.3482 71.0034ZM27.4202 72.2904L27.8875 71.1953C27.9284 71.1048 27.9016 71.0596 27.8104 71.0596H26.5408C26.4495 71.0596 26.3834 71.1048 26.3425 71.1953L25.8753 72.2904H27.4202Z" fill="white"/>
<path d="M31.4412 70.1111H32.3537L32.5897 72.3996L34.6884 70.1111H35.711L34.0292 74.0345H32.9515L33.6217 72.4714L32.4953 73.6102H31.6489L31.501 72.4776L30.8355 74.036H29.7578L31.4412 70.1111Z" fill="white"/>
<path d="M37.7389 70.1111H40.4434C40.6306 70.1111 40.7753 70.1626 40.8807 70.264C40.9846 70.3654 41.038 70.498 41.038 70.6618C41.038 70.7741 41.0129 70.8895 40.961 71.005L40.5267 72.019C40.4198 72.2654 40.2609 72.476 40.0485 72.6508C39.8361 72.8255 39.6032 72.9128 39.3499 72.9128H37.6131L37.1348 74.036H36.0571L37.7389 70.1111ZM39.383 72.0065C39.427 72.0065 39.4601 71.9831 39.4821 71.9363L39.8282 71.1298C39.8314 71.122 39.8345 71.1142 39.8345 71.1032C39.8345 71.0736 39.8203 71.0596 39.7905 71.0596H38.4107L38.0048 72.008H39.383V72.0065Z" fill="white"/>
<path d="M43.0802 70.1111H44.1579L42.4761 74.0345H41.3984L43.0802 70.1111Z" fill="white"/>
<path d="M45.3665 74.0345C45.1132 74.0345 44.937 73.9487 44.8363 73.7755C44.7356 73.6024 44.7403 73.3918 44.8505 73.1406L45.7629 71.005C45.8684 70.7538 46.0288 70.5432 46.2412 70.37C46.4536 70.1969 46.6864 70.1111 46.9397 70.1111H48.9677C49.2209 70.1111 49.3956 70.1969 49.4947 70.37C49.5938 70.5432 49.5907 70.7538 49.4837 71.005L48.5712 73.1406C48.4611 73.3918 48.3006 73.6024 48.0898 73.7755C47.879 73.9487 47.6477 74.0345 47.3944 74.0345H45.3665ZM48.3509 71.1298C48.373 71.083 48.3604 71.0596 48.3116 71.0596H46.8878C46.8406 71.0596 46.806 71.083 46.784 71.1298L45.9769 73.0142C45.958 73.061 45.9738 73.0844 46.021 73.0844H47.4447C47.4919 73.0844 47.525 73.061 47.5439 73.0142L48.3509 71.1298Z" fill="white"/>
<path d="M51.8561 70.1111H52.9338L53.5112 72.4433L54.5118 70.1111H55.5894L53.9076 74.0345H52.885L52.2526 71.7023L51.252 74.0345H50.1743L51.8561 70.1111Z" fill="white"/>
<path d="M57.5057 72.7912L57.4066 73.0142C57.3877 73.061 57.4034 73.0844 57.4506 73.0844H58.7643C58.8115 73.0844 58.8445 73.061 58.8634 73.0142L59.0506 72.579C59.0727 72.5322 59.0601 72.5088 59.0113 72.5088H57.4506C57.1973 72.5088 57.0211 72.423 56.9205 72.2498C56.8198 72.0767 56.8245 71.8661 56.9346 71.6149L57.1926 71.005C57.298 70.7538 57.4585 70.5432 57.6709 70.37C57.8833 70.1969 58.1161 70.1111 58.3694 70.1111H60.2872C60.5405 70.1111 60.7151 70.1969 60.8142 70.37C60.9134 70.5432 60.9102 70.7538 60.8032 71.005L60.6554 71.3544H59.5777L59.6705 71.1313C59.6925 71.0845 59.6799 71.0611 59.6327 71.0611H58.3191C58.2719 71.0611 58.2373 71.0845 58.2152 71.1313L58.028 71.5666C58.0091 71.6134 58.0249 71.6368 58.0721 71.6368H59.6327C59.886 71.6368 60.0622 71.7226 60.1629 71.8957C60.2636 72.0689 60.2589 72.2795 60.1488 72.5306L59.8907 73.1406C59.7806 73.3918 59.6249 73.6024 59.4235 73.7755C59.2221 73.9487 58.9956 74.0345 58.7423 74.0345H56.7962C56.5429 74.0345 56.3667 73.9487 56.266 73.7755C56.1653 73.6024 56.17 73.3918 56.2801 73.1406L56.428 72.7912H57.5057Z" fill="white"/>
<path d="M61.4951 74.0345L63.1769 70.1111H64.2546L63.6222 71.5822H65.2096L65.842 70.1111H66.9197L65.2379 74.0345H64.1602L64.8037 72.5306H63.2163L62.5728 74.0345H61.4951Z" fill="white"/>
<path d="M68.946 70.1111H70.0236L68.3418 74.0345H67.2642L68.946 70.1111Z" fill="white"/>
<path d="M72.0519 70.1111H74.7563C74.9436 70.1111 75.0883 70.1626 75.1937 70.264C75.2975 70.3654 75.351 70.498 75.351 70.6618C75.351 70.7741 75.3259 70.8895 75.2739 71.005L74.8397 72.019C74.7327 72.2654 74.5738 72.476 74.3615 72.6508C74.1491 72.8255 73.9162 72.9128 73.6629 72.9128H71.9261L71.4478 74.036H70.3701L72.0519 70.1111ZM73.6944 72.0065C73.7384 72.0065 73.7715 71.9831 73.7935 71.9363L74.1396 71.1298C74.1428 71.122 74.1459 71.1142 74.1459 71.1032C74.1459 71.0736 74.1318 71.0596 74.1019 71.0596H72.7221L72.3162 72.008H73.6944V72.0065Z" fill="white"/>
</svg>
