<svg width="32" height="32" viewBox="0 0 32 32" fill="none" xmlns="http://www.w3.org/2000/svg">
<path d="M8.19956 10.8L5.25556 11.824L5.62356 13.104L8.00756 12.4V22H9.47956V10.8H8.19956ZM17.5827 16.208C18.3987 15.696 18.9587 14.864 18.9587 13.76C18.9587 11.616 17.2627 10.592 15.4867 10.592C13.7267 10.592 12.0307 11.616 12.0307 13.76C12.0307 14.864 12.5907 15.696 13.4067 16.208C12.3347 16.752 11.6627 17.712 11.6627 18.928C11.6627 21.024 13.3107 22.208 15.4867 22.208C17.6787 22.208 19.3267 21.024 19.3267 18.928C19.3267 17.712 18.6547 16.752 17.5827 16.208ZM15.4867 12.016C16.5427 12.016 17.4707 12.544 17.4707 13.792C17.4707 14.976 16.5427 15.584 15.4867 15.584C14.4467 15.584 13.5027 14.976 13.5027 13.792C13.5027 12.544 14.4467 12.016 15.4867 12.016ZM15.4867 20.784C14.1267 20.784 13.1347 20.128 13.1347 18.832C13.1347 17.552 14.1267 16.896 15.4867 16.896C16.8627 16.896 17.8547 17.552 17.8547 18.832C17.8547 20.128 16.8627 20.784 15.4867 20.784ZM28.0577 15.728H25.2737V12.96H23.9457V15.728H21.1777V17.056H23.9457V19.84H25.2737V17.056H28.0577V15.728Z" fill="white"/>
<rect x="0.25" y="0.25" width="31.5" height="31.5" rx="7.75" stroke="white" stroke-width="0.5"/>
</svg>
