<svg width="39" height="34" viewBox="0 0 39 34" fill="none" xmlns="http://www.w3.org/2000/svg">
<path d="M21.2489 21.3766H2.51272C1.19839 21.3766 0.135742 22.4315 0.135742 23.7361C0.135742 25.0408 1.19839 26.0956 2.51272 26.0956H24.1013C24.1013 26.0956 25.2198 24.9853 24.0174 23.181C22.7869 21.3766 21.2489 21.3766 21.2489 21.3766Z" fill="white"/>
<path d="M20.2977 1.52909L8.66454 21.5154C8.02135 22.6536 8.38489 24.097 9.53143 24.7355C10.678 25.3739 12.1321 25.0131 12.7753 23.8749L24.4085 3.88859C25.0517 2.75048 24.6882 1.30702 23.5416 0.668568C22.3951 0.00235639 20.9409 0.390979 20.2977 1.52909Z" fill="white"/>
<path d="M34.532 30.093L22.5912 9.52368C22.5912 9.52368 20.8574 10.8561 20.8574 13.4932C20.8574 16.1303 21.948 17.9068 21.948 17.9068L30.4213 32.4802C31.0644 33.6183 32.5186 34.007 33.6651 33.3407C34.7837 32.6745 35.1752 31.2311 34.532 30.093Z" fill="white"/>
<path d="M35.735 21.3766H29.1074C27.7931 21.3766 26.7305 22.4315 26.7305 23.7361C26.7305 25.0408 27.7931 26.0956 29.1074 26.0956H35.735C37.0493 26.0956 38.112 25.0408 38.112 23.7361C38.112 22.4592 37.0493 21.3766 35.735 21.3766Z" fill="white"/>
<path d="M20.4384 5.8595L17.9216 1.50136C17.2784 0.391011 15.7963 0.00238649 14.6777 0.640839C13.5591 1.27929 13.1676 2.75051 13.8108 3.86086L16.3276 8.219C16.9708 9.32935 18.4529 9.71797 19.5715 9.07952C20.69 8.44107 21.0815 6.99761 20.4384 5.8595Z" fill="white"/>
<path d="M3.68797 30.0652L5.19805 27.4836C5.19805 27.4836 5.56159 26.7619 6.98778 26.7619C8.49786 26.7619 9.95201 28.011 10.0639 28.4829L7.79874 32.4247C7.15556 33.5628 5.70141 33.9514 4.55487 33.2852C3.40833 32.6468 3.04479 31.2033 3.68797 30.0652Z" fill="white"/>
</svg>
