<svg width="136" height="40" viewBox="0 0 136 40" fill="none" xmlns="http://www.w3.org/2000/svg">
<path d="M130.963 0.8C132.085 0.8 133.161 1.2425 133.955 2.03015C134.748 2.8178 135.194 3.88609 135.194 5V35C135.194 36.1139 134.748 37.1822 133.955 37.9698C133.161 38.7575 132.085 39.2 130.963 39.2H5.03704C3.91488 39.2 2.83868 38.7575 2.04519 37.9698C1.2517 37.1822 0.805926 36.1139 0.805926 35V5C0.805926 3.88609 1.2517 2.8178 2.04519 2.03015C2.83868 1.2425 3.91488 0.8 5.03704 0.8H130.963ZM130.963 0H5.03704C3.70113 0 2.41994 0.526784 1.47531 1.46447C0.530686 2.40215 0 3.67392 0 5V35C0 36.3261 0.530686 37.5979 1.47531 38.5355C2.41994 39.4732 3.70113 40 5.03704 40H130.963C132.299 40 133.58 39.4732 134.525 38.5355C135.469 37.5979 136 36.3261 136 35V5C136 3.67392 135.469 2.40215 134.525 1.46447C133.58 0.526784 132.299 0 130.963 0Z" fill="white"/>
<path d="M26.2335 21.6073H13.8078C12.9362 21.6073 12.2314 22.3069 12.2314 23.1721C12.2314 24.0373 12.9362 24.7369 13.8078 24.7369H28.1252C28.1252 24.7369 28.867 24.0005 28.0696 22.8039C27.2535 21.6073 26.2335 21.6073 26.2335 21.6073Z" fill="white"/>
<path d="M25.6028 8.44461L17.8877 21.6994C17.4612 22.4542 17.7023 23.4115 18.4626 23.8349C19.223 24.2583 20.1874 24.019 20.614 23.2642L28.329 10.0094C28.7556 9.25463 28.5145 8.29734 27.7541 7.87392C26.9937 7.43209 26.0293 7.68983 25.6028 8.44461Z" fill="white"/>
<path d="M35.043 27.3879L27.124 13.7465C27.124 13.7465 25.9741 14.6302 25.9741 16.3791C25.9741 18.128 26.6974 19.3062 26.6974 19.3062L32.3168 28.9711C32.7433 29.7259 33.7077 29.9836 34.4681 29.5418C35.2099 29.1 35.4696 28.1427 35.043 27.3879Z" fill="white"/>
<path d="M35.8404 21.6073H31.445C30.5734 21.6073 29.8687 22.3069 29.8687 23.1721C29.8687 24.0373 30.5734 24.7369 31.445 24.7369H35.8404C36.712 24.7369 37.4168 24.0373 37.4168 23.1721C37.4168 22.3253 36.712 21.6073 35.8404 21.6073Z" fill="white"/>
<path d="M25.6955 11.3165L24.0264 8.42619C23.5999 7.68981 22.6169 7.43208 21.8751 7.8555C21.1333 8.27892 20.8736 9.25462 21.3002 9.99099L22.9693 12.8813C23.3959 13.6177 24.3788 13.8754 25.1206 13.452C25.8625 13.0285 26.1221 12.0713 25.6955 11.3165Z" fill="white"/>
<path d="M14.5869 27.3695L15.5884 25.6574C15.5884 25.6574 15.8295 25.1788 16.7753 25.1788C17.7768 25.1788 18.7412 26.0072 18.8154 26.3202L17.3132 28.9343C16.8866 29.6891 15.9222 29.9468 15.1619 29.505C14.4015 29.0816 14.1604 28.1243 14.5869 27.3695Z" fill="white"/>
<path d="M54.9237 30.4797H52.7439L51.5498 26.7552H47.3993L46.2619 30.4797H44.1396L48.2517 17.7997H50.7915L54.9237 30.4797ZM51.1899 25.1926L50.11 21.8816C49.9958 21.5433 49.7817 20.7468 49.4659 19.4929H49.4275C49.3018 20.0322 49.0993 20.8287 48.8209 21.8816L47.7603 25.1926H51.1899V25.1926Z" fill="white"/>
<path d="M65.4985 25.7957C65.4985 27.3507 65.0752 28.5798 64.2286 29.4821C63.4703 30.2853 62.5287 30.6865 61.4047 30.6865C60.1914 30.6865 59.3199 30.2539 58.7891 29.3887H58.7507V34.2052H56.7042V24.3465C56.7042 23.3689 56.6783 22.3656 56.6284 21.3366H58.4282L58.5424 22.7858H58.5808C59.2632 21.6939 60.2989 21.1489 61.6888 21.1489C62.7754 21.1489 63.6825 21.5748 64.4081 22.4275C65.1357 23.2812 65.4985 24.4036 65.4985 25.7957ZM63.4137 25.87C63.4137 24.9801 63.2121 24.2464 62.8071 23.669C62.3646 23.0669 61.7704 22.7658 61.0256 22.7658C60.5207 22.7658 60.0618 22.9335 59.652 23.2641C59.2412 23.5976 58.9724 24.033 58.8467 24.5723C58.7833 24.8238 58.7516 25.0296 58.7516 25.1916V26.7161C58.7516 27.3812 58.957 27.9424 59.3679 28.4007C59.7787 28.859 60.3124 29.0876 60.9689 29.0876C61.7397 29.0876 62.3396 28.7923 62.7687 28.2034C63.1987 27.6137 63.4137 26.8362 63.4137 25.87Z" fill="white"/>
<path d="M76.0928 25.7957C76.0928 27.3507 75.6695 28.5798 74.8219 29.4821C74.0646 30.2853 73.123 30.6865 71.999 30.6865C70.7857 30.6865 69.9141 30.2539 69.3843 29.3887H69.3459V34.2052H67.2995V24.3465C67.2995 23.3689 67.2735 22.3656 67.2236 21.3366H69.0234L69.1376 22.7858H69.176C69.8575 21.6939 70.8932 21.1489 72.284 21.1489C73.3696 21.1489 74.2767 21.5748 75.0043 22.4275C75.729 23.2812 76.0928 24.4036 76.0928 25.7957ZM74.008 25.87C74.008 24.9801 73.8054 24.2464 73.4004 23.669C72.9579 23.0669 72.3656 22.7658 71.6198 22.7658C71.114 22.7658 70.6561 22.9335 70.2453 23.2641C69.8345 23.5976 69.5667 24.033 69.4409 24.5723C69.3785 24.8238 69.3459 25.0296 69.3459 25.1916V26.7161C69.3459 27.3812 69.5513 27.9424 69.9602 28.4007C70.371 28.858 70.9047 29.0876 71.5632 29.0876C72.334 29.0876 72.9339 28.7923 73.3629 28.2034C73.7929 27.6137 74.008 26.8362 74.008 25.87Z" fill="white"/>
<path d="M87.9373 26.9239C87.9373 28.0025 87.5601 28.88 86.8028 29.5574C85.9706 30.2978 84.812 30.6675 83.3233 30.6675C81.9487 30.6675 80.8468 30.4045 80.0127 29.8776L80.4869 28.1844C81.3853 28.7237 82.3711 28.9943 83.4452 28.9943C84.2159 28.9943 84.8159 28.8209 85.2468 28.476C85.6759 28.1311 85.8899 27.668 85.8899 27.0906C85.8899 26.5761 85.7133 26.1426 85.3591 25.791C85.0069 25.4394 84.4185 25.1126 83.5968 24.8106C81.3603 23.9826 80.2431 22.7696 80.2431 21.1747C80.2431 20.1323 80.6347 19.2776 81.4189 18.6126C82.2002 17.9465 83.2426 17.614 84.5461 17.614C85.7085 17.614 86.6742 17.8151 87.4449 18.2162L86.9333 19.8722C86.2134 19.4834 85.3995 19.289 84.4885 19.289C83.7686 19.289 83.2062 19.4653 82.803 19.8159C82.4623 20.1294 82.2914 20.5115 82.2914 20.9641C82.2914 21.4653 82.4863 21.8797 82.8779 22.2056C83.2186 22.5067 83.8378 22.8325 84.7362 23.1841C85.8352 23.6234 86.6425 24.1369 87.1618 24.7258C87.6791 25.3127 87.9373 26.0473 87.9373 26.9239Z" fill="white"/>
<path d="M94.7032 22.8611H92.4475V27.3002C92.4475 28.4293 92.8449 28.9934 93.6416 28.9934C94.0073 28.9934 94.3106 28.9619 94.5506 28.8991L94.6072 30.4416C94.2041 30.5912 93.6733 30.6665 93.0158 30.6665C92.2075 30.6665 91.576 30.4216 91.12 29.9328C90.666 29.4431 90.4376 28.6218 90.4376 27.4679V22.8592H89.0938V21.3347H90.4376V19.6606L92.4475 19.0585V21.3347H94.7032V22.8611Z" fill="white"/>
<path d="M104.881 25.833C104.881 27.2384 104.476 28.3922 103.667 29.2946C102.82 30.2235 101.695 30.6866 100.293 30.6866C98.941 30.6866 97.865 30.2416 97.0626 29.3517C96.2601 28.4618 95.8589 27.3384 95.8589 25.9845C95.8589 24.5677 96.2716 23.4072 97.1 22.5049C97.9264 21.6016 99.0418 21.15 100.444 21.15C101.796 21.15 102.883 21.5949 103.704 22.4858C104.489 23.35 104.881 24.4657 104.881 25.833ZM102.757 25.8987C102.757 25.0555 102.576 24.3323 102.208 23.7292C101.779 22.9994 101.166 22.6354 100.371 22.6354C99.5486 22.6354 98.9237 23.0003 98.4947 23.7292C98.127 24.3333 97.9456 25.0679 97.9456 25.9369C97.9456 26.7801 98.127 27.5033 98.4947 28.1054C98.9372 28.8353 99.5553 29.1993 100.353 29.1993C101.134 29.1993 101.748 28.8277 102.19 28.0864C102.567 27.4718 102.757 26.741 102.757 25.8987Z" fill="white"/>
<path d="M111.532 23.1231C111.33 23.0859 111.114 23.0669 110.887 23.0669C110.168 23.0669 109.611 23.3365 109.219 23.8767C108.878 24.3532 108.708 24.9553 108.708 25.6823V30.4797H106.662L106.681 24.2159C106.681 23.1621 106.655 22.2027 106.604 21.3375H108.387L108.462 23.0869H108.518C108.734 22.4857 109.075 22.0016 109.542 21.6386C109.998 21.3118 110.49 21.1489 111.021 21.1489C111.21 21.1489 111.381 21.1622 111.532 21.186V23.1231Z" fill="white"/>
<path d="M120.685 25.4756C120.685 25.8396 120.661 26.1464 120.61 26.397H114.471C114.495 27.3002 114.791 27.991 115.361 28.4674C115.879 28.8933 116.548 29.1068 117.369 29.1068C118.278 29.1068 119.108 28.9629 119.853 28.6742L120.174 30.0843C119.303 30.4617 118.274 30.6494 117.086 30.6494C115.658 30.6494 114.537 30.232 113.721 29.3983C112.907 28.5646 112.499 27.4451 112.499 26.0406C112.499 24.6619 112.878 23.5138 113.637 22.5981C114.432 21.6206 115.506 21.1318 116.858 21.1318C118.185 21.1318 119.19 21.6206 119.873 22.5981C120.413 23.3747 120.685 24.3351 120.685 25.4756ZM118.733 24.9487C118.747 24.3465 118.613 23.8263 118.336 23.3871C117.982 22.8221 117.438 22.54 116.705 22.54C116.036 22.54 115.492 22.8154 115.076 23.368C114.736 23.8073 114.533 24.3342 114.471 24.9478H118.733V24.9487Z" fill="white"/>
<path d="M51.4762 14.7012H50.4117V13.125H46.1582V14.7012H45.076L45.0405 12.2356H45.5595C45.8167 11.9891 46.0222 11.631 46.176 11.1614C46.3297 10.6888 46.4288 10.1546 46.4731 9.5588L46.6417 6.71466H50.7133V12.2356H51.5338L51.4762 14.7012ZM46.828 12.2356H49.5956V7.61281H47.7106L47.6041 9.41792C47.5243 10.6243 47.2656 11.5635 46.828 12.2356Z" fill="white"/>
<path d="M52.5247 10.6991C52.5247 10.2324 52.6178 9.81269 52.8041 9.43993C52.9904 9.06423 53.2521 8.77659 53.5891 8.577C53.9262 8.37448 54.3136 8.27322 54.7512 8.27322C55.3987 8.27322 55.9236 8.48014 56.3257 8.894C56.7308 9.30785 56.9496 9.85672 56.9822 10.5406L56.9866 10.7916C56.9866 11.2612 56.8949 11.6809 56.7116 12.0507C56.5312 12.4206 56.271 12.7067 55.931 12.9093C55.5939 13.1118 55.2036 13.213 54.7601 13.213C54.0829 13.213 53.5404 12.99 53.1323 12.5438C52.7272 12.0948 52.5247 11.4975 52.5247 10.7519V10.6991ZM53.6024 10.7916C53.6024 11.2817 53.7045 11.6662 53.9085 11.9451C54.1125 12.221 54.3964 12.3589 54.7601 12.3589C55.1238 12.3589 55.4061 12.218 55.6072 11.9363C55.8112 11.6545 55.9132 11.2421 55.9132 10.6991C55.9132 10.2177 55.8083 9.83617 55.5983 9.5544C55.3914 9.27263 55.109 9.13174 54.7512 9.13174C54.3993 9.13174 54.1199 9.27116 53.9129 9.55C53.7059 9.8259 53.6024 10.2398 53.6024 10.7916Z" fill="white"/>
<path d="M60.3237 12.3589C60.5928 12.3589 60.816 12.2811 60.9934 12.1256C61.1709 11.97 61.2655 11.7778 61.2773 11.5488H62.293C62.2812 11.8453 62.188 12.1226 62.0136 12.3809C61.8391 12.6363 61.6026 12.8388 61.3039 12.9885C61.0053 13.1382 60.683 13.213 60.337 13.213C59.6658 13.213 59.1336 12.9973 58.7403 12.5658C58.347 12.1344 58.1504 11.5385 58.1504 10.7783V10.6683C58.1504 9.9433 58.3456 9.36362 58.7359 8.92922C59.1262 8.49188 59.6584 8.27322 60.3326 8.27322C60.9033 8.27322 61.3675 8.43905 61.7253 8.77072C62.086 9.09945 62.2753 9.53239 62.293 10.0695H61.2773C61.2655 9.79655 61.1709 9.57201 60.9934 9.3959C60.819 9.2198 60.5957 9.13174 60.3237 9.13174C59.9748 9.13174 59.7057 9.25795 59.5165 9.51037C59.3273 9.75986 59.2312 10.14 59.2282 10.6507V10.8224C59.2282 11.339 59.3213 11.7249 59.5076 11.9803C59.6969 12.2327 59.9689 12.3589 60.3237 12.3589Z" fill="white"/>
<path d="M67.3377 9.21099H65.7809V13.125H64.7031V9.21099H63.1641V8.36127H67.3377V9.21099Z" fill="white"/>
<path d="M70.2446 11.5928L71.2204 8.36127H72.3691L70.4619 13.847C70.1692 14.6483 69.6725 15.049 68.9717 15.049C68.815 15.049 68.642 15.0225 68.4528 14.9697V14.142L68.6568 14.1552C68.9288 14.1552 69.1328 14.1053 69.2688 14.0055C69.4078 13.9087 69.5172 13.7443 69.5971 13.5124L69.7523 13.103L68.0669 8.36127H69.2289L70.2446 11.5928Z" fill="white"/>
<path d="M77.5159 13.125H76.4381V9.2242H74.5664V13.125H73.4886V8.36127H77.5159V13.125Z" fill="white"/>
<path d="M83.1815 13.125H82.1037V11.201H80.2365V13.125H79.1587V8.36127H80.2365V10.3469H82.1037V8.36127H83.1815V13.125Z" fill="white"/>
<path d="M84.5849 10.6991C84.5849 10.2324 84.678 9.81269 84.8643 9.43993C85.0506 9.06423 85.3123 8.77659 85.6493 8.577C85.9864 8.37448 86.3738 8.27322 86.8114 8.27322C87.4589 8.27322 87.9838 8.48014 88.3859 8.894C88.791 9.30785 89.0098 9.85672 89.0423 10.5406L89.0468 10.7916C89.0468 11.2612 88.9551 11.6809 88.7718 12.0507C88.5914 12.4206 88.3312 12.7067 87.9912 12.9093C87.6541 13.1118 87.2638 13.213 86.8203 13.213C86.1431 13.213 85.6005 12.99 85.1925 12.5438C84.7874 12.0948 84.5849 11.4975 84.5849 10.7519V10.6991ZM85.6626 10.7916C85.6626 11.2817 85.7647 11.6662 85.9687 11.9451C86.1727 12.221 86.4566 12.3589 86.8203 12.3589C87.184 12.3589 87.4663 12.218 87.6674 11.9363C87.8714 11.6545 87.9734 11.2421 87.9734 10.6991C87.9734 10.2177 87.8685 9.83617 87.6585 9.5544C87.4516 9.27263 87.1692 9.13174 86.8114 9.13174C86.4595 9.13174 86.1801 9.27116 85.9731 9.55C85.7661 9.8259 85.6626 10.2398 85.6626 10.7916Z" fill="white"/>
<path d="M93.2107 13.125V8.36127H95.1578C95.8142 8.36127 96.3139 8.47574 96.6569 8.70468C96.9999 8.93068 97.1714 9.25648 97.1714 9.68208C97.1714 9.90221 97.1019 10.1003 96.9629 10.2764C96.8269 10.4496 96.6244 10.5832 96.3553 10.6771C96.6687 10.7417 96.9171 10.8723 97.1004 11.0689C97.2837 11.2656 97.3754 11.4975 97.3754 11.7646C97.3754 12.2078 97.2098 12.5453 96.8787 12.7772C96.5504 13.009 96.0773 13.125 95.4594 13.125H93.2107ZM94.2884 11.0953V12.2797H95.4682C96.0212 12.2797 96.2976 12.083 96.2976 11.6897C96.2976 11.2935 96.0167 11.0953 95.4549 11.0953H94.2884ZM94.2884 10.3293H95.1755C95.7876 10.3293 96.0936 10.1502 96.0936 9.79215C96.0936 9.41645 95.8038 9.22273 95.2243 9.21099H94.2884V10.3293Z" fill="white"/>
</svg>
