<svg width="135" height="40" viewBox="0 0 135 40" fill="none" xmlns="http://www.w3.org/2000/svg">
<path d="M130 0.8C131.114 0.8 132.182 1.2425 132.97 2.03015C133.758 2.8178 134.2 3.88609 134.2 5V35C134.2 36.1139 133.758 37.1822 132.97 37.9698C132.182 38.7575 131.114 39.2 130 39.2H5C3.88609 39.2 2.8178 38.7575 2.03015 37.9698C1.2425 37.1822 0.8 36.1139 0.8 35V5C0.8 3.88609 1.2425 2.8178 2.03015 2.03015C2.8178 1.2425 3.88609 0.8 5 0.8H130ZM130 0H5C3.67392 0 2.40215 0.526784 1.46447 1.46447C0.526784 2.40215 0 3.67392 0 5V35C0 36.3261 0.526784 37.5979 1.46447 38.5355C2.40215 39.4732 3.67392 40 5 40H130C131.326 40 132.598 39.4732 133.536 38.5355C134.473 37.5979 135 36.3261 135 35V5C135 3.67392 134.473 2.40215 133.536 1.46447C132.598 0.526784 131.326 0 130 0Z" fill="#0BBBEF"/>
<path d="M26.0405 21.6074H13.7062C12.8409 21.6074 12.1414 22.307 12.1414 23.1722C12.1414 24.0375 12.8409 24.737 13.7062 24.737H27.9182C27.9182 24.737 28.6546 24.0006 27.863 22.804C27.053 21.6074 26.0405 21.6074 26.0405 21.6074Z" fill="#0BBBEF"/>
<path d="M25.4146 8.44467L17.7563 21.6995C17.3329 22.4542 17.5722 23.4115 18.327 23.835C19.0818 24.2584 20.0391 24.019 20.4625 23.2643L28.1208 10.0095C28.5442 9.25469 28.3049 8.2974 27.5501 7.87398C26.7953 7.43216 25.838 7.68989 25.4146 8.44467Z" fill="#0BBBEF"/>
<path d="M34.7849 27.388L26.9241 13.7466C26.9241 13.7466 25.7827 14.6302 25.7827 16.3791C25.7827 18.128 26.5007 19.3062 26.5007 19.3062L32.0787 28.9712C32.5022 29.726 33.4594 29.9837 34.2142 29.5419C34.9506 29.1 35.2083 28.1428 34.7849 27.388Z" fill="#0BBBEF"/>
<path d="M35.5765 21.6074H31.2135C30.3482 21.6074 29.6487 22.307 29.6487 23.1722C29.6487 24.0375 30.3482 24.737 31.2135 24.737H35.5765C36.4418 24.737 37.1413 24.0375 37.1413 23.1722C37.1413 22.3254 36.4418 21.6074 35.5765 21.6074Z" fill="#0BBBEF"/>
<path d="M25.5067 11.3165L23.8498 8.42625C23.4264 7.68988 22.4507 7.43214 21.7143 7.85556C20.978 8.27898 20.7202 9.25468 21.1436 9.99105L22.8005 12.8813C23.2239 13.6177 24.1996 13.8754 24.936 13.452C25.6724 13.0286 25.9301 12.0713 25.5067 11.3165Z" fill="#0BBBEF"/>
<path d="M14.4794 27.3696L15.4736 25.6575C15.4736 25.6575 15.7129 25.1788 16.6518 25.1788C17.6459 25.1788 18.6032 26.0073 18.6768 26.3202L17.1856 28.9344C16.7622 29.6891 15.8049 29.9469 15.0501 29.505C14.2954 29.0816 14.056 28.1243 14.4794 27.3696Z" fill="#0BBBEF"/>
<path d="M54.5197 30.4799H52.3559L51.1706 26.7554H47.0507L45.9216 30.4799H43.8149L47.8968 17.7999H50.4179L54.5197 30.4799ZM50.8133 25.1928L49.7414 21.8817C49.628 21.5435 49.4155 20.747 49.1021 19.4931H49.064C48.9391 20.0324 48.7381 20.8289 48.4618 21.8817L47.4089 25.1928H50.8133Z" fill="#0BBBEF"/>
<path d="M65.0166 25.7959C65.0166 27.3509 64.5964 28.58 63.756 29.4823C63.0033 30.2855 62.0686 30.6866 60.9528 30.6866C59.7485 30.6866 58.8833 30.2541 58.3564 29.3889H58.3183V34.2054H56.2869V24.3467C56.2869 23.3691 56.2612 22.3658 56.2117 21.3368H57.9982L58.1116 22.786H58.1497C58.8271 21.6941 59.8552 21.149 61.2349 21.149C62.3134 21.149 63.2138 21.575 63.9342 22.4277C64.6564 23.2814 65.0166 24.4038 65.0166 25.7959ZM62.9471 25.8702C62.9471 24.9803 62.747 24.2466 62.3449 23.6692C61.9056 23.067 61.3159 22.766 60.5765 22.766C60.0753 22.766 59.6199 22.9337 59.213 23.2643C58.8052 23.5978 58.5384 24.0332 58.4136 24.5725C58.3507 24.824 58.3193 25.0298 58.3193 25.1918V26.7163C58.3193 27.3814 58.5232 27.9426 58.931 28.4009C59.3388 28.8592 59.8685 29.0878 60.5203 29.0878C61.2854 29.0878 61.8809 28.7925 62.3068 28.2036C62.7336 27.6138 62.9471 26.8363 62.9471 25.8702Z" fill="#0BBBEF"/>
<path d="M75.5329 25.7959C75.5329 27.3509 75.1127 28.58 74.2714 29.4823C73.5197 30.2855 72.5849 30.6866 71.4692 30.6866C70.2649 30.6866 69.3997 30.2541 68.8738 29.3889H68.8357V34.2054H66.8043V24.3467C66.8043 23.3691 66.7785 22.3658 66.729 21.3368H68.5155L68.6289 22.786H68.667C69.3435 21.6941 70.3716 21.149 71.7522 21.149C72.8298 21.149 73.7302 21.575 74.4525 22.4277C75.1718 23.2814 75.5329 24.4038 75.5329 25.7959ZM73.4634 25.8702C73.4634 24.9803 73.2624 24.2466 72.8603 23.6692C72.4211 23.067 71.8332 22.766 71.0929 22.766C70.5907 22.766 70.1362 22.9337 69.7284 23.2643C69.3206 23.5978 69.0548 24.0332 68.93 24.5725C68.8681 24.824 68.8357 25.0298 68.8357 25.1918V26.7163C68.8357 27.3814 69.0396 27.9426 69.4455 28.4009C69.8533 28.8582 70.383 29.0878 71.0366 29.0878C71.8017 29.0878 72.3973 28.7925 72.8232 28.2036C73.25 27.6138 73.4634 26.8363 73.4634 25.8702Z" fill="#0BBBEF"/>
<path d="M87.2907 26.924C87.2907 28.0026 86.9162 28.8801 86.1645 29.5576C85.3384 30.2979 84.1884 30.6676 82.7106 30.6676C81.3461 30.6676 80.2523 30.4046 79.4243 29.8777L79.895 28.1846C80.7868 28.7239 81.7654 28.9945 82.8316 28.9945C83.5967 28.9945 84.1922 28.821 84.62 28.4761C85.0459 28.1312 85.2584 27.6681 85.2584 27.0907C85.2584 26.5762 85.083 26.1427 84.7314 25.7911C84.3818 25.4395 83.7977 25.1127 82.9821 24.8107C80.7621 23.9827 79.653 22.7698 79.653 21.1748C79.653 20.1324 80.0417 19.2777 80.8202 18.6127C81.5958 17.9467 82.6305 17.6141 83.9244 17.6141C85.0783 17.6141 86.0368 17.8152 86.8019 18.2163L86.294 19.8723C85.5794 19.4835 84.7715 19.2892 83.8673 19.2892C83.1526 19.2892 82.5943 19.4654 82.1941 19.8161C81.8559 20.1295 81.6863 20.5116 81.6863 20.9642C81.6863 21.4654 81.8797 21.8798 82.2684 22.2057C82.6067 22.5068 83.2213 22.8327 84.1131 23.1842C85.204 23.6235 86.0054 24.137 86.5208 24.7259C87.0344 25.3128 87.2907 26.0474 87.2907 26.924Z" fill="#0BBBEF"/>
<path d="M94.0067 22.8612H91.7676V27.3004C91.7676 28.4294 92.162 28.9935 92.9529 28.9935C93.3159 28.9935 93.617 28.9621 93.8552 28.8992L93.9114 30.4418C93.5112 30.5914 92.9843 30.6666 92.3316 30.6666C91.5294 30.6666 90.9024 30.4218 90.4499 29.933C89.9992 29.4432 89.7724 28.6219 89.7724 27.4681V22.8593H88.4385V21.3348H89.7724V19.6608L91.7676 19.0586V21.3348H94.0067V22.8612Z" fill="#0BBBEF"/>
<path d="M104.109 25.8331C104.109 27.2385 103.707 28.3923 102.905 29.2946C102.064 30.2236 100.947 30.6867 99.5551 30.6867C98.2135 30.6867 97.1454 30.2417 96.3489 29.3518C95.5523 28.4619 95.1541 27.3385 95.1541 25.9846C95.1541 24.5677 95.5638 23.4072 96.386 22.5049C97.2064 21.6017 98.3136 21.15 99.7056 21.15C101.047 21.15 102.127 21.595 102.941 22.4859C103.721 23.3501 104.109 24.4658 104.109 25.8331ZM102.002 25.8988C102.002 25.0556 101.822 24.3324 101.457 23.7293C101.031 22.9994 100.422 22.6354 99.6332 22.6354C98.8166 22.6354 98.1964 23.0004 97.7705 23.7293C97.4055 24.3334 97.2255 25.068 97.2255 25.9369C97.2255 26.7802 97.4055 27.5033 97.7705 28.1055C98.2097 28.8354 98.8233 29.1993 99.6151 29.1993C100.391 29.1993 101 28.8277 101.439 28.0865C101.813 27.4719 102.002 26.7411 102.002 25.8988Z" fill="#0BBBEF"/>
<path d="M110.712 23.1233C110.511 23.0861 110.297 23.067 110.072 23.067C109.357 23.067 108.805 23.3367 108.416 23.8769C108.078 24.3533 107.908 24.9555 107.908 25.6825V30.4799H105.878L105.897 24.2161C105.897 23.1623 105.871 22.2029 105.821 21.3377H107.59L107.664 23.0871H107.72C107.935 22.4858 108.273 22.0018 108.736 21.6388C109.189 21.312 109.678 21.149 110.204 21.149C110.392 21.149 110.562 21.1624 110.712 21.1862V23.1233Z" fill="#0BBBEF"/>
<path d="M119.797 25.4758C119.797 25.8398 119.773 26.1466 119.723 26.3972H113.629C113.653 27.3004 113.947 27.9912 114.513 28.4676C115.026 28.8935 115.691 29.1069 116.506 29.1069C117.408 29.1069 118.232 28.9631 118.972 28.6744L119.29 30.0845C118.425 30.4618 117.404 30.6495 116.225 30.6495C114.807 30.6495 113.694 30.2322 112.885 29.3985C112.077 28.5648 111.672 27.4453 111.672 26.0408C111.672 24.6621 112.048 23.514 112.802 22.5983C113.591 21.6207 114.657 21.132 115.998 21.132C117.316 21.132 118.314 21.6207 118.991 22.5983C119.528 23.3749 119.797 24.3353 119.797 25.4758ZM117.86 24.9489C117.873 24.3467 117.741 23.8265 117.466 23.3872C117.114 22.8222 116.574 22.5402 115.847 22.5402C115.183 22.5402 114.642 22.8156 114.23 23.3682C113.892 23.8074 113.691 24.3343 113.629 24.9479H117.86V24.9489Z" fill="#0BBBEF"/>
<path d="M51.0975 14.7012H50.0409V13.125H45.8187V14.7012H44.7445L44.7092 12.2357H45.2243C45.4797 11.9892 45.6837 11.6311 45.8363 11.1614C45.9889 10.6889 46.0873 10.1547 46.1313 9.55886L46.2986 6.71472H50.3403V12.2357H51.1548L51.0975 14.7012ZM46.4835 12.2357H49.2308V7.61287H47.3597L47.254 9.41798C47.1747 10.6243 46.9179 11.5636 46.4835 12.2357Z" fill="#0BBBEF"/>
<path d="M52.1383 10.6992C52.1383 10.2325 52.2308 9.81275 52.4157 9.43999C52.6006 9.06429 52.8604 8.77665 53.195 8.57706C53.5296 8.37454 53.9141 8.27328 54.3485 8.27328C54.9913 8.27328 55.5123 8.4802 55.9115 8.89406C56.3136 9.30791 56.5308 9.85678 56.563 10.5407L56.5675 10.7916C56.5675 11.2612 56.4765 11.681 56.2945 12.0508C56.1154 12.4206 55.8572 12.7068 55.5196 12.9093C55.185 13.1118 54.7976 13.2131 54.3573 13.2131C53.6852 13.2131 53.1466 12.99 52.7415 12.5439C52.3394 12.0948 52.1383 11.4975 52.1383 10.752V10.6992ZM53.2082 10.7916C53.2082 11.2818 53.3095 11.6663 53.512 11.9451C53.7145 12.221 53.9963 12.359 54.3573 12.359C54.7183 12.359 54.9986 12.2181 55.1982 11.9363C55.4007 11.6545 55.502 11.2422 55.502 10.6992C55.502 10.2178 55.3978 9.83623 55.1894 9.55446C54.9839 9.27269 54.7036 9.1318 54.3485 9.1318C53.9992 9.1318 53.7218 9.27122 53.5164 9.55006C53.3109 9.82596 53.2082 10.2398 53.2082 10.7916Z" fill="#0BBBEF"/>
<path d="M59.88 12.359C60.1471 12.359 60.3687 12.2812 60.5448 12.1256C60.721 11.9701 60.8149 11.7778 60.8266 11.5489H61.8348C61.8231 11.8453 61.7306 12.1227 61.5575 12.381C61.3843 12.6363 61.1495 12.8389 60.853 12.9886C60.5566 13.1383 60.2367 13.2131 59.8933 13.2131C59.227 13.2131 58.6987 12.9974 58.3083 12.5659C57.9179 12.1344 57.7227 11.5386 57.7227 10.7784V10.6683C57.7227 9.94337 57.9164 9.36368 58.3039 8.92928C58.6913 8.49194 59.2196 8.27328 59.8888 8.27328C60.4553 8.27328 60.9161 8.43911 61.2713 8.77078C61.6294 9.09952 61.8172 9.53245 61.8348 10.0696H60.8266C60.8149 9.79661 60.721 9.57207 60.5448 9.39596C60.3717 9.21986 60.1501 9.1318 59.88 9.1318C59.5337 9.1318 59.2666 9.25801 59.0788 9.51043C58.8909 9.75992 58.7955 10.14 58.7926 10.6507V10.8224C58.7926 11.339 58.885 11.725 59.0699 11.9803C59.2578 12.2328 59.5278 12.359 59.88 12.359Z" fill="#0BBBEF"/>
<path d="M66.8425 9.21105H65.2971V13.125H64.2273V9.21105H62.6995V8.36133H66.8425V9.21105Z" fill="#0BBBEF"/>
<path d="M69.728 11.5929L70.6966 8.36133H71.8369L69.9437 13.8471C69.6531 14.6484 69.16 15.049 68.4644 15.049C68.3089 15.049 68.1372 15.0226 67.9493 14.9698V14.1421L68.1518 14.1553C68.4219 14.1553 68.6244 14.1054 68.7594 14.0056C68.8974 13.9087 69.006 13.7444 69.0852 13.5125L69.2393 13.103L67.5663 8.36133H68.7198L69.728 11.5929Z" fill="#0BBBEF"/>
<path d="M76.9458 13.125H75.8759V9.22426H74.018V13.125H72.9481V8.36133H76.9458V13.125Z" fill="#0BBBEF"/>
<path d="M82.5698 13.125H81.4999V11.2011H79.6464V13.125H78.5765V8.36133H79.6464V10.3469H81.4999V8.36133H82.5698V13.125Z" fill="#0BBBEF"/>
<path d="M83.9628 10.6992C83.9628 10.2325 84.0553 9.81275 84.2402 9.43999C84.4251 9.06429 84.6848 8.77665 85.0194 8.57706C85.354 8.37454 85.7386 8.27328 86.173 8.27328C86.8157 8.27328 87.3367 8.4802 87.7359 8.89406C88.138 9.30791 88.3552 9.85678 88.3875 10.5407L88.3919 10.7916C88.3919 11.2612 88.3009 11.681 88.1189 12.0508C87.9399 12.4206 87.6816 12.7068 87.3441 12.9093C87.0095 13.1118 86.622 13.2131 86.1818 13.2131C85.5096 13.2131 84.971 12.99 84.566 12.5439C84.1639 12.0948 83.9628 11.4975 83.9628 10.752V10.6992ZM85.0327 10.7916C85.0327 11.2818 85.1339 11.6663 85.3364 11.9451C85.539 12.221 85.8207 12.359 86.1818 12.359C86.5428 12.359 86.8231 12.2181 87.0227 11.9363C87.2252 11.6545 87.3265 11.2422 87.3265 10.6992C87.3265 10.2178 87.2223 9.83623 87.0139 9.55446C86.8084 9.27269 86.5281 9.1318 86.173 9.1318C85.8237 9.1318 85.5463 9.27122 85.3408 9.55006C85.1354 9.82596 85.0327 10.2398 85.0327 10.7916Z" fill="#0BBBEF"/>
<path d="M92.5252 13.125V8.36133H94.458C95.1096 8.36133 95.6056 8.4758 95.9461 8.70474C96.2865 8.93075 96.4568 9.25655 96.4568 9.68214C96.4568 9.90227 96.3878 10.1004 96.2498 10.2765C96.1148 10.4497 95.9138 10.5832 95.6467 10.6771C95.9578 10.7417 96.2044 10.8723 96.3863 11.069C96.5683 11.2656 96.6593 11.4975 96.6593 11.7646C96.6593 12.2078 96.4949 12.5454 96.1662 12.7772C95.8404 13.0091 95.3708 13.125 94.7573 13.125H92.5252ZM93.595 11.0954V12.2797H94.7661C95.315 12.2797 95.5894 12.0831 95.5894 11.6898C95.5894 11.2935 95.3106 11.0954 94.7529 11.0954H93.595ZM93.595 10.3293H94.4756C95.0831 10.3293 95.3869 10.1503 95.3869 9.79221C95.3869 9.41651 95.0993 9.22279 94.524 9.21105H93.595V10.3293Z" fill="#0BBBEF"/>
</svg>
