<svg width="47" height="49" viewBox="0 0 47 49" fill="none" xmlns="http://www.w3.org/2000/svg">
<path d="M23.1084 0.554321C19.2854 0.554321 15.5482 1.68798 12.3694 3.81195C9.19071 5.93591 6.71319 8.95478 5.25018 12.4868C3.78717 16.0188 3.40438 19.9054 4.15021 23.6549C4.89605 27.4045 6.73702 30.8487 9.44031 33.552C12.1436 36.2553 15.5878 38.0963 19.3374 38.8421C23.087 39.5879 26.9735 39.2052 30.5055 37.7421C34.0375 36.2791 37.0564 33.8016 39.1804 30.6229C41.3043 27.4441 42.438 23.707 42.438 19.8839C42.438 14.7574 40.4015 9.84083 36.7765 6.21583C33.1515 2.59083 28.2349 0.554321 23.1084 0.554321ZM28.5276 26.1455C28.0296 26.8802 27.327 27.4527 26.5068 27.7919C25.8987 28.0456 25.2574 28.2109 24.6024 28.2827L24.6612 30.7463H22.1412L22.2 28.2551C21.6723 28.1661 21.1581 28.0101 20.67 27.7907C19.8433 27.4202 19.0914 26.9017 18.4512 26.2607C17.8277 25.6452 17.3282 24.9155 16.98 24.1115L19.4316 22.4531C19.7438 23.0671 20.1195 23.6466 20.5524 24.1823C20.9101 24.6232 21.3555 24.9848 21.8604 25.2443C22.3698 25.4909 22.9301 25.6142 23.496 25.6043C23.9211 25.618 24.3445 25.5432 24.7392 25.3847C25.0539 25.2554 25.3168 25.0254 25.4868 24.7307C25.6602 24.4039 25.745 24.0373 25.7328 23.6675C25.7408 23.4332 25.7015 23.1997 25.6171 22.9809C25.5328 22.7622 25.4052 22.5626 25.242 22.3943C24.869 22.0284 24.4338 21.7318 23.9568 21.5183C23.4272 21.2687 22.8432 21.0287 22.2048 20.7983C21.7416 20.633 21.2895 20.4382 20.8512 20.2151C20.3378 19.9559 19.8589 19.6334 19.4256 19.2551C18.9665 18.8573 18.5898 18.3734 18.3168 17.8307C18.0143 17.2053 17.8661 16.5164 17.8848 15.8219C17.8825 15.0525 18.1288 14.3029 18.5868 13.6847C19.0888 13.0071 19.7566 12.4699 20.526 12.1247C21.0568 11.8806 21.6203 11.7149 22.1988 11.6327L22.1376 9.01672H24.6576L24.6 11.6447C25.088 11.7142 25.5643 11.8494 26.016 12.0467C26.707 12.3531 27.3302 12.7936 27.8496 13.3427C28.3145 13.8371 28.7043 14.397 29.0064 15.0047L26.46 16.5239C26.24 16.0936 25.9775 15.6864 25.6764 15.3083C25.4056 14.9654 25.0731 14.676 24.696 14.4551C24.3062 14.2375 23.8656 14.1273 23.4192 14.1359C23.0105 14.121 22.6035 14.1968 22.2276 14.3579C21.9425 14.483 21.7025 14.6924 21.54 14.9579C21.3841 15.2355 21.3069 15.5505 21.3168 15.8687C21.3092 16.0976 21.3524 16.3253 21.4433 16.5355C21.5342 16.7456 21.6705 16.9331 21.8424 17.0843C22.2564 17.4312 22.7285 17.7022 23.2368 17.8847C23.8112 18.1111 24.4264 18.3487 25.0824 18.5975C25.6035 18.7876 26.1074 19.0221 26.5884 19.2983C27.0759 19.5768 27.5273 19.9141 27.9324 20.3027C28.3416 20.698 28.6679 21.1708 28.8924 21.6935C29.1382 22.2973 29.2574 22.945 29.2428 23.5967C29.2412 24.5807 29.0028 25.4303 28.5276 26.1455Z" fill="white"/>
<path d="M42.1128 33.2819H40.9608C40.2261 34.2578 39.4134 35.1724 38.5308 36.0167H42.1128C42.4755 36.017 42.8233 36.1613 43.0798 36.4178C43.3363 36.6742 43.4805 37.022 43.4808 37.3847V44.3699C43.4805 44.7326 43.3363 45.0804 43.0798 45.3369C42.8233 45.5934 42.4755 45.7376 42.1128 45.7379H4.0992C3.73648 45.7376 3.38871 45.5934 3.13223 45.3369C2.87575 45.0804 2.73152 44.7326 2.7312 44.3699V37.3847C2.73183 37.0221 2.87617 36.6745 3.13258 36.4181C3.38899 36.1617 3.73658 36.0174 4.0992 36.0167H7.6824C6.79944 35.1727 5.98674 34.258 5.2524 33.2819H4.0992C3.01208 33.2841 1.97018 33.7172 1.20181 34.4863C0.433439 35.2553 0.0012681 36.2976 0 37.3847V44.3699C0.000950686 45.4572 0.432982 46.4998 1.20139 47.2691C1.96979 48.0385 3.01188 48.4717 4.0992 48.4739H42.1128C43.2009 48.4727 44.244 48.0399 45.0134 47.2705C45.7827 46.5011 46.2155 45.458 46.2168 44.3699V37.3847C46.2155 36.2968 45.7827 35.2538 45.0133 34.4846C44.2439 33.7154 43.2007 33.2829 42.1128 33.2819Z" fill="white"/>
</svg>
