<svg width="48" height="49" viewBox="0 0 48 49" fill="none" xmlns="http://www.w3.org/2000/svg">
<path d="M40.9959 39.4504C40.8494 39.4464 40.7045 39.4812 40.5758 39.5511C40.4471 39.6211 40.3391 39.7237 40.2627 39.8488C40.0707 40.1368 39.9735 40.5508 39.9735 41.0812C39.9735 41.6116 40.0707 42.0148 40.2639 42.304C40.3393 42.4298 40.4469 42.5334 40.5755 42.604C40.7041 42.6747 40.8492 42.7098 40.9959 42.706C41.1407 42.7087 41.2837 42.6729 41.4102 42.6023C41.5367 42.5317 41.6422 42.4287 41.7159 42.304C41.9091 42.0148 42.0063 41.6032 42.0063 41.0812C42.0063 40.5592 41.9091 40.1416 41.7159 39.8512C41.6421 39.7266 41.5366 39.6238 41.4101 39.5534C41.2836 39.483 41.1406 39.4474 40.9959 39.4504Z" fill="white"/>
<path d="M37.6551 29.3524C35.8068 29.3526 34 29.9009 32.4633 30.928C30.9266 31.955 29.7289 33.4147 29.0217 35.1224C28.3146 36.8301 28.1297 38.7092 28.4904 40.522C28.8511 42.3347 29.7413 43.9999 31.0484 45.3067C32.3554 46.6136 34.0207 47.5036 35.8335 47.8641C37.6463 48.2246 39.5254 48.0395 41.233 47.3321C42.9406 46.6247 44.4001 45.4268 45.427 43.89C46.4538 42.3531 47.0019 40.5463 47.0019 38.698C47.0019 37.4706 46.7601 36.2552 46.2904 35.1213C45.8206 33.9874 45.1321 32.9571 44.2642 32.0892C43.3963 31.2214 42.3659 30.533 41.2319 30.0634C40.0979 29.5938 38.8825 29.3522 37.6551 29.3524ZM32.5539 38.3524C32.1291 37.8496 31.9143 37.1632 31.9143 36.3124C31.9143 35.4616 32.1303 34.7872 32.5575 34.282C32.9847 33.7768 33.5847 33.5068 34.3179 33.5068C35.0511 33.5068 35.6451 33.766 36.0843 34.2772C36.5235 34.7884 36.7359 35.4664 36.7359 36.3172C36.7359 37.168 36.5187 37.8604 36.0879 38.3572C35.6571 38.854 35.0559 39.1252 34.3179 39.1252C33.5799 39.1252 32.9907 38.8672 32.5575 38.3548L32.5539 38.3524ZM35.2539 43.8844H33.8031L40.0551 33.5092H41.5107L35.2539 43.8844ZM42.7491 43.1128C42.3123 43.6252 41.7219 43.8844 40.9923 43.8844C40.2627 43.8844 39.6543 43.6252 39.2187 43.1128C38.7831 42.6004 38.5791 41.9272 38.5791 41.0872C38.5791 40.2472 38.7963 39.55 39.2259 39.0472C39.6555 38.5444 40.2591 38.2768 40.9959 38.2768C41.7327 38.2768 42.3219 38.5372 42.7575 39.052C43.1931 39.5668 43.4007 40.2424 43.4007 41.092C43.4007 41.9416 43.1835 42.6124 42.7527 43.1152L42.7491 43.1128Z" fill="white"/>
<path d="M35.0547 37.5472C35.2479 37.2592 35.3451 36.8452 35.3451 36.3148C35.3451 35.7844 35.2467 35.3872 35.0523 35.0956C34.975 34.9721 34.8677 34.8703 34.7402 34.7997C34.6128 34.7291 34.4695 34.6921 34.3239 34.6921C34.1782 34.6921 34.035 34.7291 33.9075 34.7997C33.7801 34.8703 33.6727 34.9721 33.5955 35.0956C33.4035 35.3848 33.3051 35.7964 33.3051 36.3184C33.3051 36.8404 33.4023 37.264 33.5931 37.5508C33.6679 37.6761 33.7749 37.7791 33.903 37.8492C34.0311 37.9193 34.1756 37.9538 34.3215 37.9492C34.4683 37.953 34.6136 37.9178 34.7424 37.8472C34.8712 37.7766 34.9789 37.6731 35.0547 37.5472Z" fill="white"/>
<path d="M37.3659 26.356C38.9317 22.2607 39.0581 17.7547 37.7242 13.5781C36.3903 9.40155 33.6754 5.8029 30.0257 3.3734C26.376 0.943891 22.0085 -0.171971 17.6407 0.209138C13.2729 0.590248 9.16457 2.44566 5.99077 5.47055C2.81697 8.49543 0.766417 12.5099 0.176006 16.8543C-0.414404 21.1988 0.490443 25.6149 2.74189 29.3771C4.99333 33.1392 8.45746 36.0238 12.5652 37.5567C16.6728 39.0896 21.1798 39.1798 25.3455 37.8124C25.5689 34.7512 26.9234 31.8826 29.1453 29.7649C31.3671 27.6473 34.2975 26.4322 37.3659 26.356ZM22.7079 27.3544C22.0998 27.6081 21.4585 27.7734 20.8035 27.8452L20.8623 30.3088H18.3351L18.3939 27.8176C17.8663 27.728 17.3522 27.572 16.8639 27.3532C16.0375 26.9822 15.2856 26.4638 14.6451 25.8232C14.0226 25.207 13.5236 24.4775 13.1751 23.674L15.6267 22.0156C15.9386 22.6293 16.3143 23.2085 16.7475 23.7436C17.1052 24.1852 17.5511 24.5473 18.0567 24.8068C18.5656 25.0535 19.1256 25.1768 19.6911 25.1668C20.1184 25.18 20.5437 25.1044 20.9403 24.9448C21.2579 24.8154 21.5234 24.584 21.6951 24.2872C21.8665 23.9602 21.9492 23.5941 21.9351 23.2252C21.9431 22.9909 21.9037 22.7573 21.8194 22.5386C21.7351 22.3198 21.6075 22.1203 21.4443 21.952C21.0716 21.5857 20.6363 21.289 20.1591 21.076C19.6303 20.8264 19.0463 20.5864 18.4071 20.356C17.9437 20.1907 17.4915 19.9955 17.0535 19.7716C16.54 19.5125 16.061 19.19 15.6279 18.8116C15.1687 18.4133 14.792 17.929 14.5191 17.386C14.2166 16.7605 14.0684 16.0717 14.0871 15.3772C14.0856 14.6101 14.3318 13.8631 14.7891 13.2472C15.2908 12.5697 15.9581 12.0326 16.7271 11.6872C17.258 11.4435 17.8215 11.2781 18.3999 11.1964L18.3387 8.58038H20.8587L20.8011 11.2072C21.2892 11.2761 21.7656 11.4113 22.2171 11.6092C22.9085 11.9148 23.5318 12.3554 24.0507 12.9052C24.5162 13.3991 24.906 13.9592 25.2075 14.5672L22.6611 16.0852C22.4414 15.6551 22.1789 15.2482 21.8775 14.8708C21.607 14.5275 21.2744 14.2381 20.8971 14.0176C20.508 13.8018 20.0687 13.6929 19.6239 13.702C19.2155 13.6873 18.8089 13.7636 18.4335 13.9252C18.1478 14.0498 17.9074 14.2593 17.7447 14.5252C17.5886 14.8027 17.5114 15.1177 17.5215 15.436C17.5139 15.6647 17.5571 15.8922 17.648 16.1022C17.7389 16.3122 17.8752 16.4994 18.0471 16.6504C18.4603 16.9956 18.9311 17.2653 19.4379 17.4472C20.0139 17.6728 20.6291 17.9104 21.2835 18.16C21.8047 18.3499 22.3086 18.5843 22.7895 18.8608C23.2772 19.1388 23.7286 19.4762 24.1335 19.8652C24.5431 20.2601 24.8695 20.733 25.0935 21.256C25.3394 21.8597 25.4586 22.5075 25.4439 23.1592C25.4439 24.1416 25.2063 24.9912 24.7311 25.708C24.2324 26.443 23.5289 27.0155 22.7079 27.3544Z" fill="white"/>
</svg>
