<svg width="135" height="40" viewBox="0 0 135 40" fill="none" xmlns="http://www.w3.org/2000/svg">
<path d="M130 0.8C131.114 0.8 132.182 1.2425 132.97 2.03015C133.758 2.8178 134.2 3.88609 134.2 5V35C134.2 36.1139 133.758 37.1822 132.97 37.9698C132.182 38.7575 131.114 39.2 130 39.2H5C3.88609 39.2 2.8178 38.7575 2.03015 37.9698C1.2425 37.1822 0.8 36.1139 0.8 35V5C0.8 3.88609 1.2425 2.8178 2.03015 2.03015C2.8178 1.2425 3.88609 0.8 5 0.8H130ZM130 0H5C3.67392 0 2.40215 0.526784 1.46447 1.46447C0.526784 2.40215 0 3.67392 0 5V35C0 36.3261 0.526784 37.5979 1.46447 38.5355C2.40215 39.4732 3.67392 40 5 40H130C131.326 40 132.598 39.4732 133.536 38.5355C134.473 37.5979 135 36.3261 135 35V5C135 3.67392 134.473 2.40215 133.536 1.46447C132.598 0.526784 131.326 0 130 0Z" fill="#0BBBEF"/>
<path d="M68.1401 21.75C67.3004 21.7539 66.4807 22.0066 65.7844 22.476C65.0881 22.9453 64.5465 23.6105 64.2279 24.3874C63.9093 25.1643 63.828 26.0182 63.9942 26.8413C64.1605 27.6644 64.5668 28.4198 65.162 29.0122C65.7571 29.6046 66.5144 30.0074 67.3383 30.1697C68.1622 30.3321 69.0157 30.2468 69.7911 29.9245C70.5665 29.6023 71.2291 29.0575 71.6952 28.3591C72.1613 27.6606 72.4101 26.8397 72.4101 26C72.4183 25.4379 72.3132 24.88 72.1013 24.3593C71.8893 23.8387 71.5748 23.366 71.1764 22.9695C70.7779 22.573 70.3038 22.2606 69.7822 22.0511C69.2606 21.8416 68.7021 21.7392 68.1401 21.75ZM68.1401 28.58C67.6237 28.6161 67.1083 28.496 66.6611 28.2354C66.2138 27.9747 65.8553 27.5855 65.6321 27.1184C65.409 26.6513 65.3315 26.1279 65.4098 25.6161C65.4881 25.1044 65.7185 24.6281 66.0711 24.249C66.4237 23.87 66.8821 23.6058 67.3869 23.4908C67.8916 23.3758 68.4193 23.4152 68.9013 23.6041C69.3833 23.7929 69.7973 24.1224 70.0896 24.5497C70.3819 24.977 70.5388 25.4823 70.5401 26C70.5562 26.328 70.5065 26.6559 70.3938 26.9644C70.2812 27.2729 70.1079 27.5557 69.8842 27.7962C69.6606 28.0366 69.391 28.2299 69.0914 28.3645C68.7919 28.4991 68.4684 28.5724 68.1401 28.58ZM58.8301 21.75C57.99 21.752 57.1693 22.0029 56.4717 22.4711C55.7741 22.9393 55.2309 23.6038 54.9108 24.3805C54.5906 25.1573 54.5079 26.0115 54.673 26.8352C54.8381 27.659 55.2437 28.4153 55.8384 29.0087C56.4332 29.6021 57.1905 30.0059 58.0146 30.1691C58.8388 30.3322 59.6928 30.2475 60.4688 29.9255C61.2448 29.6036 61.908 29.0588 62.3745 28.3601C62.8411 27.6614 63.0901 26.8401 63.0901 26C63.0983 25.4379 62.9932 24.88 62.7813 24.3593C62.5693 23.8387 62.2548 23.366 61.8564 22.9695C61.4579 22.573 60.9838 22.2606 60.4622 22.0511C59.9406 21.8416 59.3821 21.7392 58.8201 21.75H58.8301ZM58.8301 28.58C58.3134 28.6181 57.7972 28.4999 57.3487 28.2406C56.9002 27.9812 56.5402 27.5929 56.3155 27.1261C56.0907 26.6593 56.0118 26.1356 56.0888 25.6233C56.1658 25.111 56.3953 24.6338 56.7474 24.2537C57.0995 23.8736 57.5578 23.6084 58.0628 23.4924C58.5677 23.3765 59.0959 23.4153 59.5785 23.6037C60.0611 23.7921 60.4757 24.1215 60.7685 24.5489C61.0613 24.9763 61.2187 25.4819 61.2201 26C61.2362 26.328 61.1865 26.6559 61.0738 26.9644C60.9612 27.2729 60.7879 27.5557 60.5642 27.7962C60.3406 28.0366 60.071 28.2299 59.7714 28.3645C59.4719 28.4991 59.1484 28.5724 58.8201 28.58H58.8301ZM47.7401 23.06V24.86H52.0601C51.9924 25.7078 51.6399 26.5078 51.0601 27.13C50.6279 27.5702 50.1083 27.9151 49.5348 28.1425C48.9613 28.3698 48.3465 28.4746 47.7301 28.45C46.4571 28.45 45.2362 27.9443 44.336 27.0441C43.4358 26.1439 42.9301 24.923 42.9301 23.65C42.9301 22.377 43.4358 21.1561 44.336 20.2559C45.2362 19.3557 46.4571 18.85 47.7301 18.85C48.9479 18.8301 50.1239 19.294 51.0001 20.14L52.2701 18.87C51.6786 18.271 50.9728 17.7969 50.1947 17.4757C49.4166 17.1544 48.5819 16.9927 47.7401 17C46.8511 16.9654 45.9643 17.1106 45.1327 17.427C44.3012 17.7433 43.5421 18.2243 42.9009 18.841C42.2596 19.4577 41.7495 20.1976 41.4011 21.0162C41.0527 21.8348 40.873 22.7153 40.873 23.605C40.873 24.4947 41.0527 25.3752 41.4011 26.1938C41.7495 27.0124 42.2596 27.7522 42.9009 28.369C43.5421 28.9857 44.3012 29.4667 45.1327 29.783C45.9643 30.0994 46.8511 30.2446 47.7401 30.21C48.5961 30.2487 49.4504 30.1036 50.2455 29.7845C51.0407 29.4654 51.7583 28.9796 52.3501 28.36C53.3978 27.2089 53.9571 25.6958 53.9101 24.14C53.9133 23.761 53.8798 23.3825 53.8101 23.01L47.7401 23.06ZM93.0501 24.46C92.7893 23.6927 92.3016 23.0228 91.6516 22.5388C91.0016 22.0549 90.2199 21.7798 89.4101 21.75C88.8631 21.7489 88.3217 21.8601 87.8193 22.0765C87.317 22.293 86.8644 22.6102 86.4895 23.0085C86.1146 23.4069 85.8254 23.8778 85.6397 24.3924C85.4541 24.9069 85.3759 25.4541 85.4101 26C85.398 26.5589 85.4986 27.1145 85.706 27.6337C85.9133 28.1528 86.2233 28.6249 86.6172 29.0216C87.0111 29.4183 87.4809 29.7315 87.9985 29.9426C88.5162 30.1536 89.0711 30.2582 89.6301 30.25C90.3296 30.2538 91.0191 30.084 91.6369 29.7559C92.2547 29.4278 92.7815 28.9516 93.1701 28.37L91.7201 27.37C91.5037 27.7308 91.1973 28.0292 90.831 28.236C90.4646 28.4429 90.0508 28.5511 89.6301 28.55C89.1969 28.5665 88.7688 28.4523 88.4014 28.2222C88.0341 27.9922 87.7444 27.6569 87.5701 27.26L93.2601 24.91L93.0501 24.46ZM87.2501 25.88C87.2298 25.5707 87.2715 25.2604 87.3726 24.9674C87.4738 24.6744 87.6323 24.4045 87.8391 24.1736C88.0458 23.9426 88.2966 23.7553 88.5766 23.6224C88.8567 23.4896 89.1604 23.414 89.4701 23.4C89.7927 23.3787 90.1144 23.4527 90.3953 23.6127C90.6762 23.7727 90.9039 24.0117 91.0501 24.3L87.2501 25.88ZM82.6301 30H84.5001V17.5H82.6301V30ZM79.5701 22.7H79.5001C79.2183 22.3849 78.873 22.1329 78.487 21.9606C78.101 21.7882 77.6829 21.6994 77.2601 21.7C76.1673 21.753 75.1368 22.2244 74.3821 23.0166C73.6274 23.8087 73.2064 24.8609 73.2064 25.955C73.2064 27.0491 73.6274 28.1013 74.3821 28.8934C75.1368 29.6856 76.1673 30.157 77.2601 30.21C77.6839 30.2171 78.104 30.1313 78.491 29.9585C78.8781 29.7857 79.2225 29.5302 79.5001 29.21H79.5601V29.82C79.5601 31.45 78.6901 32.32 77.2901 32.32C76.8238 32.3091 76.3713 32.1597 75.9902 31.8908C75.6091 31.6219 75.3167 31.2456 75.1501 30.81L73.5201 31.49C73.8269 32.2364 74.3497 32.874 75.0214 33.3212C75.6932 33.7685 76.4832 34.0048 77.2901 34C79.4801 34 81.2901 32.71 81.2901 29.57V22H79.5701V22.7ZM77.4301 28.58C76.7851 28.5232 76.1847 28.2267 75.7474 27.7492C75.31 27.2716 75.0675 26.6475 75.0675 26C75.0675 25.3524 75.31 24.7284 75.7474 24.2508C76.1847 23.7733 76.7851 23.4768 77.4301 23.42C77.7499 23.4364 78.0632 23.5167 78.3516 23.656C78.6399 23.7954 78.8974 23.9911 79.109 24.2315C79.3205 24.4719 79.4818 24.7523 79.5833 25.056C79.6848 25.3597 79.7245 25.6807 79.7001 26C79.7274 26.3207 79.6893 26.6436 79.5883 26.9492C79.4872 27.2547 79.3252 27.5366 79.1121 27.7778C78.8989 28.019 78.6391 28.2144 78.3483 28.3523C78.0575 28.4902 77.7417 28.5676 77.4201 28.58H77.4301ZM101.81 17.5H97.3401V30H99.2101V25.26H101.82C102.353 25.2983 102.888 25.2264 103.392 25.0487C103.896 24.8711 104.358 24.5915 104.749 24.2275C105.14 23.8635 105.452 23.4227 105.665 22.9328C105.879 22.4429 105.989 21.9143 105.989 21.38C105.989 20.8457 105.879 20.3171 105.665 19.8272C105.452 19.3373 105.14 18.8965 104.749 18.5325C104.358 18.1685 103.896 17.8889 103.392 17.7113C102.888 17.5336 102.353 17.4617 101.82 17.5H101.81ZM101.81 23.5H99.2001V19.24H101.85C102.419 19.24 102.965 19.466 103.367 19.8683C103.769 20.2705 103.995 20.8161 103.995 21.385C103.995 21.9539 103.769 22.4995 103.367 22.9017C102.965 23.304 102.419 23.53 101.85 23.53L101.81 23.5ZM113.34 21.7C112.659 21.6593 111.981 21.8184 111.39 22.1577C110.798 22.497 110.319 23.0018 110.01 23.61L111.67 24.3C111.834 23.9983 112.082 23.7508 112.383 23.5874C112.685 23.4241 113.028 23.352 113.37 23.38C113.607 23.3523 113.848 23.3721 114.078 23.4383C114.307 23.5045 114.521 23.6158 114.708 23.7657C114.894 23.9156 115.048 24.101 115.162 24.3112C115.276 24.5214 115.346 24.7522 115.37 24.99V25.12C114.77 24.802 114.1 24.6371 113.42 24.64C111.63 24.64 109.82 25.64 109.82 27.45C109.838 27.8359 109.933 28.2144 110.099 28.563C110.266 28.9117 110.5 29.2234 110.789 29.4798C111.078 29.7362 111.416 29.932 111.782 30.0557C112.148 30.1794 112.535 30.2285 112.92 30.2C113.391 30.2338 113.862 30.1402 114.285 29.9291C114.707 29.718 115.065 29.397 115.32 29H115.38V30H117.18V25.19C117.18 23 115.52 21.73 113.39 21.73L113.34 21.7ZM113.11 28.55C112.5 28.55 111.65 28.24 111.65 27.49C111.65 26.49 112.71 26.16 113.65 26.16C114.244 26.1453 114.831 26.2904 115.35 26.58C115.288 27.1214 115.032 27.622 114.629 27.9895C114.227 28.357 113.705 28.5667 113.16 28.58L113.11 28.55ZM123.74 22L121.6 27.42H121.54L119.32 22H117.32L120.65 29.58L118.75 33.79H120.7L125.82 22H123.74ZM106.93 30H108.8V17.5H106.93V30Z" fill="#0BBBEF"/>
<path d="M42.1103 14.27H41.3703V12.27H42.0003C42.2875 11.9656 42.5045 11.6018 42.6358 11.2044C42.7671 10.807 42.8096 10.3856 42.7603 9.97V7H46.7603V12.26H47.4303V14.26H46.6903V13H42.1103V14.27ZM43.5003 10C43.5469 10.8066 43.3482 11.6085 42.9303 12.3H45.9303V7.74H43.5003V10ZM53.4103 12.22C52.8257 12.8013 52.0347 13.1277 51.2103 13.1277C50.3858 13.1277 49.5949 12.8013 49.0103 12.22C48.442 11.6185 48.1255 10.8224 48.1255 9.995C48.1255 9.16756 48.442 8.37147 49.0103 7.77C49.2984 7.47974 49.6412 7.24937 50.0187 7.09217C50.3963 6.93496 50.8013 6.85403 51.2103 6.85403C51.6193 6.85403 52.0242 6.93496 52.4018 7.09217C52.7794 7.24937 53.1221 7.47974 53.4103 7.77C53.9807 8.37032 54.2988 9.16684 54.2988 9.995C54.2988 10.8232 53.9807 11.6197 53.4103 12.22ZM49.5803 11.72C50.0132 12.1511 50.5993 12.3932 51.2103 12.3932C51.8212 12.3932 52.4073 12.1511 52.8403 11.72C53.2675 11.249 53.5042 10.6359 53.5042 10C53.5042 9.36411 53.2675 8.75098 52.8403 8.28C52.4073 7.84887 51.8212 7.60682 51.2103 7.60682C50.5993 7.60682 50.0132 7.84887 49.5803 8.28C49.153 8.75098 48.9164 9.36411 48.9164 10C48.9164 10.6359 49.153 11.249 49.5803 11.72ZM58.1803 13.13C57.7674 13.1382 57.3572 13.0628 56.9743 12.9083C56.5914 12.7537 56.2437 12.5233 55.9522 12.2309C55.6607 11.9384 55.4314 11.59 55.2781 11.2066C55.1249 10.8232 55.0507 10.4128 55.0603 10C55.0507 9.5872 55.1249 9.17674 55.2781 8.79335C55.4314 8.40995 55.6607 8.06155 55.9522 7.76911C56.2437 7.47667 56.5914 7.24626 56.9743 7.09174C57.3572 6.93722 57.7674 6.86179 58.1803 6.87C58.5987 6.85964 59.014 6.94423 59.3951 7.11743C59.7761 7.29063 60.1129 7.54793 60.3803 7.87L59.8403 8.39C59.6427 8.13924 59.3881 7.93941 59.0976 7.80719C58.807 7.67497 58.4891 7.61422 58.1703 7.62999C57.8633 7.62202 57.5579 7.67639 57.2726 7.78984C56.9873 7.90328 56.7279 8.07343 56.5103 8.29C56.0767 8.76379 55.8362 9.38276 55.8362 10.025C55.8362 10.6672 56.0767 11.2862 56.5103 11.76C56.7279 11.9766 56.9873 12.1467 57.2726 12.2602C57.5579 12.3736 57.8633 12.428 58.1703 12.42C58.5222 12.4169 58.8691 12.3353 59.1856 12.1814C59.5022 12.0275 59.7805 11.8049 60.0003 11.53L60.5403 12.07C60.2681 12.4001 59.9267 12.6664 59.5403 12.85C59.1134 13.0433 58.6488 13.139 58.1803 13.13ZM63.6803 13H62.9103V7.74H61.2303V7H65.3503V7.74H63.6803V13ZM70.6503 7L68.3803 12.06C68.2894 12.3593 68.1078 12.623 67.8606 12.8147C67.6134 13.0064 67.3128 13.1166 67.0003 13.13C66.7936 13.1274 66.5895 13.0832 66.4003 13L66.6003 12.29C66.7218 12.3608 66.8596 12.3987 67.0003 12.4C67.1472 12.4111 67.294 12.3761 67.4203 12.3C67.5407 12.198 67.6336 12.0673 67.6903 11.92L67.9103 11.44L65.9103 7.01H66.8203L68.3003 10.45L69.7403 7H70.6503ZM71.5203 13V7H75.8603V13H75.0903V7.74H72.2903V13H71.5203ZM77.2303 13V7H78.0003V9.57H81.0003V7H81.7703V13H81.0003V10.29H78.0003V13H77.2303ZM88.0603 12.22C87.4757 12.8013 86.6847 13.1277 85.8603 13.1277C85.0358 13.1277 84.2449 12.8013 83.6603 12.22C83.092 11.6185 82.7755 10.8224 82.7755 9.995C82.7755 9.16756 83.092 8.37147 83.6603 7.77C83.9484 7.47974 84.2911 7.24937 84.6687 7.09217C85.0463 6.93496 85.4513 6.85403 85.8603 6.85403C86.2693 6.85403 86.6742 6.93496 87.0518 7.09217C87.4294 7.24937 87.7721 7.47974 88.0603 7.77C88.6307 8.37032 88.9488 9.16684 88.9488 9.995C88.9488 10.8232 88.6307 11.6197 88.0603 12.22ZM84.2303 11.72C84.6632 12.1511 85.2493 12.3932 85.8603 12.3932C86.4712 12.3932 87.0573 12.1511 87.4903 11.72C87.9175 11.249 88.1542 10.6359 88.1542 10C88.1542 9.36411 87.9175 8.75098 87.4903 8.28C87.0573 7.84887 86.4712 7.60682 85.8603 7.60682C85.2493 7.60682 84.6632 7.84887 84.2303 8.28C83.803 8.75098 83.5664 9.36411 83.5664 10C83.5664 10.6359 83.803 11.249 84.2303 11.72ZM92.0903 13V7H94.2603C94.7108 6.99149 95.1475 7.15613 95.4803 7.45999C95.6474 7.60501 95.7805 7.78497 95.8704 7.98715C95.9603 8.18933 96.0046 8.40879 96.0003 8.63C96.005 8.89656 95.9282 9.15821 95.7803 9.37999C95.6334 9.59543 95.429 9.76523 95.1903 9.87C95.4803 9.96602 95.7347 10.1472 95.9203 10.39C96.1125 10.635 96.2149 10.9386 96.2103 11.25C96.2154 11.4805 96.1696 11.7094 96.0763 11.9202C95.983 12.1311 95.8443 12.3188 95.6703 12.47C95.3221 12.7912 94.8639 12.9666 94.3903 12.96L92.0903 13ZM92.8603 9.57H94.2603C94.391 9.57545 94.5214 9.55234 94.6423 9.50225C94.7632 9.45217 94.8717 9.37632 94.9603 9.28C95.0488 9.19971 95.1203 9.10242 95.1704 8.99392C95.2205 8.88542 95.2483 8.76794 95.252 8.64849C95.2557 8.52903 95.2354 8.41005 95.1921 8.29863C95.1489 8.18721 95.0836 8.08565 95.0003 8C94.9167 7.90547 94.8134 7.83049 94.6976 7.78037C94.5818 7.73025 94.4564 7.70623 94.3303 7.70999H92.9003L92.8603 9.57ZM92.8603 12.26H94.4103C94.5457 12.2645 94.6805 12.2391 94.8049 12.1855C94.9294 12.1319 95.0405 12.0515 95.1303 11.95C95.3066 11.7671 95.4067 11.524 95.4103 11.27C95.4103 11.0048 95.3049 10.7504 95.1174 10.5629C94.9298 10.3754 94.6755 10.27 94.4103 10.27H92.8903L92.8603 12.26Z" fill="#0BBBEF"/>
<path fill-rule="evenodd" clip-rule="evenodd" d="M51.2103 6.95403C50.8145 6.95403 50.4226 7.03235 50.0572 7.18448C49.6922 7.33646 49.3608 7.55909 49.0821 7.83957C48.532 8.42238 48.2255 9.19351 48.2255 9.995C48.2255 10.7964 48.5319 11.5674 49.0819 12.1502C49.6476 12.7122 50.4128 13.0277 51.2103 13.0277C52.0078 13.0277 52.773 12.7122 53.3387 12.1501C53.8909 11.5685 54.1988 10.797 54.1988 9.995C54.1988 9.19285 53.8909 8.42132 53.3385 7.83967C53.0598 7.55914 52.7284 7.33648 52.3634 7.18448C51.998 7.03235 51.6061 6.95403 51.2103 6.95403ZM49.9803 6.99985C50.3701 6.83757 50.7881 6.75403 51.2103 6.75403C51.6325 6.75403 52.0505 6.83757 52.4402 6.99985C52.83 7.16212 53.1838 7.39992 53.4812 7.69954L53.4828 7.70109C54.0709 8.32001 54.3988 9.1412 54.3988 9.995C54.3988 10.8488 54.0709 11.67 53.4828 12.2889L53.4808 12.2909C52.8775 12.8909 52.0611 13.2277 51.2103 13.2277C50.3594 13.2277 49.5431 12.8909 48.9397 12.2909L48.9375 12.2887C48.3518 11.6687 48.0255 10.848 48.0255 9.995C48.0255 9.14202 48.3518 8.32136 48.9376 7.70132L48.9393 7.69952C49.2367 7.3999 49.5905 7.16212 49.9803 6.99985ZM85.8603 6.95403C85.4645 6.95403 85.0726 7.03235 84.7072 7.18448C84.3422 7.33645 84.0108 7.55906 83.7322 7.83952C83.182 8.42233 82.8755 9.19349 82.8755 9.995C82.8755 10.7964 83.1819 11.5674 83.7319 12.1502C84.2977 12.7122 85.0628 13.0277 85.8603 13.0277C86.6578 13.0277 87.423 12.7122 87.9888 12.15C88.541 11.5684 88.8488 10.797 88.8488 9.995C88.8488 9.19286 88.5409 8.42135 87.9886 7.8397C87.7099 7.55916 87.3784 7.33648 87.0134 7.18448C86.648 7.03235 86.2561 6.95403 85.8603 6.95403ZM84.6303 6.99985C85.0201 6.83757 85.4381 6.75403 85.8603 6.75403C86.2825 6.75403 86.7005 6.83757 87.0902 6.99985C87.48 7.16212 87.8338 7.39992 88.1312 7.69954L88.1328 7.70109C88.7209 8.32003 89.0488 9.1412 89.0488 9.995C89.0488 10.8488 88.7209 11.67 88.1328 12.2889L88.1308 12.2909C87.5275 12.8909 86.7111 13.2277 85.8603 13.2277C85.0094 13.2277 84.1931 12.8909 83.5898 12.2909L83.5875 12.2887C83.0018 11.6687 82.6755 10.848 82.6755 9.995C82.6755 9.14202 83.0018 8.32136 83.5876 7.70132L83.5893 7.69952C83.8867 7.3999 84.2405 7.16212 84.6303 6.99985ZM59.3537 7.20847C58.9864 7.04152 58.5861 6.95998 58.1827 6.96997L58.1783 6.97008C57.7789 6.96214 57.3821 7.035 57.0117 7.18447C56.6413 7.33394 56.305 7.55683 56.0231 7.83971C55.7411 8.12259 55.5193 8.45961 55.371 8.83047C55.2227 9.20134 55.151 9.59838 55.1602 9.99769L55.1603 10.0023C55.1511 10.4016 55.2227 10.7987 55.371 11.1695C55.5193 11.5404 55.7411 11.8774 56.0231 12.1603C56.305 12.4432 56.6413 12.6661 57.0117 12.8155C57.3821 12.965 57.7789 13.038 58.1783 13.03L58.1803 13.13L58.1822 13.03C58.6355 13.0387 59.0851 12.9462 59.4982 12.7593C59.8437 12.595 60.1519 12.3622 60.4043 12.0754L60.0068 11.6779C59.79 11.9253 59.5258 12.1272 59.2294 12.2713C58.8997 12.4316 58.5385 12.5166 58.172 12.52C57.8518 12.5282 57.5333 12.4714 57.2357 12.3531C56.9378 12.2346 56.667 12.057 56.4397 11.8309L56.4364 11.8276C55.986 11.3353 55.7362 10.6922 55.7362 10.025C55.7362 9.35777 55.986 8.71472 56.4365 8.22249L56.4397 8.21903C56.6669 7.99293 56.9378 7.81535 57.2357 7.69691C57.5324 7.57894 57.8499 7.52215 58.1691 7.52993C58.5026 7.51403 58.8351 7.57787 59.139 7.71617C59.4105 7.83976 59.6523 8.01961 59.8484 8.24336L60.2428 7.86351C59.9956 7.58584 59.6928 7.3626 59.3537 7.20847ZM58.1803 13.23C57.7546 13.2382 57.3317 13.1603 56.9369 13.001C56.5415 12.8414 56.1824 12.6035 55.8814 12.3015C55.5804 11.9995 55.3436 11.6397 55.1853 11.2438C55.0273 10.8486 54.9507 10.4255 54.9602 10C54.9507 9.57449 55.0273 9.15143 55.1853 8.75622C55.3436 8.3603 55.5804 8.0005 55.8814 7.69851C56.1824 7.39652 56.5415 7.15857 56.9369 6.999C57.3316 6.83971 57.7545 6.76181 58.18 6.76997C58.6128 6.75959 59.0423 6.84725 59.4364 7.02639C59.8312 7.20585 60.1802 7.47244 60.4572 7.80613L60.5165 7.8776L59.8301 8.53865L59.7617 8.45187C59.5741 8.21366 59.3321 8.02382 59.0561 7.89821C58.7801 7.7726 58.4781 7.71488 58.1752 7.72987L58.1677 7.73025C57.8742 7.72262 57.5823 7.77432 57.3096 7.88276C57.0375 7.99092 56.7902 8.153 56.5825 8.35924C56.1668 8.81437 55.9362 9.40853 55.9362 10.025C55.9362 10.6415 56.1668 11.2356 56.5825 11.6908C56.7902 11.897 57.0375 12.0591 57.3096 12.1672C57.5823 12.2757 57.8742 12.3277 58.1677 12.32L58.1694 12.32C58.5065 12.317 58.8387 12.2389 59.1419 12.0915C59.4451 11.944 59.7116 11.7309 59.9222 11.4676L59.9919 11.3803L60.6752 12.0635L60.6174 12.1336C60.3359 12.475 59.9829 12.7504 59.5832 12.9403L59.5815 12.9411C59.1417 13.1403 58.663 13.239 58.1803 13.23ZM95.4128 7.53384C95.099 7.24724 94.6871 7.09195 94.2622 7.09998L94.2603 7.1H92.1903V12.8982L94.3885 12.86L94.3916 12.86C94.8397 12.8662 95.2731 12.7003 95.6025 12.3965L95.6047 12.3945C95.7676 12.2529 95.8975 12.0772 95.9849 11.8797C96.0722 11.6823 96.1151 11.4681 96.1103 11.2522L96.1103 11.2485C96.1146 10.96 96.0197 10.6787 95.8416 10.4517L95.8408 10.4507C95.6675 10.2239 95.4298 10.0546 95.1588 9.96493L94.9116 9.88309L95.1501 9.77843C95.3715 9.68127 95.5611 9.52386 95.6973 9.32416C95.8338 9.11937 95.9046 8.87783 95.9003 8.63176V8.62804C95.9043 8.42148 95.8629 8.21656 95.779 8.02777C95.6951 7.83898 95.5708 7.67093 95.4147 7.53552L95.4128 7.53384ZM95.5468 7.38534C95.1955 7.06494 94.7348 6.89126 94.2593 6.9H91.9903V13.1018L94.3889 13.06L94.3905 13.06C94.8887 13.0665 95.3705 12.8821 95.737 12.5445C95.9216 12.3838 96.0687 12.1845 96.1677 11.9607C96.2668 11.737 96.3154 11.4942 96.3103 11.2497L96.3102 11.2515L96.2103 11.25L96.3102 11.2478L96.3103 11.2497C96.3149 10.9162 96.2051 10.5912 95.9993 10.3287C95.8464 10.1288 95.6496 9.96808 95.4253 9.8582C95.598 9.74955 95.7471 9.60616 95.8629 9.43631L95.8635 9.43549C96.0224 9.19728 96.1049 8.91634 96.1003 8.63007L96.1002 8.63195L96.0003 8.63L96.1002 8.62823L96.1003 8.63007C96.1046 8.39485 96.0573 8.16154 95.9618 7.94654C95.8662 7.73137 95.7245 7.53981 95.5468 7.38534ZM42.6603 6.9H46.8603V12.16H47.5303V14.36H46.5903V13.1H42.2103V14.37H41.2703V12.17H41.9567C42.2194 11.8827 42.4186 11.543 42.5408 11.1731C42.6676 10.7895 42.7086 10.3829 42.661 9.98178L42.6603 9.97591V6.9ZM42.8603 7.1V9.96413C42.9102 10.3924 42.866 10.8264 42.7307 11.2358C42.5948 11.6471 42.3703 12.0236 42.073 12.3386L42.0434 12.37H41.4703V14.17H42.0103V12.9H46.7903V14.16H47.3303V12.36H46.6603V7.1H42.8603ZM61.1303 6.9H65.4503V7.84H63.7803V13.1H62.8103V7.84H61.1303V6.9ZM61.3303 7.1V7.64H63.0103V12.9H63.5803V7.64H65.2503V7.1H61.3303ZM69.6736 6.9H70.8047L68.4741 12.0952C68.3766 12.4118 68.1838 12.6907 67.9219 12.8937C67.6583 13.0981 67.3378 13.2156 67.0046 13.2299L66.999 13.2301C66.7789 13.2273 66.5616 13.1801 66.36 13.0915L66.2804 13.0566L66.539 12.1386L66.6506 12.2036C66.7571 12.2656 66.8779 12.2988 67.0012 12.3L67.0078 12.3001C67.1314 12.3094 67.2549 12.281 67.3618 12.2184C67.4665 12.1281 67.5473 12.0132 67.5969 11.8841L67.5992 11.8782L67.8004 11.4397L65.7554 6.91H66.8861L68.2989 10.1937L69.6736 6.9ZM69.8069 7.1L68.3017 10.7063L66.7544 7.11H66.0651L68.0201 11.4403L67.7824 11.9589C67.7196 12.1207 67.6173 12.2642 67.4849 12.3763L67.4788 12.3815L67.4719 12.3856C67.3288 12.4719 67.1626 12.5118 66.996 12.5C66.8818 12.4985 66.7691 12.4755 66.664 12.4326L66.5208 12.9409C66.6737 12.9974 66.8353 13.0276 66.9988 13.03C67.2896 13.0169 67.5692 12.9141 67.7993 12.7357C68.0302 12.5567 68.1997 12.3104 68.2846 12.0309L68.2864 12.0249L70.4958 7.1H69.8069ZM71.4203 6.9H75.9603V13.1H74.9903V7.84H72.3903V13.1H71.4203V6.9ZM71.6203 7.1V12.9H72.1903V7.64H75.1903V12.9H75.7603V7.1H71.6203ZM77.1303 6.9H78.1003V9.47H80.9003V6.9H81.8703V13.1H80.9003V10.39H78.1003V13.1H77.1303V6.9ZM77.3303 7.1V12.9H77.9003V10.19H81.1003V12.9H81.6703V7.1H81.1003V9.67H77.9003V7.1H77.3303ZM49.5097 8.20914C49.9614 7.75935 50.5728 7.50682 51.2103 7.50682C51.8477 7.50682 52.4592 7.75935 52.9108 8.20914L52.9144 8.21272C53.3584 8.7021 53.6042 9.33927 53.6042 10C53.6042 10.6607 53.3583 11.2978 52.9143 11.7872L52.9109 11.7909C52.4592 12.2407 51.8477 12.4932 51.2103 12.4932C50.5728 12.4932 49.9614 12.2406 49.5097 11.7909L49.5803 11.72L49.5062 11.7872C49.0623 11.2978 48.8164 10.6607 48.8164 10C48.8164 9.33927 49.0623 8.70219 49.5062 8.21281L49.5097 8.20914ZM49.6526 11.6509C50.0666 12.0623 50.6266 12.2932 51.2103 12.2932C51.7939 12.2932 52.3539 12.0623 52.7679 11.6509C53.1774 11.1986 53.4042 10.6102 53.4042 10C53.4042 9.38979 53.1774 8.8014 52.7679 8.34907C52.3539 7.93773 51.7939 7.70682 51.2103 7.70682C50.6266 7.70682 50.0666 7.93773 49.6526 8.34907C49.2432 8.8014 49.0164 9.38979 49.0164 10C49.0164 10.6102 49.2432 11.1986 49.6526 11.6509ZM84.1597 8.20914C84.6114 7.75935 85.2228 7.50682 85.8603 7.50682C86.4977 7.50682 87.1092 7.75935 87.5608 8.20914L87.5644 8.21272C88.0084 8.7021 88.2542 9.33927 88.2542 10C88.2542 10.6607 88.0083 11.2978 87.5643 11.7872L87.5609 11.7909C87.1092 12.2407 86.4977 12.4932 85.8603 12.4932C85.2228 12.4932 84.6114 12.2406 84.1597 11.7909L84.2303 11.72L84.1562 11.7872C83.7123 11.2978 83.4664 10.6607 83.4664 10C83.4664 9.33927 83.7123 8.70219 84.1562 8.21281L84.1597 8.20914ZM84.3026 11.6509C84.7166 12.0623 85.2766 12.2932 85.8603 12.2932C86.4439 12.2932 87.0039 12.0623 87.4179 11.6509C87.8274 11.1986 88.0542 10.6102 88.0542 10C88.0542 9.38979 87.8274 8.80139 87.4179 8.34906C87.0039 7.93772 86.4439 7.70682 85.8603 7.70682C85.2766 7.70682 84.7166 7.93772 84.3026 8.34906C83.8932 8.80139 83.6664 9.38979 83.6664 10C83.6664 10.6102 83.8932 11.1986 84.3026 11.6509ZM94.3288 7.60999C94.4691 7.60603 94.6085 7.63286 94.7373 7.6886C94.8658 7.74424 94.9806 7.82732 95.0736 7.93202C95.1655 8.02693 95.2375 8.13928 95.2853 8.26244C95.3334 8.38638 95.3561 8.51873 95.3519 8.65161C95.3478 8.78449 95.3169 8.91517 95.2612 9.03586C95.206 9.15518 95.1277 9.26231 95.0308 9.35103C94.9329 9.45646 94.8135 9.53957 94.6805 9.59464C94.5469 9.65001 94.4028 9.67572 94.2582 9.67H92.7581L92.8024 7.60999H94.3288ZM94.6578 7.87214C94.5555 7.82785 94.4447 7.80662 94.3333 7.80995L94.3303 7.80999H92.9981L92.9624 9.47H94.2644C94.3807 9.47485 94.4965 9.45438 94.604 9.40986C94.7115 9.36534 94.8079 9.29793 94.8867 9.21231L94.8897 9.20897L94.8931 9.20592C94.9717 9.13465 95.0351 9.04829 95.0796 8.95199C95.1241 8.85568 95.1487 8.7514 95.152 8.64536C95.1553 8.53933 95.1373 8.43371 95.0989 8.33482C95.0605 8.23592 95.0026 8.14577 94.9286 8.06974L94.9253 8.06631C94.8514 7.98277 94.7602 7.91643 94.6578 7.87214ZM43.4003 7.64H46.0303V12.4H42.753L42.8447 12.2483C43.2522 11.5741 43.4459 10.7922 43.4004 10.0058L43.4001 10L43.4003 7.64ZM43.6003 7.84V9.99712C43.6441 10.7646 43.4713 11.5277 43.1032 12.2H45.8303V7.84H43.6003ZM92.7918 10.17H94.4103C94.702 10.17 94.9818 10.2859 95.1881 10.4922C95.3944 10.6985 95.5103 10.9783 95.5103 11.27L95.5103 11.2714C95.5063 11.5501 95.3967 11.8169 95.2037 12.0179C95.1044 12.1297 94.9818 12.2182 94.8445 12.2774C94.707 12.3366 94.5582 12.3648 94.4086 12.36H92.7587L92.7918 10.17ZM92.9888 10.37L92.9618 12.16H94.4136C94.5343 12.164 94.6545 12.1414 94.7654 12.0937C94.8763 12.0459 94.9753 11.9742 95.0554 11.8837L95.0582 11.8805C95.2167 11.7161 95.3069 11.4976 95.3103 11.2693C95.3101 11.0308 95.2153 10.8022 95.0467 10.6336C94.8779 10.4648 94.649 10.37 94.4103 10.37H92.9888Z" fill="#0BBBEF"/>
<path d="M10.5454 32.6984L22.7959 19.9922L10.5556 7.30872C10.2287 7.50618 10.0264 7.9634 10.0264 8.56188V31.4574C10.0308 32.0559 10.2258 32.4797 10.5454 32.6984Z" fill="#0BBBEF"/>
<path d="M23.2348 19.6412L26.8839 15.8559L12.0236 7.40435C11.7734 7.25355 11.4892 7.1739 11.1997 7.17346L23.2333 19.6397L23.2348 19.6412Z" fill="#0BBBEF"/>
<path d="M23.2348 20.3445L11.1631 32.8654C11.4661 32.8707 11.7645 32.7886 12.0251 32.6285L26.9147 24.1541L23.2348 20.3445Z" fill="#0BBBEF"/>
<path d="M32.2673 18.9228L27.3223 16.1051L23.5735 19.9937L27.3501 23.9066L32.2659 21.0965C33.3112 20.4995 33.3112 19.5167 32.2673 18.9228Z" fill="#0BBBEF"/>
</svg>
