<svg width="136" height="40" viewBox="0 0 136 40" fill="none" xmlns="http://www.w3.org/2000/svg">
<path d="M130.963 0.8C132.085 0.8 133.161 1.2425 133.955 2.03015C134.748 2.8178 135.194 3.88609 135.194 5V35C135.194 36.1139 134.748 37.1822 133.955 37.9698C133.161 38.7575 132.085 39.2 130.963 39.2H5.03704C3.91488 39.2 2.83868 38.7575 2.04519 37.9698C1.2517 37.1822 0.805926 36.1139 0.805926 35V5C0.805926 3.88609 1.2517 2.8178 2.04519 2.03015C2.83868 1.2425 3.91488 0.8 5.03704 0.8H130.963ZM130.963 0H5.03704C3.70113 0 2.41994 0.526784 1.47531 1.46447C0.530686 2.40215 0 3.67392 0 5V35C0 36.3261 0.530686 37.5979 1.47531 38.5355C2.41994 39.4732 3.70113 40 5.03704 40H130.963C132.299 40 133.58 39.4732 134.525 38.5355C135.469 37.5979 136 36.3261 136 35V5C136 3.67392 135.469 2.40215 134.525 1.46447C133.58 0.526784 132.299 0 130.963 0Z" fill="white"/>
<path d="M68.6448 21.75C67.7989 21.7539 66.9731 22.0066 66.2717 22.476C65.5702 22.9453 65.0246 23.6105 64.7036 24.3874C64.3827 25.1643 64.3007 26.0182 64.4682 26.8413C64.6357 27.6644 65.045 28.4198 65.6446 29.0122C66.2442 29.6046 67.0071 30.0074 67.8371 30.1697C68.667 30.3321 69.5269 30.2468 70.308 29.9245C71.0892 29.6023 71.7567 29.0575 72.2263 28.3591C72.6958 27.6606 72.9464 26.8397 72.9464 26C72.9547 25.4379 72.8489 24.88 72.6353 24.3593C72.4218 23.8387 72.1049 23.366 71.7036 22.9695C71.3022 22.573 70.8246 22.2606 70.2991 22.0511C69.7736 21.8416 69.211 21.7392 68.6448 21.75V21.75ZM68.6448 28.58C68.1246 28.6161 67.6054 28.496 67.1548 28.2354C66.7042 27.9747 66.3431 27.5855 66.1183 27.1184C65.8934 26.6513 65.8154 26.1279 65.8943 25.6161C65.9731 25.1044 66.2052 24.6281 66.5605 24.249C66.9157 23.87 67.3775 23.6058 67.886 23.4908C68.3945 23.3758 68.9261 23.4152 69.4116 23.6041C69.8972 23.7929 70.3143 24.1224 70.6088 24.5497C70.9032 24.977 71.0613 25.4823 71.0626 26C71.0788 26.328 71.0287 26.6559 70.9152 26.9644C70.8018 27.2729 70.6272 27.5557 70.4019 27.7962C70.1765 28.0366 69.905 28.2299 69.6032 28.3645C69.3014 28.4991 68.9756 28.5724 68.6448 28.58ZM59.2659 21.75C58.4195 21.752 57.5927 22.0029 56.8899 22.4711C56.1872 22.9393 55.64 23.6037 55.3175 24.3805C54.995 25.1573 54.9116 26.0115 55.0779 26.8352C55.2443 27.659 55.6528 28.4153 56.252 29.0087C56.8512 29.6021 57.6141 30.0059 58.4443 30.1691C59.2746 30.3322 60.1349 30.2475 60.9167 29.9255C61.6984 29.6036 62.3665 29.0588 62.8365 28.3601C63.3066 27.6614 63.5574 26.8401 63.5574 26C63.5656 25.4379 63.4598 24.88 63.2463 24.3593C63.0328 23.8387 62.7159 23.366 62.3145 22.9695C61.9132 22.573 61.4355 22.2606 60.91 22.0511C60.3845 21.8416 59.822 21.7392 59.2558 21.75H59.2659ZM59.2659 28.58C58.7454 28.6181 58.2253 28.4999 57.7735 28.2406C57.3217 27.9812 56.959 27.5929 56.7326 27.1261C56.5062 26.6593 56.4266 26.1356 56.5042 25.6233C56.5819 25.111 56.8131 24.6338 57.1677 24.2537C57.5224 23.8736 57.9842 23.6084 58.4928 23.4924C59.0015 23.3765 59.5336 23.4153 60.0197 23.6037C60.5059 23.7921 60.9237 24.1215 61.2187 24.5489C61.5136 24.9763 61.6721 25.4819 61.6736 26C61.6898 26.328 61.6397 26.6559 61.5262 26.9644C61.4127 27.2729 61.2382 27.5557 61.0128 27.7962C60.7875 28.0366 60.5159 28.2299 60.2142 28.3645C59.9124 28.4991 59.5865 28.5724 59.2558 28.58H59.2659ZM48.0937 23.06V24.86H52.4457C52.3775 25.7078 52.0224 26.5078 51.4383 27.13C51.0029 27.5702 50.4795 27.9151 49.9017 28.1425C49.3239 28.3698 48.7046 28.4746 48.0836 28.45C46.8012 28.45 45.5712 27.9443 44.6644 27.0441C43.7575 26.1439 43.2481 24.923 43.2481 23.65C43.2481 22.377 43.7575 21.1561 44.6644 20.2559C45.5712 19.3557 46.8012 18.85 48.0836 18.85C49.3104 18.8301 50.4951 19.294 51.3778 20.14L52.6573 18.87C52.0614 18.271 51.3504 17.7969 50.5665 17.4757C49.7826 17.1544 48.9417 16.9927 48.0937 17C47.1981 16.9654 46.3047 17.1106 45.467 17.427C44.6293 17.7433 43.8646 18.2243 43.2186 18.841C42.5726 19.4577 42.0588 20.1976 41.7077 21.0162C41.3567 21.8348 41.1758 22.7153 41.1758 23.605C41.1758 24.4947 41.3567 25.3752 41.7077 26.1938C42.0588 27.0124 42.5726 27.7522 43.2186 28.369C43.8646 28.9857 44.6293 29.4667 45.467 29.783C46.3047 30.0994 47.1981 30.2446 48.0937 30.21C48.956 30.2487 49.8166 30.1036 50.6177 29.7845C51.4188 29.4654 52.1417 28.9796 52.7378 28.36C53.7933 27.2089 54.3568 25.6958 54.3094 24.14C54.3127 23.761 54.2789 23.3825 54.2087 23.01L48.0937 23.06ZM93.7393 24.46C93.4766 23.6927 92.9853 23.0228 92.3305 22.5388C91.6757 22.0549 90.8882 21.7798 90.0724 21.75C89.5213 21.7489 88.9759 21.8601 88.4698 22.0765C87.9638 22.293 87.5078 22.6102 87.1301 23.0085C86.7524 23.4069 86.4611 23.8778 86.274 24.3924C86.087 24.9069 86.0083 25.4541 86.0427 26C86.0305 26.5589 86.1319 27.1145 86.3408 27.6337C86.5497 28.1528 86.8619 28.6249 87.2587 29.0216C87.6555 29.4183 88.1289 29.7315 88.6504 29.9426C89.1719 30.1536 89.7309 30.2582 90.294 30.25C90.9987 30.2538 91.6933 30.084 92.3157 29.7559C92.938 29.4278 93.4687 28.9516 93.8602 28.37L92.3995 27.37C92.1815 27.7308 91.8728 28.0292 91.5037 28.236C91.1347 28.4429 90.7178 28.5511 90.294 28.55C89.8576 28.5665 89.4263 28.4523 89.0562 28.2222C88.6861 27.9922 88.3943 27.6569 88.2187 27.26L93.9509 24.91L93.7393 24.46ZM87.8964 25.88C87.8759 25.5707 87.9179 25.2604 88.0198 24.9674C88.1217 24.6744 88.2814 24.4045 88.4897 24.1736C88.698 23.9426 88.9506 23.7553 89.2327 23.6224C89.5149 23.4896 89.8209 23.414 90.1328 23.4C90.4578 23.3787 90.7819 23.4527 91.0648 23.6127C91.3478 23.7727 91.5772 24.0117 91.7245 24.3L87.8964 25.88ZM83.2421 30H85.126V17.5H83.2421V30ZM80.1595 22.7H80.089C79.805 22.3849 79.4572 22.1329 79.0683 21.9606C78.6794 21.7882 78.2583 21.6994 77.8324 21.7C76.7315 21.753 75.6933 22.2244 74.933 23.0166C74.1728 23.8087 73.7487 24.8609 73.7487 25.955C73.7487 27.0491 74.1728 28.1013 74.933 28.8934C75.6933 29.6856 76.7315 30.157 77.8324 30.21C78.2593 30.2171 78.6826 30.1313 79.0724 29.9585C79.4623 29.7857 79.8093 29.5302 80.089 29.21H80.1494V29.82C80.1494 31.45 79.273 32.32 77.8626 32.32C77.3929 32.3091 76.937 32.1597 76.5531 31.8908C76.1692 31.6219 75.8746 31.2456 75.7067 30.81L74.0647 31.49C74.3738 32.2364 74.9004 32.874 75.5771 33.3212C76.2538 33.7685 77.0497 34.0048 77.8626 34C80.0688 34 81.8922 32.71 81.8922 29.57V22H80.1595V22.7ZM78.0036 28.58C77.3538 28.5231 76.749 28.2267 76.3084 27.7492C75.8679 27.2716 75.6235 26.6475 75.6235 26C75.6235 25.3524 75.8679 24.7284 76.3084 24.2508C76.749 23.7733 77.3538 23.4768 78.0036 23.42C78.3258 23.4364 78.6414 23.5167 78.9319 23.656C79.2224 23.7954 79.4818 23.9911 79.6949 24.2315C79.908 24.4719 80.0705 24.7523 80.1728 25.056C80.2751 25.3597 80.3151 25.6807 80.2904 26C80.3179 26.3207 80.2796 26.6436 80.1778 26.9491C80.076 27.2547 79.9128 27.5366 79.6981 27.7778C79.4833 28.019 79.2216 28.2144 78.9286 28.3523C78.6356 28.4902 78.3175 28.5676 77.9936 28.58H78.0036ZM102.564 17.5H98.0611V30H99.945V25.26H102.574C103.111 25.2983 103.65 25.2264 104.158 25.0487C104.666 24.8711 105.131 24.5915 105.525 24.2275C105.919 23.8635 106.233 23.4227 106.448 22.9328C106.663 22.4429 106.774 21.9143 106.774 21.38C106.774 20.8457 106.663 20.3171 106.448 19.8272C106.233 19.3373 105.919 18.8965 105.525 18.5325C105.131 18.1685 104.666 17.8889 104.158 17.7113C103.65 17.5336 103.111 17.4617 102.574 17.5H102.564ZM102.564 23.5H99.9349V19.24H102.605C103.178 19.24 103.727 19.466 104.132 19.8683C104.538 20.2705 104.765 20.8161 104.765 21.385C104.765 21.9539 104.538 22.4995 104.132 22.9017C103.727 23.304 103.178 23.53 102.605 23.53L102.564 23.5ZM114.18 21.7C113.494 21.6593 112.811 21.8184 112.215 22.1577C111.619 22.497 111.136 23.0018 110.825 23.61L112.497 24.3C112.662 23.9983 112.912 23.7508 113.216 23.5874C113.52 23.4241 113.865 23.352 114.21 23.38C114.449 23.3523 114.691 23.3721 114.923 23.4383C115.154 23.5045 115.37 23.6158 115.557 23.7657C115.745 23.9156 115.9 24.101 116.015 24.3112C116.13 24.5214 116.201 24.7522 116.225 24.99V25.12C115.62 24.802 114.945 24.6371 114.26 24.64C112.457 24.64 110.634 25.64 110.634 27.45C110.651 27.8359 110.747 28.2144 110.915 28.563C111.082 28.9117 111.319 29.2234 111.61 29.4798C111.901 29.7362 112.241 29.932 112.61 30.0557C112.978 30.1794 113.368 30.2285 113.757 30.2C114.231 30.2338 114.706 30.1402 115.131 29.9291C115.557 29.718 115.917 29.397 116.174 29H116.235V30H118.048V25.19C118.048 23 116.376 21.73 114.23 21.73L114.18 21.7ZM113.948 28.55C113.333 28.55 112.477 28.24 112.477 27.49C112.477 26.49 113.545 26.16 114.492 26.16C115.09 26.1453 115.682 26.2904 116.205 26.58C116.142 27.1214 115.884 27.622 115.478 27.9895C115.073 28.357 114.547 28.5667 113.998 28.58L113.948 28.55ZM124.657 22L122.501 27.42H122.44L120.204 22H118.189L121.544 29.58L119.63 33.79H121.594L126.752 22H124.657ZM107.722 30H109.606V17.5H107.722V30Z" fill="white"/>
<path d="M42.4224 14.27H41.6769V12.27H42.3116C42.601 11.9656 42.8195 11.6018 42.9518 11.2044C43.0841 10.807 43.1269 10.3856 43.0772 9.97V7H47.1068V12.26H47.7818V14.26H47.0363V13H42.4224V14.27ZM43.8227 10C43.8697 10.8066 43.6695 11.6085 43.2485 12.3H46.2707V7.74H43.8227V10ZM53.8061 12.22C53.2172 12.8013 52.4204 13.1277 51.5898 13.1277C50.7592 13.1277 49.9624 12.8013 49.3735 12.22C48.8011 11.6185 48.4822 10.8224 48.4822 9.995C48.4822 9.16756 48.8011 8.37147 49.3735 7.77C49.6638 7.47974 50.0091 7.24937 50.3894 7.09217C50.7698 6.93496 51.1778 6.85403 51.5898 6.85403C52.0018 6.85403 52.4098 6.93496 52.7902 7.09217C53.1705 7.24937 53.5158 7.47974 53.8061 7.77C54.3808 8.37033 54.7013 9.16684 54.7013 9.995C54.7013 10.8232 54.3808 11.6197 53.8061 12.22ZM49.9477 11.72C50.3839 12.1511 50.9743 12.3932 51.5898 12.3932C52.2053 12.3932 52.7957 12.1511 53.2319 11.72C53.6623 11.249 53.9007 10.6359 53.9007 10C53.9007 9.36411 53.6623 8.75098 53.2319 8.28C52.7957 7.84887 52.2053 7.60682 51.5898 7.60682C50.9743 7.60682 50.3839 7.84887 49.9477 8.28C49.5173 8.75098 49.2789 9.36411 49.2789 10C49.2789 10.6359 49.5173 11.249 49.9477 11.72ZM58.6114 13.13C58.1955 13.1382 57.7823 13.0628 57.3966 12.9083C57.0108 12.7537 56.6606 12.5233 56.3669 12.2309C56.0732 11.9384 55.8422 11.59 55.6878 11.2066C55.5334 10.8232 55.4587 10.4128 55.4683 10C55.4587 9.5872 55.5334 9.17674 55.6878 8.79335C55.8422 8.40995 56.0732 8.06155 56.3669 7.76911C56.6606 7.47667 57.0108 7.24626 57.3966 7.09174C57.7823 6.93722 58.1955 6.86179 58.6114 6.87C59.033 6.85964 59.4514 6.94423 59.8352 7.11743C60.2191 7.29063 60.5584 7.54793 60.8277 7.87L60.2837 8.39C60.0847 8.13924 59.8282 7.93941 59.5355 7.80719C59.2428 7.67497 58.9225 7.61422 58.6014 7.62999C58.2921 7.62202 57.9845 7.6764 57.6971 7.78984C57.4096 7.90328 57.1483 8.07343 56.9291 8.29C56.4923 8.76379 56.25 9.38276 56.25 10.025C56.25 10.6672 56.4923 11.2862 56.9291 11.76C57.1483 11.9766 57.4096 12.1467 57.6971 12.2602C57.9845 12.3736 58.2921 12.428 58.6014 12.42C58.9559 12.4169 59.3054 12.3353 59.6243 12.1814C59.9432 12.0275 60.2235 11.8049 60.4449 11.53L60.9889 12.07C60.7147 12.4001 60.3708 12.6664 59.9815 12.85C59.5515 13.0433 59.0834 13.139 58.6114 13.13ZM64.1522 13H63.3765V7.74H61.684V7H65.8345V7.74H64.1522V13ZM71.1738 7L68.887 12.06C68.7954 12.3593 68.6125 12.623 68.3635 12.8147C68.1145 13.0064 67.8116 13.1166 67.4968 13.13C67.2885 13.1274 67.083 13.0832 66.8923 13L67.0938 12.29C67.2162 12.3608 67.3551 12.3987 67.4968 12.4C67.6448 12.4111 67.7927 12.3761 67.9199 12.3C68.0412 12.198 68.1348 12.0673 68.1919 11.92L68.4135 11.44L66.3987 7.01H67.3154L68.8064 10.45L70.2571 7H71.1738ZM72.0502 13V7H76.4224V13H75.6467V7.74H72.8259V13H72.0502ZM77.8025 13V7H78.5782V9.57H81.6005V7H82.3762V13H81.6005V10.29H78.5782V13H77.8025ZM88.7128 12.22C88.1238 12.8013 87.327 13.1277 86.4965 13.1277C85.6659 13.1277 84.8691 12.8013 84.2802 12.22C83.7077 11.6185 83.3888 10.8224 83.3888 9.995C83.3888 9.16756 83.7077 8.37147 84.2802 7.77C84.5705 7.47974 84.9157 7.24937 85.2961 7.09217C85.6765 6.93496 86.0844 6.85403 86.4965 6.85403C86.9085 6.85403 87.3164 6.93496 87.6968 7.09217C88.0772 7.24937 88.4225 7.47974 88.7128 7.77C89.2875 8.37033 89.6079 9.16684 89.6079 9.995C89.6079 10.8232 89.2875 11.6197 88.7128 12.22ZM84.8544 11.72C85.2905 12.1511 85.881 12.3932 86.4965 12.3932C87.112 12.3932 87.7024 12.1511 88.1385 11.72C88.5689 11.249 88.8074 10.6359 88.8074 10C88.8074 9.36411 88.5689 8.75098 88.1385 8.28C87.7024 7.84887 87.112 7.60682 86.4965 7.60682C85.881 7.60682 85.2905 7.84887 84.8544 8.28C84.424 8.75098 84.1856 9.36411 84.1856 10C84.1856 10.6359 84.424 11.249 84.8544 11.72ZM92.7726 13V7H94.9587C95.4126 6.99149 95.8525 7.15613 96.1877 7.45999C96.3561 7.60501 96.4902 7.78497 96.5808 7.98715C96.6713 8.18933 96.7159 8.40879 96.7116 8.63C96.7163 8.89656 96.639 9.15821 96.4899 9.37999C96.342 9.59543 96.1361 9.76523 95.8956 9.87C96.1878 9.96602 96.4441 10.1472 96.631 10.39C96.8247 10.635 96.9278 10.9386 96.9231 11.25C96.9283 11.4805 96.8822 11.7094 96.7882 11.9202C96.6942 12.1311 96.5545 12.3188 96.3791 12.47C96.0284 12.7912 95.5668 12.9666 95.0896 12.96L92.7726 13ZM93.5483 9.57H94.9587C95.0904 9.57545 95.2217 9.55234 95.3435 9.50225C95.4653 9.45217 95.5746 9.37632 95.6639 9.28C95.7531 9.19971 95.8251 9.10242 95.8755 8.99392C95.926 8.88542 95.954 8.76794 95.9578 8.64849C95.9615 8.52903 95.941 8.41005 95.8974 8.29863C95.8539 8.18721 95.7881 8.08565 95.7042 8C95.62 7.90547 95.5159 7.83049 95.3992 7.78037C95.2826 7.73025 95.1563 7.70623 95.0292 7.70999H93.5886L93.5483 9.57ZM93.5483 12.26H95.1098C95.2462 12.2645 95.382 12.2391 95.5074 12.1855C95.6328 12.1319 95.7447 12.0515 95.8351 11.95C96.0128 11.7671 96.1136 11.524 96.1172 11.27C96.1172 11.0048 96.0111 10.7504 95.8221 10.5629C95.6332 10.3754 95.377 10.27 95.1098 10.27H93.5785L93.5483 12.26Z" fill="white"/>
<path fill-rule="evenodd" clip-rule="evenodd" d="M51.5898 6.95403C51.1911 6.95403 50.7963 7.03235 50.4282 7.18448C50.0604 7.33646 49.7266 7.55909 49.4459 7.83957C48.8916 8.42238 48.5829 9.19351 48.5829 9.995C48.5829 10.7964 48.8916 11.5674 49.4457 12.1502C50.0156 12.7122 50.7864 13.0277 51.5898 13.0277C52.3933 13.0277 53.1641 12.7122 53.734 12.1501C54.2903 11.5685 54.6005 10.797 54.6005 9.995C54.6005 9.19285 54.2903 8.42132 53.7338 7.83967C53.4531 7.55914 53.1192 7.33648 52.7514 7.18448C52.3833 7.03235 51.9885 6.95403 51.5898 6.95403ZM50.3507 6.99985C50.7434 6.83757 51.1645 6.75403 51.5898 6.75403C52.0151 6.75403 52.4362 6.83757 52.8289 6.99985C53.2215 7.16212 53.5779 7.39992 53.8776 7.69954L53.8791 7.70109C54.4716 8.32001 54.802 9.1412 54.802 9.995C54.802 10.8488 54.4716 11.67 53.8791 12.2889L53.8772 12.2909C53.2693 12.8909 52.447 13.2277 51.5898 13.2277C50.7326 13.2277 49.9103 12.8909 49.3025 12.2909L49.3002 12.2887C48.7101 11.6687 48.3814 10.848 48.3814 9.995C48.3814 9.14202 48.7102 8.32136 49.3003 7.70132L49.302 7.69952C49.6016 7.3999 49.9581 7.16212 50.3507 6.99985ZM86.4965 6.95403C86.0977 6.95403 85.7029 7.03235 85.3348 7.18448C84.9671 7.33645 84.6333 7.55906 84.3526 7.83952C83.7983 8.42233 83.4896 9.19349 83.4896 9.995C83.4896 10.7964 83.7982 11.5674 84.3523 12.1502C84.9223 12.7122 85.6931 13.0277 86.4965 13.0277C87.3 13.0277 88.0708 12.7122 88.6408 12.15C89.197 11.5684 89.5072 10.797 89.5072 9.995C89.5072 9.19286 89.1969 8.42135 88.6405 7.8397C88.3598 7.55916 88.0259 7.33648 87.6581 7.18448C87.29 7.03235 86.8952 6.95403 86.4965 6.95403ZM85.2574 6.99985C85.65 6.83757 86.0711 6.75403 86.4965 6.75403C86.9218 6.75403 87.3429 6.83757 87.7355 6.99985C88.1282 7.16212 88.4846 7.39992 88.7843 7.69954L88.7858 7.70109C89.3783 8.32003 89.7087 9.1412 89.7087 9.995C89.7087 10.8488 89.3783 11.67 88.7858 12.2889L88.7838 12.2909C88.176 12.8909 87.3536 13.2277 86.4965 13.2277C85.6393 13.2277 84.817 12.8909 84.2091 12.2909L84.2069 12.2887C83.6168 11.6687 83.2881 10.848 83.2881 9.995C83.2881 9.14202 83.6168 8.32136 84.2069 7.70132L84.2087 7.69952C84.5083 7.3999 84.8647 7.16212 85.2574 6.99985ZM59.7935 7.20847C59.4235 7.04152 59.0202 6.95998 58.6139 6.96997L58.6094 6.97008C58.2071 6.96214 57.8074 7.035 57.4342 7.18447C57.0611 7.33394 56.7223 7.55683 56.4383 7.83971C56.1542 8.12259 55.9307 8.45961 55.7814 8.83047C55.632 9.20134 55.5597 9.59838 55.569 9.99769L55.5691 10.0023C55.5599 10.4016 55.632 10.7987 55.7814 11.1695C55.9307 11.5404 56.1542 11.8774 56.4383 12.1603C56.7223 12.4432 57.0611 12.6661 57.4342 12.8155C57.8074 12.965 58.2071 13.038 58.6094 13.03L58.6114 13.13L58.6134 13.03C59.0701 13.0387 59.5229 12.9462 59.9391 12.7593C60.2872 12.595 60.5977 12.3622 60.8519 12.0754L60.4515 11.6779C60.2331 11.9253 59.967 12.1272 59.6683 12.2713C59.3362 12.4316 58.9724 12.5166 58.6031 12.52C58.2806 12.5282 57.9597 12.4714 57.6598 12.3531C57.3597 12.2346 57.087 12.057 56.858 11.8309L56.8547 11.8276C56.4009 11.3353 56.1493 10.6922 56.1493 10.025C56.1493 9.35777 56.401 8.71472 56.8547 8.22249L56.8579 8.21903C57.0869 7.99293 57.3597 7.81535 57.6598 7.69691C57.9588 7.57894 58.2786 7.52215 58.6002 7.52993C58.9361 7.51403 59.2711 7.57787 59.5773 7.71617C59.8508 7.83976 60.0943 8.01961 60.2919 8.24336L60.6893 7.86351C60.4402 7.58584 60.1352 7.3626 59.7935 7.20847ZM58.6115 13.23C58.1827 13.2382 57.7566 13.1603 57.3589 13.001C56.9605 12.8414 56.5988 12.6035 56.2956 12.3015C55.9923 11.9995 55.7538 11.6397 55.5943 11.2438C55.4351 10.8486 55.358 10.4255 55.3676 10C55.358 9.57449 55.4351 9.15143 55.5943 8.75622C55.7538 8.3603 55.9923 8.0005 56.2956 7.69851C56.5988 7.39652 56.9605 7.15857 57.3589 6.999C57.7565 6.83971 58.1825 6.76181 58.6112 6.76997C59.0472 6.75959 59.4799 6.84725 59.8769 7.02639C60.2746 7.20585 60.6262 7.47244 60.9052 7.80613L60.965 7.8776L60.2734 8.53865L60.2046 8.45187C60.0156 8.21366 59.7718 8.02382 59.4938 7.89821C59.2157 7.7726 58.9114 7.71488 58.6063 7.72987L58.5987 7.73025C58.3031 7.72262 58.0091 7.77432 57.7343 7.88276C57.4602 7.99092 57.2111 8.153 57.0018 8.35924C56.583 8.81437 56.3508 9.40853 56.3508 10.025C56.3508 10.6415 56.583 11.2356 57.0018 11.6908C57.2111 11.897 57.4602 12.0591 57.7343 12.1672C58.0091 12.2757 58.3031 12.3277 58.5987 12.32L58.6005 12.32C58.9401 12.317 59.2748 12.2389 59.5802 12.0915C59.8856 11.944 60.1541 11.7309 60.3662 11.4676L60.4365 11.3803L61.1249 12.0635L61.0666 12.1336C60.7831 12.475 60.4274 12.7504 60.0247 12.9403L60.0231 12.9411C59.58 13.1403 59.0978 13.239 58.6115 13.23ZM96.1198 7.53384C95.8036 7.24724 95.3887 7.09195 94.9606 7.09998L94.9587 7.1H92.8734V12.8982L95.0879 12.86L95.091 12.86C95.5424 12.8662 95.979 12.7003 96.3108 12.3965L96.313 12.3945C96.4772 12.2529 96.608 12.0772 96.6961 11.8797C96.7841 11.6823 96.8272 11.4681 96.8224 11.2522L96.8224 11.2485C96.8268 10.96 96.7312 10.6787 96.5517 10.4517L96.5509 10.4507C96.3763 10.2239 96.1369 10.0546 95.8639 9.96493L95.6149 9.88309L95.8551 9.77843C96.0781 9.68127 96.2691 9.52386 96.4064 9.32416C96.5439 9.11937 96.6152 8.87783 96.6109 8.63176V8.62804C96.6149 8.42148 96.5732 8.21656 96.4887 8.02777C96.4042 7.83898 96.2789 7.67093 96.1217 7.53552L96.1198 7.53384ZM96.2548 7.38534C95.9008 7.06494 95.4367 6.89126 94.9578 6.9H92.6719V13.1018L95.0883 13.06L95.0899 13.06C95.5918 13.0665 96.0771 12.8821 96.4463 12.5445C96.6323 12.3838 96.7805 12.1845 96.8803 11.9607C96.9801 11.737 97.0291 11.4942 97.0239 11.2497L97.0239 11.2515L96.9231 11.25L97.0238 11.2478L97.0239 11.2497C97.0285 10.9162 96.9179 10.5912 96.7106 10.3287C96.5565 10.1288 96.3583 9.96808 96.1324 9.8582C96.3063 9.74955 96.4566 9.60616 96.5732 9.43631L96.5738 9.43549C96.7338 9.19728 96.817 8.91634 96.8123 8.63007L96.8123 8.63195L96.7116 8.63L96.8123 8.62823L96.8123 8.63007C96.8167 8.39485 96.7691 8.16154 96.6728 7.94654C96.5765 7.73137 96.4338 7.53981 96.2548 7.38534ZM42.9765 6.9H47.2076V12.16H47.8825V14.36H46.9356V13.1H42.5231V14.37H41.5762V12.17H42.2677C42.5324 11.8827 42.733 11.543 42.8562 11.1731C42.9838 10.7895 43.0251 10.3829 42.9772 9.98178L42.9765 9.97591V6.9ZM43.1779 7.1V9.96413C43.2283 10.3924 43.1838 10.8264 43.0475 11.2358C42.9105 11.6471 42.6844 12.0236 42.3848 12.3386L42.355 12.37H41.7777V14.17H42.3217V12.9H47.1371V14.16H47.6811V12.36H47.0061V7.1H43.1779ZM61.5833 6.9H65.9353V7.84H64.2529V13.1H63.2757V7.84H61.5833V6.9ZM61.7848 7.1V7.64H63.4772V12.9H64.0514V7.64H65.7338V7.1H61.7848ZM70.1899 6.9H71.3294L68.9815 12.0952C68.8833 12.4118 68.689 12.6907 68.4252 12.8937C68.1597 13.0981 67.8368 13.2156 67.5011 13.2299L67.4955 13.2301C67.2737 13.2273 67.0548 13.1801 66.8518 13.0915L66.7716 13.0566L67.0321 12.1386L67.1445 12.2036C67.2518 12.2656 67.3735 12.2988 67.4977 12.3L67.5043 12.3001C67.6289 12.3094 67.7533 12.281 67.861 12.2184C67.9664 12.1281 68.0478 12.0132 68.0979 11.8841L68.1001 11.8782L68.3028 11.4397L66.2427 6.91H67.3818L68.805 10.1937L70.1899 6.9ZM70.3242 7.1L68.8078 10.7063L67.2491 7.11H66.5547L68.5242 11.4403L68.2847 11.9589C68.2215 12.1207 68.1184 12.2642 67.985 12.3763L67.9788 12.3815L67.9719 12.3856C67.8278 12.4719 67.6603 12.5118 67.4925 12.5C67.3774 12.4985 67.2639 12.4755 67.158 12.4326L67.0138 12.9409C67.1678 12.9974 67.3306 13.0276 67.4952 13.03C67.7882 13.0169 68.07 12.9141 68.3018 12.7357C68.5343 12.5567 68.7051 12.3104 68.7906 12.0309L68.7924 12.0249L71.0182 7.1H70.3242ZM71.9495 6.9H76.5231V13.1H75.5459V7.84H72.9267V13.1H71.9495V6.9ZM72.151 7.1V12.9H72.7252V7.64H75.7474V12.9H76.3217V7.1H72.151ZM77.7018 6.9H78.679V9.47H81.4997V6.9H82.4769V13.1H81.4997V10.39H78.679V13.1H77.7018V6.9ZM77.9033 7.1V12.9H78.4775V10.19H81.7012V12.9H82.2754V7.1H81.7012V9.67H78.4775V7.1H77.9033ZM49.8766 8.20914C50.3317 7.75935 50.9477 7.50682 51.5898 7.50682C52.2319 7.50682 52.8479 7.75935 53.303 8.20914L53.3066 8.21272C53.7538 8.7021 54.0014 9.33927 54.0014 10C54.0014 10.6607 53.7537 11.2978 53.3065 11.7872L53.3031 11.7909C52.848 12.2407 52.2319 12.4932 51.5898 12.4932C50.9477 12.4932 50.3317 12.2406 49.8766 11.7909L49.9477 11.72L49.8731 11.7872C49.4259 11.2978 49.1782 10.6607 49.1782 10C49.1782 9.33927 49.4259 8.70219 49.8731 8.21281L49.8766 8.20914ZM50.0206 11.6509C50.4377 12.0623 51.0018 12.2932 51.5898 12.2932C52.1778 12.2932 52.7419 12.0623 53.159 11.6509C53.5715 11.1986 53.8 10.6102 53.8 10C53.8 9.38979 53.5715 8.8014 53.159 8.34907C52.7419 7.93773 52.1778 7.70682 51.5898 7.70682C51.0018 7.70682 50.4377 7.93773 50.0206 8.34907C49.6081 8.8014 49.3797 9.38979 49.3797 10C49.3797 10.6102 49.6081 11.1986 50.0206 11.6509ZM84.7833 8.20914C85.2383 7.75935 85.8543 7.50682 86.4965 7.50682C87.1386 7.50682 87.7546 7.75935 88.2096 8.20914L88.2133 8.21272C88.6605 8.7021 88.9081 9.33927 88.9081 10C88.9081 10.6607 88.6604 11.2978 88.2132 11.7872L88.2097 11.7909C87.7547 12.2407 87.1386 12.4932 86.4965 12.4932C85.8543 12.4932 85.2383 12.2406 84.7833 11.7909L84.8544 11.72L84.7798 11.7872C84.3326 11.2978 84.0848 10.6607 84.0848 10C84.0848 9.33927 84.3326 8.70219 84.7798 8.21281L84.7833 8.20914ZM84.9273 11.6509C85.3444 12.0623 85.9085 12.2932 86.4965 12.2932C87.0845 12.2932 87.6486 12.0623 88.0656 11.6509C88.4781 11.1986 88.7066 10.6102 88.7066 10C88.7066 9.38979 88.4781 8.80139 88.0656 8.34906C87.6486 7.93772 87.0845 7.70682 86.4965 7.70682C85.9085 7.70682 85.3444 7.93772 84.9273 8.34906C84.5148 8.80139 84.2863 9.38979 84.2863 10C84.2863 10.6102 84.5148 11.1986 84.9273 11.6509ZM95.0277 7.60999C95.169 7.60603 95.3095 7.63286 95.4392 7.6886C95.5687 7.74424 95.6844 7.82732 95.7781 7.93202C95.8707 8.02693 95.9432 8.13928 95.9913 8.26244C96.0398 8.38638 96.0626 8.51873 96.0584 8.65161C96.0543 8.78449 96.0232 8.91517 95.967 9.03586C95.9115 9.15518 95.8326 9.26231 95.7349 9.35103C95.6363 9.45646 95.516 9.53957 95.3821 9.59464C95.2474 9.65001 95.1023 9.67572 94.9566 9.67H93.4454L93.49 7.60999H95.0277ZM95.3592 7.87214C95.2561 7.82785 95.1445 7.80662 95.0322 7.80995L95.0292 7.80999H93.6872L93.6513 9.47H94.9629C95.08 9.47485 95.1967 9.45438 95.305 9.40986C95.4132 9.36534 95.5104 9.29793 95.5897 9.21231L95.5928 9.20897L95.5962 9.20592C95.6754 9.13465 95.7393 9.04829 95.7841 8.95199C95.8289 8.85568 95.8537 8.7514 95.8571 8.64536C95.8604 8.53933 95.8422 8.43371 95.8035 8.33482C95.7648 8.23592 95.7065 8.14577 95.632 8.06974L95.6286 8.06631C95.5542 7.98277 95.4623 7.91643 95.3592 7.87214ZM43.722 7.64H46.3714V12.4H43.0699L43.1623 12.2483C43.5728 11.5741 43.7679 10.7922 43.7221 10.0058L43.7218 10L43.722 7.64ZM43.9234 7.84V9.99712C43.9676 10.7646 43.7935 11.5277 43.4227 12.2H46.17V7.84H43.9234ZM93.4793 10.17H95.1098C95.4037 10.17 95.6856 10.2859 95.8934 10.4922C96.1012 10.6985 96.218 10.9783 96.218 11.27L96.2179 11.2714C96.214 11.5501 96.1036 11.8169 95.9091 12.0179C95.8091 12.1297 95.6856 12.2182 95.5472 12.2774C95.4087 12.3366 95.2588 12.3648 95.1081 12.36H93.446L93.4793 10.17ZM93.6778 10.37L93.6506 12.16H95.1132C95.2348 12.164 95.3558 12.1414 95.4676 12.0937C95.5793 12.0459 95.6791 11.9742 95.7597 11.8837L95.7625 11.8805C95.9222 11.7161 96.0131 11.4976 96.0165 11.2693C96.0163 11.0308 95.9208 10.8022 95.7509 10.6336C95.5809 10.4648 95.3503 10.37 95.1098 10.37H93.6778Z" fill="white"/>
<path d="M10.6234 32.6984L22.9647 19.9921L10.6338 7.30865C10.3044 7.50612 10.1006 7.96334 10.1006 8.56182V31.4574C10.105 32.0559 10.3014 32.4797 10.6234 32.6984V32.6984Z" fill="white"/>
<path d="M23.4069 19.6412L27.083 15.8559L12.1128 7.40435C11.8607 7.25355 11.5743 7.1739 11.2827 7.17346L23.4055 19.6397L23.4069 19.6412Z" fill="white"/>
<path d="M23.4067 20.3445L11.2456 32.8655C11.5508 32.8707 11.8515 32.7887 12.114 32.6285L27.1139 24.1541L23.4067 20.3445Z" fill="white"/>
<path d="M32.5063 18.9228L27.5246 16.105L23.748 19.9936L27.5526 23.9065L32.5048 21.0964C33.5579 20.4995 33.5579 19.5167 32.5063 18.9228Z" fill="white"/>
</svg>
