<svg width="31" height="35" viewBox="0 0 31 35" fill="none" xmlns="http://www.w3.org/2000/svg">
<path d="M0.697116 34.3666L17.1522 17.4249L0.710901 0.513611C0.271757 0.776901 0 1.38652 0 2.1845V32.7119C0.00588961 33.5099 0.267818 34.0749 0.697116 34.3666V34.3666Z" fill="white"/>
<path d="M17.7418 16.957L22.6433 11.91L2.68289 0.641166C2.34679 0.440099 1.965 0.333895 1.57617 0.333313L17.7398 16.955L17.7418 16.957Z" fill="white"/>
<path d="M17.7412 17.8948L1.52637 34.5894C1.93334 34.5964 2.33421 34.487 2.68429 34.2734L22.6841 22.9742L17.7412 17.8948Z" fill="white"/>
<path d="M29.874 15.9991L23.2317 12.2421L18.1963 17.4269L23.2691 22.6441L29.872 18.8973C31.2761 18.1013 31.276 16.791 29.874 15.9991Z" fill="white"/>
</svg>
