<svg width="129" height="20" viewBox="0 0 129 20" fill="none" xmlns="http://www.w3.org/2000/svg">
<path fill-rule="evenodd" clip-rule="evenodd" d="M45.8597 0.913595L45.0518 6.02292C43.5575 5.55574 42.2562 4.92542 40.9406 4.92542C37.9878 4.92542 35.2637 7.09076 35.2637 10.2053C35.2637 14.1281 37.5945 15.0254 40.2328 14.9439C41.484 14.9068 42.0989 14.5657 43.1499 14.1949L44.9088 13.5794L45.6595 18.3476L44.2796 18.9038C42.342 19.6824 41.2481 20.0532 38.667 19.9939C32.0534 19.853 29.1005 14.8919 29.5224 9.84194C29.7726 6.85346 31.2812 3.8724 33.7193 1.92952C35.5068 0.505735 37.9735 0.0385494 40.2114 0.00147157C42.3706 -0.0281907 43.6004 0.394505 45.8597 0.913595ZM98.5395 0.453822L94.9861 19.6972H100.434L101.814 12.1185L105.353 19.6972H115.578L121.948 6.9202L122.649 14.2171L120.454 13.2828L118.759 16.8348L123.314 19.7046H128.461L125.809 0.468656H119.932L110.658 18.0806L106.676 9.83453L115.327 0.476079H108.871L102.794 6.77189L103.952 0.476079L98.5395 0.453822ZM80.0144 0.453822L86.8138 0.238775C89.8382 0.16462 93.2129 0.935844 94.2711 4.28768C94.8717 6.2009 94.2711 8.3514 92.3549 9.72329C95.2435 11.8441 94.5213 16.2342 91.9545 18.1919C89.8453 19.8011 87.872 19.8233 85.4125 19.7936L76.8255 19.6898L80.0144 0.453822ZM84.0826 4.79194L83.5821 7.85457H86.9711C87.9363 7.81749 88.9302 7.89164 89.3449 6.73481C89.6523 5.86719 89.1876 4.79935 87.872 4.79935H84.0826V4.79194ZM82.3094 14.9883H85.9272C87.0569 14.9883 88.4726 14.7733 88.7371 13.3643C88.8873 12.5783 88.3439 11.681 87.1999 11.6662L82.86 11.6439L82.3094 14.9883ZM67.1447 0.461245L56.9634 19.6972H59.8876C62.34 19.5934 62.9192 18.8667 63.3553 18.2734C65.5646 14.4693 67.1876 10.8727 69.1609 6.9202L69.8259 14.3284L67.6309 13.394L65.9292 16.9683L71.1057 19.6972H75.6744L73.0218 0.461245H67.1447ZM47.8759 0.461245H61.8395L60.9387 5.81529H56.8347L54.2893 19.7046H48.8698L51.4151 5.81529H46.9751L47.8759 0.461245Z" fill="#0BBBEF"/>
<path fill-rule="evenodd" clip-rule="evenodd" d="M25.8697 20H30.5338L23.7984 9.61617L32.4313 0.869568H24.7327L7.56827 18.4218L10.7259 0.869568H6.50364L0.0289701 5.19862L0 10.1398L3.91087 8.24445L3.37494 9.86692C2.78107 13.2446 2.16547 16.6223 1.58608 20L14.1443 19.9853L19.3443 14.3435L21.4736 17.64C22.6034 19.1371 23.7549 19.8083 25.8697 20ZM15.7304 8.03795L11.1967 0.869568H16.375C17.8162 1.00969 19.2719 1.53331 20.2062 2.75753L20.5031 3.19265L15.7304 8.03795Z" fill="white"/>
</svg>
