<svg width="40" height="40" viewBox="0 0 40 40" fill="none" xmlns="http://www.w3.org/2000/svg">
<path fill-rule="evenodd" clip-rule="evenodd" d="M26.1333 0H13.8667C2.66667 0 0 2.66667 0 13.8667V26.1333C0 37.3333 2.66667 40 13.8667 40H26.1333C37.3333 40 40 37.3333 40 26.1333V13.8667C40 2.66667 37.3333 0 26.1333 0ZM23.31 13.5328C19.4241 15.1303 8.21981 19.667 8.21981 19.667C5.56447 20.6894 7.11874 21.6479 7.11874 21.6479C7.11874 21.6479 9.38551 22.4147 11.3285 22.9897C13.2714 23.5648 14.3077 22.9259 14.3077 22.9259C14.3077 22.9259 18.8412 19.9866 23.4395 16.8555C26.6777 14.683 25.9006 16.4722 25.1234 17.239C23.4395 18.9003 20.6546 21.5201 18.3231 23.6288C17.2869 24.5234 17.805 25.2901 18.2584 25.6735C19.5769 26.7742 22.6822 28.7761 24.0922 29.685C24.4829 29.9368 24.7434 30.1048 24.7996 30.1463C25.1234 30.402 26.9369 31.5521 28.0378 31.2965C29.1388 31.0409 29.2683 29.5712 29.2683 29.5712C29.2683 29.5712 30.1103 24.3316 30.8875 19.5393C31.0315 18.5983 31.1754 17.6772 31.3096 16.8182C31.6585 14.5855 31.9417 12.7731 31.9885 12.1271C32.1828 9.95458 29.8512 10.8491 29.8512 10.8491C29.8512 10.8491 24.7996 12.8939 23.31 13.5328Z" fill="white"/>
</svg>
