<svg width="40" height="40" viewBox="0 0 40 40" fill="none" xmlns="http://www.w3.org/2000/svg">
<path fill-rule="evenodd" clip-rule="evenodd" d="M13.8667 0H26.1333C37.3333 0 40 2.66667 40 13.8667V26.1333C40 37.3333 37.3333 40 26.1333 40H13.8667C2.66667 40 0 37.3333 0 26.1333V13.8667C0 2.66667 2.66667 0 13.8667 0ZM32.7062 13.75C32.8963 13.1256 32.7062 12.6667 31.8019 12.6667H28.8116C28.0512 12.6667 27.7009 13.0631 27.5108 13.5004C27.5108 13.5004 25.99 17.1536 23.8357 19.5267C23.1388 20.2136 22.822 20.4321 22.4418 20.4321C22.2518 20.4321 21.9766 20.2136 21.9766 19.5892V13.75C21.9766 13.0006 21.756 12.6667 21.1223 12.6667H16.4233C15.9482 12.6667 15.6625 13.0145 15.6625 13.3441C15.6625 14.0547 16.7394 14.2185 16.8504 16.2168V20.5572C16.8504 21.5088 16.6762 21.6814 16.296 21.6814C15.2823 21.6814 12.8166 18.0115 11.3539 13.8126C11.0672 12.9964 10.7798 12.6667 10.0155 12.6667H7.02524C6.17087 12.6667 6 13.0631 6 13.5004C6 14.281 7.01392 18.153 10.7204 23.2738C13.1914 26.7709 16.6727 28.6667 19.8407 28.6667C21.7417 28.6667 21.9766 28.2456 21.9766 27.5204V24.8772C21.9766 24.0351 22.1567 23.8671 22.7586 23.8671C23.2022 23.8671 23.9624 24.0856 25.7367 25.7717C27.7641 27.7702 28.0982 28.6667 29.2388 28.6667H32.229C33.0834 28.6667 33.5106 28.2456 33.2641 27.4147C32.9946 26.5865 32.0266 25.3852 30.742 23.9608C30.0451 23.1488 28.9995 22.2745 28.683 21.8374C28.2394 21.2753 28.366 21.0254 28.683 20.5258C28.683 20.5258 32.326 15.4675 32.7062 13.75Z" fill="white"/>
</svg>
