<svg width="37" height="49" viewBox="0 0 37 49" fill="none" xmlns="http://www.w3.org/2000/svg">
<path d="M24.8184 38.0695V47.3731C24.8201 47.463 24.8343 47.5522 24.8604 47.6383C24.8664 47.6599 24.8736 47.6815 24.8808 47.7019C24.9063 47.7746 24.9405 47.8439 24.9828 47.9083L24.9936 47.9275C25.0416 47.9934 25.0976 48.0531 25.1604 48.1051C25.176 48.1183 25.1928 48.1303 25.2096 48.1423C25.2656 48.1843 25.3259 48.2201 25.3896 48.2491L25.422 48.2659C25.4508 48.2779 25.4832 48.2803 25.5132 48.2899H26.0724C26.1133 48.2795 26.1534 48.2663 26.1924 48.2503L26.244 48.2227C26.3252 48.1807 26.3999 48.1274 26.466 48.0643L36.0204 38.7643C36.1942 38.5971 36.2993 38.371 36.3151 38.1304C36.3308 37.8898 36.2561 37.6519 36.1056 37.4635C36.0156 37.3476 35.8999 37.2542 35.7677 37.1904C35.6355 37.1267 35.4903 37.0945 35.3436 37.0963H25.7904C25.5325 37.0966 25.2853 37.1993 25.103 37.3818C24.9208 37.5642 24.8184 37.8116 24.8184 38.0695Z" fill="white"/>
<path d="M31.8204 0.345093H4.4988C3.30564 0.345093 2.16136 0.819072 1.31767 1.66276C0.473979 2.50645 0 3.65074 0 4.84389V43.7983C0 44.3891 0.116364 44.9741 0.34245 45.5199C0.568536 46.0657 0.899916 46.5617 1.31767 46.9794C1.73542 47.3972 2.23136 47.7286 2.77718 47.9546C3.323 48.1807 3.90801 48.2971 4.4988 48.2971H21.9216C21.8489 47.9952 21.8115 47.686 21.81 47.3755V38.0671C21.8113 37.0118 22.231 36.0001 22.9772 35.2539C23.7234 34.5077 24.7351 34.088 25.7904 34.0867H35.3472C35.6757 34.09 36.0025 34.1335 36.3204 34.2163V4.84389C36.3204 4.253 36.204 3.6679 35.9778 3.122C35.7517 2.5761 35.4202 2.0801 35.0023 1.66234C34.5844 1.24457 34.0883 0.913215 33.5424 0.687199C32.9964 0.461184 32.4113 0.344935 31.8204 0.345093ZM6.3372 35.5915H16.2468C16.4444 35.5915 16.6401 35.6304 16.8227 35.706C17.0052 35.7817 17.1711 35.8925 17.3109 36.0322C17.4506 36.172 17.5614 36.3379 17.6371 36.5204C17.7127 36.703 17.7516 36.8987 17.7516 37.0963C17.7516 37.2939 17.7127 37.4896 17.6371 37.6722C17.5614 37.8547 17.4506 38.0206 17.3109 38.1603C17.1711 38.3001 17.0052 38.4109 16.8227 38.4865C16.6401 38.5622 16.4444 38.6011 16.2468 38.6011H6.3372C5.9381 38.6011 5.55535 38.4426 5.27315 38.1603C4.99094 37.8781 4.8324 37.4954 4.8324 37.0963C4.8324 36.6972 4.99094 36.3144 5.27315 36.0322C5.55535 35.75 5.9381 35.5915 6.3372 35.5915ZM16.2468 44.2255H6.3372C5.9381 44.2255 5.55535 44.067 5.27315 43.7847C4.99094 43.5025 4.8324 43.1198 4.8324 42.7207C4.8324 42.3216 4.99094 41.9388 5.27315 41.6566C5.55535 41.3744 5.9381 41.2159 6.3372 41.2159H16.2468C16.6459 41.2159 17.0286 41.3744 17.3109 41.6566C17.5931 41.9388 17.7516 42.3216 17.7516 42.7207C17.7516 43.1198 17.5931 43.5025 17.3109 43.7847C17.0286 44.067 16.6459 44.2255 16.2468 44.2255ZM23.58 26.1127C23.082 26.8474 22.3794 27.4198 21.5592 27.7591C20.9515 28.0127 20.3106 28.1779 19.656 28.2499L19.7136 30.7135H17.1936L17.2524 28.2223C16.7247 28.1333 16.2105 27.9772 15.7224 27.7579C14.896 27.3869 14.1441 26.8685 13.5036 26.2279C12.8807 25.6118 12.3813 24.8823 12.0324 24.0787L14.484 22.4203C14.7959 23.034 15.1716 23.6132 15.6048 24.1483C15.9625 24.5899 16.4084 24.952 16.914 25.2115C17.4234 25.4582 17.9837 25.5815 18.5496 25.5715C18.9765 25.5846 19.4014 25.509 19.7976 25.3495C20.112 25.2187 20.375 24.9886 20.5464 24.6943C20.7173 24.3671 20.8 24.0011 20.7864 23.6323C20.7947 23.3987 20.756 23.1658 20.6725 22.9475C20.589 22.7292 20.4624 22.5299 20.3004 22.3615C19.9277 21.9952 19.4924 21.6985 19.0152 21.4855C18.4856 21.2359 17.902 20.9959 17.2644 20.7655C16.8006 20.6003 16.3481 20.405 15.9096 20.1811C15.3961 19.922 14.9171 19.5995 14.484 19.2211C14.0248 18.8229 13.6482 18.3385 13.3752 17.7955C13.0727 17.1701 12.9245 16.4812 12.9432 15.7867C12.9398 15.0173 13.1857 14.2675 13.644 13.6495C14.1464 12.9743 14.8137 12.4392 15.582 12.0955C16.1129 11.8518 16.6764 11.6865 17.2548 11.6047L17.1936 8.98869H19.7136L19.6524 11.6119C20.1405 11.6808 20.6169 11.816 21.0684 12.0139C21.7598 12.3195 22.3832 12.7602 22.902 13.3099C23.3669 13.8029 23.7567 14.3617 24.0588 14.9683L21.5124 16.4851C21.2927 16.0553 21.0306 15.6484 20.73 15.2707C20.4591 14.9274 20.1261 14.638 19.7484 14.4175C19.3593 14.2017 18.92 14.0929 18.4752 14.1019C18.0668 14.0872 17.6602 14.1635 17.2848 14.3251C16.9991 14.4498 16.7587 14.6592 16.596 14.9251C16.4404 15.2028 16.3636 15.5177 16.374 15.8359C16.3663 16.0646 16.4094 16.2923 16.5 16.5024C16.5907 16.7126 16.7267 16.9001 16.8984 17.0515C17.3114 17.3991 17.7821 17.6716 18.2892 17.8567C18.8652 18.0823 19.4804 18.3199 20.1348 18.5695C20.656 18.7594 21.1599 18.9938 21.6408 19.2703C22.1285 19.5484 22.58 19.8857 22.9848 20.2747C23.3944 20.6696 23.7208 21.1425 23.9448 21.6655C24.1907 22.2692 24.3099 22.917 24.2952 23.5687C24.2936 24.5487 24.0552 25.3967 23.58 26.1127Z" fill="white"/>
</svg>
